0
SECTION
2
ENTITIES
0
3DFACE
8
0
10
-320.0
20
-240.0
30
-415.6922
11
-320.0
21
240.0
31
-415.6922
12
319.90253
22
240.0
32
-426.86172
13
319.90262
23
240.0001
33
-426.86163
0
3DFACE
8
0
10
319.90253
20
240.0
30
-426.86172
11
319.90253
21
-240.0
31
-426.86172
12
-320.0
22
-240.0
32
-415.6922
13
-319.9999
23
-239.9999
33
-415.6921
0
3DFACE
8
0
10
-309.00168
20
-233.0
30
-415.8842
11
-304.00244
21
-233.0
31
-415.97144
12
-304.00244
22
-224.0
32
-415.97144
13
-304.00235
23
-223.9999
33
-415.97134
0
3DFACE
8
0
10
-304.00244
20
-224.0
30
-415.97144
11
-309.00168
21
-224.0
31
-415.8842
12
-309.00168
22
-233.0
32
-415.8842
13
-309.0016
23
-232.9999
33
-415.8841
0
3DFACE
8
0
10
-302.00275
20
-231.0
30
-416.00635
11
-298.00336
21
-231.0
31
-416.07614
12
-298.00336
22
-224.0
32
-416.07614
13
-298.00327
23
-223.9999
33
-416.07605
0
3DFACE
8
0
10
-298.00336
20
-224.0
30
-416.07614
11
-302.00275
21
-224.0
31
-416.00635
12
-302.00275
22
-231.0
32
-416.00635
13
-302.00266
23
-230.9999
33
-416.00626
0
3DFACE
8
0
10
-297.0035
20
-231.0
30
-416.0936
11
-292.00427
21
-231.0
31
-416.18088
12
-292.00427
22
-224.0
32
-416.18088
13
-292.00418
23
-223.9999
33
-416.1808
0
3DFACE
8
0
10
-292.00427
20
-224.0
30
-416.18088
11
-297.0035
21
-224.0
31
-416.0936
12
-297.0035
22
-231.0
32
-416.0936
13
-297.00342
23
-230.9999
33
-416.0935
0
3DFACE
8
0
10
-290.00458
20
-231.0
30
-416.21576
11
-286.0052
21
-231.0
31
-416.28558
12
-286.0052
22
-224.0
32
-416.28558
13
-286.0051
23
-223.9999
33
-416.2855
0
3DFACE
8
0
10
-286.0052
20
-224.0
30
-416.28558
11
-290.00458
21
-224.0
31
-416.21576
12
-290.00458
22
-231.0
32
-416.21576
13
-290.0045
23
-230.9999
33
-416.21567
0
3DFACE
8
0
10
-284.0055
20
-231.0
30
-416.3205
11
-279.00626
21
-231.0
31
-416.40775
12
-279.00626
22
-224.0
32
-416.40775
13
-279.00616
23
-223.9999
33
-416.40765
0
3DFACE
8
0
10
-279.00626
20
-224.0
30
-416.40775
11
-284.0055
21
-224.0
31
-416.3205
12
-284.0055
22
-231.0
32
-416.3205
13
-284.0054
23
-230.9999
33
-416.3204
0
3DFACE
8
0
10
-277.00656
20
-231.0
30
-416.44266
11
-273.00714
21
-231.0
31
-416.51245
12
-273.00714
22
-224.0
32
-416.51245
13
-273.00705
23
-223.9999
33
-416.51236
0
3DFACE
8
0
10
-273.00714
20
-224.0
30
-416.51245
11
-277.00656
21
-224.0
31
-416.44266
12
-277.00656
22
-231.0
32
-416.44266
13
-277.00647
23
-230.9999
33
-416.44257
0
3DFACE
8
0
10
-271.00745
20
-231.0
30
-416.54736
11
-267.00806
21
-231.0
31
-416.6172
12
-267.00806
22
-224.0
32
-416.6172
13
-267.00797
23
-223.9999
33
-416.6171
0
3DFACE
8
0
10
-267.00806
20
-224.0
30
-416.6172
11
-271.00745
21
-224.0
31
-416.54736
12
-271.00745
22
-231.0
32
-416.54736
13
-271.00735
23
-230.9999
33
-416.54727
0
3DFACE
8
0
10
-265.00836
20
-233.0
30
-416.65207
11
-264.00854
21
-233.0
31
-416.66953
12
-264.00854
22
-224.0
32
-416.66953
13
-264.00845
23
-223.9999
33
-416.66943
0
3DFACE
8
0
10
-264.00854
20
-224.0
30
-416.66953
11
-265.00836
21
-224.0
31
-416.65207
12
-265.00836
22
-233.0
32
-416.65207
13
-265.00827
23
-232.9999
33
-416.65198
0
3DFACE
8
0
10
-262.00882
20
-231.0
30
-416.70444
11
-257.00958
21
-231.0
31
-416.7917
12
-257.00958
22
-224.0
32
-416.7917
13
-257.0095
23
-223.9999
33
-416.7916
0
3DFACE
8
0
10
-257.00958
20
-224.0
30
-416.7917
11
-262.00882
21
-224.0
31
-416.70444
12
-262.00882
22
-231.0
32
-416.70444
13
-262.00873
23
-230.9999
33
-416.70435
0
3DFACE
8
0
10
-255.00989
20
-231.0
30
-416.8266
11
-250.01065
21
-231.0
31
-416.91388
12
-250.01065
22
-222.0
32
-416.91388
13
-250.01054
23
-221.9999
33
-416.9138
0
3DFACE
8
0
10
-250.01065
20
-222.0
30
-416.91388
11
-255.00989
21
-222.0
31
-416.8266
12
-255.00989
22
-231.0
32
-416.8266
13
-255.00978
23
-230.9999
33
-416.8265
0
3DFACE
8
0
10
-261.00897
20
-248.0
30
-416.7219
11
-260.00912
21
-248.0
31
-416.73935
12
-260.00912
22
-247.0
32
-416.73935
13
-260.00903
23
-246.9999
33
-416.73926
0
3DFACE
8
0
10
-260.00912
20
-247.0
30
-416.73935
11
-261.00897
21
-247.0
31
-416.7219
12
-261.00897
22
-248.0
32
-416.7219
13
-261.00888
23
-247.9999
33
-416.7218
0
3DFACE
8
0
10
-244.01157
20
-233.0
30
-417.0186
11
-240.01218
21
-233.0
31
-417.08838
12
-240.01218
22
-224.0
32
-417.08838
13
-240.01207
23
-223.9999
33
-417.0883
0
3DFACE
8
0
10
-240.01218
20
-224.0
30
-417.08838
11
-244.01157
21
-224.0
31
-417.0186
12
-244.01157
22
-233.0
32
-417.0186
13
-244.01146
23
-232.9999
33
-417.0185
0
3DFACE
8
0
10
-238.01248
20
-233.0
30
-417.1233
11
-231.01355
21
-233.0
31
-417.24545
12
-231.01355
22
-224.0
32
-417.24545
13
-231.01344
23
-223.9999
33
-417.24536
0
3DFACE
8
0
10
-231.01355
20
-224.0
30
-417.24545
11
-238.01248
21
-224.0
31
-417.1233
12
-238.01248
22
-233.0
32
-417.1233
13
-238.01237
23
-232.9999
33
-417.1232
0
3DFACE
8
0
10
-230.0137
20
-231.0
30
-417.2629
11
-229.01385
21
-231.0
31
-417.28036
12
-229.01385
22
-224.0
32
-417.28036
13
-229.01375
23
-223.9999
33
-417.28027
0
3DFACE
8
0
10
-229.01385
20
-224.0
30
-417.28036
11
-230.0137
21
-224.0
31
-417.2629
12
-230.0137
22
-231.0
32
-417.2629
13
-230.0136
23
-230.9999
33
-417.26282
0
3DFACE
8
0
10
-239.01233
20
-248.0
30
-417.10583
11
-238.01248
21
-248.0
31
-417.1233
12
-238.01248
22
-247.0
32
-417.1233
13
-238.01237
23
-246.9999
33
-417.1232
0
3DFACE
8
0
10
-238.01248
20
-247.0
30
-417.1233
11
-239.01233
21
-247.0
31
-417.10583
12
-239.01233
22
-248.0
32
-417.10583
13
-239.01222
23
-247.9999
33
-417.10574
0
3DFACE
8
0
10
-222.01492
20
-233.0
30
-417.40253
11
-217.01569
21
-233.0
31
-417.4898
12
-217.01569
22
-224.0
32
-417.4898
13
-217.01558
23
-223.9999
33
-417.48972
0
3DFACE
8
0
10
-217.01569
20
-224.0
30
-417.4898
11
-222.01492
21
-224.0
31
-417.40253
12
-222.01492
22
-233.0
32
-417.40253
13
-222.01482
23
-232.9999
33
-417.40244
0
3DFACE
8
0
10
-214.01614
20
-233.0
30
-417.54214
11
-208.01706
21
-233.0
31
-417.64688
12
-208.01706
22
-224.0
32
-417.64688
13
-208.01695
23
-223.9999
33
-417.6468
0
3DFACE
8
0
10
-208.01706
20
-224.0
30
-417.64688
11
-214.01614
21
-224.0
31
-417.54214
12
-214.01614
22
-233.0
32
-417.54214
13
-214.01604
23
-232.9999
33
-417.54205
0
3DFACE
8
0
10
-310.00153
20
-219.0
30
-415.86673
11
-305.0023
21
-219.0
31
-415.95398
12
-305.0023
22
-210.0
32
-415.95398
13
-305.0022
23
-209.9999
33
-415.9539
0
3DFACE
8
0
10
-305.0023
20
-210.0
30
-415.95398
11
-310.00153
21
-210.0
31
-415.86673
12
-310.00153
22
-219.0
32
-415.86673
13
-310.00143
23
-218.9999
33
-415.86664
0
3DFACE
8
0
10
-303.0026
20
-217.0
30
-415.9889
11
-297.0035
21
-217.0
31
-416.0936
12
-297.0035
22
-210.0
32
-416.0936
13
-297.00342
23
-209.9999
33
-416.0935
0
3DFACE
8
0
10
-297.0035
20
-210.0
30
-416.0936
11
-303.0026
21
-210.0
31
-415.9889
12
-303.0026
22
-217.0
32
-415.9889
13
-303.0025
23
-216.9999
33
-415.9888
0
3DFACE
8
0
10
-296.00366
20
-217.0
30
-416.11105
11
-287.00504
21
-217.0
31
-416.26813
12
-287.00504
22
-210.0
32
-416.26813
13
-287.00494
23
-209.9999
33
-416.26804
0
3DFACE
8
0
10
-287.00504
20
-210.0
30
-416.26813
11
-296.00366
21
-210.0
31
-416.11105
12
-296.00366
22
-217.0
32
-416.11105
13
-296.00357
23
-216.9999
33
-416.11096
0
3DFACE
8
0
10
-285.00534
20
-217.0
30
-416.30304
11
-279.00626
21
-217.0
31
-416.40775
12
-279.00626
22
-208.0
32
-416.40775
13
-279.00616
23
-207.9999
33
-416.40765
0
3DFACE
8
0
10
-279.00626
20
-208.0
30
-416.40775
11
-285.00534
21
-208.0
31
-416.30304
12
-285.00534
22
-217.0
32
-416.30304
13
-285.00525
23
-216.9999
33
-416.30295
0
3DFACE
8
0
10
-277.00656
20
-219.0
30
-416.44266
11
-276.0067
21
-219.0
31
-416.4601
12
-276.0067
22
-210.0
32
-416.4601
13
-276.00662
23
-209.9999
33
-416.46002
0
3DFACE
8
0
10
-276.0067
20
-210.0
30
-416.4601
11
-277.00656
21
-210.0
31
-416.44266
12
-277.00656
22
-219.0
32
-416.44266
13
-277.00647
23
-218.9999
33
-416.44257
0
3DFACE
8
0
10
-274.00702
20
-217.0
30
-416.495
11
-269.00775
21
-217.0
31
-416.58228
12
-269.00775
22
-210.0
32
-416.58228
13
-269.00766
23
-209.9999
33
-416.58218
0
3DFACE
8
0
10
-269.00775
20
-210.0
30
-416.58228
11
-274.00702
21
-210.0
31
-416.495
12
-274.00702
22
-217.0
32
-416.495
13
-274.00693
23
-216.9999
33
-416.4949
0
3DFACE
8
0
10
-267.00806
20
-217.0
30
-416.6172
11
-263.00867
21
-217.0
31
-416.68698
12
-263.00867
22
-210.0
32
-416.68698
13
-263.00858
23
-209.9999
33
-416.6869
0
3DFACE
8
0
10
-263.00867
20
-210.0
30
-416.68698
11
-267.00806
21
-210.0
31
-416.6172
12
-267.00806
22
-217.0
32
-416.6172
13
-267.00797
23
-216.9999
33
-416.6171
0
3DFACE
8
0
10
-261.00897
20
-217.0
30
-416.7219
11
-260.00912
21
-217.0
31
-416.73935
12
-260.00912
22
-210.0
32
-416.73935
13
-260.00903
23
-209.9999
33
-416.73926
0
3DFACE
8
0
10
-260.00912
20
-210.0
30
-416.73935
11
-261.00897
21
-210.0
31
-416.7219
12
-261.00897
22
-217.0
32
-416.7219
13
-261.00888
23
-216.9999
33
-416.7218
0
3DFACE
8
0
10
-270.00763
20
-234.0
30
-416.56482
11
-269.00775
21
-234.0
31
-416.58228
12
-269.00775
22
-233.0
32
-416.58228
13
-269.00766
23
-232.9999
33
-416.58218
0
3DFACE
8
0
10
-269.00775
20
-233.0
30
-416.58228
11
-270.00763
21
-233.0
31
-416.56482
12
-270.00763
22
-234.0
32
-416.56482
13
-270.00754
23
-233.9999
33
-416.56473
0
3DFACE
8
0
10
-252.01035
20
-219.0
30
-416.87897
11
-247.01111
21
-219.0
31
-416.96622
12
-247.01111
22
-210.0
32
-416.96622
13
-247.011
23
-209.9999
33
-416.96613
0
3DFACE
8
0
10
-247.01111
20
-210.0
30
-416.96622
11
-252.01035
21
-210.0
31
-416.87897
12
-252.01035
22
-219.0
32
-416.87897
13
-252.01024
23
-218.9999
33
-416.87888
0
3DFACE
8
0
10
-245.01141
20
-219.0
30
-417.00113
11
-239.01233
21
-219.0
31
-417.10583
12
-239.01233
22
-210.0
32
-417.10583
13
-239.01222
23
-209.9999
33
-417.10574
0
3DFACE
8
0
10
-239.01233
20
-210.0
30
-417.10583
11
-245.01141
21
-210.0
31
-417.00113
12
-245.01141
22
-219.0
32
-417.00113
13
-245.0113
23
-218.9999
33
-417.00104
0
3DFACE
8
0
10
-237.01263
20
-219.0
30
-417.14075
11
-231.01355
21
-219.0
31
-417.24545
12
-231.01355
22
-210.0
32
-417.24545
13
-231.01344
23
-209.9999
33
-417.24536
0
3DFACE
8
0
10
-231.01355
20
-210.0
30
-417.24545
11
-237.01263
21
-210.0
31
-417.14075
12
-237.01263
22
-219.0
32
-417.14075
13
-237.01253
23
-218.9999
33
-417.14066
0
3DFACE
8
0
10
-310.00153
20
-205.0
30
-415.86673
11
-305.0023
21
-205.0
31
-415.95398
12
-305.0023
22
-196.0
32
-415.95398
13
-305.0022
23
-195.9999
33
-415.9539
0
3DFACE
8
0
10
-305.0023
20
-196.0
30
-415.95398
11
-310.00153
21
-196.0
31
-415.86673
12
-310.00153
22
-205.0
32
-415.86673
13
-310.00143
23
-204.9999
33
-415.86664
0
3DFACE
8
0
10
-303.0026
20
-203.0
30
-415.9889
11
-297.0035
21
-203.0
31
-416.0936
12
-297.0035
22
-196.0
32
-416.0936
13
-297.00342
23
-195.9999
33
-416.0935
0
3DFACE
8
0
10
-297.0035
20
-196.0
30
-416.0936
11
-303.0026
21
-196.0
31
-415.9889
12
-303.0026
22
-203.0
32
-415.9889
13
-303.0025
23
-202.9999
33
-415.9888
0
3DFACE
8
0
10
-296.00366
20
-203.0
30
-416.11105
11
-287.00504
21
-203.0
31
-416.26813
12
-287.00504
22
-196.0
32
-416.26813
13
-287.00494
23
-195.9999
33
-416.26804
0
3DFACE
8
0
10
-287.00504
20
-196.0
30
-416.26813
11
-296.00366
21
-196.0
31
-416.11105
12
-296.00366
22
-203.0
32
-416.11105
13
-296.00357
23
-202.9999
33
-416.11096
0
3DFACE
8
0
10
-285.00534
20
-203.0
30
-416.30304
11
-279.00626
21
-203.0
31
-416.40775
12
-279.00626
22
-194.0
32
-416.40775
13
-279.00616
23
-193.9999
33
-416.40765
0
3DFACE
8
0
10
-279.00626
20
-194.0
30
-416.40775
11
-285.00534
21
-194.0
31
-416.30304
12
-285.00534
22
-203.0
32
-416.30304
13
-285.00525
23
-202.9999
33
-416.30295
0
3DFACE
8
0
10
-277.00656
20
-205.0
30
-416.44266
11
-276.0067
21
-205.0
31
-416.4601
12
-276.0067
22
-196.0
32
-416.4601
13
-276.00662
23
-195.9999
33
-416.46002
0
3DFACE
8
0
10
-276.0067
20
-196.0
30
-416.4601
11
-277.00656
21
-196.0
31
-416.44266
12
-277.00656
22
-205.0
32
-416.44266
13
-277.00647
23
-204.9999
33
-416.44257
0
3DFACE
8
0
10
-274.00702
20
-205.0
30
-416.495
11
-273.00714
21
-205.0
31
-416.51245
12
-273.00714
22
-196.0
32
-416.51245
13
-273.00705
23
-195.9999
33
-416.51236
0
3DFACE
8
0
10
-273.00714
20
-196.0
30
-416.51245
11
-274.00702
21
-196.0
31
-416.495
12
-274.00702
22
-205.0
32
-416.495
13
-274.00693
23
-204.9999
33
-416.4949
0
3DFACE
8
0
10
-271.00745
20
-203.0
30
-416.54736
11
-266.00824
21
-203.0
31
-416.63464
12
-266.00824
22
-196.0
32
-416.63464
13
-266.00815
23
-195.9999
33
-416.63455
0
3DFACE
8
0
10
-266.00824
20
-196.0
30
-416.63464
11
-271.00745
21
-196.0
31
-416.54736
12
-271.00745
22
-203.0
32
-416.54736
13
-271.00735
23
-202.9999
33
-416.54727
0
3DFACE
8
0
10
-264.00854
20
-203.0
30
-416.66953
11
-259.00928
21
-203.0
31
-416.7568
12
-259.00928
22
-194.0
32
-416.7568
13
-259.0092
23
-193.9999
33
-416.7567
0
3DFACE
8
0
10
-259.00928
20
-194.0
30
-416.7568
11
-264.00854
21
-194.0
31
-416.66953
12
-264.00854
22
-203.0
32
-416.66953
13
-264.00845
23
-202.9999
33
-416.66943
0
3DFACE
8
0
10
-257.00958
20
-203.0
30
-416.7917
11
-256.00974
21
-203.0
31
-416.80914
12
-256.00974
22
-196.0
32
-416.80914
13
-256.00964
23
-195.9999
33
-416.80905
0
3DFACE
8
0
10
-256.00974
20
-196.0
30
-416.80914
11
-257.00958
21
-196.0
31
-416.7917
12
-257.00958
22
-203.0
32
-416.7917
13
-257.0095
23
-202.9999
33
-416.7916
0
3DFACE
8
0
10
-266.00824
20
-220.0
30
-416.63464
11
-265.00836
21
-220.0
31
-416.65207
12
-265.00836
22
-219.0
32
-416.65207
13
-265.00827
23
-218.9999
33
-416.65198
0
3DFACE
8
0
10
-265.00836
20
-219.0
30
-416.65207
11
-266.00824
21
-219.0
31
-416.63464
12
-266.00824
22
-220.0
32
-416.63464
13
-266.00815
23
-219.9999
33
-416.63455
0
3DFACE
8
0
10
-250.01065
20
-205.0
30
-416.91388
11
-246.01126
21
-205.0
31
-416.98367
12
-246.01126
22
-196.0
32
-416.98367
13
-246.01115
23
-195.9999
33
-416.98358
0
3DFACE
8
0
10
-246.01126
20
-196.0
30
-416.98367
11
-250.01065
21
-196.0
31
-416.91388
12
-250.01065
22
-205.0
32
-416.91388
13
-250.01054
23
-204.9999
33
-416.9138
0
3DFACE
8
0
10
-245.01141
20
-203.0
30
-417.00113
11
-239.01233
21
-203.0
31
-417.10583
12
-239.01233
22
-196.0
32
-417.10583
13
-239.01222
23
-195.9999
33
-417.10574
0
3DFACE
8
0
10
-239.01233
20
-196.0
30
-417.10583
11
-245.01141
21
-196.0
31
-417.00113
12
-245.01141
22
-203.0
32
-417.00113
13
-245.0113
23
-202.9999
33
-417.00104
0
3DFACE
8
0
10
-238.01248
20
-205.0
30
-417.1233
11
-237.01263
21
-205.0
31
-417.14075
12
-237.01263
22
-196.0
32
-417.14075
13
-237.01253
23
-195.9999
33
-417.14066
0
3DFACE
8
0
10
-237.01263
20
-196.0
30
-417.14075
11
-238.01248
21
-196.0
31
-417.1233
12
-238.01248
22
-205.0
32
-417.1233
13
-238.01237
23
-204.9999
33
-417.1232
0
3DFACE
8
0
10
-235.01294
20
-203.0
30
-417.17566
11
-231.01355
21
-203.0
31
-417.24545
12
-231.01355
22
-196.0
32
-417.24545
13
-231.01344
23
-195.9999
33
-417.24536
0
3DFACE
8
0
10
-231.01355
20
-196.0
30
-417.24545
11
-235.01294
21
-196.0
31
-417.17566
12
-235.01294
22
-203.0
32
-417.17566
13
-235.01283
23
-202.9999
33
-417.17557
0
3DFACE
8
0
10
-229.01385
20
-203.0
30
-417.28036
11
-224.01462
21
-203.0
31
-417.36765
12
-224.01462
22
-196.0
32
-417.36765
13
-224.01451
23
-195.9999
33
-417.36755
0
3DFACE
8
0
10
-224.01462
20
-196.0
30
-417.36765
11
-229.01385
21
-196.0
31
-417.28036
12
-229.01385
22
-203.0
32
-417.28036
13
-229.01375
23
-202.9999
33
-417.28027
0
3DFACE
8
0
10
7.1247253
20
210.0
30
-411.40067
11
17.1232
21
210.0
31
-411.5752
12
16.63385
22
213.09018
32
-411.56665
13
16.63395
23
213.09029
33
-411.56656
0
3DFACE
8
0
10
7.1247253
20
210.0
30
-411.40067
11
16.63385
21
213.09018
31
-411.56665
12
15.213684
22
215.87784
32
-411.54187
13
15.213784
23
215.87794
33
-411.54178
0
3DFACE
8
0
10
7.1247253
20
210.0
30
-411.40067
11
15.213684
21
215.87784
31
-411.54187
12
13.001678
22
218.09018
32
-411.50323
13
13.001779
23
218.09029
33
-411.50314
0
3DFACE
8
0
10
7.1247253
20
210.0
30
-411.40067
11
13.001678
21
218.09018
31
-411.50323
12
10.214447
22
219.51056
32
-411.4546
13
10.214547
23
219.51067
33
-411.4545
0
3DFACE
8
0
10
7.1247253
20
210.0
30
-411.40067
11
10.214447
21
219.51056
31
-411.4546
12
7.1247253
22
220.0
32
-411.40067
13
7.1248255
23
220.0001
33
-411.40057
0
3DFACE
8
0
10
7.1247253
20
210.0
30
-411.40067
11
7.1247253
21
220.0
31
-411.40067
12
4.035034
22
219.51056
32
-411.34674
13
4.0351343
23
219.51067
33
-411.34665
0
3DFACE
8
0
10
7.1247253
20
210.0
30
-411.40067
11
4.035034
21
219.51056
31
-411.34674
12
1.2478027
22
218.09018
32
-411.29807
13
1.2479028
23
218.09029
33
-411.29797
0
3DFACE
8
0
10
7.1247253
20
210.0
30
-411.40067
11
1.2478027
21
218.09018
31
-411.29807
12
-0.9642029
22
215.87784
32
-411.25946
13
-0.96410286
23
215.87794
33
-411.25937
0
3DFACE
8
0
10
7.1247253
20
210.0
30
-411.40067
11
-0.9642029
21
215.87784
31
-411.25946
12
-2.384369
22
213.09018
32
-411.23468
13
-2.384269
23
213.09029
33
-411.2346
0
3DFACE
8
0
10
7.1247253
20
210.0
30
-411.40067
11
-2.384369
21
213.09018
31
-411.23468
12
-2.8737488
22
210.0
32
-411.22614
13
-2.873649
23
210.0001
33
-411.22604
0
3DFACE
8
0
10
7.1247253
20
210.0
30
-411.40067
11
-2.8737488
21
210.0
31
-411.22614
12
-2.384369
22
206.90982
32
-411.23468
13
-2.384269
23
206.90993
33
-411.2346
0
3DFACE
8
0
10
7.1247253
20
210.0
30
-411.40067
11
-2.384369
21
206.90982
31
-411.23468
12
-0.9642029
22
204.12216
32
-411.25946
13
-0.96410286
23
204.12227
33
-411.25937
0
3DFACE
8
0
10
7.1247253
20
210.0
30
-411.40067
11
-0.9642029
21
204.12216
31
-411.25946
12
1.2477722
22
201.90982
32
-411.29807
13
1.2478722
23
201.90993
33
-411.29797
0
3DFACE
8
0
10
7.1247253
20
210.0
30
-411.40067
11
1.2477722
21
201.90982
31
-411.29807
12
4.035034
22
200.48944
32
-411.34674
13
4.0351343
23
200.48955
33
-411.34665
0
3DFACE
8
0
10
7.1247253
20
210.0
30
-411.40067
11
4.035034
21
200.48944
31
-411.34674
12
7.1247253
22
200.0
32
-411.40067
13
7.1248255
23
200.0001
33
-411.40057
0
3DFACE
8
0
10
7.1247253
20
210.0
30
-411.40067
11
7.1247253
21
200.0
31
-411.40067
12
10.214447
22
200.48944
32
-411.4546
13
10.214547
23
200.48955
33
-411.4545
0
3DFACE
8
0
10
7.1247253
20
210.0
30
-411.40067
11
10.214447
21
200.48944
31
-411.4546
12
13.001678
22
201.90982
32
-411.50323
13
13.001779
23
201.90993
33
-411.50314
0
3DFACE
8
0
10
7.1247253
20
210.0
30
-411.40067
11
13.001678
21
201.90982
31
-411.50323
12
15.213684
22
204.12216
32
-411.54187
13
15.213784
23
204.12227
33
-411.54178
0
3DFACE
8
0
10
7.1247253
20
210.0
30
-411.40067
11
15.213684
21
204.12216
31
-411.54187
12
16.63385
22
206.90982
32
-411.56665
13
16.63395
23
206.90993
33
-411.56656
0
3DFACE
8
0
10
7.1247253
20
210.0
30
-411.40067
11
16.63385
21
206.90982
31
-411.56665
12
17.1232
22
210.0
32
-411.5752
13
17.123299
23
210.0001
33
-411.5751
0
LINE
8
0
10
17.1232
20
210.0
30
-411.5752
11
16.63385
21
213.09018
31
-411.56665
0
LINE
8
0
10
16.63385
20
213.09018
30
-411.56665
11
15.213684
21
215.87784
31
-411.54187
0
LINE
8
0
10
15.213684
20
215.87784
30
-411.54187
11
13.001678
21
218.09018
31
-411.50323
0
LINE
8
0
10
13.001678
20
218.09018
30
-411.50323
11
10.214447
21
219.51056
31
-411.4546
0
LINE
8
0
10
10.214447
20
219.51056
30
-411.4546
11
7.1247253
21
220.0
31
-411.40067
0
LINE
8
0
10
7.1247253
20
220.0
30
-411.40067
11
4.035034
21
219.51056
31
-411.34674
0
LINE
8
0
10
4.035034
20
219.51056
30
-411.34674
11
1.2478027
21
218.09018
31
-411.29807
0
LINE
8
0
10
1.2478027
20
218.09018
30
-411.29807
11
-0.9642029
21
215.87784
31
-411.25946
0
LINE
8
0
10
-0.9642029
20
215.87784
30
-411.25946
11
-2.384369
21
213.09018
31
-411.23468
0
LINE
8
0
10
-2.384369
20
213.09018
30
-411.23468
11
-2.8737488
21
210.0
31
-411.22614
0
LINE
8
0
10
-2.8737488
20
210.0
30
-411.22614
11
-2.384369
21
206.90982
31
-411.23468
0
LINE
8
0
10
-2.384369
20
206.90982
30
-411.23468
11
-0.9642029
21
204.12216
31
-411.25946
0
LINE
8
0
10
-0.9642029
20
204.12216
30
-411.25946
11
1.2477722
21
201.90982
31
-411.29807
0
LINE
8
0
10
1.2477722
20
201.90982
30
-411.29807
11
4.035034
21
200.48944
31
-411.34674
0
LINE
8
0
10
4.035034
20
200.48944
30
-411.34674
11
7.1247253
21
200.0
31
-411.40067
0
LINE
8
0
10
7.1247253
20
200.0
30
-411.40067
11
10.214447
21
200.48944
31
-411.4546
0
LINE
8
0
10
10.214447
20
200.48944
30
-411.4546
11
13.001678
21
201.90982
31
-411.50323
0
LINE
8
0
10
13.001678
20
201.90982
30
-411.50323
11
15.213684
21
204.12216
31
-411.54187
0
LINE
8
0
10
15.213684
20
204.12216
30
-411.54187
11
16.63385
21
206.90982
31
-411.56665
0
LINE
8
0
10
16.63385
20
206.90982
30
-411.56665
11
17.1232
21
210.0
31
-411.5752
0
LINE
8
0
10
94.48251
20
14.0
30
-47.869873
11
89.39603
21
12.0
31
-52.78186
0
LINE
8
0
10
89.39603
20
12.0
30
-52.78186
11
85.30939
21
15.0
31
-57.711304
0
LINE
8
0
10
85.30939
20
15.0
30
-57.711304
11
91.39572
21
16.0
31
-52.816772
0
LINE
8
0
10
91.39572
20
16.0
30
-52.816772
11
95.48236
21
13.0
31
-47.88733
0
LINE
8
0
10
95.48236
20
13.0
30
-47.88733
11
99.56903
21
10.0
31
-42.957916
0
LINE
8
0
10
99.56903
20
10.0
30
-42.957916
11
104.48099
21
12.0
31
-48.044403
0
LINE
8
0
10
104.48099
20
12.0
30
-48.044403
11
109.567505
21
13.0
31
-43.132416
0
LINE
8
0
10
109.567505
20
13.0
30
-43.132416
11
114.74127
21
16.0
31
-33.221222
0
LINE
8
0
10
114.74127
20
16.0
30
-33.221222
11
120.74036
21
26.0
31
-33.325928
0
LINE
8
0
10
120.74036
20
26.0
30
-33.325928
11
124.739746
21
32.0
31
-33.395752
0
LINE
8
0
10
124.739746
20
32.0
30
-33.395752
11
125.65231
21
40.0
31
-38.412445
0
LINE
8
0
10
125.65231
20
40.0
30
-38.412445
11
126.47763
21
48.0
31
-48.428345
0
LINE
8
0
10
126.47763
20
48.0
30
-48.428345
11
124.390686
21
56.0
31
-53.3927
0
LINE
8
0
10
124.390686
20
56.0
30
-53.3927
11
121.21661
21
66.0
31
-63.338837
0
LINE
8
0
10
121.21661
20
66.0
30
-63.338837
11
118.04254
21
75.0
31
-73.28494
0
LINE
8
0
10
118.04254
20
75.0
30
-73.28494
11
111.86896
21
84.0
31
-83.17871
0
LINE
8
0
10
111.86896
20
84.0
30
-83.17871
11
107.69504
21
91.0
31
-93.10739
0
LINE
8
0
10
107.69504
20
91.0
30
-93.10739
11
100.521576
21
96.0
31
-102.98367
0
LINE
8
0
10
100.521576
20
96.0
30
-102.98367
11
92.34827
21
103.0
31
-112.84253
0
LINE
8
0
10
92.34827
20
103.0
30
-112.84253
11
87.1745
21
104.0
31
-122.75375
0
LINE
8
0
10
87.1745
20
104.0
30
-122.75375
11
79.00122
21
104.0
31
-132.61261
0
LINE
8
0
10
79.00122
20
104.0
30
-132.61261
11
71.74048
21
101.0
31
-147.48816
0
LINE
8
0
10
71.74048
20
101.0
30
-147.48816
11
64.56705
21
98.0
31
-157.36447
0
LINE
8
0
10
64.56705
20
98.0
30
-157.36447
11
55.39389
21
92.0
31
-167.20587
0
LINE
8
0
10
55.39389
20
92.0
30
-167.20587
11
48.22043
21
84.0
31
-177.08218
0
LINE
8
0
10
48.22043
20
84.0
30
-177.08218
11
42.134064
21
77.0
31
-181.97672
0
LINE
8
0
10
42.134064
20
77.0
30
-181.97672
11
37.960144
21
70.0
31
-191.90538
0
LINE
8
0
10
37.960144
20
70.0
30
-191.90538
11
31.87378
21
61.0
31
-196.79991
0
LINE
8
0
10
31.87378
20
61.0
30
-196.79991
11
28.699707
21
52.0
31
-206.74603
0
LINE
8
0
10
28.699707
20
52.0
30
-206.74603
11
25.612915
21
42.0
31
-211.6929
0
LINE
8
0
10
25.612915
20
42.0
30
-211.6929
11
23.52597
21
31.0
31
-216.65724
0
LINE
8
0
10
23.52597
20
31.0
30
-216.65724
11
23.43869
21
19.0
31
-221.65648
0
LINE
8
0
10
23.43869
20
19.0
30
-221.65648
11
24.351288
21
7.0
31
-226.67316
0
LINE
8
0
10
24.351288
20
7.0
30
-226.67316
11
26.350983
21
-4.0
31
-226.70807
0
LINE
8
0
10
26.350983
20
-4.0
30
-226.70807
11
29.263245
21
-16.0
31
-231.75966
0
LINE
8
0
10
29.263245
20
-16.0
30
-231.75966
11
35.26233
21
-25.0
31
-231.86438
0
LINE
8
0
10
35.26233
20
-25.0
30
-231.86438
11
42.26129
21
-34.0
31
-231.98654
0
LINE
8
0
10
42.26129
20
-34.0
30
-231.98654
11
49.172974
21
-42.0
31
-237.10796
0
LINE
8
0
10
49.172974
20
-42.0
30
-237.10796
11
58.1716
21
-47.0
31
-237.26503
0
LINE
8
0
10
58.1716
20
-47.0
30
-237.26503
11
69.25717
21
-53.0
31
-232.45776
0
LINE
8
0
10
69.25717
20
-53.0
30
-232.45776
11
80.25549
21
-55.0
31
-232.64973
0
LINE
8
0
10
80.25549
20
-55.0
30
-232.64973
11
93.34079
21
-59.0
31
-227.87738
0
LINE
8
0
10
93.34079
20
-59.0
30
-227.87738
11
105.33896
21
-59.0
31
-228.0868
0
LINE
8
0
10
105.33896
20
-59.0
30
-228.0868
11
120.42392
21
-59.0
31
-223.34937
0
LINE
8
0
10
120.42392
20
-59.0
30
-223.34937
11
135.50891
21
-58.0
31
-218.61191
0
LINE
8
0
10
135.50891
20
-58.0
30
-218.61191
11
149.59406
21
-54.0
31
-213.85701
0
LINE
8
0
10
149.59406
20
-54.0
30
-213.85701
11
161.67947
21
-49.0
31
-209.0672
0
LINE
8
0
10
161.67947
20
-49.0
30
-209.0672
11
173.67764
21
-43.0
31
-209.27663
0
LINE
8
0
10
173.67764
20
-43.0
30
-209.27663
11
185.76309
21
-36.0
31
-204.48682
0
LINE
8
0
10
185.76309
20
-36.0
30
-204.48682
11
195.76157
21
-27.0
31
-204.66135
0
LINE
8
0
10
195.76157
20
-27.0
30
-204.66135
11
206.84714
21
-18.0
31
-199.85408
0
LINE
8
0
10
206.84714
20
-18.0
30
-199.85408
11
212.84622
21
-9.0
31
-199.9588
0
LINE
8
0
10
212.84622
20
-9.0
30
-199.9588
11
220.845
21
2.0
31
-200.09842
0
LINE
8
0
10
220.845
20
2.0
30
-200.09842
11
226.84409
21
12.0
31
-200.20312
0
LINE
8
0
10
226.84409
20
12.0
30
-200.20312
11
230.84348
21
23.0
31
-200.27293
0
LINE
8
0
10
230.84348
20
23.0
30
-200.27293
11
232.84317
21
35.0
31
-200.30785
0
LINE
8
0
10
232.84317
20
35.0
30
-200.30785
11
234.84286
21
46.0
31
-200.34274
0
LINE
8
0
10
234.84286
20
46.0
30
-200.34274
11
234.84286
21
57.0
31
-200.34274
0
LINE
8
0
10
234.84286
20
57.0
30
-200.34274
11
234.75558
21
68.0
31
-205.34198
0
LINE
8
0
10
234.75558
20
68.0
30
-205.34198
11
238.75497
21
79.0
31
-205.41179
0
LINE
8
0
10
238.75497
20
79.0
30
-205.41179
11
232.66867
21
89.0
31
-210.30632
0
LINE
8
0
10
232.66867
20
89.0
30
-210.30632
11
229.58188
21
100.0
31
-215.25319
0
LINE
8
0
10
229.58188
20
100.0
30
-215.25319
11
227.58218
21
110.0
31
-215.21829
0
LINE
8
0
10
227.58218
20
110.0
30
-215.21829
11
221.49582
21
119.0
31
-220.11281
0
LINE
8
0
10
221.49582
20
119.0
30
-220.11281
11
216.40933
21
129.0
31
-225.0248
0
LINE
8
0
10
216.40933
20
129.0
30
-225.0248
11
210.32297
21
137.0
31
-229.91931
0
LINE
8
0
10
210.32297
20
137.0
30
-229.91931
11
203.23679
21
143.0
31
-234.79639
0
LINE
8
0
10
203.23679
20
143.0
30
-234.79639
11
195.06345
21
147.0
31
-244.65526
0
LINE
8
0
10
195.06345
20
147.0
30
-244.65526
11
191.97665
21
155.0
31
-249.60213
0
LINE
8
0
10
191.97665
20
155.0
30
-249.60213
11
178.89139
21
152.0
31
-254.37448
0
LINE
8
0
10
178.89139
20
152.0
30
-254.37448
11
169.71823
21
152.0
31
-264.21588
0
LINE
8
0
10
169.71823
20
152.0
30
-264.21588
11
162.63205
21
151.0
31
-269.09296
0
LINE
8
0
10
162.63205
20
151.0
30
-269.09296
11
152.45905
21
148.0
31
-278.9169
0
LINE
8
0
10
152.45905
20
148.0
30
-278.9169
11
144.37299
21
144.0
31
-283.77652
0
LINE
8
0
10
144.37299
20
144.0
30
-283.77652
11
137.28677
21
138.0
31
-288.6536
0
LINE
8
0
10
137.28677
20
138.0
30
-288.6536
11
128.11362
21
134.0
31
-298.49503
0
LINE
8
0
10
128.11362
20
134.0
30
-298.49503
11
121.027435
21
129.0
31
-303.37207
0
LINE
8
0
10
121.027435
20
129.0
30
-303.37207
11
116.853516
21
123.0
31
-313.30075
0
LINE
8
0
10
116.853516
20
123.0
30
-313.30075
11
111.76703
21
117.0
31
-318.2127
0
LINE
8
0
10
111.76703
20
117.0
30
-318.2127
11
108.68021
21
110.0
31
-323.1596
0
LINE
8
0
10
108.68021
20
110.0
30
-323.1596
11
106.59326
21
103.0
31
-328.12396
0
LINE
8
0
10
106.59326
20
103.0
30
-328.12396
11
105.506134
21
96.0
31
-333.1057
0
LINE
8
0
10
105.506134
20
96.0
30
-333.1057
11
105.418884
21
90.0
31
-338.10498
0
LINE
8
0
10
105.418884
20
90.0
30
-338.10498
11
105.331635
21
82.0
31
-343.1042
0
LINE
8
0
10
105.331635
20
82.0
30
-343.1042
11
107.24405
21
76.0
31
-348.13834
0
LINE
8
0
10
107.24405
20
76.0
30
-348.13834
11
109.156494
21
69.0
31
-353.1725
0
LINE
8
0
10
109.156494
20
69.0
30
-353.1725
11
112.15604
21
63.0
31
-353.22485
0
LINE
8
0
10
112.15604
20
63.0
30
-353.22485
11
115.0683
21
55.0
31
-358.27646
0
LINE
8
0
10
115.0683
20
55.0
30
-358.27646
11
120.067535
21
49.0
31
-358.3637
0
LINE
8
0
10
120.067535
20
49.0
30
-358.3637
11
123.979675
21
43.0
31
-363.43274
0
LINE
8
0
10
123.979675
20
43.0
30
-363.43274
11
128.97891
21
37.0
31
-363.52002
0
LINE
8
0
10
128.97891
20
37.0
30
-363.52002
11
133.97815
21
31.0
31
-363.60727
0
LINE
8
0
10
133.97815
20
31.0
30
-363.60727
11
139.97723
21
25.0
31
-363.712
0
LINE
8
0
10
139.97723
20
25.0
30
-363.712
11
147.97604
21
20.0
31
-363.85162
0
LINE
8
0
10
147.97604
20
20.0
30
-363.85162
11
154.97498
21
16.0
31
-363.9738
0
LINE
8
0
10
154.97498
20
16.0
30
-363.9738
11
162.97375
21
12.0
31
-364.1134
0
LINE
8
0
10
162.97375
20
12.0
30
-364.1134
11
172.05963
21
8.0
31
-359.27124
0
LINE
8
0
10
172.05963
20
8.0
30
-359.27124
11
180.05841
21
6.0
31
-359.41086
0
LINE
8
0
10
180.05841
20
6.0
30
-359.41086
11
187.05734
21
4.0
31
-359.53302
0
LINE
8
0
10
187.05734
20
4.0
30
-359.53302
11
197.05588
21
3.0
31
-359.70755
0
LINE
8
0
10
197.05588
20
3.0
30
-359.70755
11
205.05466
21
3.0
31
-359.84717
0
LINE
8
0
10
205.05466
20
3.0
30
-359.84717
11
215.14035
21
4.0
31
-355.02246
0
LINE
8
0
10
215.14035
20
4.0
30
-355.02246
11
225.2261
21
7.0
31
-350.19772
0
LINE
8
0
10
225.2261
20
7.0
30
-350.19772
11
233.22488
21
11.0
31
-350.33734
0
LINE
8
0
10
233.22488
20
11.0
30
-350.33734
11
243.22336
21
15.0
31
-350.51187
0
LINE
8
0
10
243.22336
20
15.0
30
-350.51187
11
249.30972
21
20.0
31
-345.61734
0
LINE
8
0
10
249.30972
20
20.0
30
-345.61734
11
256.30862
21
25.0
31
-345.7395
0
LINE
8
0
10
256.30862
20
25.0
30
-345.7395
11
264.3074
21
31.0
31
-345.87915
0
LINE
8
0
10
264.3074
20
31.0
30
-345.87915
11
268.3068
21
38.0
31
-345.94894
0
LINE
8
0
10
268.3068
20
38.0
30
-345.94894
11
274.30588
21
46.0
31
-346.05365
0
LINE
8
0
10
274.30588
20
46.0
30
-346.05365
11
279.39243
21
54.0
31
-341.1417
0
LINE
8
0
10
279.39243
20
54.0
30
-341.1417
11
282.39194
21
62.0
31
-341.19403
0
LINE
8
0
10
282.39194
20
62.0
30
-341.19403
11
284.39163
21
69.0
31
-341.22894
0
LINE
8
0
10
284.39163
20
69.0
30
-341.22894
11
285.30423
21
76.0
31
-346.24564
0
LINE
8
0
10
285.30423
20
76.0
30
-346.24564
11
286.30405
21
84.0
31
-346.2631
0
LINE
8
0
10
286.30405
20
84.0
30
-346.2631
11
287.30392
21
92.0
31
-346.28055
0
LINE
8
0
10
287.30392
20
92.0
30
-346.28055
11
286.30405
21
99.0
31
-346.2631
0
LINE
8
0
10
286.30405
20
99.0
30
-346.2631
11
286.30405
21
106.0
31
-346.2631
0
LINE
8
0
10
286.30405
20
106.0
30
-346.2631
11
285.30423
21
113.0
31
-346.24564
0
LINE
8
0
10
285.30423
20
113.0
30
-346.24564
11
285.21695
21
120.0
31
-351.24487
0
LINE
8
0
10
285.21695
20
120.0
30
-351.24487
11
282.21738
21
126.0
31
-351.1925
0
LINE
8
0
10
282.21738
20
126.0
30
-351.1925
11
279.21786
21
132.0
31
-351.14017
0
LINE
8
0
10
279.21786
20
132.0
30
-351.14017
11
277.21817
21
138.0
31
-351.10526
0
LINE
8
0
10
277.21817
20
138.0
30
-351.10526
11
271.1318
21
142.0
31
-355.9998
0
LINE
8
0
10
271.1318
20
142.0
30
-355.9998
11
267.13242
21
147.0
31
-355.92996
0
LINE
8
0
10
267.13242
20
147.0
30
-355.92996
11
262.04593
21
151.0
31
-360.84195
0
LINE
8
0
10
262.04593
20
151.0
30
-360.84195
11
249.96048
21
156.0
31
-365.63177
0
LINE
8
0
10
249.96048
20
156.0
30
-365.63177
11
241.9617
21
158.0
31
-365.49213
0
LINE
8
0
10
241.9617
20
158.0
30
-365.49213
11
235.87534
21
158.0
31
-370.38666
0
LINE
8
0
10
235.87534
20
158.0
30
-370.38666
11
236.9625
21
164.0
31
-365.40488
0
LINE
8
0
10
236.9625
20
164.0
30
-365.40488
11
219.79056
21
159.0
31
-375.10666
0
LINE
8
0
10
219.79056
20
159.0
30
-375.10666
11
209.7048
21
158.0
31
-379.93137
0
LINE
8
0
10
209.7048
20
158.0
30
-379.93137
11
203.70572
21
157.0
31
-379.82666
0
LINE
8
0
10
203.70572
20
157.0
30
-379.82666
11
195.61966
21
155.0
31
-384.68628
0
LINE
8
0
10
195.61966
20
155.0
30
-384.68628
11
188.62073
21
152.0
31
-384.56412
0
LINE
8
0
10
188.62073
20
152.0
30
-384.56412
11
182.5344
21
150.0
31
-389.45865
0
LINE
8
0
10
182.5344
20
150.0
30
-389.45865
11
176.53531
21
147.0
31
-389.3539
0
LINE
8
0
10
176.53531
20
147.0
30
-389.3539
11
171.44882
21
143.0
31
-394.2659
0
LINE
8
0
10
171.44882
20
143.0
30
-394.2659
11
164.44989
21
139.0
31
-394.14374
0
LINE
8
0
10
164.44989
20
139.0
30
-394.14374
11
159.36337
21
136.0
31
-399.05573
0
LINE
8
0
10
159.36337
20
136.0
30
-399.05573
11
154.36414
21
132.0
31
-398.96844
0
LINE
8
0
10
154.36414
20
132.0
30
-398.96844
11
149.3649
21
128.0
31
-398.8812
0
LINE
8
0
10
149.3649
20
128.0
30
-398.8812
11
145.27826
21
122.0
31
-403.8106
0
LINE
8
0
10
145.27826
20
122.0
30
-403.8106
11
141.27887
21
117.0
31
-403.7408
0
LINE
8
0
10
141.27887
20
117.0
30
-403.7408
11
138.19202
21
111.0
31
-408.68768
0
LINE
8
0
10
138.19202
20
111.0
30
-408.68768
11
136.19232
21
104.0
31
-408.65277
0
LINE
8
0
10
136.19232
20
104.0
30
-408.65277
11
134.10538
21
97.0
31
-413.61713
0
LINE
8
0
10
134.10538
20
97.0
30
-413.61713
11
132.10568
21
91.0
31
-413.5822
0
ENDSEC
0
EOF
