0
SECTION
2
ENTITIES
0
3DFACE
8
0
10
-320.0
20
-240.0
30
-415.6922
11
-320.0
21
240.0
31
-415.6922
12
320.0
22
240.0
32
-415.6922
13
320.0001
23
240.0001
33
-415.6921
0
3DFACE
8
0
10
320.0
20
240.0
30
-415.6922
11
320.0
21
-240.0
31
-415.6922
12
-320.0
22
-240.0
32
-415.6922
13
-319.9999
23
-239.9999
33
-415.6921
0
3DFACE
8
0
10
-309.0
20
-233.0
30
-415.6922
11
-304.0
21
-233.0
31
-415.6922
12
-304.0
22
-224.0
32
-415.6922
13
-303.9999
23
-223.9999
33
-415.6921
0
3DFACE
8
0
10
-304.0
20
-224.0
30
-415.6922
11
-309.0
21
-224.0
31
-415.6922
12
-309.0
22
-233.0
32
-415.6922
13
-308.9999
23
-232.9999
33
-415.6921
0
3DFACE
8
0
10
-302.0
20
-231.0
30
-415.6922
11
-298.0
21
-231.0
31
-415.6922
12
-298.0
22
-224.0
32
-415.6922
13
-297.9999
23
-223.9999
33
-415.6921
0
3DFACE
8
0
10
-298.0
20
-224.0
30
-415.6922
11
-302.0
21
-224.0
31
-415.6922
12
-302.0
22
-231.0
32
-415.6922
13
-301.9999
23
-230.9999
33
-415.6921
0
3DFACE
8
0
10
-297.0
20
-231.0
30
-415.6922
11
-292.0
21
-231.0
31
-415.6922
12
-292.0
22
-224.0
32
-415.6922
13
-291.9999
23
-223.9999
33
-415.6921
0
3DFACE
8
0
10
-292.0
20
-224.0
30
-415.6922
11
-297.0
21
-224.0
31
-415.6922
12
-297.0
22
-231.0
32
-415.6922
13
-296.9999
23
-230.9999
33
-415.6921
0
3DFACE
8
0
10
-290.0
20
-231.0
30
-415.6922
11
-286.0
21
-231.0
31
-415.6922
12
-286.0
22
-224.0
32
-415.6922
13
-285.9999
23
-223.9999
33
-415.6921
0
3DFACE
8
0
10
-286.0
20
-224.0
30
-415.6922
11
-290.0
21
-224.0
31
-415.6922
12
-290.0
22
-231.0
32
-415.6922
13
-289.9999
23
-230.9999
33
-415.6921
0
3DFACE
8
0
10
-284.0
20
-231.0
30
-415.6922
11
-279.0
21
-231.0
31
-415.6922
12
-279.0
22
-224.0
32
-415.6922
13
-278.9999
23
-223.9999
33
-415.6921
0
3DFACE
8
0
10
-279.0
20
-224.0
30
-415.6922
11
-284.0
21
-224.0
31
-415.6922
12
-284.0
22
-231.0
32
-415.6922
13
-283.9999
23
-230.9999
33
-415.6921
0
3DFACE
8
0
10
-277.0
20
-231.0
30
-415.6922
11
-273.0
21
-231.0
31
-415.6922
12
-273.0
22
-224.0
32
-415.6922
13
-272.9999
23
-223.9999
33
-415.6921
0
3DFACE
8
0
10
-273.0
20
-224.0
30
-415.6922
11
-277.0
21
-224.0
31
-415.6922
12
-277.0
22
-231.0
32
-415.6922
13
-276.9999
23
-230.9999
33
-415.6921
0
3DFACE
8
0
10
-271.0
20
-231.0
30
-415.6922
11
-267.0
21
-231.0
31
-415.6922
12
-267.0
22
-224.0
32
-415.6922
13
-266.9999
23
-223.9999
33
-415.6921
0
3DFACE
8
0
10
-267.0
20
-224.0
30
-415.6922
11
-271.0
21
-224.0
31
-415.6922
12
-271.0
22
-231.0
32
-415.6922
13
-270.9999
23
-230.9999
33
-415.6921
0
3DFACE
8
0
10
-265.0
20
-233.0
30
-415.6922
11
-264.0
21
-233.0
31
-415.6922
12
-264.0
22
-224.0
32
-415.6922
13
-263.9999
23
-223.9999
33
-415.6921
0
3DFACE
8
0
10
-264.0
20
-224.0
30
-415.6922
11
-265.0
21
-224.0
31
-415.6922
12
-265.0
22
-233.0
32
-415.6922
13
-264.9999
23
-232.9999
33
-415.6921
0
3DFACE
8
0
10
-262.0
20
-231.0
30
-415.6922
11
-257.0
21
-231.0
31
-415.6922
12
-257.0
22
-224.0
32
-415.6922
13
-256.9999
23
-223.9999
33
-415.6921
0
3DFACE
8
0
10
-257.0
20
-224.0
30
-415.6922
11
-262.0
21
-224.0
31
-415.6922
12
-262.0
22
-231.0
32
-415.6922
13
-261.9999
23
-230.9999
33
-415.6921
0
3DFACE
8
0
10
-255.0
20
-231.0
30
-415.6922
11
-250.0
21
-231.0
31
-415.6922
12
-250.0
22
-222.0
32
-415.6922
13
-249.9999
23
-221.9999
33
-415.6921
0
3DFACE
8
0
10
-250.0
20
-222.0
30
-415.6922
11
-255.0
21
-222.0
31
-415.6922
12
-255.0
22
-231.0
32
-415.6922
13
-254.9999
23
-230.9999
33
-415.6921
0
3DFACE
8
0
10
-261.0
20
-248.0
30
-415.6922
11
-260.0
21
-248.0
31
-415.6922
12
-260.0
22
-247.0
32
-415.6922
13
-259.9999
23
-246.9999
33
-415.6921
0
3DFACE
8
0
10
-260.0
20
-247.0
30
-415.6922
11
-261.0
21
-247.0
31
-415.6922
12
-261.0
22
-248.0
32
-415.6922
13
-260.9999
23
-247.9999
33
-415.6921
0
3DFACE
8
0
10
-244.0
20
-233.0
30
-415.6922
11
-240.0
21
-233.0
31
-415.6922
12
-240.0
22
-224.0
32
-415.6922
13
-239.9999
23
-223.9999
33
-415.6921
0
3DFACE
8
0
10
-240.0
20
-224.0
30
-415.6922
11
-244.0
21
-224.0
31
-415.6922
12
-244.0
22
-233.0
32
-415.6922
13
-243.9999
23
-232.9999
33
-415.6921
0
3DFACE
8
0
10
-238.0
20
-233.0
30
-415.6922
11
-231.0
21
-233.0
31
-415.6922
12
-231.0
22
-224.0
32
-415.6922
13
-230.9999
23
-223.9999
33
-415.6921
0
3DFACE
8
0
10
-231.0
20
-224.0
30
-415.6922
11
-238.0
21
-224.0
31
-415.6922
12
-238.0
22
-233.0
32
-415.6922
13
-237.9999
23
-232.9999
33
-415.6921
0
3DFACE
8
0
10
-230.0
20
-231.0
30
-415.6922
11
-229.0
21
-231.0
31
-415.6922
12
-229.0
22
-224.0
32
-415.6922
13
-228.9999
23
-223.9999
33
-415.6921
0
3DFACE
8
0
10
-229.0
20
-224.0
30
-415.6922
11
-230.0
21
-224.0
31
-415.6922
12
-230.0
22
-231.0
32
-415.6922
13
-229.9999
23
-230.9999
33
-415.6921
0
3DFACE
8
0
10
-239.0
20
-248.0
30
-415.6922
11
-238.0
21
-248.0
31
-415.6922
12
-238.0
22
-247.0
32
-415.6922
13
-237.9999
23
-246.9999
33
-415.6921
0
3DFACE
8
0
10
-238.0
20
-247.0
30
-415.6922
11
-239.0
21
-247.0
31
-415.6922
12
-239.0
22
-248.0
32
-415.6922
13
-238.9999
23
-247.9999
33
-415.6921
0
3DFACE
8
0
10
-222.0
20
-233.0
30
-415.6922
11
-217.0
21
-233.0
31
-415.6922
12
-217.0
22
-224.0
32
-415.6922
13
-216.9999
23
-223.9999
33
-415.6921
0
3DFACE
8
0
10
-217.0
20
-224.0
30
-415.6922
11
-222.0
21
-224.0
31
-415.6922
12
-222.0
22
-233.0
32
-415.6922
13
-221.9999
23
-232.9999
33
-415.6921
0
3DFACE
8
0
10
-214.0
20
-233.0
30
-415.6922
11
-208.0
21
-233.0
31
-415.6922
12
-208.0
22
-224.0
32
-415.6922
13
-207.9999
23
-223.9999
33
-415.6921
0
3DFACE
8
0
10
-208.0
20
-224.0
30
-415.6922
11
-214.0
21
-224.0
31
-415.6922
12
-214.0
22
-233.0
32
-415.6922
13
-213.9999
23
-232.9999
33
-415.6921
0
3DFACE
8
0
10
-310.0
20
-219.0
30
-415.6922
11
-305.0
21
-219.0
31
-415.6922
12
-305.0
22
-210.0
32
-415.6922
13
-304.9999
23
-209.9999
33
-415.6921
0
3DFACE
8
0
10
-305.0
20
-210.0
30
-415.6922
11
-310.0
21
-210.0
31
-415.6922
12
-310.0
22
-219.0
32
-415.6922
13
-309.9999
23
-218.9999
33
-415.6921
0
3DFACE
8
0
10
-303.0
20
-217.0
30
-415.6922
11
-297.0
21
-217.0
31
-415.6922
12
-297.0
22
-210.0
32
-415.6922
13
-296.9999
23
-209.9999
33
-415.6921
0
3DFACE
8
0
10
-297.0
20
-210.0
30
-415.6922
11
-303.0
21
-210.0
31
-415.6922
12
-303.0
22
-217.0
32
-415.6922
13
-302.9999
23
-216.9999
33
-415.6921
0
3DFACE
8
0
10
-296.0
20
-217.0
30
-415.6922
11
-287.0
21
-217.0
31
-415.6922
12
-287.0
22
-210.0
32
-415.6922
13
-286.9999
23
-209.9999
33
-415.6921
0
3DFACE
8
0
10
-287.0
20
-210.0
30
-415.6922
11
-296.0
21
-210.0
31
-415.6922
12
-296.0
22
-217.0
32
-415.6922
13
-295.9999
23
-216.9999
33
-415.6921
0
3DFACE
8
0
10
-285.0
20
-217.0
30
-415.6922
11
-279.0
21
-217.0
31
-415.6922
12
-279.0
22
-208.0
32
-415.6922
13
-278.9999
23
-207.9999
33
-415.6921
0
3DFACE
8
0
10
-279.0
20
-208.0
30
-415.6922
11
-285.0
21
-208.0
31
-415.6922
12
-285.0
22
-217.0
32
-415.6922
13
-284.9999
23
-216.9999
33
-415.6921
0
3DFACE
8
0
10
-277.0
20
-219.0
30
-415.6922
11
-276.0
21
-219.0
31
-415.6922
12
-276.0
22
-210.0
32
-415.6922
13
-275.9999
23
-209.9999
33
-415.6921
0
3DFACE
8
0
10
-276.0
20
-210.0
30
-415.6922
11
-277.0
21
-210.0
31
-415.6922
12
-277.0
22
-219.0
32
-415.6922
13
-276.9999
23
-218.9999
33
-415.6921
0
3DFACE
8
0
10
-274.0
20
-217.0
30
-415.6922
11
-269.0
21
-217.0
31
-415.6922
12
-269.0
22
-210.0
32
-415.6922
13
-268.9999
23
-209.9999
33
-415.6921
0
3DFACE
8
0
10
-269.0
20
-210.0
30
-415.6922
11
-274.0
21
-210.0
31
-415.6922
12
-274.0
22
-217.0
32
-415.6922
13
-273.9999
23
-216.9999
33
-415.6921
0
3DFACE
8
0
10
-267.0
20
-217.0
30
-415.6922
11
-263.0
21
-217.0
31
-415.6922
12
-263.0
22
-210.0
32
-415.6922
13
-262.9999
23
-209.9999
33
-415.6921
0
3DFACE
8
0
10
-263.0
20
-210.0
30
-415.6922
11
-267.0
21
-210.0
31
-415.6922
12
-267.0
22
-217.0
32
-415.6922
13
-266.9999
23
-216.9999
33
-415.6921
0
3DFACE
8
0
10
-261.0
20
-217.0
30
-415.6922
11
-260.0
21
-217.0
31
-415.6922
12
-260.0
22
-210.0
32
-415.6922
13
-259.9999
23
-209.9999
33
-415.6921
0
3DFACE
8
0
10
-260.0
20
-210.0
30
-415.6922
11
-261.0
21
-210.0
31
-415.6922
12
-261.0
22
-217.0
32
-415.6922
13
-260.9999
23
-216.9999
33
-415.6921
0
3DFACE
8
0
10
-270.0
20
-234.0
30
-415.6922
11
-269.0
21
-234.0
31
-415.6922
12
-269.0
22
-233.0
32
-415.6922
13
-268.9999
23
-232.9999
33
-415.6921
0
3DFACE
8
0
10
-269.0
20
-233.0
30
-415.6922
11
-270.0
21
-233.0
31
-415.6922
12
-270.0
22
-234.0
32
-415.6922
13
-269.9999
23
-233.9999
33
-415.6921
0
3DFACE
8
0
10
-252.0
20
-219.0
30
-415.6922
11
-247.0
21
-219.0
31
-415.6922
12
-247.0
22
-210.0
32
-415.6922
13
-246.9999
23
-209.9999
33
-415.6921
0
3DFACE
8
0
10
-247.0
20
-210.0
30
-415.6922
11
-252.0
21
-210.0
31
-415.6922
12
-252.0
22
-219.0
32
-415.6922
13
-251.9999
23
-218.9999
33
-415.6921
0
3DFACE
8
0
10
-245.0
20
-219.0
30
-415.6922
11
-239.0
21
-219.0
31
-415.6922
12
-239.0
22
-210.0
32
-415.6922
13
-238.9999
23
-209.9999
33
-415.6921
0
3DFACE
8
0
10
-239.0
20
-210.0
30
-415.6922
11
-245.0
21
-210.0
31
-415.6922
12
-245.0
22
-219.0
32
-415.6922
13
-244.9999
23
-218.9999
33
-415.6921
0
3DFACE
8
0
10
-237.0
20
-219.0
30
-415.6922
11
-231.0
21
-219.0
31
-415.6922
12
-231.0
22
-210.0
32
-415.6922
13
-230.9999
23
-209.9999
33
-415.6921
0
3DFACE
8
0
10
-231.0
20
-210.0
30
-415.6922
11
-237.0
21
-210.0
31
-415.6922
12
-237.0
22
-219.0
32
-415.6922
13
-236.9999
23
-218.9999
33
-415.6921
0
3DFACE
8
0
10
-310.0
20
-205.0
30
-415.6922
11
-305.0
21
-205.0
31
-415.6922
12
-305.0
22
-196.0
32
-415.6922
13
-304.9999
23
-195.9999
33
-415.6921
0
3DFACE
8
0
10
-305.0
20
-196.0
30
-415.6922
11
-310.0
21
-196.0
31
-415.6922
12
-310.0
22
-205.0
32
-415.6922
13
-309.9999
23
-204.9999
33
-415.6921
0
3DFACE
8
0
10
-303.0
20
-203.0
30
-415.6922
11
-297.0
21
-203.0
31
-415.6922
12
-297.0
22
-196.0
32
-415.6922
13
-296.9999
23
-195.9999
33
-415.6921
0
3DFACE
8
0
10
-297.0
20
-196.0
30
-415.6922
11
-303.0
21
-196.0
31
-415.6922
12
-303.0
22
-203.0
32
-415.6922
13
-302.9999
23
-202.9999
33
-415.6921
0
3DFACE
8
0
10
-296.0
20
-203.0
30
-415.6922
11
-287.0
21
-203.0
31
-415.6922
12
-287.0
22
-196.0
32
-415.6922
13
-286.9999
23
-195.9999
33
-415.6921
0
3DFACE
8
0
10
-287.0
20
-196.0
30
-415.6922
11
-296.0
21
-196.0
31
-415.6922
12
-296.0
22
-203.0
32
-415.6922
13
-295.9999
23
-202.9999
33
-415.6921
0
3DFACE
8
0
10
-285.0
20
-203.0
30
-415.6922
11
-279.0
21
-203.0
31
-415.6922
12
-279.0
22
-194.0
32
-415.6922
13
-278.9999
23
-193.9999
33
-415.6921
0
3DFACE
8
0
10
-279.0
20
-194.0
30
-415.6922
11
-285.0
21
-194.0
31
-415.6922
12
-285.0
22
-203.0
32
-415.6922
13
-284.9999
23
-202.9999
33
-415.6921
0
3DFACE
8
0
10
-277.0
20
-205.0
30
-415.6922
11
-276.0
21
-205.0
31
-415.6922
12
-276.0
22
-196.0
32
-415.6922
13
-275.9999
23
-195.9999
33
-415.6921
0
3DFACE
8
0
10
-276.0
20
-196.0
30
-415.6922
11
-277.0
21
-196.0
31
-415.6922
12
-277.0
22
-205.0
32
-415.6922
13
-276.9999
23
-204.9999
33
-415.6921
0
3DFACE
8
0
10
-274.0
20
-205.0
30
-415.6922
11
-273.0
21
-205.0
31
-415.6922
12
-273.0
22
-196.0
32
-415.6922
13
-272.9999
23
-195.9999
33
-415.6921
0
3DFACE
8
0
10
-273.0
20
-196.0
30
-415.6922
11
-274.0
21
-196.0
31
-415.6922
12
-274.0
22
-205.0
32
-415.6922
13
-273.9999
23
-204.9999
33
-415.6921
0
3DFACE
8
0
10
-271.0
20
-203.0
30
-415.6922
11
-266.0
21
-203.0
31
-415.6922
12
-266.0
22
-196.0
32
-415.6922
13
-265.9999
23
-195.9999
33
-415.6921
0
3DFACE
8
0
10
-266.0
20
-196.0
30
-415.6922
11
-271.0
21
-196.0
31
-415.6922
12
-271.0
22
-203.0
32
-415.6922
13
-270.9999
23
-202.9999
33
-415.6921
0
3DFACE
8
0
10
-264.0
20
-203.0
30
-415.6922
11
-259.0
21
-203.0
31
-415.6922
12
-259.0
22
-194.0
32
-415.6922
13
-258.9999
23
-193.9999
33
-415.6921
0
3DFACE
8
0
10
-259.0
20
-194.0
30
-415.6922
11
-264.0
21
-194.0
31
-415.6922
12
-264.0
22
-203.0
32
-415.6922
13
-263.9999
23
-202.9999
33
-415.6921
0
3DFACE
8
0
10
-257.0
20
-203.0
30
-415.6922
11
-256.0
21
-203.0
31
-415.6922
12
-256.0
22
-196.0
32
-415.6922
13
-255.9999
23
-195.9999
33
-415.6921
0
3DFACE
8
0
10
-256.0
20
-196.0
30
-415.6922
11
-257.0
21
-196.0
31
-415.6922
12
-257.0
22
-203.0
32
-415.6922
13
-256.9999
23
-202.9999
33
-415.6921
0
3DFACE
8
0
10
-266.0
20
-220.0
30
-415.6922
11
-265.0
21
-220.0
31
-415.6922
12
-265.0
22
-219.0
32
-415.6922
13
-264.9999
23
-218.9999
33
-415.6921
0
3DFACE
8
0
10
-265.0
20
-219.0
30
-415.6922
11
-266.0
21
-219.0
31
-415.6922
12
-266.0
22
-220.0
32
-415.6922
13
-265.9999
23
-219.9999
33
-415.6921
0
3DFACE
8
0
10
-250.0
20
-204.0
30
-415.6922
11
-247.0
21
-204.0
31
-415.6922
12
-247.0
22
-196.0
32
-415.6922
13
-246.9999
23
-195.9999
33
-415.6921
0
3DFACE
8
0
10
-247.0
20
-196.0
30
-415.6922
11
-250.0
21
-196.0
31
-415.6922
12
-250.0
22
-204.0
32
-415.6922
13
-249.9999
23
-203.9999
33
-415.6921
0
3DFACE
8
0
10
-245.0
20
-203.0
30
-415.6922
11
-241.0
21
-203.0
31
-415.6922
12
-241.0
22
-196.0
32
-415.6922
13
-240.9999
23
-195.9999
33
-415.6921
0
3DFACE
8
0
10
-241.0
20
-196.0
30
-415.6922
11
-245.0
21
-196.0
31
-415.6922
12
-245.0
22
-203.0
32
-415.6922
13
-244.9999
23
-202.9999
33
-415.6921
0
3DFACE
8
0
10
-240.0
20
-203.0
30
-415.6922
11
-235.0
21
-203.0
31
-415.6922
12
-235.0
22
-196.0
32
-415.6922
13
-234.9999
23
-195.9999
33
-415.6921
0
3DFACE
8
0
10
-235.0
20
-196.0
30
-415.6922
11
-240.0
21
-196.0
31
-415.6922
12
-240.0
22
-203.0
32
-415.6922
13
-239.9999
23
-202.9999
33
-415.6921
0
3DFACE
8
0
10
-233.0
20
-203.0
30
-415.6922
11
-228.0
21
-203.0
31
-415.6922
12
-228.0
22
-196.0
32
-415.6922
13
-227.9999
23
-195.9999
33
-415.6921
0
3DFACE
8
0
10
-228.0
20
-196.0
30
-415.6922
11
-233.0
21
-196.0
31
-415.6922
12
-233.0
22
-203.0
32
-415.6922
13
-232.9999
23
-202.9999
33
-415.6921
0
3DFACE
8
0
10
32.0
20
-70.0
30
-405.6922
11
42.0
21
-70.0
31
-405.6922
12
41.51056
22
-66.909836
32
-405.6922
13
41.51066
23
-66.90974
33
-405.6921
0
3DFACE
8
0
10
32.0
20
-70.0
30
-405.6922
11
41.51056
21
-66.909836
31
-405.6922
12
40.09018
22
-64.12215
32
-405.6922
13
40.09028
23
-64.12205
33
-405.6921
0
3DFACE
8
0
10
32.0
20
-70.0
30
-405.6922
11
40.09018
21
-64.12215
31
-405.6922
12
37.87784
22
-61.909836
32
-405.6922
13
37.877937
23
-61.909737
33
-405.6921
0
3DFACE
8
0
10
32.0
20
-70.0
30
-405.6922
11
37.87784
21
-61.909836
31
-405.6922
12
35.09018
22
-60.48944
32
-405.6922
13
35.09028
23
-60.48934
33
-405.6921
0
3DFACE
8
0
10
32.0
20
-70.0
30
-405.6922
11
35.09018
21
-60.48944
31
-405.6922
12
32.0
22
-60.0
32
-405.6922
13
32.0001
23
-59.9999
33
-405.6921
0
3DFACE
8
0
10
32.0
20
-70.0
30
-405.6922
11
32.0
21
-60.0
31
-405.6922
12
28.90982
22
-60.48944
32
-405.6922
13
28.90992
23
-60.48934
33
-405.6921
0
3DFACE
8
0
10
32.0
20
-70.0
30
-405.6922
11
28.90982
21
-60.48944
31
-405.6922
12
26.122162
22
-61.909836
32
-405.6922
13
26.122261
23
-61.909737
33
-405.6921
0
3DFACE
8
0
10
32.0
20
-70.0
30
-405.6922
11
26.122162
21
-61.909836
31
-405.6922
12
23.90982
22
-64.12215
32
-405.6922
13
23.90992
23
-64.12205
33
-405.6921
0
3DFACE
8
0
10
32.0
20
-70.0
30
-405.6922
11
23.90982
21
-64.12215
31
-405.6922
12
22.48944
22
-66.909836
32
-405.6922
13
22.48954
23
-66.90974
33
-405.6921
0
3DFACE
8
0
10
32.0
20
-70.0
30
-405.6922
11
22.48944
21
-66.909836
31
-405.6922
12
22.0
22
-70.0
32
-405.6922
13
22.0001
23
-69.9999
33
-405.6921
0
3DFACE
8
0
10
32.0
20
-70.0
30
-405.6922
11
22.0
21
-70.0
31
-405.6922
12
22.48944
22
-73.090164
32
-405.6922
13
22.48954
23
-73.090065
33
-405.6921
0
3DFACE
8
0
10
32.0
20
-70.0
30
-405.6922
11
22.48944
21
-73.090164
31
-405.6922
12
23.90982
22
-75.87785
32
-405.6922
13
23.90992
23
-75.877754
33
-405.6921
0
3DFACE
8
0
10
32.0
20
-70.0
30
-405.6922
11
23.90982
21
-75.87785
31
-405.6922
12
26.122131
22
-78.090164
32
-405.6922
13
26.12223
23
-78.090065
33
-405.6921
0
3DFACE
8
0
10
32.0
20
-70.0
30
-405.6922
11
26.122131
21
-78.090164
31
-405.6922
12
28.90982
22
-79.51056
32
-405.6922
13
28.90992
23
-79.51046
33
-405.6921
0
3DFACE
8
0
10
32.0
20
-70.0
30
-405.6922
11
28.90982
21
-79.51056
31
-405.6922
12
32.0
22
-80.0
32
-405.6922
13
32.0001
23
-79.9999
33
-405.6921
0
3DFACE
8
0
10
32.0
20
-70.0
30
-405.6922
11
32.0
21
-80.0
31
-405.6922
12
35.09018
22
-79.51056
32
-405.6922
13
35.09028
23
-79.51046
33
-405.6921
0
3DFACE
8
0
10
32.0
20
-70.0
30
-405.6922
11
35.09018
21
-79.51056
31
-405.6922
12
37.87784
22
-78.090164
32
-405.6922
13
37.877937
23
-78.090065
33
-405.6921
0
3DFACE
8
0
10
32.0
20
-70.0
30
-405.6922
11
37.87784
21
-78.090164
31
-405.6922
12
40.09018
22
-75.87785
32
-405.6922
13
40.09028
23
-75.877754
33
-405.6921
0
3DFACE
8
0
10
32.0
20
-70.0
30
-405.6922
11
40.09018
21
-75.87785
31
-405.6922
12
41.51056
22
-73.090164
32
-405.6922
13
41.51066
23
-73.090065
33
-405.6921
0
3DFACE
8
0
10
32.0
20
-70.0
30
-405.6922
11
41.51056
21
-73.090164
31
-405.6922
12
42.0
22
-70.0
32
-405.6922
13
42.0001
23
-69.9999
33
-405.6921
0
LINE
8
0
10
42.0
20
-70.0
30
-405.6922
11
41.51056
21
-66.909836
31
-405.6922
0
LINE
8
0
10
41.51056
20
-66.909836
30
-405.6922
11
40.09018
21
-64.12215
31
-405.6922
0
LINE
8
0
10
40.09018
20
-64.12215
30
-405.6922
11
37.87784
21
-61.909836
31
-405.6922
0
LINE
8
0
10
37.87784
20
-61.909836
30
-405.6922
11
35.09018
21
-60.48944
31
-405.6922
0
LINE
8
0
10
35.09018
20
-60.48944
30
-405.6922
11
32.0
21
-60.0
31
-405.6922
0
LINE
8
0
10
32.0
20
-60.0
30
-405.6922
11
28.90982
21
-60.48944
31
-405.6922
0
LINE
8
0
10
28.90982
20
-60.48944
30
-405.6922
11
26.122162
21
-61.909836
31
-405.6922
0
LINE
8
0
10
26.122162
20
-61.909836
30
-405.6922
11
23.90982
21
-64.12215
31
-405.6922
0
LINE
8
0
10
23.90982
20
-64.12215
30
-405.6922
11
22.48944
21
-66.909836
31
-405.6922
0
LINE
8
0
10
22.48944
20
-66.909836
30
-405.6922
11
22.0
21
-70.0
31
-405.6922
0
LINE
8
0
10
22.0
20
-70.0
30
-405.6922
11
22.48944
21
-73.090164
31
-405.6922
0
LINE
8
0
10
22.48944
20
-73.090164
30
-405.6922
11
23.90982
21
-75.87785
31
-405.6922
0
LINE
8
0
10
23.90982
20
-75.87785
30
-405.6922
11
26.122131
21
-78.090164
31
-405.6922
0
LINE
8
0
10
26.122131
20
-78.090164
30
-405.6922
11
28.90982
21
-79.51056
31
-405.6922
0
LINE
8
0
10
28.90982
20
-79.51056
30
-405.6922
11
32.0
21
-80.0
31
-405.6922
0
LINE
8
0
10
32.0
20
-80.0
30
-405.6922
11
35.09018
21
-79.51056
31
-405.6922
0
LINE
8
0
10
35.09018
20
-79.51056
30
-405.6922
11
37.87784
21
-78.090164
31
-405.6922
0
LINE
8
0
10
37.87784
20
-78.090164
30
-405.6922
11
40.09018
21
-75.87785
31
-405.6922
0
LINE
8
0
10
40.09018
20
-75.87785
30
-405.6922
11
41.51056
21
-73.090164
31
-405.6922
0
LINE
8
0
10
41.51056
20
-73.090164
30
-405.6922
11
42.0
21
-70.0
31
-405.6922
0
LINE
8
0
10
160.0
20
-36.0
30
-296.6922
11
163.0
21
-31.0
31
-297.6922
0
LINE
8
0
10
163.0
20
-31.0
30
-297.6922
11
162.0
21
-20.0
31
-298.6922
0
LINE
8
0
10
162.0
20
-20.0
30
-298.6922
11
161.0
21
-13.0
31
-299.6922
0
LINE
8
0
10
161.0
20
-13.0
30
-299.6922
11
159.0
21
-4.0
31
-300.6922
0
LINE
8
0
10
159.0
20
-4.0
30
-300.6922
11
155.0
21
4.0
31
-301.6922
0
LINE
8
0
10
155.0
20
4.0
30
-301.6922
11
152.0
21
13.0
31
-301.6922
0
LINE
8
0
10
152.0
20
13.0
30
-301.6922
11
147.0
21
21.0
31
-302.6922
0
LINE
8
0
10
147.0
20
21.0
30
-302.6922
11
142.0
21
30.0
31
-303.6922
0
LINE
8
0
10
142.0
20
30.0
30
-303.6922
11
137.0
21
37.0
31
-303.6922
0
LINE
8
0
10
137.0
20
37.0
30
-303.6922
11
129.0
21
45.0
31
-303.6922
0
LINE
8
0
10
129.0
20
45.0
30
-303.6922
11
121.0
21
50.0
31
-304.6922
0
LINE
8
0
10
121.0
20
50.0
30
-304.6922
11
113.0
21
54.0
31
-304.6922
0
LINE
8
0
10
113.0
20
54.0
30
-304.6922
11
104.0
21
58.0
31
-304.6922
0
LINE
8
0
10
104.0
20
58.0
30
-304.6922
11
95.0
21
60.0
31
-304.6922
0
LINE
8
0
10
95.0
20
60.0
30
-304.6922
11
86.0
21
59.0
31
-304.6922
0
LINE
8
0
10
86.0
20
59.0
30
-304.6922
11
77.0
21
59.0
31
-304.6922
0
LINE
8
0
10
77.0
20
59.0
30
-304.6922
11
68.0
21
57.0
31
-304.6922
0
LINE
8
0
10
68.0
20
57.0
30
-304.6922
11
60.0
21
54.0
31
-305.6922
0
LINE
8
0
10
60.0
20
54.0
30
-305.6922
11
52.0
21
50.0
31
-305.6922
0
LINE
8
0
10
52.0
20
50.0
30
-305.6922
11
45.0
21
46.0
31
-305.6922
0
LINE
8
0
10
45.0
20
46.0
30
-305.6922
11
38.0
21
40.0
31
-306.6922
0
LINE
8
0
10
38.0
20
40.0
30
-306.6922
11
33.0
21
34.0
31
-306.6922
0
LINE
8
0
10
33.0
20
34.0
30
-306.6922
11
28.0
21
27.0
31
-307.6922
0
LINE
8
0
10
28.0
20
27.0
30
-307.6922
11
26.0
21
20.0
31
-307.6922
0
LINE
8
0
10
26.0
20
20.0
30
-307.6922
11
24.0
21
13.0
31
-308.6922
0
LINE
8
0
10
24.0
20
13.0
30
-308.6922
11
23.0
21
5.0
31
-308.6922
0
LINE
8
0
10
23.0
20
5.0
30
-308.6922
11
24.0
21
-1.0
31
-308.6922
0
LINE
8
0
10
24.0
20
-1.0
30
-308.6922
11
26.0
21
-8.0
31
-308.6922
0
LINE
8
0
10
26.0
20
-8.0
30
-308.6922
11
30.0
21
-15.0
31
-308.6922
0
LINE
8
0
10
30.0
20
-15.0
30
-308.6922
11
34.0
21
-20.0
31
-307.6922
0
LINE
8
0
10
34.0
20
-20.0
30
-307.6922
11
40.0
21
-24.0
31
-307.6922
0
LINE
8
0
10
40.0
20
-24.0
30
-307.6922
11
45.0
21
-27.0
31
-306.6922
0
LINE
8
0
10
45.0
20
-27.0
30
-306.6922
11
54.0
21
-30.0
31
-305.6922
0
LINE
8
0
10
54.0
20
-30.0
30
-305.6922
11
60.0
21
-31.0
31
-304.6922
0
LINE
8
0
10
60.0
20
-31.0
30
-304.6922
11
68.0
21
-32.0
31
-303.6922
0
LINE
8
0
10
68.0
20
-32.0
30
-303.6922
11
76.0
21
-33.0
31
-302.6922
0
LINE
8
0
10
76.0
20
-33.0
30
-302.6922
11
84.0
21
-35.0
31
-301.6922
0
LINE
8
0
10
84.0
20
-35.0
30
-301.6922
11
93.0
21
-35.0
31
-300.6922
0
LINE
8
0
10
93.0
20
-35.0
30
-300.6922
11
101.0
21
-35.0
31
-299.6922
0
LINE
8
0
10
101.0
20
-35.0
30
-299.6922
11
109.0
21
-35.0
31
-297.6922
0
LINE
8
0
10
109.0
20
-35.0
30
-297.6922
11
117.0
21
-35.0
31
-296.6922
0
LINE
8
0
10
117.0
20
-35.0
30
-296.6922
11
125.0
21
-35.0
31
-295.6922
0
LINE
8
0
10
125.0
20
-35.0
30
-295.6922
11
132.0
21
-33.0
31
-293.6922
0
LINE
8
0
10
132.0
20
-33.0
30
-293.6922
11
138.0
21
-31.0
31
-292.6922
0
LINE
8
0
10
138.0
20
-31.0
30
-292.6922
11
144.0
21
-27.0
31
-291.6922
0
LINE
8
0
10
144.0
20
-27.0
30
-291.6922
11
147.0
21
-22.0
31
-290.6922
0
LINE
8
0
10
147.0
20
-22.0
30
-290.6922
11
149.0
21
-14.0
31
-288.6922
0
LINE
8
0
10
149.0
20
-14.0
30
-288.6922
11
150.0
21
-8.0
31
-288.6922
0
LINE
8
0
10
150.0
20
-8.0
30
-288.6922
11
150.0
21
1.0
31
-287.6922
0
LINE
8
0
10
150.0
20
1.0
30
-287.6922
11
148.0
21
8.0
31
-287.6922
0
LINE
8
0
10
148.0
20
8.0
30
-287.6922
11
144.0
21
16.0
31
-287.6922
0
LINE
8
0
10
144.0
20
16.0
30
-287.6922
11
139.0
21
25.0
31
-288.6922
0
LINE
8
0
10
139.0
20
25.0
30
-288.6922
11
130.0
21
37.0
31
-288.6922
0
LINE
8
0
10
130.0
20
37.0
30
-288.6922
11
125.0
21
40.0
31
-289.6922
0
LINE
8
0
10
125.0
20
40.0
30
-289.6922
11
118.0
21
49.0
31
-289.6922
0
LINE
8
0
10
118.0
20
49.0
30
-289.6922
11
111.0
21
56.0
31
-289.6922
0
LINE
8
0
10
111.0
20
56.0
30
-289.6922
11
105.0
21
63.0
31
-290.6922
0
LINE
8
0
10
105.0
20
63.0
30
-290.6922
11
98.0
21
69.0
31
-290.6922
0
LINE
8
0
10
98.0
20
69.0
30
-290.6922
11
92.0
21
72.0
31
-291.6922
0
LINE
8
0
10
92.0
20
72.0
30
-291.6922
11
86.0
21
74.0
31
-292.6922
0
LINE
8
0
10
86.0
20
74.0
30
-292.6922
11
79.0
21
74.0
31
-292.6922
0
LINE
8
0
10
79.0
20
74.0
30
-292.6922
11
73.0
21
70.0
31
-293.6922
0
LINE
8
0
10
73.0
20
70.0
30
-293.6922
11
68.0
21
67.0
31
-294.6922
0
LINE
8
0
10
68.0
20
67.0
30
-294.6922
11
61.0
21
61.0
31
-296.6922
0
LINE
8
0
10
61.0
20
61.0
30
-296.6922
11
56.0
21
56.0
31
-297.6922
0
LINE
8
0
10
56.0
20
56.0
30
-297.6922
11
53.0
21
50.0
31
-298.6922
0
LINE
8
0
10
53.0
20
50.0
30
-298.6922
11
47.0
21
46.0
31
-299.6922
0
LINE
8
0
10
47.0
20
46.0
30
-299.6922
11
44.0
21
40.0
31
-301.6922
0
LINE
8
0
10
44.0
20
40.0
30
-301.6922
11
39.0
21
35.0
31
-304.6922
0
LINE
8
0
10
39.0
20
35.0
30
-304.6922
11
34.0
21
39.0
31
-306.6922
0
LINE
8
0
10
34.0
20
39.0
30
-306.6922
11
34.0
21
33.0
31
-307.6922
0
LINE
8
0
10
34.0
20
33.0
30
-307.6922
11
30.0
21
32.0
31
-312.6922
0
LINE
8
0
10
30.0
20
32.0
30
-312.6922
11
31.0
21
28.0
31
-318.6922
0
LINE
8
0
10
31.0
20
28.0
30
-318.6922
11
33.0
21
24.0
31
-321.6922
0
LINE
8
0
10
33.0
20
24.0
30
-321.6922
11
39.0
21
17.0
31
-323.6922
0
LINE
8
0
10
39.0
20
17.0
30
-323.6922
11
47.0
21
8.0
31
-324.6922
0
LINE
8
0
10
47.0
20
8.0
30
-324.6922
11
51.0
21
2.0
31
-324.6922
0
LINE
8
0
10
51.0
20
2.0
30
-324.6922
11
57.0
21
-5.0
31
-324.6922
0
LINE
8
0
10
57.0
20
-5.0
30
-324.6922
11
62.0
21
-11.0
31
-324.6922
0
LINE
8
0
10
62.0
20
-11.0
30
-324.6922
11
68.0
21
-18.0
31
-324.6922
0
LINE
8
0
10
68.0
20
-18.0
30
-324.6922
11
73.0
21
-24.0
31
-323.6922
0
LINE
8
0
10
73.0
20
-24.0
30
-323.6922
11
79.0
21
-31.0
31
-323.6922
0
LINE
8
0
10
79.0
20
-31.0
30
-323.6922
11
85.0
21
-37.0
31
-323.6922
0
LINE
8
0
10
85.0
20
-37.0
30
-323.6922
11
91.0
21
-43.0
31
-323.6922
0
LINE
8
0
10
91.0
20
-43.0
30
-323.6922
11
97.0
21
-48.0
31
-322.6922
0
LINE
8
0
10
97.0
20
-48.0
30
-322.6922
11
103.0
21
-54.0
31
-322.6922
0
LINE
8
0
10
103.0
20
-54.0
30
-322.6922
11
109.0
21
-58.0
31
-321.6922
0
LINE
8
0
10
109.0
20
-58.0
30
-321.6922
11
114.0
21
-62.0
31
-321.6922
0
LINE
8
0
10
114.0
20
-62.0
30
-321.6922
11
122.0
21
-66.0
31
-320.6922
0
LINE
8
0
10
122.0
20
-66.0
30
-320.6922
11
129.0
21
-70.0
31
-318.6922
0
LINE
8
0
10
129.0
20
-70.0
30
-318.6922
11
138.0
21
-72.0
31
-317.6922
0
LINE
8
0
10
138.0
20
-72.0
30
-317.6922
11
147.0
21
-71.0
31
-315.6922
0
LINE
8
0
10
147.0
20
-71.0
30
-315.6922
11
156.0
21
-68.0
31
-313.6922
0
LINE
8
0
10
156.0
20
-68.0
30
-313.6922
11
162.0
21
-65.0
31
-311.6922
0
LINE
8
0
10
162.0
20
-65.0
30
-311.6922
11
166.0
21
-62.0
31
-309.6922
0
LINE
8
0
10
166.0
20
-62.0
30
-309.6922
11
171.0
21
-64.0
31
-308.6922
0
LINE
8
0
10
171.0
20
-64.0
30
-308.6922
11
168.0
21
-57.0
31
-306.6922
0
LINE
8
0
10
168.0
20
-57.0
30
-306.6922
11
167.0
21
-51.0
31
-303.6922
0
LINE
8
0
10
167.0
20
-51.0
30
-303.6922
11
164.0
21
-47.0
31
-301.6922
0
LINE
8
0
10
164.0
20
-47.0
30
-301.6922
11
157.0
21
-40.0
31
-298.6922
0
LINE
8
0
10
157.0
20
-40.0
30
-298.6922
11
150.0
21
-37.0
31
-297.6922
0
LINE
8
0
10
150.0
20
-37.0
30
-297.6922
11
144.0
21
-35.0
31
-295.6922
0
LINE
8
0
10
144.0
20
-35.0
30
-295.6922
11
137.0
21
-32.0
31
-294.6922
0
LINE
8
0
10
137.0
20
-32.0
30
-294.6922
11
130.0
21
-29.0
31
-293.6922
0
LINE
8
0
10
130.0
20
-29.0
30
-293.6922
11
125.0
21
-26.0
31
-292.6922
0
LINE
8
0
10
125.0
20
-26.0
30
-292.6922
11
117.0
21
-24.0
31
-290.6922
0
LINE
8
0
10
117.0
20
-24.0
30
-290.6922
11
108.0
21
-18.0
31
-289.6922
0
LINE
8
0
10
108.0
20
-18.0
30
-289.6922
11
101.0
21
-14.0
31
-287.6922
0
LINE
8
0
10
101.0
20
-14.0
30
-287.6922
11
94.0
21
-11.0
31
-287.6922
0
LINE
8
0
10
94.0
20
-11.0
30
-287.6922
11
87.0
21
-6.0
31
-285.6922
0
LINE
8
0
10
87.0
20
-6.0
30
-285.6922
11
80.0
21
-1.0
31
-284.6922
0
LINE
8
0
10
80.0
20
-1.0
30
-284.6922
11
72.0
21
4.0
31
-284.6922
0
LINE
8
0
10
72.0
20
4.0
30
-284.6922
11
65.0
21
9.0
31
-283.6922
0
LINE
8
0
10
65.0
20
9.0
30
-283.6922
11
58.0
21
14.0
31
-283.6922
0
LINE
8
0
10
58.0
20
14.0
30
-283.6922
11
51.0
21
18.0
31
-283.6922
0
LINE
8
0
10
51.0
20
18.0
30
-283.6922
11
37.0
21
24.0
31
-283.6922
0
LINE
8
0
10
37.0
20
24.0
30
-283.6922
11
29.0
21
28.0
31
-283.6922
0
LINE
8
0
10
29.0
20
28.0
30
-283.6922
11
21.0
21
29.0
31
-282.6922
0
LINE
8
0
10
21.0
20
29.0
30
-282.6922
11
11.0
21
30.0
31
-282.6922
0
LINE
8
0
10
11.0
20
30.0
30
-282.6922
11
1.0
21
30.0
31
-282.6922
0
LINE
8
0
10
1.0
20
30.0
30
-282.6922
11
-7.0
21
28.0
31
-282.6922
0
LINE
8
0
10
-7.0
20
28.0
30
-282.6922
11
-15.0
21
26.0
31
-283.6922
0
LINE
8
0
10
-15.0
20
26.0
30
-283.6922
11
-22.0
21
21.0
31
-283.6922
0
LINE
8
0
10
-22.0
20
21.0
30
-283.6922
11
-28.0
21
15.0
31
-283.6922
0
LINE
8
0
10
-28.0
20
15.0
30
-283.6922
11
-33.0
21
9.0
31
-283.6922
0
LINE
8
0
10
-33.0
20
9.0
30
-283.6922
11
-39.0
21
2.0
31
-284.6922
0
LINE
8
0
10
-39.0
20
2.0
30
-284.6922
11
-41.0
21
-7.0
31
-284.6922
0
LINE
8
0
10
-41.0
20
-7.0
30
-284.6922
11
-43.0
21
-14.0
31
-284.6922
0
LINE
8
0
10
-43.0
20
-14.0
30
-284.6922
11
-44.0
21
-21.0
31
-285.6922
0
LINE
8
0
10
-44.0
20
-21.0
30
-285.6922
11
-43.0
21
-29.0
31
-286.6922
0
LINE
8
0
10
-43.0
20
-29.0
30
-286.6922
11
-40.0
21
-37.0
31
-286.6922
0
LINE
8
0
10
-40.0
20
-37.0
30
-286.6922
11
-37.0
21
-44.0
31
-287.6922
0
LINE
8
0
10
-37.0
20
-44.0
30
-287.6922
11
-31.0
21
-51.0
31
-287.6922
0
LINE
8
0
10
-31.0
20
-51.0
30
-287.6922
11
-26.0
21
-58.0
31
-288.6922
0
LINE
8
0
10
-26.0
20
-58.0
30
-288.6922
11
-21.0
21
-63.0
31
-288.6922
0
LINE
8
0
10
-21.0
20
-63.0
30
-288.6922
11
-14.0
21
-67.0
31
-289.6922
0
LINE
8
0
10
-14.0
20
-67.0
30
-289.6922
11
-8.0
21
-72.0
31
-290.6922
0
LINE
8
0
10
-8.0
20
-72.0
30
-290.6922
11
-2.0
21
-74.0
31
-291.6922
0
LINE
8
0
10
-2.0
20
-74.0
30
-291.6922
11
4.0
21
-75.0
31
-291.6922
0
LINE
8
0
10
4.0
20
-75.0
30
-291.6922
11
11.0
21
-76.0
31
-292.6922
0
LINE
8
0
10
11.0
20
-76.0
30
-292.6922
11
20.0
21
-76.0
31
-293.6922
0
LINE
8
0
10
20.0
20
-76.0
30
-293.6922
11
27.0
21
-74.0
31
-293.6922
0
LINE
8
0
10
27.0
20
-74.0
30
-293.6922
11
32.0
21
-70.0
31
-294.6922
0
ENDSEC
0
EOF
