0
SECTION
2
ENTITIES
0
3DFACE
8
0
10
-320.0
20
-240.0
30
-415.6922
11
-320.0
21
240.0
31
-415.6922
12
320.0
22
240.0
32
-415.6922
13
320.0001
23
240.0001
33
-415.6921
0
3DFACE
8
0
10
320.0
20
240.0
30
-415.6922
11
320.0
21
-240.0
31
-415.6922
12
-320.0
22
-240.0
32
-415.6922
13
-319.9999
23
-239.9999
33
-415.6921
0
3DFACE
8
0
10
-309.0
20
-233.0
30
-415.6922
11
-304.0
21
-233.0
31
-415.6922
12
-304.0
22
-224.0
32
-415.6922
13
-303.9999
23
-223.9999
33
-415.6921
0
3DFACE
8
0
10
-304.0
20
-224.0
30
-415.6922
11
-309.0
21
-224.0
31
-415.6922
12
-309.0
22
-233.0
32
-415.6922
13
-308.9999
23
-232.9999
33
-415.6921
0
3DFACE
8
0
10
-302.0
20
-231.0
30
-415.6922
11
-298.0
21
-231.0
31
-415.6922
12
-298.0
22
-224.0
32
-415.6922
13
-297.9999
23
-223.9999
33
-415.6921
0
3DFACE
8
0
10
-298.0
20
-224.0
30
-415.6922
11
-302.0
21
-224.0
31
-415.6922
12
-302.0
22
-231.0
32
-415.6922
13
-301.9999
23
-230.9999
33
-415.6921
0
3DFACE
8
0
10
-297.0
20
-231.0
30
-415.6922
11
-292.0
21
-231.0
31
-415.6922
12
-292.0
22
-224.0
32
-415.6922
13
-291.9999
23
-223.9999
33
-415.6921
0
3DFACE
8
0
10
-292.0
20
-224.0
30
-415.6922
11
-297.0
21
-224.0
31
-415.6922
12
-297.0
22
-231.0
32
-415.6922
13
-296.9999
23
-230.9999
33
-415.6921
0
3DFACE
8
0
10
-290.0
20
-231.0
30
-415.6922
11
-286.0
21
-231.0
31
-415.6922
12
-286.0
22
-224.0
32
-415.6922
13
-285.9999
23
-223.9999
33
-415.6921
0
3DFACE
8
0
10
-286.0
20
-224.0
30
-415.6922
11
-290.0
21
-224.0
31
-415.6922
12
-290.0
22
-231.0
32
-415.6922
13
-289.9999
23
-230.9999
33
-415.6921
0
3DFACE
8
0
10
-284.0
20
-231.0
30
-415.6922
11
-279.0
21
-231.0
31
-415.6922
12
-279.0
22
-224.0
32
-415.6922
13
-278.9999
23
-223.9999
33
-415.6921
0
3DFACE
8
0
10
-279.0
20
-224.0
30
-415.6922
11
-284.0
21
-224.0
31
-415.6922
12
-284.0
22
-231.0
32
-415.6922
13
-283.9999
23
-230.9999
33
-415.6921
0
3DFACE
8
0
10
-277.0
20
-231.0
30
-415.6922
11
-273.0
21
-231.0
31
-415.6922
12
-273.0
22
-224.0
32
-415.6922
13
-272.9999
23
-223.9999
33
-415.6921
0
3DFACE
8
0
10
-273.0
20
-224.0
30
-415.6922
11
-277.0
21
-224.0
31
-415.6922
12
-277.0
22
-231.0
32
-415.6922
13
-276.9999
23
-230.9999
33
-415.6921
0
3DFACE
8
0
10
-271.0
20
-231.0
30
-415.6922
11
-267.0
21
-231.0
31
-415.6922
12
-267.0
22
-224.0
32
-415.6922
13
-266.9999
23
-223.9999
33
-415.6921
0
3DFACE
8
0
10
-267.0
20
-224.0
30
-415.6922
11
-271.0
21
-224.0
31
-415.6922
12
-271.0
22
-231.0
32
-415.6922
13
-270.9999
23
-230.9999
33
-415.6921
0
3DFACE
8
0
10
-265.0
20
-233.0
30
-415.6922
11
-264.0
21
-233.0
31
-415.6922
12
-264.0
22
-224.0
32
-415.6922
13
-263.9999
23
-223.9999
33
-415.6921
0
3DFACE
8
0
10
-264.0
20
-224.0
30
-415.6922
11
-265.0
21
-224.0
31
-415.6922
12
-265.0
22
-233.0
32
-415.6922
13
-264.9999
23
-232.9999
33
-415.6921
0
3DFACE
8
0
10
-262.0
20
-231.0
30
-415.6922
11
-257.0
21
-231.0
31
-415.6922
12
-257.0
22
-224.0
32
-415.6922
13
-256.9999
23
-223.9999
33
-415.6921
0
3DFACE
8
0
10
-257.0
20
-224.0
30
-415.6922
11
-262.0
21
-224.0
31
-415.6922
12
-262.0
22
-231.0
32
-415.6922
13
-261.9999
23
-230.9999
33
-415.6921
0
3DFACE
8
0
10
-255.0
20
-231.0
30
-415.6922
11
-250.0
21
-231.0
31
-415.6922
12
-250.0
22
-222.0
32
-415.6922
13
-249.9999
23
-221.9999
33
-415.6921
0
3DFACE
8
0
10
-250.0
20
-222.0
30
-415.6922
11
-255.0
21
-222.0
31
-415.6922
12
-255.0
22
-231.0
32
-415.6922
13
-254.9999
23
-230.9999
33
-415.6921
0
3DFACE
8
0
10
-261.0
20
-248.0
30
-415.6922
11
-260.0
21
-248.0
31
-415.6922
12
-260.0
22
-247.0
32
-415.6922
13
-259.9999
23
-246.9999
33
-415.6921
0
3DFACE
8
0
10
-260.0
20
-247.0
30
-415.6922
11
-261.0
21
-247.0
31
-415.6922
12
-261.0
22
-248.0
32
-415.6922
13
-260.9999
23
-247.9999
33
-415.6921
0
3DFACE
8
0
10
-244.0
20
-233.0
30
-415.6922
11
-240.0
21
-233.0
31
-415.6922
12
-240.0
22
-224.0
32
-415.6922
13
-239.9999
23
-223.9999
33
-415.6921
0
3DFACE
8
0
10
-240.0
20
-224.0
30
-415.6922
11
-244.0
21
-224.0
31
-415.6922
12
-244.0
22
-233.0
32
-415.6922
13
-243.9999
23
-232.9999
33
-415.6921
0
3DFACE
8
0
10
-238.0
20
-233.0
30
-415.6922
11
-231.0
21
-233.0
31
-415.6922
12
-231.0
22
-224.0
32
-415.6922
13
-230.9999
23
-223.9999
33
-415.6921
0
3DFACE
8
0
10
-231.0
20
-224.0
30
-415.6922
11
-238.0
21
-224.0
31
-415.6922
12
-238.0
22
-233.0
32
-415.6922
13
-237.9999
23
-232.9999
33
-415.6921
0
3DFACE
8
0
10
-230.0
20
-231.0
30
-415.6922
11
-229.0
21
-231.0
31
-415.6922
12
-229.0
22
-224.0
32
-415.6922
13
-228.9999
23
-223.9999
33
-415.6921
0
3DFACE
8
0
10
-229.0
20
-224.0
30
-415.6922
11
-230.0
21
-224.0
31
-415.6922
12
-230.0
22
-231.0
32
-415.6922
13
-229.9999
23
-230.9999
33
-415.6921
0
3DFACE
8
0
10
-239.0
20
-248.0
30
-415.6922
11
-238.0
21
-248.0
31
-415.6922
12
-238.0
22
-247.0
32
-415.6922
13
-237.9999
23
-246.9999
33
-415.6921
0
3DFACE
8
0
10
-238.0
20
-247.0
30
-415.6922
11
-239.0
21
-247.0
31
-415.6922
12
-239.0
22
-248.0
32
-415.6922
13
-238.9999
23
-247.9999
33
-415.6921
0
3DFACE
8
0
10
-222.0
20
-233.0
30
-415.6922
11
-217.0
21
-233.0
31
-415.6922
12
-217.0
22
-224.0
32
-415.6922
13
-216.9999
23
-223.9999
33
-415.6921
0
3DFACE
8
0
10
-217.0
20
-224.0
30
-415.6922
11
-222.0
21
-224.0
31
-415.6922
12
-222.0
22
-233.0
32
-415.6922
13
-221.9999
23
-232.9999
33
-415.6921
0
3DFACE
8
0
10
-214.0
20
-233.0
30
-415.6922
11
-208.0
21
-233.0
31
-415.6922
12
-208.0
22
-224.0
32
-415.6922
13
-207.9999
23
-223.9999
33
-415.6921
0
3DFACE
8
0
10
-208.0
20
-224.0
30
-415.6922
11
-214.0
21
-224.0
31
-415.6922
12
-214.0
22
-233.0
32
-415.6922
13
-213.9999
23
-232.9999
33
-415.6921
0
3DFACE
8
0
10
-310.0
20
-219.0
30
-415.6922
11
-305.0
21
-219.0
31
-415.6922
12
-305.0
22
-210.0
32
-415.6922
13
-304.9999
23
-209.9999
33
-415.6921
0
3DFACE
8
0
10
-305.0
20
-210.0
30
-415.6922
11
-310.0
21
-210.0
31
-415.6922
12
-310.0
22
-219.0
32
-415.6922
13
-309.9999
23
-218.9999
33
-415.6921
0
3DFACE
8
0
10
-303.0
20
-217.0
30
-415.6922
11
-297.0
21
-217.0
31
-415.6922
12
-297.0
22
-210.0
32
-415.6922
13
-296.9999
23
-209.9999
33
-415.6921
0
3DFACE
8
0
10
-297.0
20
-210.0
30
-415.6922
11
-303.0
21
-210.0
31
-415.6922
12
-303.0
22
-217.0
32
-415.6922
13
-302.9999
23
-216.9999
33
-415.6921
0
3DFACE
8
0
10
-296.0
20
-217.0
30
-415.6922
11
-287.0
21
-217.0
31
-415.6922
12
-287.0
22
-210.0
32
-415.6922
13
-286.9999
23
-209.9999
33
-415.6921
0
3DFACE
8
0
10
-287.0
20
-210.0
30
-415.6922
11
-296.0
21
-210.0
31
-415.6922
12
-296.0
22
-217.0
32
-415.6922
13
-295.9999
23
-216.9999
33
-415.6921
0
3DFACE
8
0
10
-285.0
20
-217.0
30
-415.6922
11
-279.0
21
-217.0
31
-415.6922
12
-279.0
22
-208.0
32
-415.6922
13
-278.9999
23
-207.9999
33
-415.6921
0
3DFACE
8
0
10
-279.0
20
-208.0
30
-415.6922
11
-285.0
21
-208.0
31
-415.6922
12
-285.0
22
-217.0
32
-415.6922
13
-284.9999
23
-216.9999
33
-415.6921
0
3DFACE
8
0
10
-277.0
20
-219.0
30
-415.6922
11
-276.0
21
-219.0
31
-415.6922
12
-276.0
22
-210.0
32
-415.6922
13
-275.9999
23
-209.9999
33
-415.6921
0
3DFACE
8
0
10
-276.0
20
-210.0
30
-415.6922
11
-277.0
21
-210.0
31
-415.6922
12
-277.0
22
-219.0
32
-415.6922
13
-276.9999
23
-218.9999
33
-415.6921
0
3DFACE
8
0
10
-274.0
20
-217.0
30
-415.6922
11
-269.0
21
-217.0
31
-415.6922
12
-269.0
22
-210.0
32
-415.6922
13
-268.9999
23
-209.9999
33
-415.6921
0
3DFACE
8
0
10
-269.0
20
-210.0
30
-415.6922
11
-274.0
21
-210.0
31
-415.6922
12
-274.0
22
-217.0
32
-415.6922
13
-273.9999
23
-216.9999
33
-415.6921
0
3DFACE
8
0
10
-267.0
20
-217.0
30
-415.6922
11
-263.0
21
-217.0
31
-415.6922
12
-263.0
22
-210.0
32
-415.6922
13
-262.9999
23
-209.9999
33
-415.6921
0
3DFACE
8
0
10
-263.0
20
-210.0
30
-415.6922
11
-267.0
21
-210.0
31
-415.6922
12
-267.0
22
-217.0
32
-415.6922
13
-266.9999
23
-216.9999
33
-415.6921
0
3DFACE
8
0
10
-261.0
20
-217.0
30
-415.6922
11
-260.0
21
-217.0
31
-415.6922
12
-260.0
22
-210.0
32
-415.6922
13
-259.9999
23
-209.9999
33
-415.6921
0
3DFACE
8
0
10
-260.0
20
-210.0
30
-415.6922
11
-261.0
21
-210.0
31
-415.6922
12
-261.0
22
-217.0
32
-415.6922
13
-260.9999
23
-216.9999
33
-415.6921
0
3DFACE
8
0
10
-270.0
20
-234.0
30
-415.6922
11
-269.0
21
-234.0
31
-415.6922
12
-269.0
22
-233.0
32
-415.6922
13
-268.9999
23
-232.9999
33
-415.6921
0
3DFACE
8
0
10
-269.0
20
-233.0
30
-415.6922
11
-270.0
21
-233.0
31
-415.6922
12
-270.0
22
-234.0
32
-415.6922
13
-269.9999
23
-233.9999
33
-415.6921
0
3DFACE
8
0
10
-252.0
20
-219.0
30
-415.6922
11
-247.0
21
-219.0
31
-415.6922
12
-247.0
22
-210.0
32
-415.6922
13
-246.9999
23
-209.9999
33
-415.6921
0
3DFACE
8
0
10
-247.0
20
-210.0
30
-415.6922
11
-252.0
21
-210.0
31
-415.6922
12
-252.0
22
-219.0
32
-415.6922
13
-251.9999
23
-218.9999
33
-415.6921
0
3DFACE
8
0
10
-245.0
20
-219.0
30
-415.6922
11
-240.0
21
-219.0
31
-415.6922
12
-240.0
22
-210.0
32
-415.6922
13
-239.9999
23
-209.9999
33
-415.6921
0
3DFACE
8
0
10
-240.0
20
-210.0
30
-415.6922
11
-245.0
21
-210.0
31
-415.6922
12
-245.0
22
-219.0
32
-415.6922
13
-244.9999
23
-218.9999
33
-415.6921
0
3DFACE
8
0
10
-237.0
20
-219.0
30
-415.6922
11
-231.0
21
-219.0
31
-415.6922
12
-231.0
22
-210.0
32
-415.6922
13
-230.9999
23
-209.9999
33
-415.6921
0
3DFACE
8
0
10
-231.0
20
-210.0
30
-415.6922
11
-237.0
21
-210.0
31
-415.6922
12
-237.0
22
-219.0
32
-415.6922
13
-236.9999
23
-218.9999
33
-415.6921
0
3DFACE
8
0
10
-310.0
20
-205.0
30
-415.6922
11
-305.0
21
-205.0
31
-415.6922
12
-305.0
22
-196.0
32
-415.6922
13
-304.9999
23
-195.9999
33
-415.6921
0
3DFACE
8
0
10
-305.0
20
-196.0
30
-415.6922
11
-310.0
21
-196.0
31
-415.6922
12
-310.0
22
-205.0
32
-415.6922
13
-309.9999
23
-204.9999
33
-415.6921
0
3DFACE
8
0
10
-303.0
20
-203.0
30
-415.6922
11
-297.0
21
-203.0
31
-415.6922
12
-297.0
22
-196.0
32
-415.6922
13
-296.9999
23
-195.9999
33
-415.6921
0
3DFACE
8
0
10
-297.0
20
-196.0
30
-415.6922
11
-303.0
21
-196.0
31
-415.6922
12
-303.0
22
-203.0
32
-415.6922
13
-302.9999
23
-202.9999
33
-415.6921
0
3DFACE
8
0
10
-296.0
20
-203.0
30
-415.6922
11
-287.0
21
-203.0
31
-415.6922
12
-287.0
22
-196.0
32
-415.6922
13
-286.9999
23
-195.9999
33
-415.6921
0
3DFACE
8
0
10
-287.0
20
-196.0
30
-415.6922
11
-296.0
21
-196.0
31
-415.6922
12
-296.0
22
-203.0
32
-415.6922
13
-295.9999
23
-202.9999
33
-415.6921
0
3DFACE
8
0
10
-285.0
20
-203.0
30
-415.6922
11
-279.0
21
-203.0
31
-415.6922
12
-279.0
22
-194.0
32
-415.6922
13
-278.9999
23
-193.9999
33
-415.6921
0
3DFACE
8
0
10
-279.0
20
-194.0
30
-415.6922
11
-285.0
21
-194.0
31
-415.6922
12
-285.0
22
-203.0
32
-415.6922
13
-284.9999
23
-202.9999
33
-415.6921
0
3DFACE
8
0
10
-277.0
20
-205.0
30
-415.6922
11
-276.0
21
-205.0
31
-415.6922
12
-276.0
22
-196.0
32
-415.6922
13
-275.9999
23
-195.9999
33
-415.6921
0
3DFACE
8
0
10
-276.0
20
-196.0
30
-415.6922
11
-277.0
21
-196.0
31
-415.6922
12
-277.0
22
-205.0
32
-415.6922
13
-276.9999
23
-204.9999
33
-415.6921
0
3DFACE
8
0
10
-274.0
20
-205.0
30
-415.6922
11
-273.0
21
-205.0
31
-415.6922
12
-273.0
22
-196.0
32
-415.6922
13
-272.9999
23
-195.9999
33
-415.6921
0
3DFACE
8
0
10
-273.0
20
-196.0
30
-415.6922
11
-274.0
21
-196.0
31
-415.6922
12
-274.0
22
-205.0
32
-415.6922
13
-273.9999
23
-204.9999
33
-415.6921
0
3DFACE
8
0
10
-271.0
20
-203.0
30
-415.6922
11
-266.0
21
-203.0
31
-415.6922
12
-266.0
22
-196.0
32
-415.6922
13
-265.9999
23
-195.9999
33
-415.6921
0
3DFACE
8
0
10
-266.0
20
-196.0
30
-415.6922
11
-271.0
21
-196.0
31
-415.6922
12
-271.0
22
-203.0
32
-415.6922
13
-270.9999
23
-202.9999
33
-415.6921
0
3DFACE
8
0
10
-264.0
20
-203.0
30
-415.6922
11
-259.0
21
-203.0
31
-415.6922
12
-259.0
22
-194.0
32
-415.6922
13
-258.9999
23
-193.9999
33
-415.6921
0
3DFACE
8
0
10
-259.0
20
-194.0
30
-415.6922
11
-264.0
21
-194.0
31
-415.6922
12
-264.0
22
-203.0
32
-415.6922
13
-263.9999
23
-202.9999
33
-415.6921
0
3DFACE
8
0
10
-257.0
20
-203.0
30
-415.6922
11
-256.0
21
-203.0
31
-415.6922
12
-256.0
22
-196.0
32
-415.6922
13
-255.9999
23
-195.9999
33
-415.6921
0
3DFACE
8
0
10
-256.0
20
-196.0
30
-415.6922
11
-257.0
21
-196.0
31
-415.6922
12
-257.0
22
-203.0
32
-415.6922
13
-256.9999
23
-202.9999
33
-415.6921
0
3DFACE
8
0
10
-266.0
20
-220.0
30
-415.6922
11
-265.0
21
-220.0
31
-415.6922
12
-265.0
22
-219.0
32
-415.6922
13
-264.9999
23
-218.9999
33
-415.6921
0
3DFACE
8
0
10
-265.0
20
-219.0
30
-415.6922
11
-266.0
21
-219.0
31
-415.6922
12
-266.0
22
-220.0
32
-415.6922
13
-265.9999
23
-219.9999
33
-415.6921
0
3DFACE
8
0
10
-250.0
20
-205.0
30
-415.6922
11
-246.0
21
-205.0
31
-415.6922
12
-246.0
22
-196.0
32
-415.6922
13
-245.9999
23
-195.9999
33
-415.6921
0
3DFACE
8
0
10
-246.0
20
-196.0
30
-415.6922
11
-250.0
21
-196.0
31
-415.6922
12
-250.0
22
-205.0
32
-415.6922
13
-249.9999
23
-204.9999
33
-415.6921
0
3DFACE
8
0
10
-245.0
20
-203.0
30
-415.6922
11
-239.0
21
-203.0
31
-415.6922
12
-239.0
22
-196.0
32
-415.6922
13
-238.9999
23
-195.9999
33
-415.6921
0
3DFACE
8
0
10
-239.0
20
-196.0
30
-415.6922
11
-245.0
21
-196.0
31
-415.6922
12
-245.0
22
-203.0
32
-415.6922
13
-244.9999
23
-202.9999
33
-415.6921
0
3DFACE
8
0
10
-238.0
20
-205.0
30
-415.6922
11
-237.0
21
-205.0
31
-415.6922
12
-237.0
22
-196.0
32
-415.6922
13
-236.9999
23
-195.9999
33
-415.6921
0
3DFACE
8
0
10
-237.0
20
-196.0
30
-415.6922
11
-238.0
21
-196.0
31
-415.6922
12
-238.0
22
-205.0
32
-415.6922
13
-237.9999
23
-204.9999
33
-415.6921
0
3DFACE
8
0
10
-235.0
20
-203.0
30
-415.6922
11
-231.0
21
-203.0
31
-415.6922
12
-231.0
22
-196.0
32
-415.6922
13
-230.9999
23
-195.9999
33
-415.6921
0
3DFACE
8
0
10
-231.0
20
-196.0
30
-415.6922
11
-235.0
21
-196.0
31
-415.6922
12
-235.0
22
-203.0
32
-415.6922
13
-234.9999
23
-202.9999
33
-415.6921
0
3DFACE
8
0
10
-229.0
20
-203.0
30
-415.6922
11
-224.0
21
-203.0
31
-415.6922
12
-224.0
22
-196.0
32
-415.6922
13
-223.9999
23
-195.9999
33
-415.6921
0
3DFACE
8
0
10
-224.0
20
-196.0
30
-415.6922
11
-229.0
21
-196.0
31
-415.6922
12
-229.0
22
-203.0
32
-415.6922
13
-228.9999
23
-202.9999
33
-415.6921
0
3DFACE
8
0
10
267.0
20
161.0
30
-405.6922
11
277.0
21
161.0
31
-405.6922
12
276.51056
22
164.09018
32
-405.6922
13
276.51065
23
164.09029
33
-405.6921
0
3DFACE
8
0
10
267.0
20
161.0
30
-405.6922
11
276.51056
21
164.09018
31
-405.6922
12
275.09015
22
166.87784
32
-405.6922
13
275.09024
23
166.87794
33
-405.6921
0
3DFACE
8
0
10
267.0
20
161.0
30
-405.6922
11
275.09015
21
166.87784
31
-405.6922
12
272.87787
22
169.09018
32
-405.6922
13
272.87796
23
169.09029
33
-405.6921
0
3DFACE
8
0
10
267.0
20
161.0
30
-405.6922
11
272.87787
21
169.09018
31
-405.6922
12
270.09015
22
170.51056
32
-405.6922
13
270.09024
23
170.51067
33
-405.6921
0
3DFACE
8
0
10
267.0
20
161.0
30
-405.6922
11
270.09015
21
170.51056
31
-405.6922
12
267.0
22
171.0
32
-405.6922
13
267.0001
23
171.0001
33
-405.6921
0
3DFACE
8
0
10
267.0
20
161.0
30
-405.6922
11
267.0
21
171.0
31
-405.6922
12
263.90985
22
170.51056
32
-405.6922
13
263.90994
23
170.51067
33
-405.6921
0
3DFACE
8
0
10
267.0
20
161.0
30
-405.6922
11
263.90985
21
170.51056
31
-405.6922
12
261.12213
22
169.09018
32
-405.6922
13
261.12222
23
169.09029
33
-405.6921
0
3DFACE
8
0
10
267.0
20
161.0
30
-405.6922
11
261.12213
21
169.09018
31
-405.6922
12
258.90985
22
166.87784
32
-405.6922
13
258.90994
23
166.87794
33
-405.6921
0
3DFACE
8
0
10
267.0
20
161.0
30
-405.6922
11
258.90985
21
166.87784
31
-405.6922
12
257.48944
22
164.09018
32
-405.6922
13
257.48953
23
164.09029
33
-405.6921
0
3DFACE
8
0
10
267.0
20
161.0
30
-405.6922
11
257.48944
21
164.09018
31
-405.6922
12
257.0
22
161.0
32
-405.6922
13
257.0001
23
161.0001
33
-405.6921
0
3DFACE
8
0
10
267.0
20
161.0
30
-405.6922
11
257.0
21
161.0
31
-405.6922
12
257.48944
22
157.90982
32
-405.6922
13
257.48953
23
157.90993
33
-405.6921
0
3DFACE
8
0
10
267.0
20
161.0
30
-405.6922
11
257.48944
21
157.90982
31
-405.6922
12
258.90985
22
155.12216
32
-405.6922
13
258.90994
23
155.12227
33
-405.6921
0
3DFACE
8
0
10
267.0
20
161.0
30
-405.6922
11
258.90985
21
155.12216
31
-405.6922
12
261.12213
22
152.90982
32
-405.6922
13
261.12222
23
152.90993
33
-405.6921
0
3DFACE
8
0
10
267.0
20
161.0
30
-405.6922
11
261.12213
21
152.90982
31
-405.6922
12
263.90985
22
151.48944
32
-405.6922
13
263.90994
23
151.48955
33
-405.6921
0
3DFACE
8
0
10
267.0
20
161.0
30
-405.6922
11
263.90985
21
151.48944
31
-405.6922
12
267.0
22
151.0
32
-405.6922
13
267.0001
23
151.0001
33
-405.6921
0
3DFACE
8
0
10
267.0
20
161.0
30
-405.6922
11
267.0
21
151.0
31
-405.6922
12
270.09015
22
151.48944
32
-405.6922
13
270.09024
23
151.48955
33
-405.6921
0
3DFACE
8
0
10
267.0
20
161.0
30
-405.6922
11
270.09015
21
151.48944
31
-405.6922
12
272.87787
22
152.90982
32
-405.6922
13
272.87796
23
152.90993
33
-405.6921
0
3DFACE
8
0
10
267.0
20
161.0
30
-405.6922
11
272.87787
21
152.90982
31
-405.6922
12
275.09015
22
155.12216
32
-405.6922
13
275.09024
23
155.12227
33
-405.6921
0
3DFACE
8
0
10
267.0
20
161.0
30
-405.6922
11
275.09015
21
155.12216
31
-405.6922
12
276.51056
22
157.90982
32
-405.6922
13
276.51065
23
157.90993
33
-405.6921
0
3DFACE
8
0
10
267.0
20
161.0
30
-405.6922
11
276.51056
21
157.90982
31
-405.6922
12
277.0
22
161.0
32
-405.6922
13
277.0001
23
161.0001
33
-405.6921
0
LINE
8
0
10
277.0
20
161.0
30
-405.6922
11
276.51056
21
164.09018
31
-405.6922
0
LINE
8
0
10
276.51056
20
164.09018
30
-405.6922
11
275.09015
21
166.87784
31
-405.6922
0
LINE
8
0
10
275.09015
20
166.87784
30
-405.6922
11
272.87787
21
169.09018
31
-405.6922
0
LINE
8
0
10
272.87787
20
169.09018
30
-405.6922
11
270.09015
21
170.51056
31
-405.6922
0
LINE
8
0
10
270.09015
20
170.51056
30
-405.6922
11
267.0
21
171.0
31
-405.6922
0
LINE
8
0
10
267.0
20
171.0
30
-405.6922
11
263.90985
21
170.51056
31
-405.6922
0
LINE
8
0
10
263.90985
20
170.51056
30
-405.6922
11
261.12213
21
169.09018
31
-405.6922
0
LINE
8
0
10
261.12213
20
169.09018
30
-405.6922
11
258.90985
21
166.87784
31
-405.6922
0
LINE
8
0
10
258.90985
20
166.87784
30
-405.6922
11
257.48944
21
164.09018
31
-405.6922
0
LINE
8
0
10
257.48944
20
164.09018
30
-405.6922
11
257.0
21
161.0
31
-405.6922
0
LINE
8
0
10
257.0
20
161.0
30
-405.6922
11
257.48944
21
157.90982
31
-405.6922
0
LINE
8
0
10
257.48944
20
157.90982
30
-405.6922
11
258.90985
21
155.12216
31
-405.6922
0
LINE
8
0
10
258.90985
20
155.12216
30
-405.6922
11
261.12213
21
152.90982
31
-405.6922
0
LINE
8
0
10
261.12213
20
152.90982
30
-405.6922
11
263.90985
21
151.48944
31
-405.6922
0
LINE
8
0
10
263.90985
20
151.48944
30
-405.6922
11
267.0
21
151.0
31
-405.6922
0
LINE
8
0
10
267.0
20
151.0
30
-405.6922
11
270.09015
21
151.48944
31
-405.6922
0
LINE
8
0
10
270.09015
20
151.48944
30
-405.6922
11
272.87787
21
152.90982
31
-405.6922
0
LINE
8
0
10
272.87787
20
152.90982
30
-405.6922
11
275.09015
21
155.12216
31
-405.6922
0
LINE
8
0
10
275.09015
20
155.12216
30
-405.6922
11
276.51056
21
157.90982
31
-405.6922
0
LINE
8
0
10
276.51056
20
157.90982
30
-405.6922
11
277.0
21
161.0
31
-405.6922
0
LINE
8
0
10
-10.0
20
0.0
30
-55.6922
11
-5.0
21
-1.0
31
-55.6922
0
LINE
8
0
10
-5.0
20
-1.0
30
-55.6922
11
1.0
21
-4.0
31
-55.6922
0
LINE
8
0
10
1.0
20
-4.0
30
-55.6922
11
5.0
21
-7.0
31
-60.6922
0
LINE
8
0
10
5.0
20
-7.0
30
-60.6922
11
6.0
21
-16.0
31
-65.6922
0
LINE
8
0
10
6.0
20
-16.0
30
-65.6922
11
1.0
21
-22.0
31
-70.6922
0
LINE
8
0
10
1.0
20
-22.0
30
-70.6922
11
-1.0
21
-31.0
31
-75.6922
0
LINE
8
0
10
-1.0
20
-31.0
30
-75.6922
11
-4.0
21
-36.0
31
-80.6922
0
LINE
8
0
10
-4.0
20
-36.0
30
-80.6922
11
-10.0
21
-40.0
31
-80.6922
0
LINE
8
0
10
-10.0
20
-40.0
30
-80.6922
11
-19.0
21
-43.0
31
-85.6922
0
LINE
8
0
10
-19.0
20
-43.0
30
-85.6922
11
-25.0
21
-46.0
31
-85.6922
0
LINE
8
0
10
-25.0
20
-46.0
30
-85.6922
11
-33.0
21
-47.0
31
-85.6922
0
LINE
8
0
10
-33.0
20
-47.0
30
-85.6922
11
-40.0
21
-47.0
31
-85.6922
0
LINE
8
0
10
-40.0
20
-47.0
30
-85.6922
11
-47.0
21
-45.0
31
-85.6922
0
LINE
8
0
10
-47.0
20
-45.0
30
-85.6922
11
-54.0
21
-43.0
31
-85.6922
0
LINE
8
0
10
-54.0
20
-43.0
30
-85.6922
11
-66.0
21
-36.0
31
-85.6922
0
LINE
8
0
10
-66.0
20
-36.0
30
-85.6922
11
-74.0
21
-29.0
31
-85.6922
0
LINE
8
0
10
-74.0
20
-29.0
30
-85.6922
11
-83.0
21
-22.0
31
-80.6922
0
LINE
8
0
10
-83.0
20
-22.0
30
-80.6922
11
-89.0
21
-13.0
31
-80.6922
0
LINE
8
0
10
-89.0
20
-13.0
30
-80.6922
11
-96.0
21
-3.0
31
-80.6922
0
LINE
8
0
10
-96.0
20
-3.0
30
-80.6922
11
-97.0
21
7.0
31
-80.6922
0
LINE
8
0
10
-97.0
20
7.0
30
-80.6922
11
-105.0
21
19.0
31
-80.6922
0
LINE
8
0
10
-105.0
20
19.0
30
-80.6922
11
-102.0
21
30.0
31
-75.6922
0
LINE
8
0
10
-102.0
20
30.0
30
-75.6922
11
-105.0
21
42.0
31
-75.6922
0
LINE
8
0
10
-105.0
20
42.0
30
-75.6922
11
-106.0
21
54.0
31
-75.6922
0
LINE
8
0
10
-106.0
20
54.0
30
-75.6922
11
-103.0
21
65.0
31
-75.6922
0
LINE
8
0
10
-103.0
20
65.0
30
-75.6922
11
-102.0
21
76.0
31
-75.6922
0
LINE
8
0
10
-102.0
20
76.0
30
-75.6922
11
-100.0
21
85.0
31
-80.6922
0
LINE
8
0
10
-100.0
20
85.0
30
-80.6922
11
-95.0
21
91.0
31
-80.6922
0
LINE
8
0
10
-95.0
20
91.0
30
-80.6922
11
-90.0
21
100.0
31
-80.6922
0
LINE
8
0
10
-90.0
20
100.0
30
-80.6922
11
-84.0
21
106.0
31
-85.6922
0
LINE
8
0
10
-84.0
20
106.0
30
-85.6922
11
-78.0
21
111.0
31
-85.6922
0
LINE
8
0
10
-78.0
20
111.0
30
-85.6922
11
-71.0
21
115.0
31
-90.6922
0
LINE
8
0
10
-71.0
20
115.0
30
-90.6922
11
-65.0
21
115.0
31
-95.6922
0
LINE
8
0
10
-65.0
20
115.0
30
-95.6922
11
-56.0
21
116.0
31
-100.6922
0
LINE
8
0
10
-56.0
20
116.0
30
-100.6922
11
-49.0
21
117.0
31
-105.6922
0
LINE
8
0
10
-49.0
20
117.0
30
-105.6922
11
-42.0
21
114.0
31
-110.6922
0
LINE
8
0
10
-42.0
20
114.0
30
-110.6922
11
-36.0
21
110.0
31
-115.6922
0
LINE
8
0
10
-36.0
20
110.0
30
-115.6922
11
-24.0
21
107.0
31
-120.6922
0
LINE
8
0
10
-24.0
20
107.0
30
-120.6922
11
-16.0
21
107.0
31
-125.6922
0
LINE
8
0
10
-16.0
20
107.0
30
-125.6922
11
-20.0
21
99.0
31
-130.6922
0
LINE
8
0
10
-20.0
20
99.0
30
-130.6922
11
-13.0
21
93.0
31
-135.6922
0
LINE
8
0
10
-13.0
20
93.0
30
-135.6922
11
-7.0
21
86.0
31
-140.6922
0
LINE
8
0
10
-7.0
20
86.0
30
-140.6922
11
-3.0
21
78.0
31
-145.6922
0
LINE
8
0
10
-3.0
20
78.0
30
-145.6922
11
4.0
21
70.0
31
-150.6922
0
LINE
8
0
10
4.0
20
70.0
30
-150.6922
11
5.0
21
64.0
31
-160.6922
0
LINE
8
0
10
5.0
20
64.0
30
-160.6922
11
6.0
21
56.0
31
-165.6922
0
LINE
8
0
10
6.0
20
56.0
30
-165.6922
11
9.0
21
47.0
31
-170.6922
0
LINE
8
0
10
9.0
20
47.0
30
-170.6922
11
11.0
21
39.0
31
-170.6922
0
LINE
8
0
10
11.0
20
39.0
30
-170.6922
11
13.0
21
31.0
31
-175.6922
0
LINE
8
0
10
13.0
20
31.0
30
-175.6922
11
15.0
21
23.0
31
-180.6922
0
LINE
8
0
10
15.0
20
23.0
30
-180.6922
11
15.0
21
15.0
31
-185.6922
0
LINE
8
0
10
15.0
20
15.0
30
-185.6922
11
14.0
21
8.0
31
-190.6922
0
LINE
8
0
10
14.0
20
8.0
30
-190.6922
11
15.0
21
1.0
31
-190.6922
0
LINE
8
0
10
15.0
20
1.0
30
-190.6922
11
12.0
21
-6.0
31
-195.6922
0
LINE
8
0
10
12.0
20
-6.0
30
-195.6922
11
8.0
21
-11.0
31
-200.6922
0
LINE
8
0
10
8.0
20
-11.0
30
-200.6922
11
4.0
21
-15.0
31
-200.6922
0
LINE
8
0
10
4.0
20
-15.0
30
-200.6922
11
0.0
21
-20.0
31
-200.6922
0
LINE
8
0
10
0.0
20
-20.0
30
-200.6922
11
-4.0
21
-23.0
31
-205.6922
0
LINE
8
0
10
-4.0
20
-23.0
30
-205.6922
11
-10.0
21
-25.0
31
-205.6922
0
LINE
8
0
10
-10.0
20
-25.0
30
-205.6922
11
-17.0
21
-26.0
31
-205.6922
0
LINE
8
0
10
-17.0
20
-26.0
30
-205.6922
11
-23.0
21
-27.0
31
-210.6922
0
LINE
8
0
10
-23.0
20
-27.0
30
-210.6922
11
-30.0
21
-27.0
31
-210.6922
0
LINE
8
0
10
-30.0
20
-27.0
30
-210.6922
11
-35.0
21
-26.0
31
-210.6922
0
LINE
8
0
10
-35.0
20
-26.0
30
-210.6922
11
-41.0
21
-25.0
31
-210.6922
0
LINE
8
0
10
-41.0
20
-25.0
30
-210.6922
11
-46.0
21
-22.0
31
-210.6922
0
LINE
8
0
10
-46.0
20
-22.0
30
-210.6922
11
-53.0
21
-17.0
31
-210.6922
0
LINE
8
0
10
-53.0
20
-17.0
30
-210.6922
11
-58.0
21
-12.0
31
-210.6922
0
LINE
8
0
10
-58.0
20
-12.0
30
-210.6922
11
-62.0
21
-7.0
31
-210.6922
0
LINE
8
0
10
-62.0
20
-7.0
30
-210.6922
11
-66.0
21
-1.0
31
-210.6922
0
LINE
8
0
10
-66.0
20
-1.0
30
-210.6922
11
-68.0
21
4.0
31
-210.6922
0
LINE
8
0
10
-68.0
20
4.0
30
-210.6922
11
-70.0
21
11.0
31
-210.6922
0
LINE
8
0
10
-70.0
20
11.0
30
-210.6922
11
-72.0
21
18.0
31
-210.6922
0
LINE
8
0
10
-72.0
20
18.0
30
-210.6922
11
-72.0
21
24.0
31
-210.6922
0
LINE
8
0
10
-72.0
20
24.0
30
-210.6922
11
-72.0
21
31.0
31
-210.6922
0
LINE
8
0
10
-72.0
20
31.0
30
-210.6922
11
-72.0
21
38.0
31
-210.6922
0
LINE
8
0
10
-72.0
20
38.0
30
-210.6922
11
-70.0
21
44.0
31
-210.6922
0
LINE
8
0
10
-70.0
20
44.0
30
-210.6922
11
-69.0
21
51.0
31
-210.6922
0
LINE
8
0
10
-69.0
20
51.0
30
-210.6922
11
-66.0
21
56.0
31
-210.6922
0
LINE
8
0
10
-66.0
20
56.0
30
-210.6922
11
-62.0
21
60.0
31
-210.6922
0
LINE
8
0
10
-62.0
20
60.0
30
-210.6922
11
-59.0
21
65.0
31
-215.6922
0
LINE
8
0
10
-59.0
20
65.0
30
-215.6922
11
-53.0
21
68.0
31
-215.6922
0
LINE
8
0
10
-53.0
20
68.0
30
-215.6922
11
-46.0
21
72.0
31
-220.6922
0
LINE
8
0
10
-46.0
20
72.0
30
-220.6922
11
-38.0
21
74.0
31
-225.6922
0
LINE
8
0
10
-38.0
20
74.0
30
-225.6922
11
-32.0
21
76.0
31
-230.6922
0
LINE
8
0
10
-32.0
20
76.0
30
-230.6922
11
-24.0
21
73.0
31
-235.6922
0
LINE
8
0
10
-24.0
20
73.0
30
-235.6922
11
-19.0
21
71.0
31
-250.6922
0
LINE
8
0
10
-19.0
20
71.0
30
-250.6922
11
-14.0
21
70.0
31
-255.6922
0
LINE
8
0
10
-14.0
20
70.0
30
-255.6922
11
-10.0
21
65.0
31
-270.6922
0
LINE
8
0
10
-10.0
20
65.0
30
-270.6922
11
-10.0
21
59.0
31
-285.6922
0
LINE
8
0
10
-10.0
20
59.0
30
-285.6922
11
-15.0
21
55.0
31
-290.6922
0
LINE
8
0
10
-15.0
20
55.0
30
-290.6922
11
-21.0
21
49.0
31
-295.6922
0
LINE
8
0
10
-21.0
20
49.0
30
-295.6922
11
-23.0
21
43.0
31
-300.6922
0
LINE
8
0
10
-23.0
20
43.0
30
-300.6922
11
-26.0
21
36.0
31
-305.6922
0
LINE
8
0
10
-26.0
20
36.0
30
-305.6922
11
-27.0
21
30.0
31
-305.6922
0
LINE
8
0
10
-27.0
20
30.0
30
-305.6922
11
-26.0
21
24.0
31
-310.6922
0
LINE
8
0
10
-26.0
20
24.0
30
-310.6922
11
-25.0
21
19.0
31
-310.6922
0
LINE
8
0
10
-25.0
20
19.0
30
-310.6922
11
-22.0
21
13.0
31
-315.6922
0
LINE
8
0
10
-22.0
20
13.0
30
-315.6922
11
-19.0
21
8.0
31
-315.6922
0
LINE
8
0
10
-19.0
20
8.0
30
-315.6922
11
-14.0
21
4.0
31
-315.6922
0
LINE
8
0
10
-14.0
20
4.0
30
-315.6922
11
-8.0
21
0.0
31
-315.6922
0
LINE
8
0
10
-8.0
20
0.0
30
-315.6922
11
0.0
21
-1.0
31
-315.6922
0
LINE
8
0
10
0.0
20
-1.0
30
-315.6922
11
8.0
21
-3.0
31
-315.6922
0
LINE
8
0
10
8.0
20
-3.0
30
-315.6922
11
15.0
21
-3.0
31
-315.6922
0
LINE
8
0
10
15.0
20
-3.0
30
-315.6922
11
23.0
21
-2.0
31
-310.6922
0
LINE
8
0
10
23.0
20
-2.0
30
-310.6922
11
30.0
21
0.0
31
-310.6922
0
LINE
8
0
10
30.0
20
0.0
30
-310.6922
11
38.0
21
4.0
31
-310.6922
0
LINE
8
0
10
38.0
20
4.0
30
-310.6922
11
45.0
21
7.0
31
-310.6922
0
LINE
8
0
10
45.0
20
7.0
30
-310.6922
11
51.0
21
13.0
31
-305.6922
0
LINE
8
0
10
51.0
20
13.0
30
-305.6922
11
56.0
21
19.0
31
-305.6922
0
LINE
8
0
10
56.0
20
19.0
30
-305.6922
11
61.0
21
25.0
31
-305.6922
0
LINE
8
0
10
61.0
20
25.0
30
-305.6922
11
63.0
21
31.0
31
-300.6922
0
LINE
8
0
10
63.0
20
31.0
30
-300.6922
11
64.0
21
38.0
31
-300.6922
0
LINE
8
0
10
64.0
20
38.0
30
-300.6922
11
64.0
21
45.0
31
-300.6922
0
LINE
8
0
10
64.0
20
45.0
30
-300.6922
11
62.0
21
52.0
31
-295.6922
0
LINE
8
0
10
62.0
20
52.0
30
-295.6922
11
61.0
21
58.0
31
-295.6922
0
LINE
8
0
10
61.0
20
58.0
30
-295.6922
11
58.0
21
65.0
31
-295.6922
0
LINE
8
0
10
58.0
20
65.0
30
-295.6922
11
55.0
21
71.0
31
-295.6922
0
LINE
8
0
10
55.0
20
71.0
30
-295.6922
11
51.0
21
77.0
31
-295.6922
0
LINE
8
0
10
51.0
20
77.0
30
-295.6922
11
47.0
21
83.0
31
-290.6922
0
LINE
8
0
10
47.0
20
83.0
30
-290.6922
11
40.0
21
89.0
31
-290.6922
0
LINE
8
0
10
40.0
20
89.0
30
-290.6922
11
35.0
21
95.0
31
-290.6922
0
LINE
8
0
10
35.0
20
95.0
30
-290.6922
11
29.0
21
98.0
31
-290.6922
0
LINE
8
0
10
29.0
20
98.0
30
-290.6922
11
22.0
21
102.0
31
-290.6922
0
LINE
8
0
10
22.0
20
102.0
30
-290.6922
11
17.0
21
105.0
31
-290.6922
0
LINE
8
0
10
17.0
20
105.0
30
-290.6922
11
10.0
21
106.0
31
-290.6922
0
LINE
8
0
10
10.0
20
106.0
30
-290.6922
11
4.0
21
107.0
31
-290.6922
0
LINE
8
0
10
4.0
20
107.0
30
-290.6922
11
-3.0
21
105.0
31
-290.6922
0
LINE
8
0
10
-3.0
20
105.0
30
-290.6922
11
-8.0
21
104.0
31
-290.6922
0
LINE
8
0
10
-8.0
20
104.0
30
-290.6922
11
-14.0
21
102.0
31
-290.6922
0
LINE
8
0
10
-14.0
20
102.0
30
-290.6922
11
-21.0
21
97.0
31
-290.6922
0
LINE
8
0
10
-21.0
20
97.0
30
-290.6922
11
-27.0
21
92.0
31
-290.6922
0
LINE
8
0
10
-27.0
20
92.0
30
-290.6922
11
-31.0
21
86.0
31
-290.6922
0
LINE
8
0
10
-31.0
20
86.0
30
-290.6922
11
-32.0
21
80.0
31
-285.6922
0
LINE
8
0
10
-32.0
20
80.0
30
-285.6922
11
-34.0
21
74.0
31
-285.6922
0
LINE
8
0
10
-34.0
20
74.0
30
-285.6922
11
-33.0
21
68.0
31
-285.6922
0
LINE
8
0
10
-33.0
20
68.0
30
-285.6922
11
-32.0
21
62.0
31
-285.6922
0
LINE
8
0
10
-32.0
20
62.0
30
-285.6922
11
-20.0
21
60.0
31
-280.6922
0
LINE
8
0
10
-20.0
20
60.0
30
-280.6922
11
-28.0
21
52.0
31
-285.6922
0
LINE
8
0
10
-28.0
20
52.0
30
-285.6922
11
-25.0
21
48.0
31
-280.6922
0
LINE
8
0
10
-25.0
20
48.0
30
-280.6922
11
-20.0
21
44.0
31
-280.6922
0
LINE
8
0
10
-20.0
20
44.0
30
-280.6922
11
-15.0
21
41.0
31
-280.6922
0
LINE
8
0
10
-15.0
20
41.0
30
-280.6922
11
-10.0
21
40.0
31
-275.6922
0
LINE
8
0
10
-10.0
20
40.0
30
-275.6922
11
-5.0
21
37.0
31
-275.6922
0
LINE
8
0
10
-5.0
20
37.0
30
-275.6922
11
0.0
21
36.0
31
-275.6922
0
LINE
8
0
10
0.0
20
36.0
30
-275.6922
11
6.0
21
36.0
31
-270.6922
0
LINE
8
0
10
6.0
20
36.0
30
-270.6922
11
13.0
21
37.0
31
-270.6922
0
LINE
8
0
10
13.0
20
37.0
30
-270.6922
11
23.0
21
40.0
31
-265.6922
0
LINE
8
0
10
23.0
20
40.0
30
-265.6922
11
29.0
21
45.0
31
-265.6922
0
LINE
8
0
10
29.0
20
45.0
30
-265.6922
11
33.0
21
54.0
31
-260.6922
0
LINE
8
0
10
33.0
20
54.0
30
-260.6922
11
32.0
21
61.0
31
-255.6922
0
LINE
8
0
10
32.0
20
61.0
30
-255.6922
11
27.0
21
67.0
31
-255.6922
0
LINE
8
0
10
27.0
20
67.0
30
-255.6922
11
21.0
21
72.0
31
-250.6922
0
LINE
8
0
10
21.0
20
72.0
30
-250.6922
11
16.0
21
76.0
31
-245.6922
0
LINE
8
0
10
16.0
20
76.0
30
-245.6922
11
11.0
21
75.0
31
-245.6922
0
LINE
8
0
10
11.0
20
75.0
30
-245.6922
11
7.0
21
72.0
31
-240.6922
0
LINE
8
0
10
7.0
20
72.0
30
-240.6922
11
2.0
21
66.0
31
-240.6922
0
ENDSEC
0
EOF
