0
SECTION
2
ENTITIES
0
3DFACE
8
0
10
-320.0
20
-240.0
30
-415.6922
11
-320.0
21
240.0
31
-415.6922
12
320.0
22
240.0
32
-415.6922
13
320.0001
23
240.0001
33
-415.6921
0
3DFACE
8
0
10
320.0
20
240.0
30
-415.6922
11
320.0
21
-240.0
31
-415.6922
12
-320.0
22
-240.0
32
-415.6922
13
-319.9999
23
-239.9999
33
-415.6921
0
3DFACE
8
0
10
-309.0
20
-232.0
30
-415.6922
11
-303.0
21
-232.0
31
-415.6922
12
-303.0
22
-224.0
32
-415.6922
13
-302.9999
23
-223.9999
33
-415.6921
0
3DFACE
8
0
10
-303.0
20
-224.0
30
-415.6922
11
-309.0
21
-224.0
31
-415.6922
12
-309.0
22
-232.0
32
-415.6922
13
-308.9999
23
-231.9999
33
-415.6921
0
3DFACE
8
0
10
-303.0
20
-230.0
30
-415.6922
11
-298.0
21
-230.0
31
-415.6922
12
-298.0
22
-224.0
32
-415.6922
13
-297.9999
23
-223.9999
33
-415.6921
0
3DFACE
8
0
10
-298.0
20
-224.0
30
-415.6922
11
-303.0
21
-224.0
31
-415.6922
12
-303.0
22
-230.0
32
-415.6922
13
-302.9999
23
-229.9999
33
-415.6921
0
3DFACE
8
0
10
-299.0
20
-230.0
30
-415.6922
11
-293.0
21
-230.0
31
-415.6922
12
-293.0
22
-224.0
32
-415.6922
13
-292.9999
23
-223.9999
33
-415.6921
0
3DFACE
8
0
10
-293.0
20
-224.0
30
-415.6922
11
-299.0
21
-224.0
31
-415.6922
12
-299.0
22
-230.0
32
-415.6922
13
-298.9999
23
-229.9999
33
-415.6921
0
3DFACE
8
0
10
-292.0
20
-230.0
30
-415.6922
11
-286.0
21
-230.0
31
-415.6922
12
-286.0
22
-224.0
32
-415.6922
13
-285.9999
23
-223.9999
33
-415.6921
0
3DFACE
8
0
10
-286.0
20
-224.0
30
-415.6922
11
-292.0
21
-224.0
31
-415.6922
12
-292.0
22
-230.0
32
-415.6922
13
-291.9999
23
-229.9999
33
-415.6921
0
3DFACE
8
0
10
-286.0
20
-230.0
30
-415.6922
11
-280.0
21
-230.0
31
-415.6922
12
-280.0
22
-224.0
32
-415.6922
13
-279.9999
23
-223.9999
33
-415.6921
0
3DFACE
8
0
10
-280.0
20
-224.0
30
-415.6922
11
-286.0
21
-224.0
31
-415.6922
12
-286.0
22
-230.0
32
-415.6922
13
-285.9999
23
-229.9999
33
-415.6921
0
3DFACE
8
0
10
-280.0
20
-230.0
30
-415.6922
11
-275.0
21
-230.0
31
-415.6922
12
-275.0
22
-224.0
32
-415.6922
13
-274.9999
23
-223.9999
33
-415.6921
0
3DFACE
8
0
10
-275.0
20
-224.0
30
-415.6922
11
-280.0
21
-224.0
31
-415.6922
12
-280.0
22
-230.0
32
-415.6922
13
-279.9999
23
-229.9999
33
-415.6921
0
3DFACE
8
0
10
-275.0
20
-230.0
30
-415.6922
11
-270.0
21
-230.0
31
-415.6922
12
-270.0
22
-224.0
32
-415.6922
13
-269.9999
23
-223.9999
33
-415.6921
0
3DFACE
8
0
10
-270.0
20
-224.0
30
-415.6922
11
-275.0
21
-224.0
31
-415.6922
12
-275.0
22
-230.0
32
-415.6922
13
-274.9999
23
-229.9999
33
-415.6921
0
3DFACE
8
0
10
-270.0
20
-233.0
30
-415.6922
11
-267.0
21
-233.0
31
-415.6922
12
-267.0
22
-224.0
32
-415.6922
13
-266.9999
23
-223.9999
33
-415.6921
0
3DFACE
8
0
10
-267.0
20
-224.0
30
-415.6922
11
-270.0
21
-224.0
31
-415.6922
12
-270.0
22
-233.0
32
-415.6922
13
-269.9999
23
-232.9999
33
-415.6921
0
3DFACE
8
0
10
-267.0
20
-230.0
30
-415.6922
11
-261.0
21
-230.0
31
-415.6922
12
-261.0
22
-224.0
32
-415.6922
13
-260.9999
23
-223.9999
33
-415.6921
0
3DFACE
8
0
10
-261.0
20
-224.0
30
-415.6922
11
-267.0
21
-224.0
31
-415.6922
12
-267.0
22
-230.0
32
-415.6922
13
-266.9999
23
-229.9999
33
-415.6921
0
3DFACE
8
0
10
-260.0
20
-230.0
30
-415.6922
11
-254.0
21
-230.0
31
-415.6922
12
-254.0
22
-222.0
32
-415.6922
13
-253.9999
23
-221.9999
33
-415.6921
0
3DFACE
8
0
10
-254.0
20
-222.0
30
-415.6922
11
-260.0
21
-222.0
31
-415.6922
12
-260.0
22
-230.0
32
-415.6922
13
-259.9999
23
-229.9999
33
-415.6921
0
3DFACE
8
0
10
-266.0
20
-248.0
30
-415.6922
11
-265.0
21
-248.0
31
-415.6922
12
-265.0
22
-247.0
32
-415.6922
13
-264.9999
23
-246.9999
33
-415.6921
0
3DFACE
8
0
10
-265.0
20
-247.0
30
-415.6922
11
-266.0
21
-247.0
31
-415.6922
12
-266.0
22
-248.0
32
-415.6922
13
-265.9999
23
-247.9999
33
-415.6921
0
3DFACE
8
0
10
-250.0
20
-232.0
30
-415.6922
11
-245.0
21
-232.0
31
-415.6922
12
-245.0
22
-224.0
32
-415.6922
13
-244.9999
23
-223.9999
33
-415.6921
0
3DFACE
8
0
10
-245.0
20
-224.0
30
-415.6922
11
-250.0
21
-224.0
31
-415.6922
12
-250.0
22
-232.0
32
-415.6922
13
-249.9999
23
-231.9999
33
-415.6921
0
3DFACE
8
0
10
-244.0
20
-232.0
30
-415.6922
11
-238.0
21
-232.0
31
-415.6922
12
-238.0
22
-224.0
32
-415.6922
13
-237.9999
23
-223.9999
33
-415.6921
0
3DFACE
8
0
10
-238.0
20
-224.0
30
-415.6922
11
-244.0
21
-224.0
31
-415.6922
12
-244.0
22
-232.0
32
-415.6922
13
-243.9999
23
-231.9999
33
-415.6921
0
3DFACE
8
0
10
-238.0
20
-230.0
30
-415.6922
11
-235.0
21
-230.0
31
-415.6922
12
-235.0
22
-224.0
32
-415.6922
13
-234.9999
23
-223.9999
33
-415.6921
0
3DFACE
8
0
10
-235.0
20
-224.0
30
-415.6922
11
-238.0
21
-224.0
31
-415.6922
12
-238.0
22
-230.0
32
-415.6922
13
-237.9999
23
-229.9999
33
-415.6921
0
3DFACE
8
0
10
-247.0
20
-248.0
30
-415.6922
11
-246.0
21
-248.0
31
-415.6922
12
-246.0
22
-247.0
32
-415.6922
13
-245.9999
23
-246.9999
33
-415.6921
0
3DFACE
8
0
10
-246.0
20
-247.0
30
-415.6922
11
-247.0
21
-247.0
31
-415.6922
12
-247.0
22
-248.0
32
-415.6922
13
-246.9999
23
-247.9999
33
-415.6921
0
3DFACE
8
0
10
-232.0
20
-232.0
30
-415.6922
11
-226.0
21
-232.0
31
-415.6922
12
-226.0
22
-224.0
32
-415.6922
13
-225.9999
23
-223.9999
33
-415.6921
0
3DFACE
8
0
10
-226.0
20
-224.0
30
-415.6922
11
-232.0
21
-224.0
31
-415.6922
12
-232.0
22
-232.0
32
-415.6922
13
-231.9999
23
-231.9999
33
-415.6921
0
3DFACE
8
0
10
-226.0
20
-232.0
30
-415.6922
11
-220.0
21
-232.0
31
-415.6922
12
-220.0
22
-224.0
32
-415.6922
13
-219.9999
23
-223.9999
33
-415.6921
0
3DFACE
8
0
10
-220.0
20
-224.0
30
-415.6922
11
-226.0
21
-224.0
31
-415.6922
12
-226.0
22
-232.0
32
-415.6922
13
-225.9999
23
-231.9999
33
-415.6921
0
3DFACE
8
0
10
-310.0
20
-211.6
30
-415.6922
11
-304.0
21
-211.6
31
-415.6922
12
-304.0
22
-203.6
32
-415.6922
13
-303.9999
23
-203.5999
33
-415.6921
0
3DFACE
8
0
10
-304.0
20
-203.6
30
-415.6922
11
-310.0
21
-203.6
31
-415.6922
12
-310.0
22
-211.6
32
-415.6922
13
-309.9999
23
-211.5999
33
-415.6921
0
3DFACE
8
0
10
-303.0
20
-209.6
30
-415.6922
11
-297.0
21
-209.6
31
-415.6922
12
-297.0
22
-203.6
32
-415.6922
13
-296.9999
23
-203.5999
33
-415.6921
0
3DFACE
8
0
10
-297.0
20
-203.6
30
-415.6922
11
-303.0
21
-203.6
31
-415.6922
12
-303.0
22
-209.6
32
-415.6922
13
-302.9999
23
-209.5999
33
-415.6921
0
3DFACE
8
0
10
-297.0
20
-209.6
30
-415.6922
11
-287.0
21
-209.6
31
-415.6922
12
-287.0
22
-203.6
32
-415.6922
13
-286.9999
23
-203.5999
33
-415.6921
0
3DFACE
8
0
10
-287.0
20
-203.6
30
-415.6922
11
-297.0
21
-203.6
31
-415.6922
12
-297.0
22
-209.6
32
-415.6922
13
-296.9999
23
-209.5999
33
-415.6921
0
3DFACE
8
0
10
-287.0
20
-209.6
30
-415.6922
11
-280.0
21
-209.6
31
-415.6922
12
-280.0
22
-201.6
32
-415.6922
13
-279.9999
23
-201.5999
33
-415.6921
0
3DFACE
8
0
10
-280.0
20
-201.6
30
-415.6922
11
-287.0
21
-201.6
31
-415.6922
12
-287.0
22
-209.6
32
-415.6922
13
-286.9999
23
-209.5999
33
-415.6921
0
3DFACE
8
0
10
-280.0
20
-212.6
30
-415.6922
11
-277.0
21
-212.6
31
-415.6922
12
-277.0
22
-203.6
32
-415.6922
13
-276.9999
23
-203.5999
33
-415.6921
0
3DFACE
8
0
10
-277.0
20
-203.6
30
-415.6922
11
-280.0
21
-203.6
31
-415.6922
12
-280.0
22
-212.6
32
-415.6922
13
-279.9999
23
-212.5999
33
-415.6921
0
3DFACE
8
0
10
-277.0
20
-209.6
30
-415.6922
11
-271.0
21
-209.6
31
-415.6922
12
-271.0
22
-203.6
32
-415.6922
13
-270.9999
23
-203.5999
33
-415.6921
0
3DFACE
8
0
10
-271.0
20
-203.6
30
-415.6922
11
-277.0
21
-203.6
31
-415.6922
12
-277.0
22
-209.6
32
-415.6922
13
-276.9999
23
-209.5999
33
-415.6921
0
3DFACE
8
0
10
-271.0
20
-209.6
30
-415.6922
11
-266.0
21
-209.6
31
-415.6922
12
-266.0
22
-203.6
32
-415.6922
13
-265.9999
23
-203.5999
33
-415.6921
0
3DFACE
8
0
10
-266.0
20
-203.6
30
-415.6922
11
-271.0
21
-203.6
31
-415.6922
12
-271.0
22
-209.6
32
-415.6922
13
-270.9999
23
-209.5999
33
-415.6921
0
3DFACE
8
0
10
-266.0
20
-209.6
30
-415.6922
11
-263.0
21
-209.6
31
-415.6922
12
-263.0
22
-203.6
32
-415.6922
13
-262.9999
23
-203.5999
33
-415.6921
0
3DFACE
8
0
10
-263.0
20
-203.6
30
-415.6922
11
-266.0
21
-203.6
31
-415.6922
12
-266.0
22
-209.6
32
-415.6922
13
-265.9999
23
-209.5999
33
-415.6921
0
3DFACE
8
0
10
-275.0
20
-227.6
30
-415.6922
11
-274.0
21
-227.6
31
-415.6922
12
-274.0
22
-226.6
32
-415.6922
13
-273.9999
23
-226.5999
33
-415.6921
0
3DFACE
8
0
10
-274.0
20
-226.6
30
-415.6922
11
-275.0
21
-226.6
31
-415.6922
12
-275.0
22
-227.6
32
-415.6922
13
-274.9999
23
-227.5999
33
-415.6921
0
3DFACE
8
0
10
-260.0
20
-211.6
30
-415.6922
11
-254.0
21
-211.6
31
-415.6922
12
-254.0
22
-203.6
32
-415.6922
13
-253.9999
23
-203.5999
33
-415.6921
0
3DFACE
8
0
10
-254.0
20
-203.6
30
-415.6922
11
-260.0
21
-203.6
31
-415.6922
12
-260.0
22
-211.6
32
-415.6922
13
-259.9999
23
-211.5999
33
-415.6921
0
3DFACE
8
0
10
-254.0
20
-211.6
30
-415.6922
11
-248.0
21
-211.6
31
-415.6922
12
-248.0
22
-203.6
32
-415.6922
13
-247.9999
23
-203.5999
33
-415.6921
0
3DFACE
8
0
10
-248.0
20
-203.6
30
-415.6922
11
-254.0
21
-203.6
31
-415.6922
12
-254.0
22
-211.6
32
-415.6922
13
-253.9999
23
-211.5999
33
-415.6921
0
3DFACE
8
0
10
-248.0
20
-211.6
30
-415.6922
11
-242.0
21
-211.6
31
-415.6922
12
-242.0
22
-203.6
32
-415.6922
13
-241.9999
23
-203.5999
33
-415.6921
0
3DFACE
8
0
10
-242.0
20
-203.6
30
-415.6922
11
-248.0
21
-203.6
31
-415.6922
12
-248.0
22
-211.6
32
-415.6922
13
-247.9999
23
-211.5999
33
-415.6921
0
3DFACE
8
0
10
-310.0
20
-191.2
30
-415.6922
11
-304.0
21
-191.2
31
-415.6922
12
-304.0
22
-183.2
32
-415.6922
13
-303.9999
23
-183.19989
33
-415.6921
0
3DFACE
8
0
10
-304.0
20
-183.2
30
-415.6922
11
-310.0
21
-183.2
31
-415.6922
12
-310.0
22
-191.2
32
-415.6922
13
-309.9999
23
-191.19989
33
-415.6921
0
3DFACE
8
0
10
-303.0
20
-189.2
30
-415.6922
11
-297.0
21
-189.2
31
-415.6922
12
-297.0
22
-183.2
32
-415.6922
13
-296.9999
23
-183.19989
33
-415.6921
0
3DFACE
8
0
10
-297.0
20
-183.2
30
-415.6922
11
-303.0
21
-183.2
31
-415.6922
12
-303.0
22
-189.2
32
-415.6922
13
-302.9999
23
-189.19989
33
-415.6921
0
3DFACE
8
0
10
-297.0
20
-189.2
30
-415.6922
11
-287.0
21
-189.2
31
-415.6922
12
-287.0
22
-183.2
32
-415.6922
13
-286.9999
23
-183.19989
33
-415.6921
0
3DFACE
8
0
10
-287.0
20
-183.2
30
-415.6922
11
-297.0
21
-183.2
31
-415.6922
12
-297.0
22
-189.2
32
-415.6922
13
-296.9999
23
-189.19989
33
-415.6921
0
3DFACE
8
0
10
-287.0
20
-189.2
30
-415.6922
11
-280.0
21
-189.2
31
-415.6922
12
-280.0
22
-181.2
32
-415.6922
13
-279.9999
23
-181.19989
33
-415.6921
0
3DFACE
8
0
10
-280.0
20
-181.2
30
-415.6922
11
-287.0
21
-181.2
31
-415.6922
12
-287.0
22
-189.2
32
-415.6922
13
-286.9999
23
-189.19989
33
-415.6921
0
3DFACE
8
0
10
-280.0
20
-192.2
30
-415.6922
11
-277.0
21
-192.2
31
-415.6922
12
-277.0
22
-183.2
32
-415.6922
13
-276.9999
23
-183.19989
33
-415.6921
0
3DFACE
8
0
10
-277.0
20
-183.2
30
-415.6922
11
-280.0
21
-183.2
31
-415.6922
12
-280.0
22
-192.2
32
-415.6922
13
-279.9999
23
-192.19989
33
-415.6921
0
3DFACE
8
0
10
-277.0
20
-192.2
30
-415.6922
11
-274.0
21
-192.2
31
-415.6922
12
-274.0
22
-183.2
32
-415.6922
13
-273.9999
23
-183.19989
33
-415.6921
0
3DFACE
8
0
10
-274.0
20
-183.2
30
-415.6922
11
-277.0
21
-183.2
31
-415.6922
12
-277.0
22
-192.2
32
-415.6922
13
-276.9999
23
-192.19989
33
-415.6921
0
3DFACE
8
0
10
-274.0
20
-189.2
30
-415.6922
11
-268.0
21
-189.2
31
-415.6922
12
-268.0
22
-183.2
32
-415.6922
13
-267.9999
23
-183.19989
33
-415.6921
0
3DFACE
8
0
10
-268.0
20
-183.2
30
-415.6922
11
-274.0
21
-183.2
31
-415.6922
12
-274.0
22
-189.2
32
-415.6922
13
-273.9999
23
-189.19989
33
-415.6921
0
3DFACE
8
0
10
-267.0
20
-189.2
30
-415.6922
11
-261.0
21
-189.2
31
-415.6922
12
-261.0
22
-181.2
32
-415.6922
13
-260.9999
23
-181.19989
33
-415.6921
0
3DFACE
8
0
10
-261.0
20
-181.2
30
-415.6922
11
-267.0
21
-181.2
31
-415.6922
12
-267.0
22
-189.2
32
-415.6922
13
-266.9999
23
-189.19989
33
-415.6921
0
3DFACE
8
0
10
-261.0
20
-189.2
30
-415.6922
11
-258.0
21
-189.2
31
-415.6922
12
-258.0
22
-183.2
32
-415.6922
13
-257.9999
23
-183.19989
33
-415.6921
0
3DFACE
8
0
10
-258.0
20
-183.2
30
-415.6922
11
-261.0
21
-183.2
31
-415.6922
12
-261.0
22
-189.2
32
-415.6922
13
-260.9999
23
-189.19989
33
-415.6921
0
3DFACE
8
0
10
-270.0
20
-207.2
30
-415.6922
11
-269.0
21
-207.2
31
-415.6922
12
-269.0
22
-206.2
32
-415.6922
13
-268.9999
23
-206.19989
33
-415.6921
0
3DFACE
8
0
10
-269.0
20
-206.2
30
-415.6922
11
-270.0
21
-206.2
31
-415.6922
12
-270.0
22
-207.2
32
-415.6922
13
-269.9999
23
-207.19989
33
-415.6921
0
3DFACE
8
0
10
-255.0
20
-192.2
30
-415.6922
11
-251.0
21
-192.2
31
-415.6922
12
-251.0
22
-183.2
32
-415.6922
13
-250.9999
23
-183.19989
33
-415.6921
0
3DFACE
8
0
10
-251.0
20
-183.2
30
-415.6922
11
-255.0
21
-183.2
31
-415.6922
12
-255.0
22
-192.2
32
-415.6922
13
-254.9999
23
-192.19989
33
-415.6921
0
3DFACE
8
0
10
-251.0
20
-189.2
30
-415.6922
11
-245.0
21
-189.2
31
-415.6922
12
-245.0
22
-183.2
32
-415.6922
13
-244.9999
23
-183.19989
33
-415.6921
0
3DFACE
8
0
10
-245.0
20
-183.2
30
-415.6922
11
-251.0
21
-183.2
31
-415.6922
12
-251.0
22
-189.2
32
-415.6922
13
-250.9999
23
-189.19989
33
-415.6921
0
3DFACE
8
0
10
-245.0
20
-192.2
30
-415.6922
11
-242.0
21
-192.2
31
-415.6922
12
-242.0
22
-183.2
32
-415.6922
13
-241.9999
23
-183.19989
33
-415.6921
0
3DFACE
8
0
10
-242.0
20
-183.2
30
-415.6922
11
-245.0
21
-183.2
31
-415.6922
12
-245.0
22
-192.2
32
-415.6922
13
-244.9999
23
-192.19989
33
-415.6921
0
3DFACE
8
0
10
-242.0
20
-189.2
30
-415.6922
11
-237.0
21
-189.2
31
-415.6922
12
-237.0
22
-183.2
32
-415.6922
13
-236.9999
23
-183.19989
33
-415.6921
0
3DFACE
8
0
10
-237.0
20
-183.2
30
-415.6922
11
-242.0
21
-183.2
31
-415.6922
12
-242.0
22
-189.2
32
-415.6922
13
-241.9999
23
-189.19989
33
-415.6921
0
3DFACE
8
0
10
-237.0
20
-189.2
30
-415.6922
11
-231.0
21
-189.2
31
-415.6922
12
-231.0
22
-183.2
32
-415.6922
13
-230.9999
23
-183.19989
33
-415.6921
0
3DFACE
8
0
10
-231.0
20
-183.2
30
-415.6922
11
-237.0
21
-183.2
31
-415.6922
12
-237.0
22
-189.2
32
-415.6922
13
-236.9999
23
-189.19989
33
-415.6921
0
3DFACE
8
0
10
33.0
20
-42.0
30
-405.6922
11
43.0
21
-42.0
31
-405.6922
12
42.51056
22
-38.909836
32
-405.6922
13
42.51066
23
-38.909737
33
-405.6921
0
3DFACE
8
0
10
33.0
20
-42.0
30
-405.6922
11
42.51056
21
-38.909836
31
-405.6922
12
41.09018
22
-36.122147
32
-405.6922
13
41.09028
23
-36.122047
33
-405.6921
0
3DFACE
8
0
10
33.0
20
-42.0
30
-405.6922
11
41.09018
21
-36.122147
31
-405.6922
12
38.87784
22
-33.909836
32
-405.6922
13
38.877937
23
-33.909737
33
-405.6921
0
3DFACE
8
0
10
33.0
20
-42.0
30
-405.6922
11
38.87784
21
-33.909836
31
-405.6922
12
36.09018
22
-32.48944
32
-405.6922
13
36.09028
23
-32.48934
33
-405.6921
0
3DFACE
8
0
10
33.0
20
-42.0
30
-405.6922
11
36.09018
21
-32.48944
31
-405.6922
12
33.0
22
-32.0
32
-405.6922
13
33.0001
23
-31.9999
33
-405.6921
0
3DFACE
8
0
10
33.0
20
-42.0
30
-405.6922
11
33.0
21
-32.0
31
-405.6922
12
29.90982
22
-32.48944
32
-405.6922
13
29.90992
23
-32.48934
33
-405.6921
0
3DFACE
8
0
10
33.0
20
-42.0
30
-405.6922
11
29.90982
21
-32.48944
31
-405.6922
12
27.122162
22
-33.909836
32
-405.6922
13
27.122261
23
-33.909737
33
-405.6921
0
3DFACE
8
0
10
33.0
20
-42.0
30
-405.6922
11
27.122162
21
-33.909836
31
-405.6922
12
24.90982
22
-36.122147
32
-405.6922
13
24.90992
23
-36.122047
33
-405.6921
0
3DFACE
8
0
10
33.0
20
-42.0
30
-405.6922
11
24.90982
21
-36.122147
31
-405.6922
12
23.48944
22
-38.909836
32
-405.6922
13
23.48954
23
-38.909737
33
-405.6921
0
3DFACE
8
0
10
33.0
20
-42.0
30
-405.6922
11
23.48944
21
-38.909836
31
-405.6922
12
23.0
22
-42.0
32
-405.6922
13
23.0001
23
-41.9999
33
-405.6921
0
3DFACE
8
0
10
33.0
20
-42.0
30
-405.6922
11
23.0
21
-42.0
31
-405.6922
12
23.48944
22
-45.090164
32
-405.6922
13
23.48954
23
-45.090065
33
-405.6921
0
3DFACE
8
0
10
33.0
20
-42.0
30
-405.6922
11
23.48944
21
-45.090164
31
-405.6922
12
24.90982
22
-47.877853
32
-405.6922
13
24.90992
23
-47.877754
33
-405.6921
0
3DFACE
8
0
10
33.0
20
-42.0
30
-405.6922
11
24.90982
21
-47.877853
31
-405.6922
12
27.122131
22
-50.090164
32
-405.6922
13
27.12223
23
-50.090065
33
-405.6921
0
3DFACE
8
0
10
33.0
20
-42.0
30
-405.6922
11
27.122131
21
-50.090164
31
-405.6922
12
29.90982
22
-51.51056
32
-405.6922
13
29.90992
23
-51.51046
33
-405.6921
0
3DFACE
8
0
10
33.0
20
-42.0
30
-405.6922
11
29.90982
21
-51.51056
31
-405.6922
12
33.0
22
-52.0
32
-405.6922
13
33.0001
23
-51.9999
33
-405.6921
0
3DFACE
8
0
10
33.0
20
-42.0
30
-405.6922
11
33.0
21
-52.0
31
-405.6922
12
36.09018
22
-51.51056
32
-405.6922
13
36.09028
23
-51.51046
33
-405.6921
0
3DFACE
8
0
10
33.0
20
-42.0
30
-405.6922
11
36.09018
21
-51.51056
31
-405.6922
12
38.87784
22
-50.090164
32
-405.6922
13
38.877937
23
-50.090065
33
-405.6921
0
3DFACE
8
0
10
33.0
20
-42.0
30
-405.6922
11
38.87784
21
-50.090164
31
-405.6922
12
41.09018
22
-47.877853
32
-405.6922
13
41.09028
23
-47.877754
33
-405.6921
0
3DFACE
8
0
10
33.0
20
-42.0
30
-405.6922
11
41.09018
21
-47.877853
31
-405.6922
12
42.51056
22
-45.090164
32
-405.6922
13
42.51066
23
-45.090065
33
-405.6921
0
3DFACE
8
0
10
33.0
20
-42.0
30
-405.6922
11
42.51056
21
-45.090164
31
-405.6922
12
43.0
22
-42.0
32
-405.6922
13
43.0001
23
-41.9999
33
-405.6921
0
LINE
8
0
10
43.0
20
-42.0
30
-405.6922
11
42.51056
21
-38.909836
31
-405.6922
0
LINE
8
0
10
42.51056
20
-38.909836
30
-405.6922
11
41.09018
21
-36.122147
31
-405.6922
0
LINE
8
0
10
41.09018
20
-36.122147
30
-405.6922
11
38.87784
21
-33.909836
31
-405.6922
0
LINE
8
0
10
38.87784
20
-33.909836
30
-405.6922
11
36.09018
21
-32.48944
31
-405.6922
0
LINE
8
0
10
36.09018
20
-32.48944
30
-405.6922
11
33.0
21
-32.0
31
-405.6922
0
LINE
8
0
10
33.0
20
-32.0
30
-405.6922
11
29.90982
21
-32.48944
31
-405.6922
0
LINE
8
0
10
29.90982
20
-32.48944
30
-405.6922
11
27.122162
21
-33.909836
31
-405.6922
0
LINE
8
0
10
27.122162
20
-33.909836
30
-405.6922
11
24.90982
21
-36.122147
31
-405.6922
0
LINE
8
0
10
24.90982
20
-36.122147
30
-405.6922
11
23.48944
21
-38.909836
31
-405.6922
0
LINE
8
0
10
23.48944
20
-38.909836
30
-405.6922
11
23.0
21
-42.0
31
-405.6922
0
LINE
8
0
10
23.0
20
-42.0
30
-405.6922
11
23.48944
21
-45.090164
31
-405.6922
0
LINE
8
0
10
23.48944
20
-45.090164
30
-405.6922
11
24.90982
21
-47.877853
31
-405.6922
0
LINE
8
0
10
24.90982
20
-47.877853
30
-405.6922
11
27.122131
21
-50.090164
31
-405.6922
0
LINE
8
0
10
27.122131
20
-50.090164
30
-405.6922
11
29.90982
21
-51.51056
31
-405.6922
0
LINE
8
0
10
29.90982
20
-51.51056
30
-405.6922
11
33.0
21
-52.0
31
-405.6922
0
LINE
8
0
10
33.0
20
-52.0
30
-405.6922
11
36.09018
21
-51.51056
31
-405.6922
0
LINE
8
0
10
36.09018
20
-51.51056
30
-405.6922
11
38.87784
21
-50.090164
31
-405.6922
0
LINE
8
0
10
38.87784
20
-50.090164
30
-405.6922
11
41.09018
21
-47.877853
31
-405.6922
0
LINE
8
0
10
41.09018
20
-47.877853
30
-405.6922
11
42.51056
21
-45.090164
31
-405.6922
0
LINE
8
0
10
42.51056
20
-45.090164
30
-405.6922
11
43.0
21
-42.0
31
-405.6922
0
LINE
8
0
10
6.0
20
-3.0
30
-75.6922
11
6.0
21
3.0
31
-75.6922
0
LINE
8
0
10
6.0
20
3.0
30
-75.6922
11
6.0
21
9.0
31
-85.6922
0
LINE
8
0
10
6.0
20
9.0
30
-85.6922
11
7.0
21
14.0
31
-100.6922
0
LINE
8
0
10
7.0
20
14.0
30
-100.6922
11
6.0
21
13.0
31
-125.6922
0
LINE
8
0
10
6.0
20
13.0
30
-125.6922
11
5.0
21
8.0
31
-140.6922
0
LINE
8
0
10
5.0
20
8.0
30
-140.6922
11
4.0
21
2.0
31
-155.6922
0
LINE
8
0
10
4.0
20
2.0
30
-155.6922
11
7.0
21
-3.0
31
-160.6922
0
LINE
8
0
10
7.0
20
-3.0
30
-160.6922
11
2.0
21
-8.0
31
-170.6922
0
LINE
8
0
10
2.0
20
-8.0
30
-170.6922
11
2.0
21
-13.0
31
-175.6922
0
LINE
8
0
10
2.0
20
-13.0
30
-175.6922
11
2.0
21
-19.0
31
-180.6922
0
LINE
8
0
10
2.0
20
-19.0
30
-180.6922
11
2.0
21
-28.0
31
-190.6922
0
LINE
8
0
10
2.0
20
-28.0
30
-190.6922
11
4.0
21
-36.0
31
-195.6922
0
LINE
8
0
10
4.0
20
-36.0
30
-195.6922
11
5.0
21
-46.0
31
-200.6922
0
LINE
8
0
10
5.0
20
-46.0
30
-200.6922
11
6.0
21
-57.0
31
-205.6922
0
LINE
8
0
10
6.0
20
-57.0
30
-205.6922
11
7.0
21
-67.0
31
-210.6922
0
LINE
8
0
10
7.0
20
-67.0
30
-210.6922
11
9.0
21
-77.0
31
-210.6922
0
LINE
8
0
10
9.0
20
-77.0
30
-210.6922
11
9.0
21
-86.0
31
-215.6922
0
LINE
8
0
10
9.0
20
-86.0
30
-215.6922
11
10.0
21
-95.0
31
-215.6922
0
LINE
8
0
10
10.0
20
-95.0
30
-215.6922
11
10.0
21
-103.0
31
-220.6922
0
LINE
8
0
10
10.0
20
-103.0
30
-220.6922
11
10.0
21
-111.0
31
-220.6922
0
LINE
8
0
10
10.0
20
-111.0
30
-220.6922
11
10.0
21
-118.0
31
-215.6922
0
LINE
8
0
10
10.0
20
-118.0
30
-215.6922
11
8.0
21
-125.0
31
-215.6922
0
LINE
8
0
10
8.0
20
-125.0
30
-215.6922
11
7.0
21
-131.0
31
-215.6922
0
LINE
8
0
10
7.0
20
-131.0
30
-215.6922
11
28.0
21
-220.0
31
-20.6922
0
LINE
8
0
10
28.0
20
-220.0
30
-20.6922
11
3.0
21
-138.0
31
-205.6922
0
LINE
8
0
10
3.0
20
-138.0
30
-205.6922
11
-2.0
21
-140.0
31
-185.6922
0
LINE
8
0
10
-2.0
20
-140.0
30
-185.6922
11
-7.0
21
-137.0
31
-165.6922
0
LINE
8
0
10
-7.0
20
-137.0
30
-165.6922
11
-10.0
21
-133.0
31
-155.6922
0
LINE
8
0
10
-10.0
20
-133.0
30
-155.6922
11
-10.0
21
-128.0
31
-140.6922
0
LINE
8
0
10
-10.0
20
-128.0
30
-140.6922
11
-14.0
21
-122.0
31
-130.6922
0
LINE
8
0
10
-14.0
20
-122.0
30
-130.6922
11
-16.0
21
-115.0
31
-115.6922
0
LINE
8
0
10
-16.0
20
-115.0
30
-115.6922
11
-17.0
21
-109.0
31
-100.6922
0
LINE
8
0
10
-17.0
20
-109.0
30
-100.6922
11
-19.0
21
-103.0
31
-85.6922
0
LINE
8
0
10
-19.0
20
-103.0
30
-85.6922
11
-21.0
21
-98.0
31
-70.6922
0
LINE
8
0
10
-21.0
20
-98.0
30
-70.6922
11
-26.0
21
-93.0
31
-55.6922
0
LINE
8
0
10
-26.0
20
-93.0
30
-55.6922
11
-32.0
21
-86.0
31
-40.6922
0
LINE
8
0
10
-32.0
20
-86.0
30
-40.6922
11
-37.0
21
-80.0
31
-25.6922
0
LINE
8
0
10
-37.0
20
-80.0
30
-25.6922
11
-43.0
21
-73.0
31
-10.6922
0
LINE
8
0
10
-43.0
20
-73.0
30
-10.6922
11
-48.0
21
-64.0
31
4.3078003
0
LINE
8
0
10
-48.0
20
-64.0
30
4.3078003
11
-53.0
21
-55.0
31
14.3078
0
LINE
8
0
10
-53.0
20
-55.0
30
14.3078
11
-57.0
21
-42.0
31
19.3078
0
LINE
8
0
10
-57.0
20
-42.0
30
19.3078
11
-59.0
21
-47.0
31
24.3078
0
LINE
8
0
10
-59.0
20
-47.0
30
24.3078
11
-65.0
21
-34.0
31
29.3078
0
LINE
8
0
10
-65.0
20
-34.0
30
29.3078
11
-68.0
21
-26.0
31
39.3078
0
LINE
8
0
10
-68.0
20
-26.0
30
39.3078
11
-75.0
21
-11.0
31
39.3078
0
LINE
8
0
10
-75.0
20
-11.0
30
39.3078
11
-78.0
21
-2.0
31
39.3078
0
LINE
8
0
10
-78.0
20
-2.0
30
39.3078
11
-83.0
21
9.0
31
39.3078
0
LINE
8
0
10
-83.0
20
9.0
30
39.3078
11
-88.0
21
20.0
31
34.3078
0
LINE
8
0
10
-88.0
20
20.0
30
34.3078
11
-86.0
21
30.0
31
34.3078
0
LINE
8
0
10
-86.0
20
30.0
30
34.3078
11
-92.0
21
30.0
31
29.3078
0
LINE
8
0
10
-92.0
20
30.0
30
29.3078
11
-97.0
21
38.0
31
24.3078
0
LINE
8
0
10
-97.0
20
38.0
30
24.3078
11
-100.0
21
45.0
31
14.3078
0
LINE
8
0
10
-100.0
20
45.0
30
14.3078
11
-103.0
21
51.0
31
4.3078003
0
LINE
8
0
10
-103.0
20
51.0
30
4.3078003
11
-106.0
21
56.0
31
-5.6921997
0
LINE
8
0
10
-106.0
20
56.0
30
-5.6921997
11
-111.0
21
60.0
31
-15.6922
0
LINE
8
0
10
-111.0
20
60.0
30
-15.6922
11
-119.0
21
64.0
31
-25.6922
0
LINE
8
0
10
-119.0
20
64.0
30
-25.6922
11
-118.0
21
70.0
31
-35.6922
0
LINE
8
0
10
-118.0
20
70.0
30
-35.6922
11
-125.0
21
68.0
31
-40.6922
0
LINE
8
0
10
-125.0
20
68.0
30
-40.6922
11
-132.0
21
67.0
31
-50.6922
0
LINE
8
0
10
-132.0
20
67.0
30
-50.6922
11
-142.0
21
66.0
31
-55.6922
0
LINE
8
0
10
-142.0
20
66.0
30
-55.6922
11
-152.0
21
64.0
31
-65.6922
0
LINE
8
0
10
-152.0
20
64.0
30
-65.6922
11
-162.0
21
58.0
31
-70.6922
0
LINE
8
0
10
-162.0
20
58.0
30
-70.6922
11
-170.0
21
53.0
31
-75.6922
0
LINE
8
0
10
-170.0
20
53.0
30
-75.6922
11
-181.0
21
45.0
31
-85.6922
0
LINE
8
0
10
-181.0
20
45.0
30
-85.6922
11
-191.0
21
40.0
31
-90.6922
0
LINE
8
0
10
-191.0
20
40.0
30
-90.6922
11
-200.0
21
33.0
31
-95.6922
0
LINE
8
0
10
-200.0
20
33.0
30
-95.6922
11
-208.0
21
29.0
31
-105.6922
0
LINE
8
0
10
-208.0
20
29.0
30
-105.6922
11
-217.0
21
21.0
31
-110.6922
0
LINE
8
0
10
-217.0
20
21.0
30
-110.6922
11
-224.0
21
12.0
31
-110.6922
0
LINE
8
0
10
-224.0
20
12.0
30
-110.6922
11
-231.0
21
4.0
31
-115.6922
0
LINE
8
0
10
-231.0
20
4.0
30
-115.6922
11
-236.0
21
-6.0
31
-120.6922
0
LINE
8
0
10
-236.0
20
-6.0
30
-120.6922
11
-239.0
21
-18.0
31
-120.6922
0
LINE
8
0
10
-239.0
20
-18.0
30
-120.6922
11
-239.0
21
-29.0
31
-120.6922
0
LINE
8
0
10
-239.0
20
-29.0
30
-120.6922
11
-239.0
21
-39.0
31
-120.6922
0
LINE
8
0
10
-239.0
20
-39.0
30
-120.6922
11
-236.0
21
-46.0
31
-120.6922
0
LINE
8
0
10
-236.0
20
-46.0
30
-120.6922
11
-231.0
21
-61.0
31
-120.6922
0
LINE
8
0
10
-231.0
20
-61.0
30
-120.6922
11
-223.0
21
-73.0
31
-120.6922
0
LINE
8
0
10
-223.0
20
-73.0
30
-120.6922
11
-215.0
21
-82.0
31
-120.6922
0
LINE
8
0
10
-215.0
20
-82.0
30
-120.6922
11
-205.0
21
-90.0
31
-120.6922
0
LINE
8
0
10
-205.0
20
-90.0
30
-120.6922
11
-193.0
21
-97.0
31
-120.6922
0
LINE
8
0
10
-193.0
20
-97.0
30
-120.6922
11
-179.0
21
-102.0
31
-115.6922
0
LINE
8
0
10
-179.0
20
-102.0
30
-115.6922
11
-164.0
21
-105.0
31
-115.6922
0
LINE
8
0
10
-164.0
20
-105.0
30
-115.6922
11
-149.0
21
-106.0
31
-115.6922
0
LINE
8
0
10
-149.0
20
-106.0
30
-115.6922
11
-133.0
21
-105.0
31
-110.6922
0
LINE
8
0
10
-133.0
20
-105.0
30
-110.6922
11
-116.0
21
-104.0
31
-110.6922
0
LINE
8
0
10
-116.0
20
-104.0
30
-110.6922
11
-101.0
21
-101.0
31
-105.6922
0
LINE
8
0
10
-101.0
20
-101.0
30
-105.6922
11
-87.0
21
-95.0
31
-100.6922
0
LINE
8
0
10
-87.0
20
-95.0
30
-100.6922
11
-74.0
21
-88.0
31
-100.6922
0
LINE
8
0
10
-74.0
20
-88.0
30
-100.6922
11
-62.0
21
-78.0
31
-95.6922
0
LINE
8
0
10
-62.0
20
-78.0
30
-95.6922
11
-52.0
21
-68.0
31
-90.6922
0
LINE
8
0
10
-52.0
20
-68.0
30
-90.6922
11
-42.0
21
-56.0
31
-85.6922
0
LINE
8
0
10
-42.0
20
-56.0
30
-85.6922
11
-33.0
21
-46.0
31
-85.6922
0
LINE
8
0
10
-33.0
20
-46.0
30
-85.6922
11
-24.0
21
-33.0
31
-80.6922
0
LINE
8
0
10
-24.0
20
-33.0
30
-80.6922
11
-15.0
21
-23.0
31
-80.6922
0
LINE
8
0
10
-15.0
20
-23.0
30
-80.6922
11
-8.0
21
-8.0
31
-80.6922
0
LINE
8
0
10
-8.0
20
-8.0
30
-80.6922
11
-1.0
21
4.0
31
-80.6922
0
LINE
8
0
10
-1.0
20
4.0
30
-80.6922
11
7.0
21
16.0
31
-80.6922
0
LINE
8
0
10
7.0
20
16.0
30
-80.6922
11
16.0
21
27.0
31
-85.6922
0
LINE
8
0
10
16.0
20
27.0
30
-85.6922
11
25.0
21
35.0
31
-90.6922
0
LINE
8
0
10
25.0
20
35.0
30
-90.6922
11
34.0
21
41.0
31
-95.6922
0
LINE
8
0
10
34.0
20
41.0
30
-95.6922
11
43.0
21
48.0
31
-105.6922
0
LINE
8
0
10
43.0
20
48.0
30
-105.6922
11
50.0
21
53.0
31
-110.6922
0
LINE
8
0
10
50.0
20
53.0
30
-110.6922
11
58.0
21
57.0
31
-120.6922
0
LINE
8
0
10
58.0
20
57.0
30
-120.6922
11
65.0
21
62.0
31
-125.6922
0
LINE
8
0
10
65.0
20
62.0
30
-125.6922
11
74.0
21
68.0
31
-135.6922
0
LINE
8
0
10
74.0
20
68.0
30
-135.6922
11
82.0
21
70.0
31
-145.6922
0
LINE
8
0
10
82.0
20
70.0
30
-145.6922
11
88.0
21
70.0
31
-150.6922
0
LINE
8
0
10
88.0
20
70.0
30
-150.6922
11
94.0
21
68.0
31
-160.6922
0
LINE
8
0
10
94.0
20
68.0
30
-160.6922
11
99.0
21
64.0
31
-165.6922
0
LINE
8
0
10
99.0
20
64.0
30
-165.6922
11
104.0
21
53.0
31
-185.6922
0
LINE
8
0
10
104.0
20
53.0
30
-185.6922
11
104.0
21
44.0
31
-190.6922
0
LINE
8
0
10
104.0
20
44.0
30
-190.6922
11
104.0
21
35.0
31
-200.6922
0
LINE
8
0
10
104.0
20
35.0
30
-200.6922
11
102.0
21
25.0
31
-205.6922
0
LINE
8
0
10
102.0
20
25.0
30
-205.6922
11
101.0
21
15.0
31
-210.6922
0
LINE
8
0
10
101.0
20
15.0
30
-210.6922
11
99.0
21
6.0
31
-215.6922
0
LINE
8
0
10
99.0
20
6.0
30
-215.6922
11
94.0
21
-4.0
31
-220.6922
0
LINE
8
0
10
94.0
20
-4.0
30
-220.6922
11
91.0
21
-14.0
31
-225.6922
0
LINE
8
0
10
91.0
20
-14.0
30
-225.6922
11
88.0
21
-24.0
31
-230.6922
0
LINE
8
0
10
88.0
20
-24.0
30
-230.6922
11
85.0
21
-34.0
31
-230.6922
0
LINE
8
0
10
85.0
20
-34.0
30
-230.6922
11
82.0
21
-42.0
31
-230.6922
0
LINE
8
0
10
82.0
20
-42.0
30
-230.6922
11
80.0
21
-50.0
31
-230.6922
0
LINE
8
0
10
80.0
20
-50.0
30
-230.6922
11
78.0
21
-58.0
31
-230.6922
0
LINE
8
0
10
78.0
20
-58.0
30
-230.6922
11
78.0
21
-65.0
31
-225.6922
0
LINE
8
0
10
78.0
20
-65.0
30
-225.6922
11
76.0
21
-71.0
31
-225.6922
0
LINE
8
0
10
76.0
20
-71.0
30
-225.6922
11
77.0
21
-76.0
31
-220.6922
0
LINE
8
0
10
77.0
20
-76.0
30
-220.6922
11
77.0
21
-82.0
31
-210.6922
0
LINE
8
0
10
77.0
20
-82.0
30
-210.6922
11
83.0
21
-76.0
31
-195.6922
0
LINE
8
0
10
83.0
20
-76.0
30
-195.6922
11
86.0
21
-70.0
31
-190.6922
0
LINE
8
0
10
86.0
20
-70.0
30
-190.6922
11
90.0
21
-63.0
31
-180.6922
0
LINE
8
0
10
90.0
20
-63.0
30
-180.6922
11
93.0
21
-55.0
31
-175.6922
0
LINE
8
0
10
93.0
20
-55.0
30
-175.6922
11
96.0
21
-45.0
31
-165.6922
0
LINE
8
0
10
96.0
20
-45.0
30
-165.6922
11
99.0
21
-33.0
31
-160.6922
0
LINE
8
0
10
99.0
20
-33.0
30
-160.6922
11
100.0
21
-22.0
31
-145.6922
0
LINE
8
0
10
100.0
20
-22.0
30
-145.6922
11
103.0
21
-11.0
31
-140.6922
0
LINE
8
0
10
103.0
20
-11.0
30
-140.6922
11
102.0
21
0.0
31
-130.6922
0
LINE
8
0
10
102.0
20
0.0
30
-130.6922
11
101.0
21
11.0
31
-120.6922
0
LINE
8
0
10
101.0
20
11.0
30
-120.6922
11
102.0
21
21.0
31
-110.6922
0
LINE
8
0
10
102.0
20
21.0
30
-110.6922
11
102.0
21
29.0
31
-105.6922
0
LINE
8
0
10
102.0
20
29.0
30
-105.6922
11
99.0
21
39.0
31
-100.6922
0
LINE
8
0
10
99.0
20
39.0
30
-100.6922
11
94.0
21
47.0
31
-100.6922
0
LINE
8
0
10
94.0
20
47.0
30
-100.6922
11
88.0
21
54.0
31
-100.6922
0
LINE
8
0
10
88.0
20
54.0
30
-100.6922
11
79.0
21
58.0
31
-100.6922
0
LINE
8
0
10
79.0
20
58.0
30
-100.6922
11
68.0
21
62.0
31
-100.6922
0
LINE
8
0
10
68.0
20
62.0
30
-100.6922
11
58.0
21
65.0
31
-100.6922
0
LINE
8
0
10
58.0
20
65.0
30
-100.6922
11
44.0
21
66.0
31
-100.6922
0
LINE
8
0
10
44.0
20
66.0
30
-100.6922
11
32.0
21
69.0
31
-100.6922
0
LINE
8
0
10
32.0
20
69.0
30
-100.6922
11
16.0
21
64.0
31
-100.6922
0
LINE
8
0
10
16.0
20
64.0
30
-100.6922
11
2.0
21
63.0
31
-100.6922
0
LINE
8
0
10
2.0
20
63.0
30
-100.6922
11
-11.0
21
59.0
31
-100.6922
0
LINE
8
0
10
-11.0
20
59.0
30
-100.6922
11
-29.0
21
51.0
31
-105.6922
0
LINE
8
0
10
-29.0
20
51.0
30
-105.6922
11
-44.0
21
46.0
31
-105.6922
0
LINE
8
0
10
-44.0
20
46.0
30
-105.6922
11
-61.0
21
36.0
31
-105.6922
0
LINE
8
0
10
-61.0
20
36.0
30
-105.6922
11
-76.0
21
27.0
31
-110.6922
0
LINE
8
0
10
-76.0
20
27.0
30
-110.6922
11
-90.0
21
18.0
31
-110.6922
0
LINE
8
0
10
-90.0
20
18.0
30
-110.6922
11
-102.0
21
9.0
31
-115.6922
0
LINE
8
0
10
-102.0
20
9.0
30
-115.6922
11
-113.0
21
1.0
31
-115.6922
0
LINE
8
0
10
-113.0
20
1.0
30
-115.6922
11
-120.0
21
-4.0
31
-120.6922
0
LINE
8
0
10
-120.0
20
-4.0
30
-120.6922
11
-121.0
21
-10.0
31
-120.6922
0
LINE
8
0
10
-121.0
20
-10.0
30
-120.6922
11
-126.0
21
-16.0
31
-125.6922
0
LINE
8
0
10
-126.0
20
-16.0
30
-125.6922
11
-131.0
21
-27.0
31
-130.6922
0
LINE
8
0
10
-131.0
20
-27.0
30
-130.6922
11
-133.0
21
-38.0
31
-135.6922
0
LINE
8
0
10
-133.0
20
-38.0
30
-135.6922
11
-134.0
21
-49.0
31
-140.6922
0
LINE
8
0
10
-134.0
20
-49.0
30
-140.6922
11
-132.0
21
-61.0
31
-145.6922
0
LINE
8
0
10
-132.0
20
-61.0
30
-145.6922
11
-127.0
21
-71.0
31
-150.6922
0
LINE
8
0
10
-127.0
20
-71.0
30
-150.6922
11
-119.0
21
-82.0
31
-155.6922
0
LINE
8
0
10
-119.0
20
-82.0
30
-155.6922
11
-107.0
21
-92.0
31
-160.6922
0
LINE
8
0
10
-107.0
20
-92.0
30
-160.6922
11
-93.0
21
-102.0
31
-165.6922
0
LINE
8
0
10
-93.0
20
-102.0
30
-165.6922
11
-79.0
21
-109.0
31
-170.6922
0
LINE
8
0
10
-79.0
20
-109.0
30
-170.6922
11
-65.0
21
-112.0
31
-175.6922
0
LINE
8
0
10
-65.0
20
-112.0
30
-175.6922
11
-53.0
21
-113.0
31
-180.6922
0
LINE
8
0
10
-53.0
20
-113.0
30
-180.6922
11
-35.0
21
-109.0
31
-185.6922
0
LINE
8
0
10
-35.0
20
-109.0
30
-185.6922
11
-19.0
21
-103.0
31
-190.6922
0
LINE
8
0
10
-19.0
20
-103.0
30
-190.6922
11
-1.0
21
-93.0
31
-195.6922
0
LINE
8
0
10
-1.0
20
-93.0
30
-195.6922
11
14.0
21
-80.0
31
-200.6922
0
LINE
8
0
10
14.0
20
-80.0
30
-200.6922
11
27.0
21
-65.0
31
-200.6922
0
LINE
8
0
10
27.0
20
-65.0
30
-200.6922
11
39.0
21
-50.0
31
-200.6922
0
LINE
8
0
10
39.0
20
-50.0
30
-200.6922
11
48.0
21
-34.0
31
-205.6922
0
LINE
8
0
10
48.0
20
-34.0
30
-205.6922
11
58.0
21
-17.0
31
-200.6922
0
LINE
8
0
10
58.0
20
-17.0
30
-200.6922
11
64.0
21
-1.0
31
-200.6922
0
LINE
8
0
10
64.0
20
-1.0
30
-200.6922
11
69.0
21
16.0
31
-195.6922
0
LINE
8
0
10
69.0
20
16.0
30
-195.6922
11
70.0
21
35.0
31
-190.6922
0
LINE
8
0
10
70.0
20
35.0
30
-190.6922
11
70.0
21
49.0
31
-180.6922
0
LINE
8
0
10
70.0
20
49.0
30
-180.6922
11
67.0
21
64.0
31
-170.6922
0
LINE
8
0
10
67.0
20
64.0
30
-170.6922
11
62.0
21
79.0
31
-160.6922
0
LINE
8
0
10
62.0
20
79.0
30
-160.6922
11
54.0
21
90.0
31
-155.6922
0
LINE
8
0
10
54.0
20
90.0
30
-155.6922
11
45.0
21
96.0
31
-140.6922
0
LINE
8
0
10
45.0
20
96.0
30
-140.6922
11
36.0
21
100.0
31
-130.6922
0
LINE
8
0
10
36.0
20
100.0
30
-130.6922
11
24.0
21
102.0
31
-115.6922
0
LINE
8
0
10
24.0
20
102.0
30
-115.6922
11
13.0
21
101.0
31
-110.6922
0
LINE
8
0
10
13.0
20
101.0
30
-110.6922
11
6.0
21
98.0
31
-105.6922
0
LINE
8
0
10
6.0
20
98.0
30
-105.6922
11
0.0
21
92.0
31
-100.6922
0
LINE
8
0
10
0.0
20
92.0
30
-100.6922
11
-5.0
21
83.0
31
-100.6922
0
LINE
8
0
10
-5.0
20
83.0
30
-100.6922
11
-9.0
21
72.0
31
-110.6922
0
LINE
8
0
10
-9.0
20
72.0
30
-110.6922
11
-10.0
21
62.0
31
-120.6922
0
LINE
8
0
10
-10.0
20
62.0
30
-120.6922
11
-14.0
21
51.0
31
-130.6922
0
LINE
8
0
10
-14.0
20
51.0
30
-130.6922
11
-14.0
21
43.0
31
-145.6922
0
LINE
8
0
10
-14.0
20
43.0
30
-145.6922
11
-19.0
21
32.0
31
-160.6922
0
LINE
8
0
10
-19.0
20
32.0
30
-160.6922
11
-21.0
21
25.0
31
-175.6922
0
LINE
8
0
10
-21.0
20
25.0
30
-175.6922
11
-24.0
21
19.0
31
-190.6922
0
LINE
8
0
10
-24.0
20
19.0
30
-190.6922
11
-25.0
21
13.0
31
-200.6922
0
LINE
8
0
10
-25.0
20
13.0
30
-200.6922
11
-27.0
21
9.0
31
-215.6922
0
LINE
8
0
10
-27.0
20
9.0
30
-215.6922
11
-27.0
21
3.0
31
-225.6922
0
LINE
8
0
10
-27.0
20
3.0
30
-225.6922
11
-26.0
21
-5.0
31
-235.6922
0
LINE
8
0
10
-26.0
20
-5.0
30
-235.6922
11
-25.0
21
-13.0
31
-245.6922
0
LINE
8
0
10
-25.0
20
-13.0
30
-245.6922
11
-21.0
21
-22.0
31
-250.6922
0
LINE
8
0
10
-21.0
20
-22.0
30
-250.6922
11
-18.0
21
-34.0
31
-255.6922
0
LINE
8
0
10
-18.0
20
-34.0
30
-255.6922
11
-16.0
21
-46.0
31
-255.6922
0
LINE
8
0
10
-16.0
20
-46.0
30
-255.6922
11
-12.0
21
-57.0
31
-260.6922
0
LINE
8
0
10
-12.0
20
-57.0
30
-260.6922
11
-10.0
21
-62.0
31
-260.6922
0
LINE
8
0
10
-10.0
20
-62.0
30
-260.6922
11
-9.0
21
-67.0
31
-260.6922
0
LINE
8
0
10
-9.0
20
-67.0
30
-260.6922
11
-5.0
21
-78.0
31
-260.6922
0
LINE
8
0
10
-5.0
20
-78.0
30
-260.6922
11
-2.0
21
-87.0
31
-260.6922
0
LINE
8
0
10
-2.0
20
-87.0
30
-260.6922
11
-1.0
21
-95.0
31
-255.6922
0
LINE
8
0
10
-1.0
20
-95.0
30
-255.6922
11
3.0
21
-102.0
31
-250.6922
0
LINE
8
0
10
3.0
20
-102.0
30
-250.6922
11
5.0
21
-109.0
31
-250.6922
0
LINE
8
0
10
5.0
20
-109.0
30
-250.6922
11
7.0
21
-115.0
31
-235.6922
0
LINE
8
0
10
7.0
20
-115.0
30
-235.6922
11
10.0
21
-112.0
31
-210.6922
0
LINE
8
0
10
10.0
20
-112.0
30
-210.6922
11
11.0
21
-107.0
31
-200.6922
0
LINE
8
0
10
11.0
20
-107.0
30
-200.6922
11
13.0
21
-100.0
31
-195.6922
0
LINE
8
0
10
13.0
20
-100.0
30
-195.6922
11
14.0
21
-93.0
31
-185.6922
0
LINE
8
0
10
14.0
20
-93.0
30
-185.6922
11
16.0
21
-85.0
31
-175.6922
0
LINE
8
0
10
16.0
20
-85.0
30
-175.6922
11
17.0
21
-76.0
31
-165.6922
0
LINE
8
0
10
17.0
20
-76.0
30
-165.6922
11
20.0
21
-66.0
31
-155.6922
0
LINE
8
0
10
20.0
20
-66.0
30
-155.6922
11
23.0
21
-57.0
31
-145.6922
0
LINE
8
0
10
23.0
20
-57.0
30
-145.6922
11
26.0
21
-49.0
31
-140.6922
0
LINE
8
0
10
26.0
20
-49.0
30
-140.6922
11
26.0
21
-38.0
31
-130.6922
0
LINE
8
0
10
26.0
20
-38.0
30
-130.6922
11
28.0
21
-28.0
31
-120.6922
0
LINE
8
0
10
28.0
20
-28.0
30
-120.6922
11
28.0
21
-19.0
31
-115.6922
0
LINE
8
0
10
28.0
20
-19.0
30
-115.6922
11
26.0
21
-9.0
31
-110.6922
0
LINE
8
0
10
26.0
20
-9.0
30
-110.6922
11
22.0
21
1.0
31
-105.6922
0
LINE
8
0
10
22.0
20
1.0
30
-105.6922
11
16.0
21
12.0
31
-100.6922
0
LINE
8
0
10
16.0
20
12.0
30
-100.6922
11
9.0
21
21.0
31
-105.6922
0
LINE
8
0
10
9.0
20
21.0
30
-105.6922
11
3.0
21
29.0
31
-105.6922
0
LINE
8
0
10
3.0
20
29.0
30
-105.6922
11
-7.0
21
35.0
31
-110.6922
0
LINE
8
0
10
-7.0
20
35.0
30
-110.6922
11
-17.0
21
41.0
31
-115.6922
0
LINE
8
0
10
-17.0
20
41.0
30
-115.6922
11
-28.0
21
44.0
31
-120.6922
0
LINE
8
0
10
-28.0
20
44.0
30
-120.6922
11
-39.0
21
45.0
31
-125.6922
0
LINE
8
0
10
-39.0
20
45.0
30
-125.6922
11
-49.0
21
45.0
31
-130.6922
0
LINE
8
0
10
-49.0
20
45.0
30
-130.6922
11
-55.0
21
45.0
31
-135.6922
0
LINE
8
0
10
-55.0
20
45.0
30
-135.6922
11
-60.0
21
41.0
31
-135.6922
0
LINE
8
0
10
-60.0
20
41.0
30
-135.6922
11
-69.0
21
37.0
31
-140.6922
0
LINE
8
0
10
-69.0
20
37.0
30
-140.6922
11
-79.0
21
32.0
31
-145.6922
0
LINE
8
0
10
-79.0
20
32.0
30
-145.6922
11
-88.0
21
27.0
31
-145.6922
0
LINE
8
0
10
-88.0
20
27.0
30
-145.6922
11
-96.0
21
20.0
31
-150.6922
0
LINE
8
0
10
-96.0
20
20.0
30
-150.6922
11
-104.0
21
13.0
31
-150.6922
0
LINE
8
0
10
-104.0
20
13.0
30
-150.6922
11
-97.0
21
9.0
31
-150.6922
0
LINE
8
0
10
-97.0
20
9.0
30
-150.6922
11
287.0
21
-213.0
31
-65.6922
0
LINE
8
0
10
287.0
20
-213.0
30
-65.6922
11
-114.0
21
-1.0
31
-150.6922
0
LINE
8
0
10
-114.0
20
-1.0
30
-150.6922
11
-117.0
21
-9.0
31
-150.6922
0
LINE
8
0
10
-117.0
20
-9.0
30
-150.6922
11
-119.0
21
-19.0
31
-150.6922
0
LINE
8
0
10
-119.0
20
-19.0
30
-150.6922
11
-119.0
21
-28.0
31
-145.6922
0
LINE
8
0
10
-119.0
20
-28.0
30
-145.6922
11
-117.0
21
-36.0
31
-145.6922
0
LINE
8
0
10
-117.0
20
-36.0
30
-145.6922
11
-112.0
21
-44.0
31
-140.6922
0
LINE
8
0
10
-112.0
20
-44.0
30
-140.6922
11
-106.0
21
-50.0
31
-130.6922
0
LINE
8
0
10
-106.0
20
-50.0
30
-130.6922
11
-99.0
21
-56.0
31
-125.6922
0
LINE
8
0
10
-99.0
20
-56.0
30
-125.6922
11
-90.0
21
-56.0
31
-120.6922
0
LINE
8
0
10
-90.0
20
-56.0
30
-120.6922
11
-82.0
21
-56.0
31
-115.6922
0
LINE
8
0
10
-82.0
20
-56.0
30
-115.6922
11
-73.0
21
-53.0
31
-105.6922
0
LINE
8
0
10
-73.0
20
-53.0
30
-105.6922
11
-63.0
21
-47.0
31
-100.6922
0
LINE
8
0
10
-63.0
20
-47.0
30
-100.6922
11
-53.0
21
-41.0
31
-95.6922
0
LINE
8
0
10
-53.0
20
-41.0
30
-95.6922
11
-42.0
21
-34.0
31
-90.6922
0
LINE
8
0
10
-42.0
20
-34.0
30
-90.6922
11
-32.0
21
-25.0
31
-85.6922
0
LINE
8
0
10
-32.0
20
-25.0
30
-85.6922
11
-22.0
21
-17.0
31
-80.6922
0
LINE
8
0
10
-22.0
20
-17.0
30
-80.6922
11
-14.0
21
-9.0
31
-80.6922
0
LINE
8
0
10
-14.0
20
-9.0
30
-80.6922
11
-6.0
21
1.0
31
-80.6922
0
LINE
8
0
10
-6.0
20
1.0
30
-80.6922
11
2.0
21
8.0
31
-75.6922
0
LINE
8
0
10
2.0
20
8.0
30
-75.6922
11
7.0
21
16.0
31
-80.6922
0
LINE
8
0
10
7.0
20
16.0
30
-80.6922
11
12.0
21
21.0
31
-80.6922
0
LINE
8
0
10
12.0
20
21.0
30
-80.6922
11
16.0
21
28.0
31
-80.6922
0
LINE
8
0
10
16.0
20
28.0
30
-80.6922
11
18.0
21
33.0
31
-85.6922
0
LINE
8
0
10
18.0
20
33.0
30
-85.6922
11
21.0
21
39.0
31
-90.6922
0
LINE
8
0
10
21.0
20
39.0
30
-90.6922
11
23.0
21
49.0
31
-100.6922
0
LINE
8
0
10
23.0
20
49.0
30
-100.6922
11
24.0
21
59.0
31
-110.6922
0
LINE
8
0
10
24.0
20
59.0
30
-110.6922
11
26.0
21
68.0
31
-120.6922
0
LINE
8
0
10
26.0
20
68.0
30
-120.6922
11
28.0
21
75.0
31
-135.6922
0
LINE
8
0
10
28.0
20
75.0
30
-135.6922
11
32.0
21
81.0
31
-145.6922
0
LINE
8
0
10
32.0
20
81.0
30
-145.6922
11
37.0
21
83.0
31
-155.6922
0
LINE
8
0
10
37.0
20
83.0
30
-155.6922
11
44.0
21
84.0
31
-170.6922
0
LINE
8
0
10
44.0
20
84.0
30
-170.6922
11
52.0
21
81.0
31
-180.6922
0
LINE
8
0
10
52.0
20
81.0
30
-180.6922
11
60.0
21
78.0
31
-185.6922
0
LINE
8
0
10
60.0
20
78.0
30
-185.6922
11
63.0
21
72.0
31
-190.6922
0
LINE
8
0
10
63.0
20
72.0
30
-190.6922
11
70.0
21
63.0
31
-200.6922
0
LINE
8
0
10
70.0
20
63.0
30
-200.6922
11
74.0
21
54.0
31
-205.6922
0
LINE
8
0
10
74.0
20
54.0
30
-205.6922
11
77.0
21
49.0
31
-210.6922
0
LINE
8
0
10
77.0
20
49.0
30
-210.6922
11
79.0
21
44.0
31
-210.6922
0
LINE
8
0
10
79.0
20
44.0
30
-210.6922
11
81.0
21
38.0
31
-215.6922
0
LINE
8
0
10
81.0
20
38.0
30
-215.6922
11
84.0
21
32.0
31
-215.6922
0
LINE
8
0
10
84.0
20
32.0
30
-215.6922
11
85.0
21
27.0
31
-215.6922
0
LINE
8
0
10
85.0
20
27.0
30
-215.6922
11
86.0
21
22.0
31
-220.6922
0
LINE
8
0
10
86.0
20
22.0
30
-220.6922
11
88.0
21
15.0
31
-220.6922
0
LINE
8
0
10
88.0
20
15.0
30
-220.6922
11
89.0
21
10.0
31
-220.6922
0
LINE
8
0
10
89.0
20
10.0
30
-220.6922
11
90.0
21
5.0
31
-215.6922
0
LINE
8
0
10
90.0
20
5.0
30
-215.6922
11
90.0
21
-5.0
31
-215.6922
0
LINE
8
0
10
90.0
20
-5.0
30
-215.6922
11
92.0
21
-11.0
31
-210.6922
0
LINE
8
0
10
92.0
20
-11.0
30
-210.6922
11
89.0
21
-16.0
31
-205.6922
0
LINE
8
0
10
89.0
20
-16.0
30
-205.6922
11
83.0
21
-17.0
31
-195.6922
0
LINE
8
0
10
83.0
20
-17.0
30
-195.6922
11
78.0
21
-15.0
31
-190.6922
0
LINE
8
0
10
78.0
20
-15.0
30
-190.6922
11
72.0
21
-14.0
31
-185.6922
0
LINE
8
0
10
72.0
20
-14.0
30
-185.6922
11
67.0
21
-12.0
31
-180.6922
0
LINE
8
0
10
67.0
20
-12.0
30
-180.6922
11
62.0
21
-11.0
31
-175.6922
0
LINE
8
0
10
62.0
20
-11.0
30
-175.6922
11
56.0
21
-10.0
31
-170.6922
0
LINE
8
0
10
56.0
20
-10.0
30
-170.6922
11
51.0
21
-7.0
31
-165.6922
0
LINE
8
0
10
51.0
20
-7.0
30
-165.6922
11
45.0
21
-4.0
31
-165.6922
0
LINE
8
0
10
45.0
20
-4.0
30
-165.6922
11
40.0
21
1.0
31
-160.6922
0
LINE
8
0
10
40.0
20
1.0
30
-160.6922
11
34.0
21
-1.0
31
-155.6922
0
LINE
8
0
10
34.0
20
-1.0
30
-155.6922
11
28.0
21
0.0
31
-155.6922
0
LINE
8
0
10
28.0
20
0.0
30
-155.6922
11
25.0
21
4.0
31
-150.6922
0
LINE
8
0
10
25.0
20
4.0
30
-150.6922
11
30.0
21
3.0
31
-150.6922
0
ENDSEC
0
EOF
