0
SECTION
2
ENTITIES
0
3DFACE
8
0
10
-320.0
20
-240.0
30
-415.6922
11
-320.0
21
240.0
31
-415.6922
12
320.0
22
240.0
32
-415.6922
13
320.0001
23
240.0001
33
-415.6921
0
3DFACE
8
0
10
320.0
20
240.0
30
-415.6922
11
320.0
21
-240.0
31
-415.6922
12
-320.0
22
-240.0
32
-415.6922
13
-319.9999
23
-239.9999
33
-415.6921
0
3DFACE
8
0
10
-309.0
20
-232.0
30
-415.6922
11
-303.0
21
-232.0
31
-415.6922
12
-303.0
22
-224.0
32
-415.6922
13
-302.9999
23
-223.9999
33
-415.6921
0
3DFACE
8
0
10
-303.0
20
-224.0
30
-415.6922
11
-309.0
21
-224.0
31
-415.6922
12
-309.0
22
-232.0
32
-415.6922
13
-308.9999
23
-231.9999
33
-415.6921
0
3DFACE
8
0
10
-303.0
20
-230.0
30
-415.6922
11
-298.0
21
-230.0
31
-415.6922
12
-298.0
22
-224.0
32
-415.6922
13
-297.9999
23
-223.9999
33
-415.6921
0
3DFACE
8
0
10
-298.0
20
-224.0
30
-415.6922
11
-303.0
21
-224.0
31
-415.6922
12
-303.0
22
-230.0
32
-415.6922
13
-302.9999
23
-229.9999
33
-415.6921
0
3DFACE
8
0
10
-299.0
20
-230.0
30
-415.6922
11
-293.0
21
-230.0
31
-415.6922
12
-293.0
22
-224.0
32
-415.6922
13
-292.9999
23
-223.9999
33
-415.6921
0
3DFACE
8
0
10
-293.0
20
-224.0
30
-415.6922
11
-299.0
21
-224.0
31
-415.6922
12
-299.0
22
-230.0
32
-415.6922
13
-298.9999
23
-229.9999
33
-415.6921
0
3DFACE
8
0
10
-292.0
20
-230.0
30
-415.6922
11
-286.0
21
-230.0
31
-415.6922
12
-286.0
22
-224.0
32
-415.6922
13
-285.9999
23
-223.9999
33
-415.6921
0
3DFACE
8
0
10
-286.0
20
-224.0
30
-415.6922
11
-292.0
21
-224.0
31
-415.6922
12
-292.0
22
-230.0
32
-415.6922
13
-291.9999
23
-229.9999
33
-415.6921
0
3DFACE
8
0
10
-287.0
20
-230.0
30
-415.6922
11
-281.0
21
-230.0
31
-415.6922
12
-281.0
22
-224.0
32
-415.6922
13
-280.9999
23
-223.9999
33
-415.6921
0
3DFACE
8
0
10
-281.0
20
-224.0
30
-415.6922
11
-287.0
21
-224.0
31
-415.6922
12
-287.0
22
-230.0
32
-415.6922
13
-286.9999
23
-229.9999
33
-415.6921
0
3DFACE
8
0
10
-281.0
20
-230.0
30
-415.6922
11
-276.0
21
-230.0
31
-415.6922
12
-276.0
22
-224.0
32
-415.6922
13
-275.9999
23
-223.9999
33
-415.6921
0
3DFACE
8
0
10
-276.0
20
-224.0
30
-415.6922
11
-281.0
21
-224.0
31
-415.6922
12
-281.0
22
-230.0
32
-415.6922
13
-280.9999
23
-229.9999
33
-415.6921
0
3DFACE
8
0
10
-276.0
20
-230.0
30
-415.6922
11
-271.0
21
-230.0
31
-415.6922
12
-271.0
22
-224.0
32
-415.6922
13
-270.9999
23
-223.9999
33
-415.6921
0
3DFACE
8
0
10
-271.0
20
-224.0
30
-415.6922
11
-276.0
21
-224.0
31
-415.6922
12
-276.0
22
-230.0
32
-415.6922
13
-275.9999
23
-229.9999
33
-415.6921
0
3DFACE
8
0
10
-271.0
20
-233.0
30
-415.6922
11
-268.0
21
-233.0
31
-415.6922
12
-268.0
22
-224.0
32
-415.6922
13
-267.9999
23
-223.9999
33
-415.6921
0
3DFACE
8
0
10
-268.0
20
-224.0
30
-415.6922
11
-271.0
21
-224.0
31
-415.6922
12
-271.0
22
-233.0
32
-415.6922
13
-270.9999
23
-232.9999
33
-415.6921
0
3DFACE
8
0
10
-268.0
20
-230.0
30
-415.6922
11
-262.0
21
-230.0
31
-415.6922
12
-262.0
22
-224.0
32
-415.6922
13
-261.9999
23
-223.9999
33
-415.6921
0
3DFACE
8
0
10
-262.0
20
-224.0
30
-415.6922
11
-268.0
21
-224.0
31
-415.6922
12
-268.0
22
-230.0
32
-415.6922
13
-267.9999
23
-229.9999
33
-415.6921
0
3DFACE
8
0
10
-261.0
20
-230.0
30
-415.6922
11
-255.0
21
-230.0
31
-415.6922
12
-255.0
22
-222.0
32
-415.6922
13
-254.9999
23
-221.9999
33
-415.6921
0
3DFACE
8
0
10
-255.0
20
-222.0
30
-415.6922
11
-261.0
21
-222.0
31
-415.6922
12
-261.0
22
-230.0
32
-415.6922
13
-260.9999
23
-229.9999
33
-415.6921
0
3DFACE
8
0
10
-267.0
20
-248.0
30
-415.6922
11
-266.0
21
-248.0
31
-415.6922
12
-266.0
22
-247.0
32
-415.6922
13
-265.9999
23
-246.9999
33
-415.6921
0
3DFACE
8
0
10
-266.0
20
-247.0
30
-415.6922
11
-267.0
21
-247.0
31
-415.6922
12
-267.0
22
-248.0
32
-415.6922
13
-266.9999
23
-247.9999
33
-415.6921
0
3DFACE
8
0
10
-252.0
20
-232.0
30
-415.6922
11
-247.0
21
-232.0
31
-415.6922
12
-247.0
22
-224.0
32
-415.6922
13
-246.9999
23
-223.9999
33
-415.6921
0
3DFACE
8
0
10
-247.0
20
-224.0
30
-415.6922
11
-252.0
21
-224.0
31
-415.6922
12
-252.0
22
-232.0
32
-415.6922
13
-251.9999
23
-231.9999
33
-415.6921
0
3DFACE
8
0
10
-246.0
20
-232.0
30
-415.6922
11
-240.0
21
-232.0
31
-415.6922
12
-240.0
22
-224.0
32
-415.6922
13
-239.9999
23
-223.9999
33
-415.6921
0
3DFACE
8
0
10
-240.0
20
-224.0
30
-415.6922
11
-246.0
21
-224.0
31
-415.6922
12
-246.0
22
-232.0
32
-415.6922
13
-245.9999
23
-231.9999
33
-415.6921
0
3DFACE
8
0
10
-240.0
20
-230.0
30
-415.6922
11
-237.0
21
-230.0
31
-415.6922
12
-237.0
22
-224.0
32
-415.6922
13
-236.9999
23
-223.9999
33
-415.6921
0
3DFACE
8
0
10
-237.0
20
-224.0
30
-415.6922
11
-240.0
21
-224.0
31
-415.6922
12
-240.0
22
-230.0
32
-415.6922
13
-239.9999
23
-229.9999
33
-415.6921
0
3DFACE
8
0
10
-249.0
20
-248.0
30
-415.6922
11
-248.0
21
-248.0
31
-415.6922
12
-248.0
22
-247.0
32
-415.6922
13
-247.9999
23
-246.9999
33
-415.6921
0
3DFACE
8
0
10
-248.0
20
-247.0
30
-415.6922
11
-249.0
21
-247.0
31
-415.6922
12
-249.0
22
-248.0
32
-415.6922
13
-248.9999
23
-247.9999
33
-415.6921
0
3DFACE
8
0
10
-235.0
20
-232.0
30
-415.6922
11
-229.0
21
-232.0
31
-415.6922
12
-229.0
22
-224.0
32
-415.6922
13
-228.9999
23
-223.9999
33
-415.6921
0
3DFACE
8
0
10
-229.0
20
-224.0
30
-415.6922
11
-235.0
21
-224.0
31
-415.6922
12
-235.0
22
-232.0
32
-415.6922
13
-234.9999
23
-231.9999
33
-415.6921
0
3DFACE
8
0
10
-229.0
20
-232.0
30
-415.6922
11
-223.0
21
-232.0
31
-415.6922
12
-223.0
22
-224.0
32
-415.6922
13
-222.9999
23
-223.9999
33
-415.6921
0
3DFACE
8
0
10
-223.0
20
-224.0
30
-415.6922
11
-229.0
21
-224.0
31
-415.6922
12
-229.0
22
-232.0
32
-415.6922
13
-228.9999
23
-231.9999
33
-415.6921
0
3DFACE
8
0
10
-310.0
20
-211.6
30
-415.6922
11
-304.0
21
-211.6
31
-415.6922
12
-304.0
22
-203.6
32
-415.6922
13
-303.9999
23
-203.5999
33
-415.6921
0
3DFACE
8
0
10
-304.0
20
-203.6
30
-415.6922
11
-310.0
21
-203.6
31
-415.6922
12
-310.0
22
-211.6
32
-415.6922
13
-309.9999
23
-211.5999
33
-415.6921
0
3DFACE
8
0
10
-304.0
20
-209.6
30
-415.6922
11
-298.0
21
-209.6
31
-415.6922
12
-298.0
22
-203.6
32
-415.6922
13
-297.9999
23
-203.5999
33
-415.6921
0
3DFACE
8
0
10
-298.0
20
-203.6
30
-415.6922
11
-304.0
21
-203.6
31
-415.6922
12
-304.0
22
-209.6
32
-415.6922
13
-303.9999
23
-209.5999
33
-415.6921
0
3DFACE
8
0
10
-298.0
20
-209.6
30
-415.6922
11
-288.0
21
-209.6
31
-415.6922
12
-288.0
22
-203.6
32
-415.6922
13
-287.9999
23
-203.5999
33
-415.6921
0
3DFACE
8
0
10
-288.0
20
-203.6
30
-415.6922
11
-298.0
21
-203.6
31
-415.6922
12
-298.0
22
-209.6
32
-415.6922
13
-297.9999
23
-209.5999
33
-415.6921
0
3DFACE
8
0
10
-288.0
20
-209.6
30
-415.6922
11
-281.0
21
-209.6
31
-415.6922
12
-281.0
22
-201.6
32
-415.6922
13
-280.9999
23
-201.5999
33
-415.6921
0
3DFACE
8
0
10
-281.0
20
-201.6
30
-415.6922
11
-288.0
21
-201.6
31
-415.6922
12
-288.0
22
-209.6
32
-415.6922
13
-287.9999
23
-209.5999
33
-415.6921
0
3DFACE
8
0
10
-281.0
20
-212.6
30
-415.6922
11
-278.0
21
-212.6
31
-415.6922
12
-278.0
22
-203.6
32
-415.6922
13
-277.9999
23
-203.5999
33
-415.6921
0
3DFACE
8
0
10
-278.0
20
-203.6
30
-415.6922
11
-281.0
21
-203.6
31
-415.6922
12
-281.0
22
-212.6
32
-415.6922
13
-280.9999
23
-212.5999
33
-415.6921
0
3DFACE
8
0
10
-278.0
20
-209.6
30
-415.6922
11
-272.0
21
-209.6
31
-415.6922
12
-272.0
22
-203.6
32
-415.6922
13
-271.9999
23
-203.5999
33
-415.6921
0
3DFACE
8
0
10
-272.0
20
-203.6
30
-415.6922
11
-278.0
21
-203.6
31
-415.6922
12
-278.0
22
-209.6
32
-415.6922
13
-277.9999
23
-209.5999
33
-415.6921
0
3DFACE
8
0
10
-272.0
20
-209.6
30
-415.6922
11
-267.0
21
-209.6
31
-415.6922
12
-267.0
22
-203.6
32
-415.6922
13
-266.9999
23
-203.5999
33
-415.6921
0
3DFACE
8
0
10
-267.0
20
-203.6
30
-415.6922
11
-272.0
21
-203.6
31
-415.6922
12
-272.0
22
-209.6
32
-415.6922
13
-271.9999
23
-209.5999
33
-415.6921
0
3DFACE
8
0
10
-267.0
20
-209.6
30
-415.6922
11
-264.0
21
-209.6
31
-415.6922
12
-264.0
22
-203.6
32
-415.6922
13
-263.9999
23
-203.5999
33
-415.6921
0
3DFACE
8
0
10
-264.0
20
-203.6
30
-415.6922
11
-267.0
21
-203.6
31
-415.6922
12
-267.0
22
-209.6
32
-415.6922
13
-266.9999
23
-209.5999
33
-415.6921
0
3DFACE
8
0
10
-276.0
20
-227.6
30
-415.6922
11
-275.0
21
-227.6
31
-415.6922
12
-275.0
22
-226.6
32
-415.6922
13
-274.9999
23
-226.5999
33
-415.6921
0
3DFACE
8
0
10
-275.0
20
-226.6
30
-415.6922
11
-276.0
21
-226.6
31
-415.6922
12
-276.0
22
-227.6
32
-415.6922
13
-275.9999
23
-227.5999
33
-415.6921
0
3DFACE
8
0
10
-262.0
20
-211.6
30
-415.6922
11
-256.0
21
-211.6
31
-415.6922
12
-256.0
22
-203.6
32
-415.6922
13
-255.9999
23
-203.5999
33
-415.6921
0
3DFACE
8
0
10
-256.0
20
-203.6
30
-415.6922
11
-262.0
21
-203.6
31
-415.6922
12
-262.0
22
-211.6
32
-415.6922
13
-261.9999
23
-211.5999
33
-415.6921
0
3DFACE
8
0
10
-256.0
20
-211.6
30
-415.6922
11
-250.0
21
-211.6
31
-415.6922
12
-250.0
22
-203.6
32
-415.6922
13
-249.9999
23
-203.5999
33
-415.6921
0
3DFACE
8
0
10
-250.0
20
-203.6
30
-415.6922
11
-256.0
21
-203.6
31
-415.6922
12
-256.0
22
-211.6
32
-415.6922
13
-255.9999
23
-211.5999
33
-415.6921
0
3DFACE
8
0
10
-250.0
20
-211.6
30
-415.6922
11
-244.0
21
-211.6
31
-415.6922
12
-244.0
22
-203.6
32
-415.6922
13
-243.9999
23
-203.5999
33
-415.6921
0
3DFACE
8
0
10
-244.0
20
-203.6
30
-415.6922
11
-250.0
21
-203.6
31
-415.6922
12
-250.0
22
-211.6
32
-415.6922
13
-249.9999
23
-211.5999
33
-415.6921
0
3DFACE
8
0
10
-310.0
20
-191.2
30
-415.6922
11
-304.0
21
-191.2
31
-415.6922
12
-304.0
22
-183.2
32
-415.6922
13
-303.9999
23
-183.19989
33
-415.6921
0
3DFACE
8
0
10
-304.0
20
-183.2
30
-415.6922
11
-310.0
21
-183.2
31
-415.6922
12
-310.0
22
-191.2
32
-415.6922
13
-309.9999
23
-191.19989
33
-415.6921
0
3DFACE
8
0
10
-304.0
20
-189.2
30
-415.6922
11
-298.0
21
-189.2
31
-415.6922
12
-298.0
22
-183.2
32
-415.6922
13
-297.9999
23
-183.19989
33
-415.6921
0
3DFACE
8
0
10
-298.0
20
-183.2
30
-415.6922
11
-304.0
21
-183.2
31
-415.6922
12
-304.0
22
-189.2
32
-415.6922
13
-303.9999
23
-189.19989
33
-415.6921
0
3DFACE
8
0
10
-298.0
20
-189.2
30
-415.6922
11
-288.0
21
-189.2
31
-415.6922
12
-288.0
22
-183.2
32
-415.6922
13
-287.9999
23
-183.19989
33
-415.6921
0
3DFACE
8
0
10
-288.0
20
-183.2
30
-415.6922
11
-298.0
21
-183.2
31
-415.6922
12
-298.0
22
-189.2
32
-415.6922
13
-297.9999
23
-189.19989
33
-415.6921
0
3DFACE
8
0
10
-288.0
20
-189.2
30
-415.6922
11
-281.0
21
-189.2
31
-415.6922
12
-281.0
22
-181.2
32
-415.6922
13
-280.9999
23
-181.19989
33
-415.6921
0
3DFACE
8
0
10
-281.0
20
-181.2
30
-415.6922
11
-288.0
21
-181.2
31
-415.6922
12
-288.0
22
-189.2
32
-415.6922
13
-287.9999
23
-189.19989
33
-415.6921
0
3DFACE
8
0
10
-281.0
20
-192.2
30
-415.6922
11
-278.0
21
-192.2
31
-415.6922
12
-278.0
22
-183.2
32
-415.6922
13
-277.9999
23
-183.19989
33
-415.6921
0
3DFACE
8
0
10
-278.0
20
-183.2
30
-415.6922
11
-281.0
21
-183.2
31
-415.6922
12
-281.0
22
-192.2
32
-415.6922
13
-280.9999
23
-192.19989
33
-415.6921
0
3DFACE
8
0
10
-278.0
20
-192.2
30
-415.6922
11
-275.0
21
-192.2
31
-415.6922
12
-275.0
22
-183.2
32
-415.6922
13
-274.9999
23
-183.19989
33
-415.6921
0
3DFACE
8
0
10
-275.0
20
-183.2
30
-415.6922
11
-278.0
21
-183.2
31
-415.6922
12
-278.0
22
-192.2
32
-415.6922
13
-277.9999
23
-192.19989
33
-415.6921
0
3DFACE
8
0
10
-275.0
20
-189.2
30
-415.6922
11
-269.0
21
-189.2
31
-415.6922
12
-269.0
22
-183.2
32
-415.6922
13
-268.9999
23
-183.19989
33
-415.6921
0
3DFACE
8
0
10
-269.0
20
-183.2
30
-415.6922
11
-275.0
21
-183.2
31
-415.6922
12
-275.0
22
-189.2
32
-415.6922
13
-274.9999
23
-189.19989
33
-415.6921
0
3DFACE
8
0
10
-268.0
20
-189.2
30
-415.6922
11
-262.0
21
-189.2
31
-415.6922
12
-262.0
22
-181.2
32
-415.6922
13
-261.9999
23
-181.19989
33
-415.6921
0
3DFACE
8
0
10
-262.0
20
-181.2
30
-415.6922
11
-268.0
21
-181.2
31
-415.6922
12
-268.0
22
-189.2
32
-415.6922
13
-267.9999
23
-189.19989
33
-415.6921
0
3DFACE
8
0
10
-262.0
20
-189.2
30
-415.6922
11
-259.0
21
-189.2
31
-415.6922
12
-259.0
22
-183.2
32
-415.6922
13
-258.9999
23
-183.19989
33
-415.6921
0
3DFACE
8
0
10
-259.0
20
-183.2
30
-415.6922
11
-262.0
21
-183.2
31
-415.6922
12
-262.0
22
-189.2
32
-415.6922
13
-261.9999
23
-189.19989
33
-415.6921
0
3DFACE
8
0
10
-271.0
20
-207.2
30
-415.6922
11
-270.0
21
-207.2
31
-415.6922
12
-270.0
22
-206.2
32
-415.6922
13
-269.9999
23
-206.19989
33
-415.6921
0
3DFACE
8
0
10
-270.0
20
-206.2
30
-415.6922
11
-271.0
21
-206.2
31
-415.6922
12
-271.0
22
-207.2
32
-415.6922
13
-270.9999
23
-207.19989
33
-415.6921
0
3DFACE
8
0
10
-257.0
20
-192.2
30
-415.6922
11
-253.0
21
-192.2
31
-415.6922
12
-253.0
22
-183.2
32
-415.6922
13
-252.9999
23
-183.19989
33
-415.6921
0
3DFACE
8
0
10
-253.0
20
-183.2
30
-415.6922
11
-257.0
21
-183.2
31
-415.6922
12
-257.0
22
-192.2
32
-415.6922
13
-256.9999
23
-192.19989
33
-415.6921
0
3DFACE
8
0
10
-253.0
20
-189.2
30
-415.6922
11
-247.0
21
-189.2
31
-415.6922
12
-247.0
22
-183.2
32
-415.6922
13
-246.9999
23
-183.19989
33
-415.6921
0
3DFACE
8
0
10
-247.0
20
-183.2
30
-415.6922
11
-253.0
21
-183.2
31
-415.6922
12
-253.0
22
-189.2
32
-415.6922
13
-252.9999
23
-189.19989
33
-415.6921
0
3DFACE
8
0
10
-247.0
20
-192.2
30
-415.6922
11
-244.0
21
-192.2
31
-415.6922
12
-244.0
22
-183.2
32
-415.6922
13
-243.9999
23
-183.19989
33
-415.6921
0
3DFACE
8
0
10
-244.0
20
-183.2
30
-415.6922
11
-247.0
21
-183.2
31
-415.6922
12
-247.0
22
-192.2
32
-415.6922
13
-246.9999
23
-192.19989
33
-415.6921
0
3DFACE
8
0
10
-244.0
20
-189.2
30
-415.6922
11
-239.0
21
-189.2
31
-415.6922
12
-239.0
22
-183.2
32
-415.6922
13
-238.9999
23
-183.19989
33
-415.6921
0
3DFACE
8
0
10
-239.0
20
-183.2
30
-415.6922
11
-244.0
21
-183.2
31
-415.6922
12
-244.0
22
-189.2
32
-415.6922
13
-243.9999
23
-189.19989
33
-415.6921
0
3DFACE
8
0
10
-239.0
20
-189.2
30
-415.6922
11
-233.0
21
-189.2
31
-415.6922
12
-233.0
22
-183.2
32
-415.6922
13
-232.9999
23
-183.19989
33
-415.6921
0
3DFACE
8
0
10
-233.0
20
-183.2
30
-415.6922
11
-239.0
21
-183.2
31
-415.6922
12
-239.0
22
-189.2
32
-415.6922
13
-238.9999
23
-189.19989
33
-415.6921
0
3DFACE
8
0
10
119.0
20
179.0
30
-405.6922
11
129.0
21
179.0
31
-405.6922
12
128.51056
22
182.09018
32
-405.6922
13
128.51067
23
182.09029
33
-405.6921
0
3DFACE
8
0
10
119.0
20
179.0
30
-405.6922
11
128.51056
21
182.09018
31
-405.6922
12
127.09018
22
184.87784
32
-405.6922
13
127.09028
23
184.87794
33
-405.6921
0
3DFACE
8
0
10
119.0
20
179.0
30
-405.6922
11
127.09018
21
184.87784
31
-405.6922
12
124.87784
22
187.09018
32
-405.6922
13
124.87794
23
187.09029
33
-405.6921
0
3DFACE
8
0
10
119.0
20
179.0
30
-405.6922
11
124.87784
21
187.09018
31
-405.6922
12
122.09018
22
188.51056
32
-405.6922
13
122.09028
23
188.51067
33
-405.6921
0
3DFACE
8
0
10
119.0
20
179.0
30
-405.6922
11
122.09018
21
188.51056
31
-405.6922
12
119.0
22
189.0
32
-405.6922
13
119.0001
23
189.0001
33
-405.6921
0
3DFACE
8
0
10
119.0
20
179.0
30
-405.6922
11
119.0
21
189.0
31
-405.6922
12
115.90982
22
188.51056
32
-405.6922
13
115.90992
23
188.51067
33
-405.6921
0
3DFACE
8
0
10
119.0
20
179.0
30
-405.6922
11
115.90982
21
188.51056
31
-405.6922
12
113.12216
22
187.09018
32
-405.6922
13
113.12226
23
187.09029
33
-405.6921
0
3DFACE
8
0
10
119.0
20
179.0
30
-405.6922
11
113.12216
21
187.09018
31
-405.6922
12
110.90982
22
184.87784
32
-405.6922
13
110.90992
23
184.87794
33
-405.6921
0
3DFACE
8
0
10
119.0
20
179.0
30
-405.6922
11
110.90982
21
184.87784
31
-405.6922
12
109.48944
22
182.09018
32
-405.6922
13
109.48954
23
182.09029
33
-405.6921
0
3DFACE
8
0
10
119.0
20
179.0
30
-405.6922
11
109.48944
21
182.09018
31
-405.6922
12
109.0
22
179.0
32
-405.6922
13
109.0001
23
179.0001
33
-405.6921
0
3DFACE
8
0
10
119.0
20
179.0
30
-405.6922
11
109.0
21
179.0
31
-405.6922
12
109.48944
22
175.90982
32
-405.6922
13
109.48954
23
175.90993
33
-405.6921
0
3DFACE
8
0
10
119.0
20
179.0
30
-405.6922
11
109.48944
21
175.90982
31
-405.6922
12
110.90982
22
173.12216
32
-405.6922
13
110.90992
23
173.12227
33
-405.6921
0
3DFACE
8
0
10
119.0
20
179.0
30
-405.6922
11
110.90982
21
173.12216
31
-405.6922
12
113.12213
22
170.90982
32
-405.6922
13
113.12223
23
170.90993
33
-405.6921
0
3DFACE
8
0
10
119.0
20
179.0
30
-405.6922
11
113.12213
21
170.90982
31
-405.6922
12
115.90982
22
169.48944
32
-405.6922
13
115.90992
23
169.48955
33
-405.6921
0
3DFACE
8
0
10
119.0
20
179.0
30
-405.6922
11
115.90982
21
169.48944
31
-405.6922
12
119.0
22
169.0
32
-405.6922
13
119.0001
23
169.0001
33
-405.6921
0
3DFACE
8
0
10
119.0
20
179.0
30
-405.6922
11
119.0
21
169.0
31
-405.6922
12
122.09018
22
169.48944
32
-405.6922
13
122.09028
23
169.48955
33
-405.6921
0
3DFACE
8
0
10
119.0
20
179.0
30
-405.6922
11
122.09018
21
169.48944
31
-405.6922
12
124.87784
22
170.90982
32
-405.6922
13
124.87794
23
170.90993
33
-405.6921
0
3DFACE
8
0
10
119.0
20
179.0
30
-405.6922
11
124.87784
21
170.90982
31
-405.6922
12
127.09018
22
173.12216
32
-405.6922
13
127.09028
23
173.12227
33
-405.6921
0
3DFACE
8
0
10
119.0
20
179.0
30
-405.6922
11
127.09018
21
173.12216
31
-405.6922
12
128.51056
22
175.90982
32
-405.6922
13
128.51067
23
175.90993
33
-405.6921
0
3DFACE
8
0
10
119.0
20
179.0
30
-405.6922
11
128.51056
21
175.90982
31
-405.6922
12
129.0
22
179.0
32
-405.6922
13
129.0001
23
179.0001
33
-405.6921
0
LINE
8
0
10
129.0
20
179.0
30
-405.6922
11
128.51056
21
182.09018
31
-405.6922
0
LINE
8
0
10
128.51056
20
182.09018
30
-405.6922
11
127.09018
21
184.87784
31
-405.6922
0
LINE
8
0
10
127.09018
20
184.87784
30
-405.6922
11
124.87784
21
187.09018
31
-405.6922
0
LINE
8
0
10
124.87784
20
187.09018
30
-405.6922
11
122.09018
21
188.51056
31
-405.6922
0
LINE
8
0
10
122.09018
20
188.51056
30
-405.6922
11
119.0
21
189.0
31
-405.6922
0
LINE
8
0
10
119.0
20
189.0
30
-405.6922
11
115.90982
21
188.51056
31
-405.6922
0
LINE
8
0
10
115.90982
20
188.51056
30
-405.6922
11
113.12216
21
187.09018
31
-405.6922
0
LINE
8
0
10
113.12216
20
187.09018
30
-405.6922
11
110.90982
21
184.87784
31
-405.6922
0
LINE
8
0
10
110.90982
20
184.87784
30
-405.6922
11
109.48944
21
182.09018
31
-405.6922
0
LINE
8
0
10
109.48944
20
182.09018
30
-405.6922
11
109.0
21
179.0
31
-405.6922
0
LINE
8
0
10
109.0
20
179.0
30
-405.6922
11
109.48944
21
175.90982
31
-405.6922
0
LINE
8
0
10
109.48944
20
175.90982
30
-405.6922
11
110.90982
21
173.12216
31
-405.6922
0
LINE
8
0
10
110.90982
20
173.12216
30
-405.6922
11
113.12213
21
170.90982
31
-405.6922
0
LINE
8
0
10
113.12213
20
170.90982
30
-405.6922
11
115.90982
21
169.48944
31
-405.6922
0
LINE
8
0
10
115.90982
20
169.48944
30
-405.6922
11
119.0
21
169.0
31
-405.6922
0
LINE
8
0
10
119.0
20
169.0
30
-405.6922
11
122.09018
21
169.48944
31
-405.6922
0
LINE
8
0
10
122.09018
20
169.48944
30
-405.6922
11
124.87784
21
170.90982
31
-405.6922
0
LINE
8
0
10
124.87784
20
170.90982
30
-405.6922
11
127.09018
21
173.12216
31
-405.6922
0
LINE
8
0
10
127.09018
20
173.12216
30
-405.6922
11
128.51056
21
175.90982
31
-405.6922
0
LINE
8
0
10
128.51056
20
175.90982
30
-405.6922
11
129.0
21
179.0
31
-405.6922
0
LINE
8
0
10
97.0
20
86.0
30
-225.6922
11
96.0
21
92.0
31
-220.6922
0
LINE
8
0
10
96.0
20
92.0
30
-220.6922
11
95.0
21
97.0
31
-230.6922
0
LINE
8
0
10
95.0
20
97.0
30
-230.6922
11
93.0
21
102.0
31
-240.6922
0
LINE
8
0
10
93.0
20
102.0
30
-240.6922
11
90.0
21
106.0
31
-245.6922
0
LINE
8
0
10
90.0
20
106.0
30
-245.6922
11
84.0
21
112.0
31
-255.6922
0
LINE
8
0
10
84.0
20
112.0
30
-255.6922
11
78.0
21
116.0
31
-260.6922
0
LINE
8
0
10
78.0
20
116.0
30
-260.6922
11
71.0
21
118.0
31
-270.6922
0
LINE
8
0
10
71.0
20
118.0
30
-270.6922
11
65.0
21
116.0
31
-280.6922
0
LINE
8
0
10
65.0
20
116.0
30
-280.6922
11
58.0
21
112.0
31
-290.6922
0
LINE
8
0
10
58.0
20
112.0
30
-290.6922
11
52.0
21
108.0
31
-295.6922
0
LINE
8
0
10
52.0
20
108.0
30
-295.6922
11
48.0
21
104.0
31
-300.6922
0
LINE
8
0
10
48.0
20
104.0
30
-300.6922
11
42.0
21
97.0
31
-300.6922
0
LINE
8
0
10
42.0
20
97.0
30
-300.6922
11
38.0
21
91.0
31
-305.6922
0
LINE
8
0
10
38.0
20
91.0
30
-305.6922
11
32.0
21
82.0
31
-305.6922
0
LINE
8
0
10
32.0
20
82.0
30
-305.6922
11
29.0
21
76.0
31
-305.6922
0
LINE
8
0
10
29.0
20
76.0
30
-305.6922
11
23.0
21
66.0
31
-305.6922
0
LINE
8
0
10
23.0
20
66.0
30
-305.6922
11
20.0
21
60.0
31
-305.6922
0
LINE
8
0
10
20.0
20
60.0
30
-305.6922
11
16.0
21
54.0
31
-305.6922
0
LINE
8
0
10
16.0
20
54.0
30
-305.6922
11
14.0
21
48.0
31
-305.6922
0
LINE
8
0
10
14.0
20
48.0
30
-305.6922
11
13.0
21
41.0
31
-300.6922
0
LINE
8
0
10
13.0
20
41.0
30
-300.6922
11
10.0
21
30.0
31
-295.6922
0
LINE
8
0
10
10.0
20
30.0
30
-295.6922
11
10.0
21
25.0
31
-290.6922
0
LINE
8
0
10
10.0
20
25.0
30
-290.6922
11
9.0
21
14.0
31
-285.6922
0
LINE
8
0
10
9.0
20
14.0
30
-285.6922
11
9.0
21
8.0
31
-280.6922
0
LINE
8
0
10
9.0
20
8.0
30
-280.6922
11
9.0
21
3.0
31
-275.6922
0
LINE
8
0
10
9.0
20
3.0
30
-275.6922
11
9.0
21
-2.0
31
-270.6922
0
LINE
8
0
10
9.0
20
-2.0
30
-270.6922
11
10.0
21
-9.0
31
-260.6922
0
LINE
8
0
10
10.0
20
-9.0
30
-260.6922
11
11.0
21
-14.0
31
-255.6922
0
LINE
8
0
10
11.0
20
-14.0
30
-255.6922
11
16.0
21
-20.0
31
-240.6922
0
LINE
8
0
10
16.0
20
-20.0
30
-240.6922
11
23.0
21
-24.0
31
-230.6922
0
LINE
8
0
10
23.0
20
-24.0
30
-230.6922
11
28.0
21
-25.0
31
-225.6922
0
LINE
8
0
10
28.0
20
-25.0
30
-225.6922
11
33.0
21
-26.0
31
-215.6922
0
LINE
8
0
10
33.0
20
-26.0
30
-215.6922
11
41.0
21
-25.0
31
-205.6922
0
LINE
8
0
10
41.0
20
-25.0
30
-205.6922
11
47.0
21
-23.0
31
-195.6922
0
LINE
8
0
10
47.0
20
-23.0
30
-195.6922
11
53.0
21
-19.0
31
-190.6922
0
LINE
8
0
10
53.0
20
-19.0
30
-190.6922
11
57.0
21
-11.0
31
-180.6922
0
LINE
8
0
10
57.0
20
-11.0
30
-180.6922
11
54.0
21
-2.0
31
-175.6922
0
LINE
8
0
10
54.0
20
-2.0
30
-175.6922
11
50.0
21
3.0
31
-170.6922
0
LINE
8
0
10
50.0
20
3.0
30
-170.6922
11
43.0
21
9.0
31
-170.6922
0
LINE
8
0
10
43.0
20
9.0
30
-170.6922
11
36.0
21
14.0
31
-170.6922
0
LINE
8
0
10
36.0
20
14.0
30
-170.6922
11
26.0
21
19.0
31
-175.6922
0
LINE
8
0
10
26.0
20
19.0
30
-175.6922
11
16.0
21
23.0
31
-175.6922
0
LINE
8
0
10
16.0
20
23.0
30
-175.6922
11
6.0
21
28.0
31
-180.6922
0
LINE
8
0
10
6.0
20
28.0
30
-180.6922
11
-3.0
21
32.0
31
-180.6922
0
LINE
8
0
10
-3.0
20
32.0
30
-180.6922
11
-12.0
21
35.0
31
-185.6922
0
LINE
8
0
10
-12.0
20
35.0
30
-185.6922
11
-20.0
21
38.0
31
-190.6922
0
LINE
8
0
10
-20.0
20
38.0
30
-190.6922
11
-28.0
21
39.0
31
-195.6922
0
LINE
8
0
10
-28.0
20
39.0
30
-195.6922
11
-35.0
21
41.0
31
-200.6922
0
LINE
8
0
10
-35.0
20
41.0
30
-200.6922
11
-42.0
21
42.0
31
-205.6922
0
LINE
8
0
10
-42.0
20
42.0
30
-205.6922
11
-48.0
21
45.0
31
-210.6922
0
LINE
8
0
10
-48.0
20
45.0
30
-210.6922
11
-52.0
21
42.0
31
-215.6922
0
LINE
8
0
10
-52.0
20
42.0
30
-215.6922
11
-57.0
21
38.0
31
-230.6922
0
LINE
8
0
10
-57.0
20
38.0
30
-230.6922
11
-56.0
21
33.0
31
-240.6922
0
LINE
8
0
10
-56.0
20
33.0
30
-240.6922
11
-53.0
21
29.0
31
-250.6922
0
LINE
8
0
10
-53.0
20
29.0
30
-250.6922
11
-48.0
21
25.0
31
-255.6922
0
LINE
8
0
10
-48.0
20
25.0
30
-255.6922
11
-42.0
21
21.0
31
-260.6922
0
LINE
8
0
10
-42.0
20
21.0
30
-260.6922
11
-35.0
21
18.0
31
-265.6922
0
LINE
8
0
10
-35.0
20
18.0
30
-265.6922
11
-28.0
21
15.0
31
-270.6922
0
LINE
8
0
10
-28.0
20
15.0
30
-270.6922
11
-20.0
21
12.0
31
-275.6922
0
LINE
8
0
10
-20.0
20
12.0
30
-275.6922
11
-13.0
21
8.0
31
-285.6922
0
LINE
8
0
10
-13.0
20
8.0
30
-285.6922
11
-5.0
21
5.0
31
-290.6922
0
LINE
8
0
10
-5.0
20
5.0
30
-290.6922
11
2.0
21
2.0
31
-295.6922
0
LINE
8
0
10
2.0
20
2.0
30
-295.6922
11
10.0
21
-1.0
31
-300.6922
0
LINE
8
0
10
10.0
20
-1.0
30
-300.6922
11
19.0
21
-3.0
31
-300.6922
0
LINE
8
0
10
19.0
20
-3.0
30
-300.6922
11
26.0
21
-6.0
31
-310.6922
0
LINE
8
0
10
26.0
20
-6.0
30
-310.6922
11
34.0
21
-9.0
31
-315.6922
0
LINE
8
0
10
34.0
20
-9.0
30
-315.6922
11
43.0
21
-11.0
31
-315.6922
0
LINE
8
0
10
43.0
20
-11.0
30
-315.6922
11
52.0
21
-13.0
31
-320.6922
0
LINE
8
0
10
52.0
20
-13.0
30
-320.6922
11
59.0
21
-16.0
31
-320.6922
0
LINE
8
0
10
59.0
20
-16.0
30
-320.6922
11
67.0
21
-17.0
31
-315.6922
0
LINE
8
0
10
67.0
20
-17.0
30
-315.6922
11
75.0
21
-18.0
31
-320.6922
0
LINE
8
0
10
75.0
20
-18.0
30
-320.6922
11
82.0
21
-20.0
31
-315.6922
0
LINE
8
0
10
82.0
20
-20.0
30
-315.6922
11
91.0
21
-20.0
31
-310.6922
0
LINE
8
0
10
91.0
20
-20.0
30
-310.6922
11
98.0
21
-20.0
31
-310.6922
0
LINE
8
0
10
98.0
20
-20.0
30
-310.6922
11
105.0
21
-21.0
31
-305.6922
0
LINE
8
0
10
105.0
20
-21.0
30
-305.6922
11
113.0
21
-24.0
31
-295.6922
0
LINE
8
0
10
113.0
20
-24.0
30
-295.6922
11
119.0
21
-26.0
31
-285.6922
0
LINE
8
0
10
119.0
20
-26.0
30
-285.6922
11
117.0
21
-26.0
31
-260.6922
0
LINE
8
0
10
117.0
20
-26.0
30
-260.6922
11
110.0
21
-29.0
31
-255.6922
0
LINE
8
0
10
110.0
20
-29.0
30
-255.6922
11
106.0
21
-25.0
31
-235.6922
0
LINE
8
0
10
106.0
20
-25.0
30
-235.6922
11
101.0
21
-24.0
31
-230.6922
0
LINE
8
0
10
101.0
20
-24.0
30
-230.6922
11
93.0
21
-25.0
31
-225.6922
0
LINE
8
0
10
93.0
20
-25.0
30
-225.6922
11
84.0
21
-21.0
31
-210.6922
0
LINE
8
0
10
84.0
20
-21.0
30
-210.6922
11
78.0
21
-19.0
31
-200.6922
0
LINE
8
0
10
78.0
20
-19.0
30
-200.6922
11
71.0
21
-17.0
31
-195.6922
0
LINE
8
0
10
71.0
20
-17.0
30
-195.6922
11
63.0
21
-14.0
31
-190.6922
0
LINE
8
0
10
63.0
20
-14.0
30
-190.6922
11
56.0
21
-11.0
31
-180.6922
0
LINE
8
0
10
56.0
20
-11.0
30
-180.6922
11
47.0
21
-5.0
31
-175.6922
0
LINE
8
0
10
47.0
20
-5.0
30
-175.6922
11
38.0
21
0.0
31
-170.6922
0
LINE
8
0
10
38.0
20
0.0
30
-170.6922
11
30.0
21
6.0
31
-165.6922
0
LINE
8
0
10
30.0
20
6.0
30
-165.6922
11
21.0
21
13.0
31
-160.6922
0
LINE
8
0
10
21.0
20
13.0
30
-160.6922
11
13.0
21
20.0
31
-160.6922
0
LINE
8
0
10
13.0
20
20.0
30
-160.6922
11
6.0
21
28.0
31
-155.6922
0
LINE
8
0
10
6.0
20
28.0
30
-155.6922
11
-1.0
21
37.0
31
-155.6922
0
LINE
8
0
10
-1.0
20
37.0
30
-155.6922
11
-6.0
21
45.0
31
-155.6922
0
LINE
8
0
10
-6.0
20
45.0
30
-155.6922
11
-11.0
21
54.0
31
-155.6922
0
LINE
8
0
10
-11.0
20
54.0
30
-155.6922
11
-14.0
21
63.0
31
-155.6922
0
LINE
8
0
10
-14.0
20
63.0
30
-155.6922
11
-15.0
21
71.0
31
-160.6922
0
LINE
8
0
10
-15.0
20
71.0
30
-160.6922
11
-16.0
21
79.0
31
-160.6922
0
LINE
8
0
10
-16.0
20
79.0
30
-160.6922
11
-16.0
21
87.0
31
-165.6922
0
LINE
8
0
10
-16.0
20
87.0
30
-165.6922
11
-15.0
21
93.0
31
-170.6922
0
LINE
8
0
10
-15.0
20
93.0
30
-170.6922
11
-14.0
21
99.0
31
-175.6922
0
LINE
8
0
10
-14.0
20
99.0
30
-175.6922
11
-12.0
21
105.0
31
-180.6922
0
LINE
8
0
10
-12.0
20
105.0
30
-180.6922
11
-12.0
21
111.0
31
-185.6922
0
LINE
8
0
10
-12.0
20
111.0
30
-185.6922
11
-9.0
21
119.0
31
-195.6922
0
LINE
8
0
10
-9.0
20
119.0
30
-195.6922
11
-4.0
21
122.0
31
-205.6922
0
LINE
8
0
10
-4.0
20
122.0
30
-205.6922
11
3.0
21
121.0
31
-220.6922
0
LINE
8
0
10
3.0
20
121.0
30
-220.6922
11
13.0
21
116.0
31
-230.6922
0
LINE
8
0
10
13.0
20
116.0
30
-230.6922
11
18.0
21
112.0
31
-230.6922
0
LINE
8
0
10
18.0
20
112.0
30
-230.6922
11
23.0
21
109.0
31
-235.6922
0
LINE
8
0
10
23.0
20
109.0
30
-235.6922
11
27.0
21
103.0
31
-240.6922
0
LINE
8
0
10
27.0
20
103.0
30
-240.6922
11
32.0
21
97.0
31
-245.6922
0
LINE
8
0
10
32.0
20
97.0
30
-245.6922
11
36.0
21
90.0
31
-250.6922
0
LINE
8
0
10
36.0
20
90.0
30
-250.6922
11
40.0
21
83.0
31
-255.6922
0
LINE
8
0
10
40.0
20
83.0
30
-255.6922
11
44.0
21
77.0
31
-255.6922
0
LINE
8
0
10
44.0
20
77.0
30
-255.6922
11
47.0
21
70.0
31
-260.6922
0
LINE
8
0
10
47.0
20
70.0
30
-260.6922
11
52.0
21
63.0
31
-265.6922
0
LINE
8
0
10
52.0
20
63.0
30
-265.6922
11
55.0
21
57.0
31
-265.6922
0
LINE
8
0
10
55.0
20
57.0
30
-265.6922
11
60.0
21
50.0
31
-270.6922
0
LINE
8
0
10
60.0
20
50.0
30
-270.6922
11
64.0
21
42.0
31
-270.6922
0
LINE
8
0
10
64.0
20
42.0
30
-270.6922
11
68.0
21
36.0
31
-270.6922
0
LINE
8
0
10
68.0
20
36.0
30
-270.6922
11
73.0
21
27.0
31
-270.6922
0
LINE
8
0
10
73.0
20
27.0
30
-270.6922
11
76.0
21
21.0
31
-270.6922
0
LINE
8
0
10
76.0
20
21.0
30
-270.6922
11
80.0
21
13.0
31
-270.6922
0
LINE
8
0
10
80.0
20
13.0
30
-270.6922
11
84.0
21
9.0
31
-270.6922
0
LINE
8
0
10
84.0
20
9.0
30
-270.6922
11
85.0
21
0.0
31
-270.6922
0
LINE
8
0
10
85.0
20
0.0
30
-270.6922
11
86.0
21
-5.0
31
-265.6922
0
LINE
8
0
10
86.0
20
-5.0
30
-265.6922
11
87.0
21
-14.0
31
-260.6922
0
LINE
8
0
10
87.0
20
-14.0
30
-260.6922
11
86.0
21
-20.0
31
-250.6922
0
LINE
8
0
10
86.0
20
-20.0
30
-250.6922
11
82.0
21
-26.0
31
-245.6922
0
LINE
8
0
10
82.0
20
-26.0
30
-245.6922
11
78.0
21
-25.0
31
-225.6922
0
LINE
8
0
10
78.0
20
-25.0
30
-225.6922
11
74.0
21
-20.0
31
-220.6922
0
LINE
8
0
10
74.0
20
-20.0
30
-220.6922
11
69.0
21
-17.0
31
-215.6922
0
LINE
8
0
10
69.0
20
-17.0
30
-215.6922
11
66.0
21
-13.0
31
-210.6922
0
LINE
8
0
10
66.0
20
-13.0
30
-210.6922
11
63.0
21
-9.0
31
-205.6922
0
LINE
8
0
10
63.0
20
-9.0
30
-205.6922
11
58.0
21
-6.0
31
-205.6922
0
LINE
8
0
10
58.0
20
-6.0
30
-205.6922
11
55.0
21
-1.0
31
-200.6922
0
LINE
8
0
10
55.0
20
-1.0
30
-200.6922
11
51.0
21
4.0
31
-200.6922
0
LINE
8
0
10
51.0
20
4.0
30
-200.6922
11
47.0
21
10.0
31
-200.6922
0
LINE
8
0
10
47.0
20
10.0
30
-200.6922
11
42.0
21
15.0
31
-200.6922
0
LINE
8
0
10
42.0
20
15.0
30
-200.6922
11
37.0
21
19.0
31
-200.6922
0
LINE
8
0
10
37.0
20
19.0
30
-200.6922
11
36.0
21
24.0
31
-205.6922
0
LINE
8
0
10
36.0
20
24.0
30
-205.6922
11
33.0
21
29.0
31
-215.6922
0
LINE
8
0
10
33.0
20
29.0
30
-215.6922
11
30.0
21
33.0
31
-225.6922
0
ENDSEC
0
EOF
