0
SECTION
2
ENTITIES
0
3DFACE
8
0
10
-254.0
20
-67.351074
30
-123.20508
11
-256.0
21
-31.670837
31
-173.20508
12
-256.0
22
-68.32916
32
-123.20508
13
-255.9999
23
-68.32906
33
-123.20498
0
3DFACE
8
0
10
-256.0
20
-68.32916
30
-123.20508
11
-254.0
21
-32.648926
31
-173.20508
12
-254.0
22
-67.351074
32
-123.20508
13
-253.9999
23
-67.350975
33
-123.20498
0
3DFACE
8
0
10
-252.0
20
-66.48285
30
-123.20508
11
-254.0
21
-32.648926
31
-173.20508
12
-254.0
22
-67.351074
32
-123.20508
13
-253.9999
23
-67.350975
33
-123.20498
0
3DFACE
8
0
10
-254.0
20
-67.351074
30
-123.20508
11
-252.0
21
-33.51715
31
-173.20508
12
-252.0
22
-66.48285
32
-123.20508
13
-251.9999
23
-66.48275
33
-123.20498
0
3DFACE
8
0
10
-250.0
20
-66.44623
30
-123.20508
11
-252.0
21
-33.51715
31
-173.20508
12
-252.0
22
-66.48285
32
-123.20508
13
-251.9999
23
-66.48275
33
-123.20498
0
3DFACE
8
0
10
-252.0
20
-66.48285
30
-123.20508
11
-250.0
21
-33.553772
31
-173.20508
12
-250.0
22
-66.44623
32
-123.20508
13
-249.9999
23
-66.44613
33
-123.20498
0
3DFACE
8
0
10
-248.0
20
-66.676636
30
-123.20508
11
-250.0
21
-33.553772
31
-173.20508
12
-250.0
22
-66.44623
32
-123.20508
13
-249.9999
23
-66.44613
33
-123.20498
0
3DFACE
8
0
10
-250.0
20
-66.44623
30
-123.20508
11
-248.0
21
-33.323364
31
-173.20508
12
-248.0
22
-66.676636
32
-123.20508
13
-247.9999
23
-66.67654
33
-123.20498
0
3DFACE
8
0
10
-246.0
20
-67.11456
30
-123.20508
11
-248.0
21
-33.323364
31
-173.20508
12
-248.0
22
-66.676636
32
-123.20508
13
-247.9999
23
-66.67654
33
-123.20498
0
3DFACE
8
0
10
-248.0
20
-66.676636
30
-123.20508
11
-246.0
21
-32.885437
31
-173.20508
12
-246.0
22
-67.11456
32
-123.20508
13
-245.9999
23
-67.11446
33
-123.20498
0
3DFACE
8
0
10
-244.0
20
-67.789
30
-123.20508
11
-246.0
21
-32.885437
31
-173.20508
12
-246.0
22
-67.11456
32
-123.20508
13
-245.9999
23
-67.11446
33
-123.20498
0
3DFACE
8
0
10
-246.0
20
-67.11456
30
-123.20508
11
-244.0
21
-32.211
31
-173.20508
12
-244.0
22
-67.789
32
-123.20508
13
-243.9999
23
-67.7889
33
-123.20498
0
3DFACE
8
0
10
-242.0
20
-69.01581
30
-123.20508
11
-244.0
21
-32.211
31
-173.20508
12
-244.0
22
-67.789
32
-123.20508
13
-243.9999
23
-67.7889
33
-123.20498
0
3DFACE
8
0
10
-244.0
20
-67.789
30
-123.20508
11
-242.0
21
-30.984192
31
-173.20508
12
-242.0
22
-69.01581
32
-123.20508
13
-241.9999
23
-69.01571
33
-123.20498
0
3DFACE
8
0
10
-240.0
20
-70.10071
30
-123.20508
11
-242.0
21
-30.984192
31
-173.20508
12
-242.0
22
-69.01581
32
-123.20508
13
-241.9999
23
-69.01571
33
-123.20498
0
3DFACE
8
0
10
-242.0
20
-69.01581
30
-123.20508
11
-240.0
21
-29.899292
31
-173.20508
12
-240.0
22
-70.10071
32
-123.20508
13
-239.9999
23
-70.10061
33
-123.20498
0
3DFACE
8
0
10
-238.0
20
-71.46332
30
-123.20508
11
-240.0
21
-29.899292
31
-173.20508
12
-240.0
22
-70.10071
32
-123.20508
13
-239.9999
23
-70.10061
33
-123.20498
0
3DFACE
8
0
10
-240.0
20
-70.10071
30
-123.20508
11
-238.0
21
-28.536682
31
-173.20508
12
-238.0
22
-71.46332
32
-123.20508
13
-237.9999
23
-71.46322
33
-123.20498
0
3DFACE
8
0
10
-236.0
20
-72.35901
30
-123.20508
11
-238.0
21
-28.536682
31
-173.20508
12
-238.0
22
-71.46332
32
-123.20508
13
-237.9999
23
-71.46322
33
-123.20498
0
3DFACE
8
0
10
-238.0
20
-71.46332
30
-123.20508
11
-236.0
21
-27.640991
31
-173.20508
12
-236.0
22
-72.35901
32
-123.20508
13
-235.9999
23
-72.35891
33
-123.20498
0
3DFACE
8
0
10
-234.0
20
-73.19672
30
-123.20508
11
-236.0
21
-27.640991
31
-173.20508
12
-236.0
22
-72.35901
32
-123.20508
13
-235.9999
23
-72.35891
33
-123.20498
0
3DFACE
8
0
10
-236.0
20
-72.35901
30
-123.20508
11
-234.0
21
-26.803284
31
-173.20508
12
-234.0
22
-73.19672
32
-123.20508
13
-233.9999
23
-73.19662
33
-123.20498
0
3DFACE
8
0
10
-232.0
20
-73.66211
30
-123.20508
11
-234.0
21
-26.803284
31
-173.20508
12
-234.0
22
-73.19672
32
-123.20508
13
-233.9999
23
-73.19662
33
-123.20498
0
3DFACE
8
0
10
-234.0
20
-73.19672
30
-123.20508
11
-232.0
21
-26.33789
31
-173.20508
12
-232.0
22
-73.66211
32
-123.20508
13
-231.9999
23
-73.66201
33
-123.20498
0
3DFACE
8
0
10
-230.0
20
-73.64685
30
-123.20508
11
-232.0
21
-26.33789
31
-173.20508
12
-232.0
22
-73.66211
32
-123.20508
13
-231.9999
23
-73.66201
33
-123.20498
0
3DFACE
8
0
10
-232.0
20
-73.66211
30
-123.20508
11
-230.0
21
-26.35315
31
-173.20508
12
-230.0
22
-73.64685
32
-123.20508
13
-229.9999
23
-73.64675
33
-123.20498
0
3DFACE
8
0
10
-228.0
20
-73.14789
30
-123.20508
11
-230.0
21
-26.35315
31
-173.20508
12
-230.0
22
-73.64685
32
-123.20508
13
-229.9999
23
-73.64675
33
-123.20498
0
3DFACE
8
0
10
-230.0
20
-73.64685
30
-123.20508
11
-228.0
21
-26.852112
31
-173.20508
12
-228.0
22
-73.14789
32
-123.20508
13
-227.9999
23
-73.14779
33
-123.20498
0
3DFACE
8
0
10
-226.0
20
-72.22778
30
-123.20508
11
-228.0
21
-26.852112
31
-173.20508
12
-228.0
22
-73.14789
32
-123.20508
13
-227.9999
23
-73.14779
33
-123.20498
0
3DFACE
8
0
10
-228.0
20
-73.14789
30
-123.20508
11
-226.0
21
-27.772217
31
-173.20508
12
-226.0
22
-72.22778
32
-123.20508
13
-225.9999
23
-72.227684
33
-123.20498
0
3DFACE
8
0
10
-224.0
20
-70.990295
30
-123.20508
11
-226.0
21
-27.772217
31
-173.20508
12
-226.0
22
-72.22778
32
-123.20508
13
-225.9999
23
-72.227684
33
-123.20498
0
3DFACE
8
0
10
-226.0
20
-72.22778
30
-123.20508
11
-224.0
21
-29.009705
31
-173.20508
12
-224.0
22
-70.990295
32
-123.20508
13
-223.9999
23
-70.9902
33
-123.20498
0
3DFACE
8
0
10
-222.0
20
-70.14343
30
-123.20508
11
-224.0
21
-29.009705
31
-173.20508
12
-224.0
22
-70.990295
32
-123.20508
13
-223.9999
23
-70.9902
33
-123.20498
0
3DFACE
8
0
10
-224.0
20
-70.990295
30
-123.20508
11
-222.0
21
-29.856567
31
-173.20508
12
-222.0
22
-70.14343
32
-123.20508
13
-221.9999
23
-70.14333
33
-123.20498
0
3DFACE
8
0
10
-220.0
20
-68.991394
30
-123.20508
11
-222.0
21
-29.856567
31
-173.20508
12
-222.0
22
-70.14343
32
-123.20508
13
-221.9999
23
-70.14333
33
-123.20498
0
3DFACE
8
0
10
-222.0
20
-70.14343
30
-123.20508
11
-220.0
21
-31.008606
31
-173.20508
12
-220.0
22
-68.991394
32
-123.20508
13
-219.9999
23
-68.991295
33
-123.20498
0
3DFACE
8
0
10
-218.0
20
-67.80121
30
-123.20508
11
-220.0
21
-31.008606
31
-173.20508
12
-220.0
22
-68.991394
32
-123.20508
13
-219.9999
23
-68.991295
33
-123.20498
0
3DFACE
8
0
10
-220.0
20
-68.991394
30
-123.20508
11
-218.0
21
-32.19879
31
-173.20508
12
-218.0
22
-67.80121
32
-123.20508
13
-217.9999
23
-67.80111
33
-123.20498
0
3DFACE
8
0
10
-216.0
20
-66.961975
30
-123.20508
11
-218.0
21
-32.19879
31
-173.20508
12
-218.0
22
-67.80121
32
-123.20508
13
-217.9999
23
-67.80111
33
-123.20498
0
3DFACE
8
0
10
-218.0
20
-67.80121
30
-123.20508
11
-216.0
21
-33.038025
31
-173.20508
12
-216.0
22
-66.961975
32
-123.20508
13
-215.9999
23
-66.961876
33
-123.20498
0
3DFACE
8
0
10
-214.0
20
-66.62018
30
-123.20508
11
-216.0
21
-33.038025
31
-173.20508
12
-216.0
22
-66.961975
32
-123.20508
13
-215.9999
23
-66.961876
33
-123.20498
0
3DFACE
8
0
10
-216.0
20
-66.961975
30
-123.20508
11
-214.0
21
-33.37982
31
-173.20508
12
-214.0
22
-66.62018
32
-123.20508
13
-213.9999
23
-66.62008
33
-123.20498
0
3DFACE
8
0
10
-212.0
20
-66.30432
30
-123.20508
11
-214.0
21
-33.37982
31
-173.20508
12
-214.0
22
-66.62018
32
-123.20508
13
-213.9999
23
-66.62008
33
-123.20498
0
3DFACE
8
0
10
-214.0
20
-66.62018
30
-123.20508
11
-212.0
21
-33.69568
31
-173.20508
12
-212.0
22
-66.30432
32
-123.20508
13
-211.9999
23
-66.30422
33
-123.20498
0
3DFACE
8
0
10
-210.0
20
-66.66901
30
-123.20508
11
-212.0
21
-33.69568
31
-173.20508
12
-212.0
22
-66.30432
32
-123.20508
13
-211.9999
23
-66.30422
33
-123.20498
0
3DFACE
8
0
10
-212.0
20
-66.30432
30
-123.20508
11
-210.0
21
-33.330994
31
-173.20508
12
-210.0
22
-66.66901
32
-123.20508
13
-209.9999
23
-66.66891
33
-123.20498
0
3DFACE
8
0
10
-208.0
20
-67.65625
30
-123.20508
11
-210.0
21
-33.330994
31
-173.20508
12
-210.0
22
-66.66901
32
-123.20508
13
-209.9999
23
-66.66891
33
-123.20498
0
3DFACE
8
0
10
-210.0
20
-66.66901
30
-123.20508
11
-208.0
21
-32.34375
31
-173.20508
12
-208.0
22
-67.65625
32
-123.20508
13
-207.9999
23
-67.65615
33
-123.20498
0
3DFACE
8
0
10
-206.0
20
-68.57178
30
-123.20508
11
-208.0
21
-32.34375
31
-173.20508
12
-208.0
22
-67.65625
32
-123.20508
13
-207.9999
23
-67.65615
33
-123.20498
0
3DFACE
8
0
10
-208.0
20
-67.65625
30
-123.20508
11
-206.0
21
-31.428223
31
-173.20508
12
-206.0
22
-68.57178
32
-123.20508
13
-205.9999
23
-68.57168
33
-123.20498
0
3DFACE
8
0
10
-204.0
20
-69.6933
30
-123.20508
11
-206.0
21
-31.428223
31
-173.20508
12
-206.0
22
-68.57178
32
-123.20508
13
-205.9999
23
-68.57168
33
-123.20498
0
3DFACE
8
0
10
-206.0
20
-68.57178
30
-123.20508
11
-204.0
21
-30.306702
31
-173.20508
12
-204.0
22
-69.6933
32
-123.20508
13
-203.9999
23
-69.6932
33
-123.20498
0
3DFACE
8
0
10
-202.0
20
-70.93689
30
-123.20508
11
-204.0
21
-30.306702
31
-173.20508
12
-204.0
22
-69.6933
32
-123.20508
13
-203.9999
23
-69.6932
33
-123.20498
0
3DFACE
8
0
10
-204.0
20
-69.6933
30
-123.20508
11
-202.0
21
-29.06311
31
-173.20508
12
-202.0
22
-70.93689
32
-123.20508
13
-201.9999
23
-70.93679
33
-123.20498
0
3DFACE
8
0
10
-200.0
20
-72.293396
30
-123.20508
11
-202.0
21
-29.06311
31
-173.20508
12
-202.0
22
-70.93689
32
-123.20508
13
-201.9999
23
-70.93679
33
-123.20498
0
3DFACE
8
0
10
-202.0
20
-70.93689
30
-123.20508
11
-200.0
21
-27.706604
31
-173.20508
12
-200.0
22
-72.293396
32
-123.20508
13
-199.9999
23
-72.2933
33
-123.20498
0
3DFACE
8
0
10
-198.0
20
-73.09143
30
-123.20508
11
-200.0
21
-27.706604
31
-173.20508
12
-200.0
22
-72.293396
32
-123.20508
13
-199.9999
23
-72.2933
33
-123.20498
0
3DFACE
8
0
10
-200.0
20
-72.293396
30
-123.20508
11
-198.0
21
-26.90857
31
-173.20508
12
-198.0
22
-73.09143
32
-123.20508
13
-197.9999
23
-73.09133
33
-123.20498
0
3DFACE
8
0
10
-196.0
20
-73.41339
30
-123.20508
11
-198.0
21
-26.90857
31
-173.20508
12
-198.0
22
-73.09143
32
-123.20508
13
-197.9999
23
-73.09133
33
-123.20498
0
3DFACE
8
0
10
-198.0
20
-73.09143
30
-123.20508
11
-196.0
21
-26.586609
31
-173.20508
12
-196.0
22
-73.41339
32
-123.20508
13
-195.9999
23
-73.41329
33
-123.20498
0
3DFACE
8
0
10
-194.0
20
-73.38287
30
-123.20508
11
-196.0
21
-26.586609
31
-173.20508
12
-196.0
22
-73.41339
32
-123.20508
13
-195.9999
23
-73.41329
33
-123.20498
0
3DFACE
8
0
10
-196.0
20
-73.41339
30
-123.20508
11
-194.0
21
-26.617126
31
-173.20508
12
-194.0
22
-73.38287
32
-123.20508
13
-193.9999
23
-73.382774
33
-123.20498
0
3DFACE
8
0
10
-192.0
20
-73.32794
30
-123.20508
11
-194.0
21
-26.617126
31
-173.20508
12
-194.0
22
-73.38287
32
-123.20508
13
-193.9999
23
-73.382774
33
-123.20498
0
3DFACE
8
0
10
-194.0
20
-73.38287
30
-123.20508
11
-192.0
21
-26.672058
31
-173.20508
12
-192.0
22
-73.32794
32
-123.20508
13
-191.9999
23
-73.32784
33
-123.20498
0
3DFACE
8
0
10
-190.0
20
-72.81372
30
-123.20508
11
-192.0
21
-26.672058
31
-173.20508
12
-192.0
22
-73.32794
32
-123.20508
13
-191.9999
23
-73.32784
33
-123.20498
0
3DFACE
8
0
10
-192.0
20
-73.32794
30
-123.20508
11
-190.0
21
-27.18628
31
-173.20508
12
-190.0
22
-72.81372
32
-123.20508
13
-189.9999
23
-72.81362
33
-123.20498
0
3DFACE
8
0
10
-188.0
20
-71.64642
30
-123.20508
11
-190.0
21
-27.18628
31
-173.20508
12
-190.0
22
-72.81372
32
-123.20508
13
-189.9999
23
-72.81362
33
-123.20498
0
3DFACE
8
0
10
-190.0
20
-72.81372
30
-123.20508
11
-188.0
21
-28.353577
31
-173.20508
12
-188.0
22
-71.64642
32
-123.20508
13
-187.9999
23
-71.646324
33
-123.20498
0
3DFACE
8
0
10
-186.0
20
-70.51422
30
-123.20508
11
-188.0
21
-28.353577
31
-173.20508
12
-188.0
22
-71.64642
32
-123.20508
13
-187.9999
23
-71.646324
33
-123.20498
0
3DFACE
8
0
10
-188.0
20
-71.64642
30
-123.20508
11
-186.0
21
-29.485779
31
-173.20508
12
-186.0
22
-70.51422
32
-123.20508
13
-185.9999
23
-70.51412
33
-123.20498
0
3DFACE
8
0
10
-184.0
20
-69.468994
30
-123.20508
11
-186.0
21
-29.485779
31
-173.20508
12
-186.0
22
-70.51422
32
-123.20508
13
-185.9999
23
-70.51412
33
-123.20498
0
3DFACE
8
0
10
-186.0
20
-70.51422
30
-123.20508
11
-184.0
21
-30.531006
31
-173.20508
12
-184.0
22
-69.468994
32
-123.20508
13
-183.9999
23
-69.468895
33
-123.20498
0
3DFACE
8
0
10
-182.0
20
-68.358154
30
-123.20508
11
-184.0
21
-30.531006
31
-173.20508
12
-184.0
22
-69.468994
32
-123.20508
13
-183.9999
23
-69.468895
33
-123.20498
0
3DFACE
8
0
10
-184.0
20
-69.468994
30
-123.20508
11
-182.0
21
-31.641846
31
-173.20508
12
-182.0
22
-68.358154
32
-123.20508
13
-181.9999
23
-68.358055
33
-123.20498
0
3DFACE
8
0
10
-180.0
20
-67.203064
30
-123.20508
11
-182.0
21
-31.641846
31
-173.20508
12
-182.0
22
-68.358154
32
-123.20508
13
-181.9999
23
-68.358055
33
-123.20498
0
3DFACE
8
0
10
-182.0
20
-68.358154
30
-123.20508
11
-180.0
21
-32.796936
31
-173.20508
12
-180.0
22
-67.203064
32
-123.20508
13
-179.9999
23
-67.202965
33
-123.20498
0
3DFACE
8
0
10
-178.0
20
-66.736145
30
-123.20508
11
-180.0
21
-32.796936
31
-173.20508
12
-180.0
22
-67.203064
32
-123.20508
13
-179.9999
23
-67.202965
33
-123.20498
0
3DFACE
8
0
10
-180.0
20
-67.203064
30
-123.20508
11
-178.0
21
-33.263855
31
-173.20508
12
-178.0
22
-66.736145
32
-123.20508
13
-177.9999
23
-66.736046
33
-123.20498
0
3DFACE
8
0
10
-176.0
20
-66.520996
30
-123.20508
11
-178.0
21
-33.263855
31
-173.20508
12
-178.0
22
-66.736145
32
-123.20508
13
-177.9999
23
-66.736046
33
-123.20498
0
3DFACE
8
0
10
-178.0
20
-66.736145
30
-123.20508
11
-176.0
21
-33.479004
31
-173.20508
12
-176.0
22
-66.520996
32
-123.20508
13
-175.9999
23
-66.5209
33
-123.20498
0
3DFACE
8
0
10
-174.0
20
-66.80939
30
-123.20508
11
-176.0
21
-33.479004
31
-173.20508
12
-176.0
22
-66.520996
32
-123.20508
13
-175.9999
23
-66.5209
33
-123.20498
0
3DFACE
8
0
10
-176.0
20
-66.520996
30
-123.20508
11
-174.0
21
-33.190613
31
-173.20508
12
-174.0
22
-66.80939
32
-123.20508
13
-173.9999
23
-66.80929
33
-123.20498
0
3DFACE
8
0
10
-172.0
20
-67.27936
30
-123.20508
11
-174.0
21
-33.190613
31
-173.20508
12
-174.0
22
-66.80939
32
-123.20508
13
-173.9999
23
-66.80929
33
-123.20498
0
3DFACE
8
0
10
-174.0
20
-66.80939
30
-123.20508
11
-172.0
21
-32.720642
31
-173.20508
12
-172.0
22
-67.27936
32
-123.20508
13
-171.9999
23
-67.27926
33
-123.20498
0
3DFACE
8
0
10
-170.0
20
-68.14606
30
-123.20508
11
-172.0
21
-32.720642
31
-173.20508
12
-172.0
22
-67.27936
32
-123.20508
13
-171.9999
23
-67.27926
33
-123.20498
0
3DFACE
8
0
10
-172.0
20
-67.27936
30
-123.20508
11
-170.0
21
-31.853943
31
-173.20508
12
-170.0
22
-68.14606
32
-123.20508
13
-169.9999
23
-68.14596
33
-123.20498
0
3DFACE
8
0
10
-168.0
20
-69.23096
30
-123.20508
11
-170.0
21
-31.853943
31
-173.20508
12
-170.0
22
-68.14606
32
-123.20508
13
-169.9999
23
-68.14596
33
-123.20498
0
3DFACE
8
0
10
-170.0
20
-68.14606
30
-123.20508
11
-168.0
21
-30.769043
31
-173.20508
12
-168.0
22
-69.23096
32
-123.20508
13
-167.9999
23
-69.23086
33
-123.20498
0
3DFACE
8
0
10
-166.0
20
-70.37537
30
-123.20508
11
-168.0
21
-30.769043
31
-173.20508
12
-168.0
22
-69.23096
32
-123.20508
13
-167.9999
23
-69.23086
33
-123.20498
0
3DFACE
8
0
10
-168.0
20
-69.23096
30
-123.20508
11
-166.0
21
-29.624634
31
-173.20508
12
-166.0
22
-70.37537
32
-123.20508
13
-165.9999
23
-70.37527
33
-123.20498
0
3DFACE
8
0
10
-164.0
20
-71.48773
30
-123.20508
11
-166.0
21
-29.624634
31
-173.20508
12
-166.0
22
-70.37537
32
-123.20508
13
-165.9999
23
-70.37527
33
-123.20498
0
3DFACE
8
0
10
-166.0
20
-70.37537
30
-123.20508
11
-164.0
21
-28.512268
31
-173.20508
12
-164.0
22
-71.48773
32
-123.20508
13
-163.9999
23
-71.48763
33
-123.20498
0
3DFACE
8
0
10
-162.0
20
-72.62909
30
-123.20508
11
-164.0
21
-28.512268
31
-173.20508
12
-164.0
22
-71.48773
32
-123.20508
13
-163.9999
23
-71.48763
33
-123.20498
0
3DFACE
8
0
10
-164.0
20
-71.48773
30
-123.20508
11
-162.0
21
-27.37091
31
-173.20508
12
-162.0
22
-72.62909
32
-123.20508
13
-161.9999
23
-72.62899
33
-123.20498
0
3DFACE
8
0
10
-160.0
20
-73.32489
30
-123.20508
11
-162.0
21
-27.37091
31
-173.20508
12
-162.0
22
-72.62909
32
-123.20508
13
-161.9999
23
-72.62899
33
-123.20498
0
3DFACE
8
0
10
-162.0
20
-72.62909
30
-123.20508
11
-160.0
21
-26.67511
31
-173.20508
12
-160.0
22
-73.32489
32
-123.20508
13
-159.9999
23
-73.32479
33
-123.20498
0
3DFACE
8
0
10
-158.0
20
-73.56903
30
-123.20508
11
-160.0
21
-26.67511
31
-173.20508
12
-160.0
22
-73.32489
32
-123.20508
13
-159.9999
23
-73.32479
33
-123.20498
0
3DFACE
8
0
10
-160.0
20
-73.32489
30
-123.20508
11
-158.0
21
-26.43097
31
-173.20508
12
-158.0
22
-73.56903
32
-123.20508
13
-157.9999
23
-73.56893
33
-123.20498
0
3DFACE
8
0
10
-156.0
20
-73.5553
30
-123.20508
11
-158.0
21
-26.43097
31
-173.20508
12
-158.0
22
-73.56903
32
-123.20508
13
-157.9999
23
-73.56893
33
-123.20498
0
3DFACE
8
0
10
-158.0
20
-73.56903
30
-123.20508
11
-156.0
21
-26.444702
31
-173.20508
12
-156.0
22
-73.5553
32
-123.20508
13
-155.9999
23
-73.5552
33
-123.20498
0
3DFACE
8
0
10
-154.0
20
-73.04108
30
-123.20508
11
-156.0
21
-26.444702
31
-173.20508
12
-156.0
22
-73.5553
32
-123.20508
13
-155.9999
23
-73.5552
33
-123.20498
0
3DFACE
8
0
10
-156.0
20
-73.5553
30
-123.20508
11
-154.0
21
-26.958923
31
-173.20508
12
-154.0
22
-73.04108
32
-123.20508
13
-153.9999
23
-73.04098
33
-123.20498
0
3DFACE
8
0
10
-152.0
20
-72.26288
30
-123.20508
11
-154.0
21
-26.958923
31
-173.20508
12
-154.0
22
-73.04108
32
-123.20508
13
-153.9999
23
-73.04098
33
-123.20498
0
3DFACE
8
0
10
-154.0
20
-73.04108
30
-123.20508
11
-152.0
21
-27.737122
31
-173.20508
12
-152.0
22
-72.26288
32
-123.20508
13
-151.9999
23
-72.26278
33
-123.20498
0
3DFACE
8
0
10
-150.0
20
-71.04065
30
-123.20508
11
-152.0
21
-27.737122
31
-173.20508
12
-152.0
22
-72.26288
32
-123.20508
13
-151.9999
23
-72.26278
33
-123.20498
0
3DFACE
8
0
10
-152.0
20
-72.26288
30
-123.20508
11
-150.0
21
-28.95935
31
-173.20508
12
-150.0
22
-71.04065
32
-123.20508
13
-149.9999
23
-71.04055
33
-123.20498
0
3DFACE
8
0
10
-148.0
20
-70.06714
30
-123.20508
11
-150.0
21
-28.95935
31
-173.20508
12
-150.0
22
-71.04065
32
-123.20508
13
-149.9999
23
-71.04055
33
-123.20498
0
3DFACE
8
0
10
-150.0
20
-71.04065
30
-123.20508
11
-148.0
21
-29.932861
31
-173.20508
12
-148.0
22
-70.06714
32
-123.20508
13
-147.9999
23
-70.06704
33
-123.20498
0
3DFACE
8
0
10
-146.0
20
-68.77167
30
-123.20508
11
-148.0
21
-29.932861
31
-173.20508
12
-148.0
22
-70.06714
32
-123.20508
13
-147.9999
23
-70.06704
33
-123.20498
0
3DFACE
8
0
10
-148.0
20
-70.06714
30
-123.20508
11
-146.0
21
-31.228333
31
-173.20508
12
-146.0
22
-68.77167
32
-123.20508
13
-145.9999
23
-68.77157
33
-123.20498
0
3DFACE
8
0
10
-144.0
20
-67.92786
30
-123.20508
11
-146.0
21
-31.228333
31
-173.20508
12
-146.0
22
-68.77167
32
-123.20508
13
-145.9999
23
-68.77157
33
-123.20498
0
3DFACE
8
0
10
-146.0
20
-68.77167
30
-123.20508
11
-144.0
21
-32.072144
31
-173.20508
12
-144.0
22
-67.92786
32
-123.20508
13
-143.9999
23
-67.92776
33
-123.20498
0
3DFACE
8
0
10
-142.0
20
-67.013855
30
-123.20508
11
-144.0
21
-32.072144
31
-173.20508
12
-144.0
22
-67.92786
32
-123.20508
13
-143.9999
23
-67.92776
33
-123.20498
0
3DFACE
8
0
10
-144.0
20
-67.92786
30
-123.20508
11
-142.0
21
-32.986145
31
-173.20508
12
-142.0
22
-67.013855
32
-123.20508
13
-141.9999
23
-67.013756
33
-123.20498
0
3DFACE
8
0
10
-140.0
20
-66.50574
30
-123.20508
11
-142.0
21
-32.986145
31
-173.20508
12
-142.0
22
-67.013855
32
-123.20508
13
-141.9999
23
-67.013756
33
-123.20498
0
3DFACE
8
0
10
-142.0
20
-67.013855
30
-123.20508
11
-140.0
21
-33.494263
31
-173.20508
12
-140.0
22
-66.50574
32
-123.20508
13
-139.9999
23
-66.50564
33
-123.20498
0
3DFACE
8
0
10
-138.0
20
-66.67206
30
-123.20508
11
-140.0
21
-33.494263
31
-173.20508
12
-140.0
22
-66.50574
32
-123.20508
13
-139.9999
23
-66.50564
33
-123.20498
0
3DFACE
8
0
10
-140.0
20
-66.50574
30
-123.20508
11
-138.0
21
-33.32794
31
-173.20508
12
-138.0
22
-66.67206
32
-123.20508
13
-137.9999
23
-66.67196
33
-123.20498
0
3DFACE
8
0
10
-136.0
20
-67.024536
30
-123.20508
11
-138.0
21
-33.32794
31
-173.20508
12
-138.0
22
-66.67206
32
-123.20508
13
-137.9999
23
-66.67196
33
-123.20498
0
3DFACE
8
0
10
-138.0
20
-66.67206
30
-123.20508
11
-136.0
21
-32.975464
31
-173.20508
12
-136.0
22
-67.024536
32
-123.20508
13
-135.9999
23
-67.02444
33
-123.20498
0
3DFACE
8
0
10
-134.0
20
-67.46094
30
-123.20508
11
-136.0
21
-32.975464
31
-173.20508
12
-136.0
22
-67.024536
32
-123.20508
13
-135.9999
23
-67.02444
33
-123.20498
0
3DFACE
8
0
10
-136.0
20
-67.024536
30
-123.20508
11
-134.0
21
-32.539062
31
-173.20508
12
-134.0
22
-67.46094
32
-123.20508
13
-133.9999
23
-67.46084
33
-123.20498
0
3DFACE
8
0
10
-132.0
20
-68.49243
30
-123.20508
11
-134.0
21
-32.539062
31
-173.20508
12
-134.0
22
-67.46094
32
-123.20508
13
-133.9999
23
-67.46084
33
-123.20498
0
3DFACE
8
0
10
-134.0
20
-67.46094
30
-123.20508
11
-132.0
21
-31.507568
31
-173.20508
12
-132.0
22
-68.49243
32
-123.20508
13
-131.9999
23
-68.49233
33
-123.20498
0
3DFACE
8
0
10
-130.0
20
-69.84741
30
-123.20508
11
-132.0
21
-31.507568
31
-173.20508
12
-132.0
22
-68.49243
32
-123.20508
13
-131.9999
23
-68.49233
33
-123.20498
0
3DFACE
8
0
10
-132.0
20
-68.49243
30
-123.20508
11
-130.0
21
-30.152588
31
-173.20508
12
-130.0
22
-69.84741
32
-123.20508
13
-129.9999
23
-69.84731
33
-123.20498
0
3DFACE
8
0
10
-128.0
20
-71.03302
30
-123.20508
11
-130.0
21
-30.152588
31
-173.20508
12
-130.0
22
-69.84741
32
-123.20508
13
-129.9999
23
-69.84731
33
-123.20498
0
3DFACE
8
0
10
-130.0
20
-69.84741
30
-123.20508
11
-128.0
21
-28.96698
31
-173.20508
12
-128.0
22
-71.03302
32
-123.20508
13
-127.9999
23
-71.03292
33
-123.20498
0
3DFACE
8
0
10
-126.0
20
-71.93634
30
-123.20508
11
-128.0
21
-28.96698
31
-173.20508
12
-128.0
22
-71.03302
32
-123.20508
13
-127.9999
23
-71.03292
33
-123.20498
0
3DFACE
8
0
10
-128.0
20
-71.03302
30
-123.20508
11
-126.0
21
-28.06366
31
-173.20508
12
-126.0
22
-71.93634
32
-123.20508
13
-125.9999
23
-71.93624
33
-123.20498
0
3DFACE
8
0
10
-124.0
20
-72.897644
30
-123.20508
11
-126.0
21
-28.06366
31
-173.20508
12
-126.0
22
-71.93634
32
-123.20508
13
-125.9999
23
-71.93624
33
-123.20498
0
3DFACE
8
0
10
-126.0
20
-71.93634
30
-123.20508
11
-124.0
21
-27.102356
31
-173.20508
12
-124.0
22
-72.897644
32
-123.20508
13
-123.9999
23
-72.897545
33
-123.20498
0
3DFACE
8
0
10
-122.0
20
-73.53699
30
-123.20508
11
-124.0
21
-27.102356
31
-173.20508
12
-124.0
22
-72.897644
32
-123.20508
13
-123.9999
23
-72.897545
33
-123.20498
0
3DFACE
8
0
10
-124.0
20
-72.897644
30
-123.20508
11
-122.0
21
-26.463013
31
-173.20508
12
-122.0
22
-73.53699
32
-123.20508
13
-121.9999
23
-73.53689
33
-123.20498
0
3DFACE
8
0
10
-120.0
20
-73.82233
30
-123.20508
11
-122.0
21
-26.463013
31
-173.20508
12
-122.0
22
-73.53699
32
-123.20508
13
-121.9999
23
-73.53689
33
-123.20498
0
3DFACE
8
0
10
-122.0
20
-73.53699
30
-123.20508
11
-120.0
21
-26.177673
31
-173.20508
12
-120.0
22
-73.82233
32
-123.20508
13
-119.9999
23
-73.82223
33
-123.20498
0
3DFACE
8
0
10
-118.0
20
-73.5141
30
-123.20508
11
-120.0
21
-26.177673
31
-173.20508
12
-120.0
22
-73.82233
32
-123.20508
13
-119.9999
23
-73.82223
33
-123.20498
0
3DFACE
8
0
10
-120.0
20
-73.82233
30
-123.20508
11
-118.0
21
-26.4859
31
-173.20508
12
-118.0
22
-73.5141
32
-123.20508
13
-117.9999
23
-73.514
33
-123.20498
0
3DFACE
8
0
10
-116.0
20
-72.57416
30
-123.20508
11
-118.0
21
-26.4859
31
-173.20508
12
-118.0
22
-73.5141
32
-123.20508
13
-117.9999
23
-73.514
33
-123.20498
0
3DFACE
8
0
10
-118.0
20
-73.5141
30
-123.20508
11
-116.0
21
-27.425842
31
-173.20508
12
-116.0
22
-72.57416
32
-123.20508
13
-115.9999
23
-72.57406
33
-123.20498
0
3DFACE
8
0
10
-114.0
20
-71.815796
30
-123.20508
11
-116.0
21
-27.425842
31
-173.20508
12
-116.0
22
-72.57416
32
-123.20508
13
-115.9999
23
-72.57406
33
-123.20498
0
3DFACE
8
0
10
-116.0
20
-72.57416
30
-123.20508
11
-114.0
21
-28.184204
31
-173.20508
12
-114.0
22
-71.815796
32
-123.20508
13
-113.9999
23
-71.8157
33
-123.20498
0
3DFACE
8
0
10
-112.0
20
-70.3891
30
-123.20508
11
-114.0
21
-28.184204
31
-173.20508
12
-114.0
22
-71.815796
32
-123.20508
13
-113.9999
23
-71.8157
33
-123.20498
0
3DFACE
8
0
10
-114.0
20
-71.815796
30
-123.20508
11
-112.0
21
-29.6109
31
-173.20508
12
-112.0
22
-70.3891
32
-123.20508
13
-111.9999
23
-70.389
33
-123.20498
0
3DFACE
8
0
10
-110.0
20
-69.21112
30
-123.20508
11
-112.0
21
-29.6109
31
-173.20508
12
-112.0
22
-70.3891
32
-123.20508
13
-111.9999
23
-70.389
33
-123.20498
0
3DFACE
8
0
10
-112.0
20
-70.3891
30
-123.20508
11
-110.0
21
-30.78888
31
-173.20508
12
-110.0
22
-69.21112
32
-123.20508
13
-109.9999
23
-69.21102
33
-123.20498
0
3DFACE
8
0
10
-108.0
20
-67.95532
30
-123.20508
11
-110.0
21
-30.78888
31
-173.20508
12
-110.0
22
-69.21112
32
-123.20508
13
-109.9999
23
-69.21102
33
-123.20498
0
3DFACE
8
0
10
-110.0
20
-69.21112
30
-123.20508
11
-108.0
21
-32.044678
31
-173.20508
12
-108.0
22
-67.95532
32
-123.20508
13
-107.9999
23
-67.95522
33
-123.20498
0
3DFACE
8
0
10
-106.0
20
-67.21832
30
-123.20508
11
-108.0
21
-32.044678
31
-173.20508
12
-108.0
22
-67.95532
32
-123.20508
13
-107.9999
23
-67.95522
33
-123.20498
0
3DFACE
8
0
10
-108.0
20
-67.95532
30
-123.20508
11
-106.0
21
-32.781677
31
-173.20508
12
-106.0
22
-67.21832
32
-123.20508
13
-105.9999
23
-67.21822
33
-123.20498
0
3DFACE
8
0
10
-104.0
20
-66.62781
30
-123.20508
11
-106.0
21
-32.781677
31
-173.20508
12
-106.0
22
-67.21832
32
-123.20508
13
-105.9999
23
-67.21822
33
-123.20498
0
3DFACE
8
0
10
-106.0
20
-67.21832
30
-123.20508
11
-104.0
21
-33.372192
31
-173.20508
12
-104.0
22
-66.62781
32
-123.20508
13
-103.9999
23
-66.62771
33
-123.20498
0
3DFACE
8
0
10
-102.0
20
-66.30127
30
-123.20508
11
-104.0
21
-33.372192
31
-173.20508
12
-104.0
22
-66.62781
32
-123.20508
13
-103.9999
23
-66.62771
33
-123.20498
0
3DFACE
8
0
10
-104.0
20
-66.62781
30
-123.20508
11
-102.0
21
-33.69873
31
-173.20508
12
-102.0
22
-66.30127
32
-123.20508
13
-101.9999
23
-66.30117
33
-123.20498
0
3DFACE
8
0
10
-100.0
20
-66.56372
30
-123.20508
11
-102.0
21
-33.69873
31
-173.20508
12
-102.0
22
-66.30127
32
-123.20508
13
-101.9999
23
-66.30117
33
-123.20498
0
3DFACE
8
0
10
-102.0
20
-66.30127
30
-123.20508
11
-100.0
21
-33.43628
31
-173.20508
12
-100.0
22
-66.56372
32
-123.20508
13
-99.9999
23
-66.56362
33
-123.20498
0
3DFACE
8
0
10
-98.0
20
-67.232056
30
-123.20508
11
-100.0
21
-33.43628
31
-173.20508
12
-100.0
22
-66.56372
32
-123.20508
13
-99.9999
23
-66.56362
33
-123.20498
0
3DFACE
8
0
10
-100.0
20
-66.56372
30
-123.20508
11
-98.0
21
-32.767944
31
-173.20508
12
-98.0
22
-67.232056
32
-123.20508
13
-97.9999
23
-67.23196
33
-123.20498
0
3DFACE
8
0
10
-96.0
20
-68.01178
30
-123.20508
11
-98.0
21
-32.767944
31
-173.20508
12
-98.0
22
-67.232056
32
-123.20508
13
-97.9999
23
-67.23196
33
-123.20498
0
3DFACE
8
0
10
-98.0
20
-67.232056
30
-123.20508
11
-96.0
21
-31.98822
31
-173.20508
12
-96.0
22
-68.01178
32
-123.20508
13
-95.9999
23
-68.01168
33
-123.20498
0
3DFACE
8
0
10
-94.0
20
-68.939514
30
-123.20508
11
-96.0
21
-31.98822
31
-173.20508
12
-96.0
22
-68.01178
32
-123.20508
13
-95.9999
23
-68.01168
33
-123.20498
0
3DFACE
8
0
10
-96.0
20
-68.01178
30
-123.20508
11
-94.0
21
-31.060486
31
-173.20508
12
-94.0
22
-68.939514
32
-123.20508
13
-93.9999
23
-68.939415
33
-123.20498
0
3DFACE
8
0
10
-92.0
20
-70.37079
30
-123.20508
11
-94.0
21
-31.060486
31
-173.20508
12
-94.0
22
-68.939514
32
-123.20508
13
-93.9999
23
-68.939415
33
-123.20498
0
3DFACE
8
0
10
-94.0
20
-68.939514
30
-123.20508
11
-92.0
21
-29.629211
31
-173.20508
12
-92.0
22
-70.37079
32
-123.20508
13
-91.9999
23
-70.37069
33
-123.20498
0
3DFACE
8
0
10
-90.0
20
-71.786804
30
-123.20508
11
-92.0
21
-29.629211
31
-173.20508
12
-92.0
22
-70.37079
32
-123.20508
13
-91.9999
23
-70.37069
33
-123.20498
0
3DFACE
8
0
10
-92.0
20
-70.37079
30
-123.20508
11
-90.0
21
-28.213196
31
-173.20508
12
-90.0
22
-71.786804
32
-123.20508
13
-89.9999
23
-71.786705
33
-123.20498
0
3DFACE
8
0
10
-88.0
20
-72.93274
30
-123.20508
11
-90.0
21
-28.213196
31
-173.20508
12
-90.0
22
-71.786804
32
-123.20508
13
-89.9999
23
-71.786705
33
-123.20498
0
3DFACE
8
0
10
-90.0
20
-71.786804
30
-123.20508
11
-88.0
21
-27.06726
31
-173.20508
12
-88.0
22
-72.93274
32
-123.20508
13
-87.9999
23
-72.93264
33
-123.20498
0
3DFACE
8
0
10
-86.0
20
-73.37219
30
-123.20508
11
-88.0
21
-27.06726
31
-173.20508
12
-88.0
22
-72.93274
32
-123.20508
13
-87.9999
23
-72.93264
33
-123.20498
0
3DFACE
8
0
10
-88.0
20
-72.93274
30
-123.20508
11
-86.0
21
-26.627808
31
-173.20508
12
-86.0
22
-73.37219
32
-123.20508
13
-85.9999
23
-73.37209
33
-123.20498
0
3DFACE
8
0
10
-84.0
20
-73.730774
30
-123.20508
11
-86.0
21
-26.627808
31
-173.20508
12
-86.0
22
-73.37219
32
-123.20508
13
-85.9999
23
-73.37209
33
-123.20498
0
3DFACE
8
0
10
-86.0
20
-73.37219
30
-123.20508
11
-84.0
21
-26.269226
31
-173.20508
12
-84.0
22
-73.730774
32
-123.20508
13
-83.9999
23
-73.730675
33
-123.20498
0
3DFACE
8
0
10
-82.0
20
-73.44696
30
-123.20508
11
-84.0
21
-26.269226
31
-173.20508
12
-84.0
22
-73.730774
32
-123.20508
13
-83.9999
23
-73.730675
33
-123.20498
0
3DFACE
8
0
10
-84.0
20
-73.730774
30
-123.20508
11
-82.0
21
-26.55304
31
-173.20508
12
-82.0
22
-73.44696
32
-123.20508
13
-81.9999
23
-73.44686
33
-123.20498
0
3DFACE
8
0
10
-80.0
20
-72.742004
30
-123.20508
11
-82.0
21
-26.55304
31
-173.20508
12
-82.0
22
-73.44696
32
-123.20508
13
-81.9999
23
-73.44686
33
-123.20498
0
3DFACE
8
0
10
-82.0
20
-73.44696
30
-123.20508
11
-80.0
21
-27.257996
31
-173.20508
12
-80.0
22
-72.742004
32
-123.20508
13
-79.9999
23
-72.741905
33
-123.20498
0
3DFACE
8
0
10
-78.0
20
-71.82037
30
-123.20508
11
-80.0
21
-27.257996
31
-173.20508
12
-80.0
22
-72.742004
32
-123.20508
13
-79.9999
23
-72.741905
33
-123.20498
0
3DFACE
8
0
10
-80.0
20
-72.742004
30
-123.20508
11
-78.0
21
-28.179626
31
-173.20508
12
-78.0
22
-71.82037
32
-123.20508
13
-77.9999
23
-71.820274
33
-123.20498
0
3DFACE
8
0
10
-76.0
20
-70.76141
30
-123.20508
11
-78.0
21
-28.179626
31
-173.20508
12
-78.0
22
-71.82037
32
-123.20508
13
-77.9999
23
-71.820274
33
-123.20498
0
3DFACE
8
0
10
-78.0
20
-71.82037
30
-123.20508
11
-76.0
21
-29.238586
31
-173.20508
12
-76.0
22
-70.76141
32
-123.20508
13
-75.9999
23
-70.761314
33
-123.20498
0
3DFACE
8
0
10
-74.0
20
-69.523926
30
-123.20508
11
-76.0
21
-29.238586
31
-173.20508
12
-76.0
22
-70.76141
32
-123.20508
13
-75.9999
23
-70.761314
33
-123.20498
0
3DFACE
8
0
10
-76.0
20
-70.76141
30
-123.20508
11
-74.0
21
-30.476074
31
-173.20508
12
-74.0
22
-69.523926
32
-123.20508
13
-73.9999
23
-69.52383
33
-123.20498
0
3DFACE
8
0
10
-72.0
20
-68.361206
30
-123.20508
11
-74.0
21
-30.476074
31
-173.20508
12
-74.0
22
-69.523926
32
-123.20508
13
-73.9999
23
-69.52383
33
-123.20498
0
3DFACE
8
0
10
-74.0
20
-69.523926
30
-123.20508
11
-72.0
21
-31.638794
31
-173.20508
12
-72.0
22
-68.361206
32
-123.20508
13
-71.9999
23
-68.36111
33
-123.20498
0
3DFACE
8
0
10
-70.0
20
-67.361755
30
-123.20508
11
-72.0
21
-31.638794
31
-173.20508
12
-72.0
22
-68.361206
32
-123.20508
13
-71.9999
23
-68.36111
33
-123.20498
0
3DFACE
8
0
10
-72.0
20
-68.361206
30
-123.20508
11
-70.0
21
-32.638245
31
-173.20508
12
-70.0
22
-67.361755
32
-123.20508
13
-69.9999
23
-67.36166
33
-123.20498
0
3DFACE
8
0
10
-68.0
20
-66.45996
30
-123.20508
11
-70.0
21
-32.638245
31
-173.20508
12
-70.0
22
-67.361755
32
-123.20508
13
-69.9999
23
-67.36166
33
-123.20498
0
3DFACE
8
0
10
-70.0
20
-67.361755
30
-123.20508
11
-68.0
21
-33.54004
31
-173.20508
12
-68.0
22
-66.45996
32
-123.20508
13
-67.9999
23
-66.45986
33
-123.20498
0
3DFACE
8
0
10
-66.0
20
-66.04187
30
-123.20508
11
-68.0
21
-33.54004
31
-173.20508
12
-68.0
22
-66.45996
32
-123.20508
13
-67.9999
23
-66.45986
33
-123.20498
0
3DFACE
8
0
10
-68.0
20
-66.45996
30
-123.20508
11
-66.0
21
-33.95813
31
-173.20508
12
-66.0
22
-66.04187
32
-123.20508
13
-65.9999
23
-66.04177
33
-123.20498
0
3DFACE
8
0
10
-64.0
20
-66.27991
30
-123.20508
11
-66.0
21
-33.95813
31
-173.20508
12
-66.0
22
-66.04187
32
-123.20508
13
-65.9999
23
-66.04177
33
-123.20498
0
3DFACE
8
0
10
-66.0
20
-66.04187
30
-123.20508
11
-64.0
21
-33.720093
31
-173.20508
12
-64.0
22
-66.27991
32
-123.20508
13
-63.9999
23
-66.27981
33
-123.20498
0
3DFACE
8
0
10
-62.0
20
-66.96655
30
-123.20508
11
-64.0
21
-33.720093
31
-173.20508
12
-64.0
22
-66.27991
32
-123.20508
13
-63.9999
23
-66.27981
33
-123.20498
0
3DFACE
8
0
10
-64.0
20
-66.27991
30
-123.20508
11
-62.0
21
-33.033447
31
-173.20508
12
-62.0
22
-66.96655
32
-123.20508
13
-61.9999
23
-66.96645
33
-123.20498
0
3DFACE
8
0
10
-60.0
20
-67.91565
30
-123.20508
11
-62.0
21
-33.033447
31
-173.20508
12
-62.0
22
-66.96655
32
-123.20508
13
-61.9999
23
-66.96645
33
-123.20498
0
3DFACE
8
0
10
-62.0
20
-66.96655
30
-123.20508
11
-60.0
21
-32.08435
31
-173.20508
12
-60.0
22
-67.91565
32
-123.20508
13
-59.9999
23
-67.91555
33
-123.20498
0
3DFACE
8
0
10
-58.0
20
-69.139404
30
-123.20508
11
-60.0
21
-32.08435
31
-173.20508
12
-60.0
22
-67.91565
32
-123.20508
13
-59.9999
23
-67.91555
33
-123.20498
0
3DFACE
8
0
10
-60.0
20
-67.91565
30
-123.20508
11
-58.0
21
-30.860596
31
-173.20508
12
-58.0
22
-69.139404
32
-123.20508
13
-57.9999
23
-69.139305
33
-123.20498
0
3DFACE
8
0
10
-56.0
20
-70.372314
30
-123.20508
11
-58.0
21
-30.860596
31
-173.20508
12
-58.0
22
-69.139404
32
-123.20508
13
-57.9999
23
-69.139305
33
-123.20498
0
3DFACE
8
0
10
-58.0
20
-69.139404
30
-123.20508
11
-56.0
21
-29.627686
31
-173.20508
12
-56.0
22
-70.372314
32
-123.20508
13
-55.9999
23
-70.372215
33
-123.20498
0
3DFACE
8
0
10
-54.0
20
-71.571655
30
-123.20508
11
-56.0
21
-29.627686
31
-173.20508
12
-56.0
22
-70.372314
32
-123.20508
13
-55.9999
23
-70.372215
33
-123.20498
0
3DFACE
8
0
10
-56.0
20
-70.372314
30
-123.20508
11
-54.0
21
-28.428345
31
-173.20508
12
-54.0
22
-71.571655
32
-123.20508
13
-53.9999
23
-71.571556
33
-123.20498
0
3DFACE
8
0
10
-52.0
20
-72.5238
30
-123.20508
11
-54.0
21
-28.428345
31
-173.20508
12
-54.0
22
-71.571655
32
-123.20508
13
-53.9999
23
-71.571556
33
-123.20498
0
3DFACE
8
0
10
-54.0
20
-71.571655
30
-123.20508
11
-52.0
21
-27.476196
31
-173.20508
12
-52.0
22
-72.5238
32
-123.20508
13
-51.9999
23
-72.523705
33
-123.20498
0
3DFACE
8
0
10
-50.0
20
-73.26996
30
-123.20508
11
-52.0
21
-27.476196
31
-173.20508
12
-52.0
22
-72.5238
32
-123.20508
13
-51.9999
23
-72.523705
33
-123.20498
0
3DFACE
8
0
10
-52.0
20
-72.5238
30
-123.20508
11
-50.0
21
-26.730042
31
-173.20508
12
-50.0
22
-73.26996
32
-123.20508
13
-49.9999
23
-73.26986
33
-123.20498
0
3DFACE
8
0
10
-48.0
20
-73.59497
30
-123.20508
11
-50.0
21
-26.730042
31
-173.20508
12
-50.0
22
-73.26996
32
-123.20508
13
-49.9999
23
-73.26986
33
-123.20498
0
3DFACE
8
0
10
-50.0
20
-73.26996
30
-123.20508
11
-48.0
21
-26.40503
31
-173.20508
12
-48.0
22
-73.59497
32
-123.20508
13
-47.9999
23
-73.59487
33
-123.20498
0
3DFACE
8
0
10
-46.0
20
-73.62396
30
-123.20508
11
-48.0
21
-26.40503
31
-173.20508
12
-48.0
22
-73.59497
32
-123.20508
13
-47.9999
23
-73.59487
33
-123.20498
0
3DFACE
8
0
10
-48.0
20
-73.59497
30
-123.20508
11
-46.0
21
-26.376038
31
-173.20508
12
-46.0
22
-73.62396
32
-123.20508
13
-45.9999
23
-73.62386
33
-123.20498
0
3DFACE
8
0
10
-44.0
20
-73.09143
30
-123.20508
11
-46.0
21
-26.376038
31
-173.20508
12
-46.0
22
-73.62396
32
-123.20508
13
-45.9999
23
-73.62386
33
-123.20498
0
3DFACE
8
0
10
-46.0
20
-73.62396
30
-123.20508
11
-44.0
21
-26.90857
31
-173.20508
12
-44.0
22
-73.09143
32
-123.20508
13
-43.9999
23
-73.09133
33
-123.20498
0
3DFACE
8
0
10
-42.0
20
-72.18048
30
-123.20508
11
-44.0
21
-26.90857
31
-173.20508
12
-44.0
22
-73.09143
32
-123.20508
13
-43.9999
23
-73.09133
33
-123.20498
0
3DFACE
8
0
10
-44.0
20
-73.09143
30
-123.20508
11
-42.0
21
-27.819519
31
-173.20508
12
-42.0
22
-72.18048
32
-123.20508
13
-41.9999
23
-72.18038
33
-123.20498
0
3DFACE
8
0
10
-40.0
20
-70.95825
30
-123.20508
11
-42.0
21
-27.819519
31
-173.20508
12
-42.0
22
-72.18048
32
-123.20508
13
-41.9999
23
-72.18038
33
-123.20498
0
3DFACE
8
0
10
-42.0
20
-72.18048
30
-123.20508
11
-40.0
21
-29.041748
31
-173.20508
12
-40.0
22
-70.95825
32
-123.20508
13
-39.9999
23
-70.95815
33
-123.20498
0
3DFACE
8
0
10
-38.0
20
-69.48578
30
-123.20508
11
-40.0
21
-29.041748
31
-173.20508
12
-40.0
22
-70.95825
32
-123.20508
13
-39.9999
23
-70.95815
33
-123.20498
0
3DFACE
8
0
10
-40.0
20
-70.95825
30
-123.20508
11
-38.0
21
-30.514221
31
-173.20508
12
-38.0
22
-69.48578
32
-123.20508
13
-37.9999
23
-69.48568
33
-123.20498
0
3DFACE
8
0
10
-36.0
20
-68.41614
30
-123.20508
11
-38.0
21
-30.514221
31
-173.20508
12
-38.0
22
-69.48578
32
-123.20508
13
-37.9999
23
-69.48568
33
-123.20498
0
3DFACE
8
0
10
-38.0
20
-69.48578
30
-123.20508
11
-36.0
21
-31.583862
31
-173.20508
12
-36.0
22
-68.41614
32
-123.20508
13
-35.9999
23
-68.41604
33
-123.20498
0
3DFACE
8
0
10
-34.0
20
-67.52655
30
-123.20508
11
-36.0
21
-31.583862
31
-173.20508
12
-36.0
22
-68.41614
32
-123.20508
13
-35.9999
23
-68.41604
33
-123.20498
0
3DFACE
8
0
10
-36.0
20
-68.41614
30
-123.20508
11
-34.0
21
-32.47345
31
-173.20508
12
-34.0
22
-67.52655
32
-123.20508
13
-33.9999
23
-67.52645
33
-123.20498
0
3DFACE
8
0
10
-32.0
20
-66.572876
30
-123.20508
11
-34.0
21
-32.47345
31
-173.20508
12
-34.0
22
-67.52655
32
-123.20508
13
-33.9999
23
-67.52645
33
-123.20498
0
3DFACE
8
0
10
-34.0
20
-67.52655
30
-123.20508
11
-32.0
21
-33.427124
31
-173.20508
12
-32.0
22
-66.572876
32
-123.20508
13
-31.9999
23
-66.57278
33
-123.20498
0
3DFACE
8
0
10
-30.0
20
-66.144104
30
-123.20508
11
-32.0
21
-33.427124
31
-173.20508
12
-32.0
22
-66.572876
32
-123.20508
13
-31.9999
23
-66.57278
33
-123.20498
0
3DFACE
8
0
10
-32.0
20
-66.572876
30
-123.20508
11
-30.0
21
-33.855896
31
-173.20508
12
-30.0
22
-66.144104
32
-123.20508
13
-29.9999
23
-66.144005
33
-123.20498
0
3DFACE
8
0
10
-28.0
20
-66.08765
30
-123.20508
11
-30.0
21
-33.855896
31
-173.20508
12
-30.0
22
-66.144104
32
-123.20508
13
-29.9999
23
-66.144005
33
-123.20498
0
3DFACE
8
0
10
-30.0
20
-66.144104
30
-123.20508
11
-28.0
21
-33.912354
31
-173.20508
12
-28.0
22
-66.08765
32
-123.20508
13
-27.9999
23
-66.08755
33
-123.20498
0
3DFACE
8
0
10
-26.0
20
-66.88263
30
-123.20508
11
-28.0
21
-33.912354
31
-173.20508
12
-28.0
22
-66.08765
32
-123.20508
13
-27.9999
23
-66.08755
33
-123.20498
0
3DFACE
8
0
10
-28.0
20
-66.08765
30
-123.20508
11
-26.0
21
-33.11737
31
-173.20508
12
-26.0
22
-66.88263
32
-123.20508
13
-25.9999
23
-66.88253
33
-123.20498
0
3DFACE
8
0
10
-24.0
20
-67.57538
30
-123.20508
11
-26.0
21
-33.11737
31
-173.20508
12
-26.0
22
-66.88263
32
-123.20508
13
-25.9999
23
-66.88253
33
-123.20498
0
3DFACE
8
0
10
-26.0
20
-66.88263
30
-123.20508
11
-24.0
21
-32.42462
31
-173.20508
12
-24.0
22
-67.57538
32
-123.20508
13
-23.9999
23
-67.57528
33
-123.20498
0
3DFACE
8
0
10
-22.0
20
-68.89221
30
-123.20508
11
-24.0
21
-32.42462
31
-173.20508
12
-24.0
22
-67.57538
32
-123.20508
13
-23.9999
23
-67.57528
33
-123.20498
0
3DFACE
8
0
10
-24.0
20
-67.57538
30
-123.20508
11
-22.0
21
-31.107788
31
-173.20508
12
-22.0
22
-68.89221
32
-123.20508
13
-21.9999
23
-68.89211
33
-123.20498
0
3DFACE
8
0
10
-20.0
20
-70.276184
30
-123.20508
11
-22.0
21
-31.107788
31
-173.20508
12
-22.0
22
-68.89221
32
-123.20508
13
-21.9999
23
-68.89211
33
-123.20498
0
3DFACE
8
0
10
-22.0
20
-68.89221
30
-123.20508
11
-20.0
21
-29.723816
31
-173.20508
12
-20.0
22
-70.276184
32
-123.20508
13
-19.9999
23
-70.276085
33
-123.20498
0
3DFACE
8
0
10
-18.0
20
-71.527405
30
-123.20508
11
-20.0
21
-29.723816
31
-173.20508
12
-20.0
22
-70.276184
32
-123.20508
13
-19.9999
23
-70.276085
33
-123.20498
0
3DFACE
8
0
10
-20.0
20
-70.276184
30
-123.20508
11
-18.0
21
-28.472595
31
-173.20508
12
-18.0
22
-71.527405
32
-123.20508
13
-17.9999
23
-71.527306
33
-123.20498
0
3DFACE
8
0
10
-16.0
20
-72.57263
30
-123.20508
11
-18.0
21
-28.472595
31
-173.20508
12
-18.0
22
-71.527405
32
-123.20508
13
-17.9999
23
-71.527306
33
-123.20498
0
3DFACE
8
0
10
-18.0
20
-71.527405
30
-123.20508
11
-16.0
21
-27.427368
31
-173.20508
12
-16.0
22
-72.57263
32
-123.20508
13
-15.9999
23
-72.57253
33
-123.20498
0
3DFACE
8
0
10
-14.0
20
-73.3844
30
-123.20508
11
-16.0
21
-27.427368
31
-173.20508
12
-16.0
22
-72.57263
32
-123.20508
13
-15.9999
23
-72.57253
33
-123.20498
0
3DFACE
8
0
10
-16.0
20
-72.57263
30
-123.20508
11
-14.0
21
-26.6156
31
-173.20508
12
-14.0
22
-73.3844
32
-123.20508
13
-13.9999
23
-73.3843
33
-123.20498
0
3DFACE
8
0
10
-12.0
20
-73.785706
30
-123.20508
11
-14.0
21
-26.6156
31
-173.20508
12
-14.0
22
-73.3844
32
-123.20508
13
-13.9999
23
-73.3843
33
-123.20498
0
3DFACE
8
0
10
-14.0
20
-73.3844
30
-123.20508
11
-12.0
21
-26.214294
31
-173.20508
12
-12.0
22
-73.785706
32
-123.20508
13
-11.9999
23
-73.78561
33
-123.20498
0
3DFACE
8
0
10
-10.0
20
-73.54462
30
-123.20508
11
-12.0
21
-26.214294
31
-173.20508
12
-12.0
22
-73.785706
32
-123.20508
13
-11.9999
23
-73.78561
33
-123.20498
0
3DFACE
8
0
10
-12.0
20
-73.785706
30
-123.20508
11
-10.0
21
-26.455383
31
-173.20508
12
-10.0
22
-73.54462
32
-123.20508
13
-9.9999
23
-73.54452
33
-123.20498
0
3DFACE
8
0
10
-8.0
20
-73.1311
30
-123.20508
11
-10.0
21
-26.455383
31
-173.20508
12
-10.0
22
-73.54462
32
-123.20508
13
-9.9999
23
-73.54452
33
-123.20498
0
3DFACE
8
0
10
-10.0
20
-73.54462
30
-123.20508
11
-8.0
21
-26.868896
31
-173.20508
12
-8.0
22
-73.1311
32
-123.20508
13
-7.9999
23
-73.131004
33
-123.20498
0
3DFACE
8
0
10
-6.0
20
-72.52228
30
-123.20508
11
-8.0
21
-26.868896
31
-173.20508
12
-8.0
22
-73.1311
32
-123.20508
13
-7.9999
23
-73.131004
33
-123.20498
0
3DFACE
8
0
10
-8.0
20
-73.1311
30
-123.20508
11
-6.0
21
-27.477722
31
-173.20508
12
-6.0
22
-72.52228
32
-123.20508
13
-5.9999
23
-72.52218
33
-123.20498
0
3DFACE
8
0
10
-4.0
20
-71.36261
30
-123.20508
11
-6.0
21
-27.477722
31
-173.20508
12
-6.0
22
-72.52228
32
-123.20508
13
-5.9999
23
-72.52218
33
-123.20498
0
3DFACE
8
0
10
-6.0
20
-72.52228
30
-123.20508
11
-4.0
21
-28.63739
31
-173.20508
12
-4.0
22
-71.36261
32
-123.20508
13
-3.9999
23
-71.36251
33
-123.20498
0
3DFACE
8
0
10
-2.0
20
-69.97406
30
-123.20508
11
-4.0
21
-28.63739
31
-173.20508
12
-4.0
22
-71.36261
32
-123.20508
13
-3.9999
23
-71.36251
33
-123.20498
0
3DFACE
8
0
10
-4.0
20
-71.36261
30
-123.20508
11
-2.0
21
-30.02594
31
-173.20508
12
-2.0
22
-69.97406
32
-123.20508
13
-1.9999
23
-69.97396
33
-123.20498
0
3DFACE
8
0
10
0.0
20
-68.565674
30
-123.20508
11
-2.0
21
-30.02594
31
-173.20508
12
-2.0
22
-69.97406
32
-123.20508
13
-1.9999
23
-69.97396
33
-123.20498
0
3DFACE
8
0
10
-2.0
20
-69.97406
30
-123.20508
11
0.0
21
-31.434326
31
-173.20508
12
0.0
22
-68.565674
32
-123.20508
13
1.0E-4
23
-68.565575
33
-123.20498
0
3DFACE
8
0
10
2.0
20
-67.45026
30
-123.20508
11
0.0
21
-31.434326
31
-173.20508
12
0.0
22
-68.565674
32
-123.20508
13
1.0E-4
23
-68.565575
33
-123.20498
0
3DFACE
8
0
10
0.0
20
-68.565674
30
-123.20508
11
2.0
21
-32.549744
31
-173.20508
12
2.0
22
-67.45026
32
-123.20508
13
2.0001
23
-67.45016
33
-123.20498
0
3DFACE
8
0
10
4.0
20
-66.673584
30
-123.20508
11
2.0
21
-32.549744
31
-173.20508
12
2.0
22
-67.45026
32
-123.20508
13
2.0001
23
-67.45016
33
-123.20498
0
3DFACE
8
0
10
2.0
20
-67.45026
30
-123.20508
11
4.0
21
-33.326416
31
-173.20508
12
4.0
22
-66.673584
32
-123.20508
13
4.0001
23
-66.673485
33
-123.20498
0
3DFACE
8
0
10
6.0
20
-66.25702
30
-123.20508
11
4.0
21
-33.326416
31
-173.20508
12
4.0
22
-66.673584
32
-123.20508
13
4.0001
23
-66.673485
33
-123.20498
0
3DFACE
8
0
10
4.0
20
-66.673584
30
-123.20508
11
6.0
21
-33.74298
31
-173.20508
12
6.0
22
-66.25702
32
-123.20508
13
6.0001
23
-66.25692
33
-123.20498
0
3DFACE
8
0
10
8.0
20
-66.128845
30
-123.20508
11
6.0
21
-33.74298
31
-173.20508
12
6.0
22
-66.25702
32
-123.20508
13
6.0001
23
-66.25692
33
-123.20498
0
3DFACE
8
0
10
6.0
20
-66.25702
30
-123.20508
11
8.0
21
-33.871155
31
-173.20508
12
8.0
22
-66.128845
32
-123.20508
13
8.0001
23
-66.128746
33
-123.20498
0
3DFACE
8
0
10
10.0
20
-66.63391
30
-123.20508
11
8.0
21
-33.871155
31
-173.20508
12
8.0
22
-66.128845
32
-123.20508
13
8.0001
23
-66.128746
33
-123.20498
0
3DFACE
8
0
10
8.0
20
-66.128845
30
-123.20508
11
10.0
21
-33.36609
31
-173.20508
12
10.0
22
-66.63391
32
-123.20508
13
10.0001
23
-66.63381
33
-123.20498
0
3DFACE
8
0
10
12.0
20
-67.47925
30
-123.20508
11
10.0
21
-33.36609
31
-173.20508
12
10.0
22
-66.63391
32
-123.20508
13
10.0001
23
-66.63381
33
-123.20498
0
3DFACE
8
0
10
10.0
20
-66.63391
30
-123.20508
11
12.0
21
-32.520752
31
-173.20508
12
12.0
22
-67.47925
32
-123.20508
13
12.0001
23
-67.47915
33
-123.20498
0
3DFACE
8
0
10
14.0
20
-68.63281
30
-123.20508
11
12.0
21
-32.520752
31
-173.20508
12
12.0
22
-67.47925
32
-123.20508
13
12.0001
23
-67.47915
33
-123.20498
0
3DFACE
8
0
10
12.0
20
-67.47925
30
-123.20508
11
14.0
21
-31.367188
31
-173.20508
12
14.0
22
-68.63281
32
-123.20508
13
14.0001
23
-68.63271
33
-123.20498
0
3DFACE
8
0
10
16.0
20
-69.86267
30
-123.20508
11
14.0
21
-31.367188
31
-173.20508
12
14.0
22
-68.63281
32
-123.20508
13
14.0001
23
-68.63271
33
-123.20498
0
3DFACE
8
0
10
14.0
20
-68.63281
30
-123.20508
11
16.0
21
-30.13733
31
-173.20508
12
16.0
22
-69.86267
32
-123.20508
13
16.0001
23
-69.86257
33
-123.20498
0
3DFACE
8
0
10
18.0
20
-71.13068
30
-123.20508
11
16.0
21
-30.13733
31
-173.20508
12
16.0
22
-69.86267
32
-123.20508
13
16.0001
23
-69.86257
33
-123.20498
0
3DFACE
8
0
10
16.0
20
-69.86267
30
-123.20508
11
18.0
21
-28.869324
31
-173.20508
12
18.0
22
-71.13068
32
-123.20508
13
18.0001
23
-71.13058
33
-123.20498
0
3DFACE
8
0
10
20.0
20
-72.49939
30
-123.20508
11
18.0
21
-28.869324
31
-173.20508
12
18.0
22
-71.13068
32
-123.20508
13
18.0001
23
-71.13058
33
-123.20498
0
3DFACE
8
0
10
18.0
20
-71.13068
30
-123.20508
11
20.0
21
-27.50061
31
-173.20508
12
20.0
22
-72.49939
32
-123.20508
13
20.0001
23
-72.49929
33
-123.20498
0
3DFACE
8
0
10
22.0
20
-73.32489
30
-123.20508
11
20.0
21
-27.50061
31
-173.20508
12
20.0
22
-72.49939
32
-123.20508
13
20.0001
23
-72.49929
33
-123.20498
0
3DFACE
8
0
10
20.0
20
-72.49939
30
-123.20508
11
22.0
21
-26.67511
31
-173.20508
12
22.0
22
-73.32489
32
-123.20508
13
22.0001
23
-73.32479
33
-123.20498
0
3DFACE
8
0
10
24.0
20
-73.756714
30
-123.20508
11
22.0
21
-26.67511
31
-173.20508
12
22.0
22
-73.32489
32
-123.20508
13
22.0001
23
-73.32479
33
-123.20498
0
3DFACE
8
0
10
22.0
20
-73.32489
30
-123.20508
11
24.0
21
-26.243286
31
-173.20508
12
24.0
22
-73.756714
32
-123.20508
13
24.0001
23
-73.756615
33
-123.20498
0
3DFACE
8
0
10
26.0
20
-73.723145
30
-123.20508
11
24.0
21
-26.243286
31
-173.20508
12
24.0
22
-73.756714
32
-123.20508
13
24.0001
23
-73.756615
33
-123.20498
0
3DFACE
8
0
10
24.0
20
-73.756714
30
-123.20508
11
26.0
21
-26.276855
31
-173.20508
12
26.0
22
-73.723145
32
-123.20508
13
26.0001
23
-73.723045
33
-123.20498
0
3DFACE
8
0
10
28.0
20
-73.44391
30
-123.20508
11
26.0
21
-26.276855
31
-173.20508
12
26.0
22
-73.723145
32
-123.20508
13
26.0001
23
-73.723045
33
-123.20498
0
3DFACE
8
0
10
26.0
20
-73.723145
30
-123.20508
11
28.0
21
-26.556091
31
-173.20508
12
28.0
22
-73.44391
32
-123.20508
13
28.0001
23
-73.44381
33
-123.20498
0
3DFACE
8
0
10
30.0
20
-72.571106
30
-123.20508
11
28.0
21
-26.556091
31
-173.20508
12
28.0
22
-73.44391
32
-123.20508
13
28.0001
23
-73.44381
33
-123.20498
0
3DFACE
8
0
10
28.0
20
-73.44391
30
-123.20508
11
30.0
21
-27.428894
31
-173.20508
12
30.0
22
-72.571106
32
-123.20508
13
30.0001
23
-72.57101
33
-123.20498
0
3DFACE
8
0
10
32.0
20
-71.43738
30
-123.20508
11
30.0
21
-27.428894
31
-173.20508
12
30.0
22
-72.571106
32
-123.20508
13
30.0001
23
-72.57101
33
-123.20498
0
3DFACE
8
0
10
30.0
20
-72.571106
30
-123.20508
11
32.0
21
-28.562622
31
-173.20508
12
32.0
22
-71.43738
32
-123.20508
13
32.0001
23
-71.43728
33
-123.20498
0
3DFACE
8
0
10
34.0
20
-70.34027
30
-123.20508
11
32.0
21
-28.562622
31
-173.20508
12
32.0
22
-71.43738
32
-123.20508
13
32.0001
23
-71.43728
33
-123.20498
0
3DFACE
8
0
10
32.0
20
-71.43738
30
-123.20508
11
34.0
21
-29.659729
31
-173.20508
12
34.0
22
-70.34027
32
-123.20508
13
34.0001
23
-70.34017
33
-123.20498
0
3DFACE
8
0
10
36.0
20
-69.08295
30
-123.20508
11
34.0
21
-29.659729
31
-173.20508
12
34.0
22
-70.34027
32
-123.20508
13
34.0001
23
-70.34017
33
-123.20498
0
3DFACE
8
0
10
34.0
20
-70.34027
30
-123.20508
11
36.0
21
-30.917053
31
-173.20508
12
36.0
22
-69.08295
32
-123.20508
13
36.0001
23
-69.08285
33
-123.20498
0
3DFACE
8
0
10
38.0
20
-67.872925
30
-123.20508
11
36.0
21
-30.917053
31
-173.20508
12
36.0
22
-69.08295
32
-123.20508
13
36.0001
23
-69.08285
33
-123.20498
0
3DFACE
8
0
10
36.0
20
-69.08295
30
-123.20508
11
38.0
21
-32.127075
31
-173.20508
12
38.0
22
-67.872925
32
-123.20508
13
38.0001
23
-67.872826
33
-123.20498
0
3DFACE
8
0
10
40.0
20
-66.969604
30
-123.20508
11
38.0
21
-32.127075
31
-173.20508
12
38.0
22
-67.872925
32
-123.20508
13
38.0001
23
-67.872826
33
-123.20498
0
3DFACE
8
0
10
38.0
20
-67.872925
30
-123.20508
11
40.0
21
-33.030396
31
-173.20508
12
40.0
22
-66.969604
32
-123.20508
13
40.0001
23
-66.969505
33
-123.20498
0
3DFACE
8
0
10
42.0
20
-66.53473
30
-123.20508
11
40.0
21
-33.030396
31
-173.20508
12
40.0
22
-66.969604
32
-123.20508
13
40.0001
23
-66.969505
33
-123.20498
0
3DFACE
8
0
10
40.0
20
-66.969604
30
-123.20508
11
42.0
21
-33.46527
31
-173.20508
12
42.0
22
-66.53473
32
-123.20508
13
42.0001
23
-66.53463
33
-123.20498
0
3DFACE
8
0
10
44.0
20
-66.395874
30
-123.20508
11
42.0
21
-33.46527
31
-173.20508
12
42.0
22
-66.53473
32
-123.20508
13
42.0001
23
-66.53463
33
-123.20498
0
3DFACE
8
0
10
42.0
20
-66.53473
30
-123.20508
11
44.0
21
-33.604126
31
-173.20508
12
44.0
22
-66.395874
32
-123.20508
13
44.0001
23
-66.395775
33
-123.20498
0
3DFACE
8
0
10
46.0
20
-66.5332
30
-123.20508
11
44.0
21
-33.604126
31
-173.20508
12
44.0
22
-66.395874
32
-123.20508
13
44.0001
23
-66.395775
33
-123.20498
0
3DFACE
8
0
10
44.0
20
-66.395874
30
-123.20508
11
46.0
21
-33.466797
31
-173.20508
12
46.0
22
-66.5332
32
-123.20508
13
46.0001
23
-66.533104
33
-123.20498
0
3DFACE
8
0
10
48.0
20
-67.28241
30
-123.20508
11
46.0
21
-33.466797
31
-173.20508
12
46.0
22
-66.5332
32
-123.20508
13
46.0001
23
-66.533104
33
-123.20498
0
3DFACE
8
0
10
46.0
20
-66.5332
30
-123.20508
11
48.0
21
-32.71759
31
-173.20508
12
48.0
22
-67.28241
32
-123.20508
13
48.0001
23
-67.28231
33
-123.20498
0
3DFACE
8
0
10
50.0
20
-68.3902
30
-123.20508
11
48.0
21
-32.71759
31
-173.20508
12
48.0
22
-67.28241
32
-123.20508
13
48.0001
23
-67.28231
33
-123.20498
0
3DFACE
8
0
10
48.0
20
-67.28241
30
-123.20508
11
50.0
21
-31.609802
31
-173.20508
12
50.0
22
-68.3902
32
-123.20508
13
50.0001
23
-68.3901
33
-123.20498
0
3DFACE
8
0
10
52.0
20
-69.645996
30
-123.20508
11
50.0
21
-31.609802
31
-173.20508
12
50.0
22
-68.3902
32
-123.20508
13
50.0001
23
-68.3901
33
-123.20498
0
3DFACE
8
0
10
50.0
20
-68.3902
30
-123.20508
11
52.0
21
-30.354004
31
-173.20508
12
52.0
22
-69.645996
32
-123.20508
13
52.0001
23
-69.6459
33
-123.20498
0
3DFACE
8
0
10
54.0
20
-70.67444
30
-123.20508
11
52.0
21
-30.354004
31
-173.20508
12
52.0
22
-69.645996
32
-123.20508
13
52.0001
23
-69.6459
33
-123.20498
0
3DFACE
8
0
10
52.0
20
-69.645996
30
-123.20508
11
54.0
21
-29.325562
31
-173.20508
12
54.0
22
-70.67444
32
-123.20508
13
54.0001
23
-70.67434
33
-123.20498
0
3DFACE
8
0
10
56.0
20
-71.771545
30
-123.20508
11
54.0
21
-29.325562
31
-173.20508
12
54.0
22
-70.67444
32
-123.20508
13
54.0001
23
-70.67434
33
-123.20498
0
3DFACE
8
0
10
54.0
20
-70.67444
30
-123.20508
11
56.0
21
-28.228455
31
-173.20508
12
56.0
22
-71.771545
32
-123.20508
13
56.0001
23
-71.77145
33
-123.20498
0
3DFACE
8
0
10
58.0
20
-72.90527
30
-123.20508
11
56.0
21
-28.228455
31
-173.20508
12
56.0
22
-71.771545
32
-123.20508
13
56.0001
23
-71.77145
33
-123.20498
0
3DFACE
8
0
10
56.0
20
-71.771545
30
-123.20508
11
58.0
21
-27.094727
31
-173.20508
12
58.0
22
-72.90527
32
-123.20508
13
58.0001
23
-72.905174
33
-123.20498
0
3DFACE
8
0
10
60.0
20
-73.47595
30
-123.20508
11
58.0
21
-27.094727
31
-173.20508
12
58.0
22
-72.90527
32
-123.20508
13
58.0001
23
-72.905174
33
-123.20498
0
3DFACE
8
0
10
58.0
20
-72.90527
30
-123.20508
11
60.0
21
-26.524048
31
-173.20508
12
60.0
22
-73.47595
32
-123.20508
13
60.0001
23
-73.47585
33
-123.20498
0
3DFACE
8
0
10
62.0
20
-73.68347
30
-123.20508
11
60.0
21
-26.524048
31
-173.20508
12
60.0
22
-73.47595
32
-123.20508
13
60.0001
23
-73.47585
33
-123.20498
0
3DFACE
8
0
10
60.0
20
-73.47595
30
-123.20508
11
62.0
21
-26.316528
31
-173.20508
12
62.0
22
-73.68347
32
-123.20508
13
62.0001
23
-73.68337
33
-123.20498
0
3DFACE
8
0
10
64.0
20
-73.37677
30
-123.20508
11
62.0
21
-26.316528
31
-173.20508
12
62.0
22
-73.68347
32
-123.20508
13
62.0001
23
-73.68337
33
-123.20498
0
3DFACE
8
0
10
62.0
20
-73.68347
30
-123.20508
11
64.0
21
-26.62323
31
-173.20508
12
64.0
22
-73.37677
32
-123.20508
13
64.0001
23
-73.37667
33
-123.20498
0
3DFACE
8
0
10
66.0
20
-73.00598
30
-123.20508
11
64.0
21
-26.62323
31
-173.20508
12
64.0
22
-73.37677
32
-123.20508
13
64.0001
23
-73.37667
33
-123.20498
0
3DFACE
8
0
10
64.0
20
-73.37677
30
-123.20508
11
66.0
21
-26.994019
31
-173.20508
12
66.0
22
-73.00598
32
-123.20508
13
66.0001
23
-73.00588
33
-123.20498
0
3DFACE
8
0
10
68.0
20
-71.901245
30
-123.20508
11
66.0
21
-26.994019
31
-173.20508
12
66.0
22
-73.00598
32
-123.20508
13
66.0001
23
-73.00588
33
-123.20498
0
3DFACE
8
0
10
66.0
20
-73.00598
30
-123.20508
11
68.0
21
-28.098755
31
-173.20508
12
68.0
22
-71.901245
32
-123.20508
13
68.0001
23
-71.901146
33
-123.20498
0
3DFACE
8
0
10
70.0
20
-70.85449
30
-123.20508
11
68.0
21
-28.098755
31
-173.20508
12
68.0
22
-71.901245
32
-123.20508
13
68.0001
23
-71.901146
33
-123.20498
0
3DFACE
8
0
10
68.0
20
-71.901245
30
-123.20508
11
70.0
21
-29.145508
31
-173.20508
12
70.0
22
-70.85449
32
-123.20508
13
70.0001
23
-70.85439
33
-123.20498
0
3DFACE
8
0
10
72.0
20
-69.40796
30
-123.20508
11
70.0
21
-29.145508
31
-173.20508
12
70.0
22
-70.85449
32
-123.20508
13
70.0001
23
-70.85439
33
-123.20498
0
3DFACE
8
0
10
70.0
20
-70.85449
30
-123.20508
11
72.0
21
-30.592041
31
-173.20508
12
72.0
22
-69.40796
32
-123.20508
13
72.0001
23
-69.40786
33
-123.20498
0
3DFACE
8
0
10
74.0
20
-68.48633
30
-123.20508
11
72.0
21
-30.592041
31
-173.20508
12
72.0
22
-69.40796
32
-123.20508
13
72.0001
23
-69.40786
33
-123.20498
0
3DFACE
8
0
10
72.0
20
-69.40796
30
-123.20508
11
74.0
21
-31.513672
31
-173.20508
12
74.0
22
-68.48633
32
-123.20508
13
74.0001
23
-68.48623
33
-123.20498
0
3DFACE
8
0
10
76.0
20
-67.5296
30
-123.20508
11
74.0
21
-31.513672
31
-173.20508
12
74.0
22
-68.48633
32
-123.20508
13
74.0001
23
-68.48623
33
-123.20498
0
3DFACE
8
0
10
74.0
20
-68.48633
30
-123.20508
11
76.0
21
-32.470398
31
-173.20508
12
76.0
22
-67.5296
32
-123.20508
13
76.0001
23
-67.5295
33
-123.20498
0
3DFACE
8
0
10
78.0
20
-66.70105
30
-123.20508
11
76.0
21
-32.470398
31
-173.20508
12
76.0
22
-67.5296
32
-123.20508
13
76.0001
23
-67.5295
33
-123.20498
0
3DFACE
8
0
10
76.0
20
-67.5296
30
-123.20508
11
78.0
21
-33.29895
31
-173.20508
12
78.0
22
-66.70105
32
-123.20508
13
78.0001
23
-66.70095
33
-123.20498
0
3DFACE
8
0
10
80.0
20
-66.395874
30
-123.20508
11
78.0
21
-33.29895
31
-173.20508
12
78.0
22
-66.70105
32
-123.20508
13
78.0001
23
-66.70095
33
-123.20498
0
3DFACE
8
0
10
78.0
20
-66.70105
30
-123.20508
11
80.0
21
-33.604126
31
-173.20508
12
80.0
22
-66.395874
32
-123.20508
13
80.0001
23
-66.395775
33
-123.20498
0
3DFACE
8
0
10
82.0
20
-66.62781
30
-123.20508
11
80.0
21
-33.604126
31
-173.20508
12
80.0
22
-66.395874
32
-123.20508
13
80.0001
23
-66.395775
33
-123.20498
0
3DFACE
8
0
10
80.0
20
-66.395874
30
-123.20508
11
82.0
21
-33.372192
31
-173.20508
12
82.0
22
-66.62781
32
-123.20508
13
82.0001
23
-66.62771
33
-123.20498
0
3DFACE
8
0
10
84.0
20
-67.12982
30
-123.20508
11
82.0
21
-33.372192
31
-173.20508
12
82.0
22
-66.62781
32
-123.20508
13
82.0001
23
-66.62771
33
-123.20498
0
3DFACE
8
0
10
82.0
20
-66.62781
30
-123.20508
11
84.0
21
-32.87018
31
-173.20508
12
84.0
22
-67.12982
32
-123.20508
13
84.0001
23
-67.12972
33
-123.20498
0
3DFACE
8
0
10
86.0
20
-67.74628
30
-123.20508
11
84.0
21
-32.87018
31
-173.20508
12
84.0
22
-67.12982
32
-123.20508
13
84.0001
23
-67.12972
33
-123.20498
0
3DFACE
8
0
10
84.0
20
-67.12982
30
-123.20508
11
86.0
21
-32.253723
31
-173.20508
12
86.0
22
-67.74628
32
-123.20508
13
86.0001
23
-67.74618
33
-123.20498
0
3DFACE
8
0
10
88.0
20
-68.950195
30
-123.20508
11
86.0
21
-32.253723
31
-173.20508
12
86.0
22
-67.74628
32
-123.20508
13
86.0001
23
-67.74618
33
-123.20498
0
3DFACE
8
0
10
86.0
20
-67.74628
30
-123.20508
11
88.0
21
-31.049805
31
-173.20508
12
88.0
22
-68.950195
32
-123.20508
13
88.0001
23
-68.950096
33
-123.20498
0
3DFACE
8
0
10
90.0
20
-70.20294
30
-123.20508
11
88.0
21
-31.049805
31
-173.20508
12
88.0
22
-68.950195
32
-123.20508
13
88.0001
23
-68.950096
33
-123.20498
0
3DFACE
8
0
10
88.0
20
-68.950195
30
-123.20508
11
90.0
21
-29.797058
31
-173.20508
12
90.0
22
-70.20294
32
-123.20508
13
90.0001
23
-70.20284
33
-123.20498
0
3DFACE
8
0
10
92.0
20
-71.41449
30
-123.20508
11
90.0
21
-29.797058
31
-173.20508
12
90.0
22
-70.20294
32
-123.20508
13
90.0001
23
-70.20284
33
-123.20498
0
3DFACE
8
0
10
90.0
20
-70.20294
30
-123.20508
11
92.0
21
-28.58551
31
-173.20508
12
92.0
22
-71.41449
32
-123.20508
13
92.0001
23
-71.41439
33
-123.20498
0
3DFACE
8
0
10
94.0
20
-72.25067
30
-123.20508
11
92.0
21
-28.58551
31
-173.20508
12
92.0
22
-71.41449
32
-123.20508
13
92.0001
23
-71.41439
33
-123.20498
0
3DFACE
8
0
10
92.0
20
-71.41449
30
-123.20508
11
94.0
21
-27.749329
31
-173.20508
12
94.0
22
-72.25067
32
-123.20508
13
94.0001
23
-72.25057
33
-123.20498
0
3DFACE
8
0
10
96.0
20
-73.04718
30
-123.20508
11
94.0
21
-27.749329
31
-173.20508
12
94.0
22
-72.25067
32
-123.20508
13
94.0001
23
-72.25057
33
-123.20498
0
3DFACE
8
0
10
94.0
20
-72.25067
30
-123.20508
11
96.0
21
-26.95282
31
-173.20508
12
96.0
22
-73.04718
32
-123.20508
13
96.0001
23
-73.04708
33
-123.20498
0
3DFACE
8
0
10
98.0
20
-73.58124
30
-123.20508
11
96.0
21
-26.95282
31
-173.20508
12
96.0
22
-73.04718
32
-123.20508
13
96.0001
23
-73.04708
33
-123.20498
0
3DFACE
8
0
10
96.0
20
-73.04718
30
-123.20508
11
98.0
21
-26.418762
31
-173.20508
12
98.0
22
-73.58124
32
-123.20508
13
98.0001
23
-73.58114
33
-123.20498
0
3DFACE
8
0
10
100.0
20
-73.75061
30
-123.20508
11
98.0
21
-26.418762
31
-173.20508
12
98.0
22
-73.58124
32
-123.20508
13
98.0001
23
-73.58114
33
-123.20498
0
3DFACE
8
0
10
98.0
20
-73.58124
30
-123.20508
11
100.0
21
-26.24939
31
-173.20508
12
100.0
22
-73.75061
32
-123.20508
13
100.0001
23
-73.75051
33
-123.20498
0
3DFACE
8
0
10
102.0
20
-73.34473
30
-123.20508
11
100.0
21
-26.24939
31
-173.20508
12
100.0
22
-73.75061
32
-123.20508
13
100.0001
23
-73.75051
33
-123.20498
0
3DFACE
8
0
10
100.0
20
-73.75061
30
-123.20508
11
102.0
21
-26.655273
31
-173.20508
12
102.0
22
-73.34473
32
-123.20508
13
102.0001
23
-73.34463
33
-123.20498
0
3DFACE
8
0
10
104.0
20
-72.319336
30
-123.20508
11
102.0
21
-26.655273
31
-173.20508
12
102.0
22
-73.34473
32
-123.20508
13
102.0001
23
-73.34463
33
-123.20498
0
3DFACE
8
0
10
102.0
20
-73.34473
30
-123.20508
11
104.0
21
-27.680664
31
-173.20508
12
104.0
22
-72.319336
32
-123.20508
13
104.0001
23
-72.31924
33
-123.20498
0
3DFACE
8
0
10
106.0
20
-71.32141
30
-123.20508
11
104.0
21
-27.680664
31
-173.20508
12
104.0
22
-72.319336
32
-123.20508
13
104.0001
23
-72.31924
33
-123.20498
0
3DFACE
8
0
10
104.0
20
-72.319336
30
-123.20508
11
106.0
21
-28.678589
31
-173.20508
12
106.0
22
-71.32141
32
-123.20508
13
106.0001
23
-71.32131
33
-123.20498
0
3DFACE
8
0
10
108.0
20
-70.24567
30
-123.20508
11
106.0
21
-28.678589
31
-173.20508
12
106.0
22
-71.32141
32
-123.20508
13
106.0001
23
-71.32131
33
-123.20498
0
3DFACE
8
0
10
106.0
20
-71.32141
30
-123.20508
11
108.0
21
-29.754333
31
-173.20508
12
108.0
22
-70.24567
32
-123.20508
13
108.0001
23
-70.24557
33
-123.20498
0
3DFACE
8
0
10
110.0
20
-69.16382
30
-123.20508
11
108.0
21
-29.754333
31
-173.20508
12
108.0
22
-70.24567
32
-123.20508
13
108.0001
23
-70.24557
33
-123.20498
0
3DFACE
8
0
10
108.0
20
-70.24567
30
-123.20508
11
110.0
21
-30.836182
31
-173.20508
12
110.0
22
-69.16382
32
-123.20508
13
110.0001
23
-69.16372
33
-123.20498
0
3DFACE
8
0
10
112.0
20
-67.72186
30
-123.20508
11
110.0
21
-30.836182
31
-173.20508
12
110.0
22
-69.16382
32
-123.20508
13
110.0001
23
-69.16372
33
-123.20498
0
3DFACE
8
0
10
110.0
20
-69.16382
30
-123.20508
11
112.0
21
-32.278137
31
-173.20508
12
112.0
22
-67.72186
32
-123.20508
13
112.0001
23
-67.72176
33
-123.20498
0
3DFACE
8
0
10
114.0
20
-66.90094
30
-123.20508
11
112.0
21
-32.278137
31
-173.20508
12
112.0
22
-67.72186
32
-123.20508
13
112.0001
23
-67.72176
33
-123.20498
0
3DFACE
8
0
10
112.0
20
-67.72186
30
-123.20508
11
114.0
21
-33.09906
31
-173.20508
12
114.0
22
-66.90094
32
-123.20508
13
114.0001
23
-66.90084
33
-123.20498
0
3DFACE
8
0
10
116.0
20
-66.67969
30
-123.20508
11
114.0
21
-33.09906
31
-173.20508
12
114.0
22
-66.90094
32
-123.20508
13
114.0001
23
-66.90084
33
-123.20498
0
3DFACE
8
0
10
114.0
20
-66.90094
30
-123.20508
11
116.0
21
-33.320312
31
-173.20508
12
116.0
22
-66.67969
32
-123.20508
13
116.0001
23
-66.67959
33
-123.20498
0
3DFACE
8
0
10
118.0
20
-66.71936
30
-123.20508
11
116.0
21
-33.320312
31
-173.20508
12
116.0
22
-66.67969
32
-123.20508
13
116.0001
23
-66.67959
33
-123.20498
0
3DFACE
8
0
10
116.0
20
-66.67969
30
-123.20508
11
118.0
21
-33.28064
31
-173.20508
12
118.0
22
-66.71936
32
-123.20508
13
118.0001
23
-66.71926
33
-123.20498
0
3DFACE
8
0
10
120.0
20
-66.806335
30
-123.20508
11
118.0
21
-33.28064
31
-173.20508
12
118.0
22
-66.71936
32
-123.20508
13
118.0001
23
-66.71926
33
-123.20498
0
3DFACE
8
0
10
118.0
20
-66.71936
30
-123.20508
11
120.0
21
-33.193665
31
-173.20508
12
120.0
22
-66.806335
32
-123.20508
13
120.0001
23
-66.80624
33
-123.20498
0
3DFACE
8
0
10
122.0
20
-67.37396
30
-123.20508
11
120.0
21
-33.193665
31
-173.20508
12
120.0
22
-66.806335
32
-123.20508
13
120.0001
23
-66.80624
33
-123.20498
0
3DFACE
8
0
10
120.0
20
-66.806335
30
-123.20508
11
122.0
21
-32.626038
31
-173.20508
12
122.0
22
-67.37396
32
-123.20508
13
122.0001
23
-67.37386
33
-123.20498
0
3DFACE
8
0
10
124.0
20
-68.41766
30
-123.20508
11
122.0
21
-32.626038
31
-173.20508
12
122.0
22
-67.37396
32
-123.20508
13
122.0001
23
-67.37386
33
-123.20498
0
3DFACE
8
0
10
122.0
20
-67.37396
30
-123.20508
11
124.0
21
-31.582336
31
-173.20508
12
124.0
22
-68.41766
32
-123.20508
13
124.0001
23
-68.417564
33
-123.20498
0
3DFACE
8
0
10
126.0
20
-69.63379
30
-123.20508
11
124.0
21
-31.582336
31
-173.20508
12
124.0
22
-68.41766
32
-123.20508
13
124.0001
23
-68.417564
33
-123.20498
0
3DFACE
8
0
10
124.0
20
-68.41766
30
-123.20508
11
126.0
21
-30.36621
31
-173.20508
12
126.0
22
-69.63379
32
-123.20508
13
126.0001
23
-69.63369
33
-123.20498
0
3DFACE
8
0
10
128.0
20
-70.76599
30
-123.20508
11
126.0
21
-30.36621
31
-173.20508
12
126.0
22
-69.63379
32
-123.20508
13
126.0001
23
-69.63369
33
-123.20498
0
3DFACE
8
0
10
126.0
20
-69.63379
30
-123.20508
11
128.0
21
-29.234009
31
-173.20508
12
128.0
22
-70.76599
32
-123.20508
13
128.0001
23
-70.76589
33
-123.20498
0
3DFACE
8
0
10
130.0
20
-71.88751
30
-123.20508
11
128.0
21
-29.234009
31
-173.20508
12
128.0
22
-70.76599
32
-123.20508
13
128.0001
23
-70.76589
33
-123.20498
0
3DFACE
8
0
10
128.0
20
-70.76599
30
-123.20508
11
130.0
21
-28.112488
31
-173.20508
12
130.0
22
-71.88751
32
-123.20508
13
130.0001
23
-71.88741
33
-123.20498
0
3DFACE
8
0
10
132.0
20
-72.64435
30
-123.20508
11
130.0
21
-28.112488
31
-173.20508
12
130.0
22
-71.88751
32
-123.20508
13
130.0001
23
-71.88741
33
-123.20498
0
3DFACE
8
0
10
130.0
20
-71.88751
30
-123.20508
11
132.0
21
-27.355652
31
-173.20508
12
132.0
22
-72.64435
32
-123.20508
13
132.0001
23
-72.64425
33
-123.20498
0
3DFACE
8
0
10
134.0
20
-73.43933
30
-123.20508
11
132.0
21
-27.355652
31
-173.20508
12
132.0
22
-72.64435
32
-123.20508
13
132.0001
23
-72.64425
33
-123.20498
0
3DFACE
8
0
10
132.0
20
-72.64435
30
-123.20508
11
134.0
21
-26.560669
31
-173.20508
12
134.0
22
-73.43933
32
-123.20508
13
134.0001
23
-73.43923
33
-123.20498
0
3DFACE
8
0
10
136.0
20
-73.78418
30
-123.20508
11
134.0
21
-26.560669
31
-173.20508
12
134.0
22
-73.43933
32
-123.20508
13
134.0001
23
-73.43923
33
-123.20498
0
3DFACE
8
0
10
134.0
20
-73.43933
30
-123.20508
11
136.0
21
-26.21582
31
-173.20508
12
136.0
22
-73.78418
32
-123.20508
13
136.0001
23
-73.78408
33
-123.20498
0
3DFACE
8
0
10
138.0
20
-73.32489
30
-123.20508
11
136.0
21
-26.21582
31
-173.20508
12
136.0
22
-73.78418
32
-123.20508
13
136.0001
23
-73.78408
33
-123.20498
0
3DFACE
8
0
10
136.0
20
-73.78418
30
-123.20508
11
138.0
21
-26.67511
31
-173.20508
12
138.0
22
-73.32489
32
-123.20508
13
138.0001
23
-73.32479
33
-123.20498
0
3DFACE
8
0
10
140.0
20
-72.54669
30
-123.20508
11
138.0
21
-26.67511
31
-173.20508
12
138.0
22
-73.32489
32
-123.20508
13
138.0001
23
-73.32479
33
-123.20498
0
3DFACE
8
0
10
138.0
20
-73.32489
30
-123.20508
11
140.0
21
-27.453308
31
-173.20508
12
140.0
22
-72.54669
32
-123.20508
13
140.0001
23
-72.54659
33
-123.20498
0
3DFACE
8
0
10
142.0
20
-71.89972
30
-123.20508
11
140.0
21
-27.453308
31
-173.20508
12
140.0
22
-72.54669
32
-123.20508
13
140.0001
23
-72.54659
33
-123.20498
0
3DFACE
8
0
10
140.0
20
-72.54669
30
-123.20508
11
142.0
21
-28.10028
31
-173.20508
12
142.0
22
-71.89972
32
-123.20508
13
142.0001
23
-71.89962
33
-123.20498
0
3DFACE
8
0
10
144.0
20
-70.88196
30
-123.20508
11
142.0
21
-28.10028
31
-173.20508
12
142.0
22
-71.89972
32
-123.20508
13
142.0001
23
-71.89962
33
-123.20498
0
3DFACE
8
0
10
142.0
20
-71.89972
30
-123.20508
11
144.0
21
-29.118042
31
-173.20508
12
144.0
22
-70.88196
32
-123.20508
13
144.0001
23
-70.88186
33
-123.20498
0
3DFACE
8
0
10
146.0
20
-69.60785
30
-123.20508
11
144.0
21
-29.118042
31
-173.20508
12
144.0
22
-70.88196
32
-123.20508
13
144.0001
23
-70.88186
33
-123.20498
0
3DFACE
8
0
10
144.0
20
-70.88196
30
-123.20508
11
146.0
21
-30.39215
31
-173.20508
12
146.0
22
-69.60785
32
-123.20508
13
146.0001
23
-69.60775
33
-123.20498
0
3DFACE
8
0
10
148.0
20
-68.17047
30
-123.20508
11
146.0
21
-30.39215
31
-173.20508
12
146.0
22
-69.60785
32
-123.20508
13
146.0001
23
-69.60775
33
-123.20498
0
3DFACE
8
0
10
146.0
20
-69.60785
30
-123.20508
11
148.0
21
-31.829529
31
-173.20508
12
148.0
22
-68.17047
32
-123.20508
13
148.0001
23
-68.17037
33
-123.20498
0
3DFACE
8
0
10
150.0
20
-67.54944
30
-123.20508
11
148.0
21
-31.829529
31
-173.20508
12
148.0
22
-68.17047
32
-123.20508
13
148.0001
23
-68.17037
33
-123.20498
0
3DFACE
8
0
10
148.0
20
-68.17047
30
-123.20508
11
150.0
21
-32.45056
31
-173.20508
12
150.0
22
-67.54944
32
-123.20508
13
150.0001
23
-67.54934
33
-123.20498
0
3DFACE
8
0
10
152.0
20
-66.7453
30
-123.20508
11
150.0
21
-32.45056
31
-173.20508
12
150.0
22
-67.54944
32
-123.20508
13
150.0001
23
-67.54934
33
-123.20498
0
3DFACE
8
0
10
150.0
20
-67.54944
30
-123.20508
11
152.0
21
-33.2547
31
-173.20508
12
152.0
22
-66.7453
32
-123.20508
13
152.0001
23
-66.7452
33
-123.20498
0
3DFACE
8
0
10
154.0
20
-66.41571
30
-123.20508
11
152.0
21
-33.2547
31
-173.20508
12
152.0
22
-66.7453
32
-123.20508
13
152.0001
23
-66.7452
33
-123.20498
0
3DFACE
8
0
10
152.0
20
-66.7453
30
-123.20508
11
154.0
21
-33.58429
31
-173.20508
12
154.0
22
-66.41571
32
-123.20508
13
154.0001
23
-66.41561
33
-123.20498
0
3DFACE
8
0
10
156.0
20
-66.562195
30
-123.20508
11
154.0
21
-33.58429
31
-173.20508
12
154.0
22
-66.41571
32
-123.20508
13
154.0001
23
-66.41561
33
-123.20498
0
3DFACE
8
0
10
154.0
20
-66.41571
30
-123.20508
11
156.0
21
-33.437805
31
-173.20508
12
156.0
22
-66.562195
32
-123.20508
13
156.0001
23
-66.562096
33
-123.20498
0
3DFACE
8
0
10
158.0
20
-67.03522
30
-123.20508
11
156.0
21
-33.437805
31
-173.20508
12
156.0
22
-66.562195
32
-123.20508
13
156.0001
23
-66.562096
33
-123.20498
0
3DFACE
8
0
10
156.0
20
-66.562195
30
-123.20508
11
158.0
21
-32.964783
31
-173.20508
12
158.0
22
-67.03522
32
-123.20508
13
158.0001
23
-67.03512
33
-123.20498
0
3DFACE
8
0
10
160.0
20
-68.03772
30
-123.20508
11
158.0
21
-32.964783
31
-173.20508
12
158.0
22
-67.03522
32
-123.20508
13
158.0001
23
-67.03512
33
-123.20498
0
3DFACE
8
0
10
158.0
20
-67.03522
30
-123.20508
11
160.0
21
-31.96228
31
-173.20508
12
160.0
22
-68.03772
32
-123.20508
13
160.0001
23
-68.03762
33
-123.20498
0
3DFACE
8
0
10
162.0
20
-69.002075
30
-123.20508
11
160.0
21
-31.96228
31
-173.20508
12
160.0
22
-68.03772
32
-123.20508
13
160.0001
23
-68.03762
33
-123.20498
0
3DFACE
8
0
10
160.0
20
-68.03772
30
-123.20508
11
162.0
21
-30.997925
31
-173.20508
12
162.0
22
-69.002075
32
-123.20508
13
162.0001
23
-69.001976
33
-123.20498
0
3DFACE
8
0
10
164.0
20
-70.32654
30
-123.20508
11
162.0
21
-30.997925
31
-173.20508
12
162.0
22
-69.002075
32
-123.20508
13
162.0001
23
-69.001976
33
-123.20498
0
3DFACE
8
0
10
162.0
20
-69.002075
30
-123.20508
11
164.0
21
-29.673462
31
-173.20508
12
164.0
22
-70.32654
32
-123.20508
13
164.0001
23
-70.32644
33
-123.20498
0
3DFACE
8
0
10
166.0
20
-71.4267
30
-123.20508
11
164.0
21
-29.673462
31
-173.20508
12
164.0
22
-70.32654
32
-123.20508
13
164.0001
23
-70.32644
33
-123.20498
0
3DFACE
8
0
10
164.0
20
-70.32654
30
-123.20508
11
166.0
21
-28.573303
31
-173.20508
12
166.0
22
-71.4267
32
-123.20508
13
166.0001
23
-71.4266
33
-123.20498
0
3DFACE
8
0
10
168.0
20
-72.39868
30
-123.20508
11
166.0
21
-28.573303
31
-173.20508
12
166.0
22
-71.4267
32
-123.20508
13
166.0001
23
-71.4266
33
-123.20498
0
3DFACE
8
0
10
166.0
20
-71.4267
30
-123.20508
11
168.0
21
-27.601318
31
-173.20508
12
168.0
22
-72.39868
32
-123.20508
13
168.0001
23
-72.39858
33
-123.20498
0
3DFACE
8
0
10
170.0
20
-73.038025
30
-123.20508
11
168.0
21
-27.601318
31
-173.20508
12
168.0
22
-72.39868
32
-123.20508
13
168.0001
23
-72.39858
33
-123.20498
0
3DFACE
8
0
10
168.0
20
-72.39868
30
-123.20508
11
170.0
21
-26.961975
31
-173.20508
12
170.0
22
-73.038025
32
-123.20508
13
170.0001
23
-73.037926
33
-123.20498
0
3DFACE
8
0
10
172.0
20
-73.36914
30
-123.20508
11
170.0
21
-26.961975
31
-173.20508
12
170.0
22
-73.038025
32
-123.20508
13
170.0001
23
-73.037926
33
-123.20498
0
3DFACE
8
0
10
170.0
20
-73.038025
30
-123.20508
11
172.0
21
-26.63086
31
-173.20508
12
172.0
22
-73.36914
32
-123.20508
13
172.0001
23
-73.36904
33
-123.20498
0
3DFACE
8
0
10
174.0
20
-73.43933
30
-123.20508
11
172.0
21
-26.63086
31
-173.20508
12
172.0
22
-73.36914
32
-123.20508
13
172.0001
23
-73.36904
33
-123.20498
0
3DFACE
8
0
10
172.0
20
-73.36914
30
-123.20508
11
174.0
21
-26.560669
31
-173.20508
12
174.0
22
-73.43933
32
-123.20508
13
174.0001
23
-73.43923
33
-123.20498
0
3DFACE
8
0
10
176.0
20
-73.1662
30
-123.20508
11
174.0
21
-26.560669
31
-173.20508
12
174.0
22
-73.43933
32
-123.20508
13
174.0001
23
-73.43923
33
-123.20498
0
3DFACE
8
0
10
174.0
20
-73.43933
30
-123.20508
11
176.0
21
-26.833801
31
-173.20508
12
176.0
22
-73.1662
32
-123.20508
13
176.0001
23
-73.1661
33
-123.20498
0
3DFACE
8
0
10
178.0
20
-72.23694
30
-123.20508
11
176.0
21
-26.833801
31
-173.20508
12
176.0
22
-73.1662
32
-123.20508
13
176.0001
23
-73.1661
33
-123.20498
0
3DFACE
8
0
10
176.0
20
-73.1662
30
-123.20508
11
178.0
21
-27.763062
31
-173.20508
12
178.0
22
-72.23694
32
-123.20508
13
178.0001
23
-72.23684
33
-123.20498
0
3DFACE
8
0
10
180.0
20
-71.15967
30
-123.20508
11
178.0
21
-27.763062
31
-173.20508
12
178.0
22
-72.23694
32
-123.20508
13
178.0001
23
-72.23684
33
-123.20498
0
3DFACE
8
0
10
178.0
20
-72.23694
30
-123.20508
11
180.0
21
-28.840332
31
-173.20508
12
180.0
22
-71.15967
32
-123.20508
13
180.0001
23
-71.15957
33
-123.20498
0
3DFACE
8
0
10
182.0
20
-70.08545
30
-123.20508
11
180.0
21
-28.840332
31
-173.20508
12
180.0
22
-71.15967
32
-123.20508
13
180.0001
23
-71.15957
33
-123.20498
0
3DFACE
8
0
10
180.0
20
-71.15967
30
-123.20508
11
182.0
21
-29.91455
31
-173.20508
12
182.0
22
-70.08545
32
-123.20508
13
182.0001
23
-70.08535
33
-123.20498
0
3DFACE
8
0
10
184.0
20
-68.78235
30
-123.20508
11
182.0
21
-29.91455
31
-173.20508
12
182.0
22
-70.08545
32
-123.20508
13
182.0001
23
-70.08535
33
-123.20498
0
3DFACE
8
0
10
182.0
20
-70.08545
30
-123.20508
11
184.0
21
-31.217651
31
-173.20508
12
184.0
22
-68.78235
32
-123.20508
13
184.0001
23
-68.78225
33
-123.20498
0
3DFACE
8
0
10
186.0
20
-67.58606
30
-123.20508
11
184.0
21
-31.217651
31
-173.20508
12
184.0
22
-68.78235
32
-123.20508
13
184.0001
23
-68.78225
33
-123.20498
0
3DFACE
8
0
10
184.0
20
-68.78235
30
-123.20508
11
186.0
21
-32.41394
31
-173.20508
12
186.0
22
-67.58606
32
-123.20508
13
186.0001
23
-67.58596
33
-123.20498
0
3DFACE
8
0
10
188.0
20
-66.89026
30
-123.20508
11
186.0
21
-32.41394
31
-173.20508
12
186.0
22
-67.58606
32
-123.20508
13
186.0001
23
-67.58596
33
-123.20498
0
3DFACE
8
0
10
186.0
20
-67.58606
30
-123.20508
11
188.0
21
-33.10974
31
-173.20508
12
188.0
22
-66.89026
32
-123.20508
13
188.0001
23
-66.89016
33
-123.20498
0
3DFACE
8
0
10
190.0
20
-66.421814
30
-123.20508
11
188.0
21
-33.10974
31
-173.20508
12
188.0
22
-66.89026
32
-123.20508
13
188.0001
23
-66.89016
33
-123.20498
0
3DFACE
8
0
10
188.0
20
-66.89026
30
-123.20508
11
190.0
21
-33.578186
31
-173.20508
12
190.0
22
-66.421814
32
-123.20508
13
190.0001
23
-66.421715
33
-123.20498
0
3DFACE
8
0
10
192.0
20
-66.24786
30
-123.20508
11
190.0
21
-33.578186
31
-173.20508
12
190.0
22
-66.421814
32
-123.20508
13
190.0001
23
-66.421715
33
-123.20498
0
3DFACE
8
0
10
190.0
20
-66.421814
30
-123.20508
11
192.0
21
-33.752136
31
-173.20508
12
192.0
22
-66.24786
32
-123.20508
13
192.0001
23
-66.247765
33
-123.20498
0
3DFACE
8
0
10
194.0
20
-66.68121
30
-123.20508
11
192.0
21
-33.752136
31
-173.20508
12
192.0
22
-66.24786
32
-123.20508
13
192.0001
23
-66.247765
33
-123.20498
0
3DFACE
8
0
10
192.0
20
-66.24786
30
-123.20508
11
194.0
21
-33.318787
31
-173.20508
12
194.0
22
-66.68121
32
-123.20508
13
194.0001
23
-66.681114
33
-123.20498
0
3DFACE
8
0
10
196.0
20
-67.43805
30
-123.20508
11
194.0
21
-33.318787
31
-173.20508
12
194.0
22
-66.68121
32
-123.20508
13
194.0001
23
-66.681114
33
-123.20498
0
3DFACE
8
0
10
194.0
20
-66.68121
30
-123.20508
11
196.0
21
-32.56195
31
-173.20508
12
196.0
22
-67.43805
32
-123.20508
13
196.0001
23
-67.43795
33
-123.20498
0
3DFACE
8
0
10
198.0
20
-68.60687
30
-123.20508
11
196.0
21
-32.56195
31
-173.20508
12
196.0
22
-67.43805
32
-123.20508
13
196.0001
23
-67.43795
33
-123.20498
0
3DFACE
8
0
10
196.0
20
-67.43805
30
-123.20508
11
198.0
21
-31.393127
31
-173.20508
12
198.0
22
-68.60687
32
-123.20508
13
198.0001
23
-68.60677
33
-123.20498
0
3DFACE
8
0
10
200.0
20
-69.67346
30
-123.20508
11
198.0
21
-31.393127
31
-173.20508
12
198.0
22
-68.60687
32
-123.20508
13
198.0001
23
-68.60677
33
-123.20498
0
3DFACE
8
0
10
198.0
20
-68.60687
30
-123.20508
11
200.0
21
-30.326538
31
-173.20508
12
200.0
22
-69.67346
32
-123.20508
13
200.0001
23
-69.67336
33
-123.20498
0
3DFACE
8
0
10
202.0
20
-71.057434
30
-123.20508
11
200.0
21
-30.326538
31
-173.20508
12
200.0
22
-69.67346
32
-123.20508
13
200.0001
23
-69.67336
33
-123.20498
0
3DFACE
8
0
10
200.0
20
-69.67346
30
-123.20508
11
202.0
21
-28.942566
31
-173.20508
12
202.0
22
-71.057434
32
-123.20508
13
202.0001
23
-71.057335
33
-123.20498
0
3DFACE
8
0
10
204.0
20
-72.168274
30
-123.20508
11
202.0
21
-28.942566
31
-173.20508
12
202.0
22
-71.057434
32
-123.20508
13
202.0001
23
-71.057335
33
-123.20498
0
3DFACE
8
0
10
202.0
20
-71.057434
30
-123.20508
11
204.0
21
-27.831726
31
-173.20508
12
204.0
22
-72.168274
32
-123.20508
13
204.0001
23
-72.168175
33
-123.20498
0
3DFACE
8
0
10
206.0
20
-73.17383
30
-123.20508
11
204.0
21
-27.831726
31
-173.20508
12
204.0
22
-72.168274
32
-123.20508
13
204.0001
23
-72.168175
33
-123.20498
0
3DFACE
8
0
10
204.0
20
-72.168274
30
-123.20508
11
206.0
21
-26.826172
31
-173.20508
12
206.0
22
-73.17383
32
-123.20508
13
206.0001
23
-73.17373
33
-123.20498
0
3DFACE
8
0
10
208.0
20
-73.57208
30
-123.20508
11
206.0
21
-26.826172
31
-173.20508
12
206.0
22
-73.17383
32
-123.20508
13
206.0001
23
-73.17373
33
-123.20498
0
3DFACE
8
0
10
206.0
20
-73.17383
30
-123.20508
11
208.0
21
-26.427917
31
-173.20508
12
208.0
22
-73.57208
32
-123.20508
13
208.0001
23
-73.57198
33
-123.20498
0
3DFACE
8
0
10
210.0
20
-73.57666
30
-123.20508
11
208.0
21
-26.427917
31
-173.20508
12
208.0
22
-73.57208
32
-123.20508
13
208.0001
23
-73.57198
33
-123.20498
0
3DFACE
8
0
10
208.0
20
-73.57208
30
-123.20508
11
210.0
21
-26.42334
31
-173.20508
12
210.0
22
-73.57666
32
-123.20508
13
210.0001
23
-73.57656
33
-123.20498
0
3DFACE
8
0
10
212.0
20
-73.37219
30
-123.20508
11
210.0
21
-26.42334
31
-173.20508
12
210.0
22
-73.57666
32
-123.20508
13
210.0001
23
-73.57656
33
-123.20498
0
3DFACE
8
0
10
210.0
20
-73.57666
30
-123.20508
11
212.0
21
-26.627808
31
-173.20508
12
212.0
22
-73.37219
32
-123.20508
13
212.0001
23
-73.37209
33
-123.20498
0
3DFACE
8
0
10
214.0
20
-72.89154
30
-123.20508
11
212.0
21
-26.627808
31
-173.20508
12
212.0
22
-73.37219
32
-123.20508
13
212.0001
23
-73.37209
33
-123.20498
0
3DFACE
8
0
10
212.0
20
-73.37219
30
-123.20508
11
214.0
21
-27.10846
31
-173.20508
12
214.0
22
-72.89154
32
-123.20508
13
214.0001
23
-72.89144
33
-123.20498
0
3DFACE
8
0
10
216.0
20
-71.70593
30
-123.20508
11
214.0
21
-27.10846
31
-173.20508
12
214.0
22
-72.89154
32
-123.20508
13
214.0001
23
-72.89144
33
-123.20498
0
3DFACE
8
0
10
214.0
20
-72.89154
30
-123.20508
11
216.0
21
-28.294067
31
-173.20508
12
216.0
22
-71.70593
32
-123.20508
13
216.0001
23
-71.70583
33
-123.20498
0
3DFACE
8
0
10
218.0
20
-70.48828
30
-123.20508
11
216.0
21
-28.294067
31
-173.20508
12
216.0
22
-71.70593
32
-123.20508
13
216.0001
23
-71.70583
33
-123.20498
0
3DFACE
8
0
10
216.0
20
-71.70593
30
-123.20508
11
218.0
21
-29.511719
31
-173.20508
12
218.0
22
-70.48828
32
-123.20508
13
218.0001
23
-70.48818
33
-123.20498
0
3DFACE
8
0
10
220.0
20
-69.0921
30
-123.20508
11
218.0
21
-29.511719
31
-173.20508
12
218.0
22
-70.48828
32
-123.20508
13
218.0001
23
-70.48818
33
-123.20498
0
3DFACE
8
0
10
218.0
20
-70.48828
30
-123.20508
11
220.0
21
-30.907898
31
-173.20508
12
220.0
22
-69.0921
32
-123.20508
13
220.0001
23
-69.092
33
-123.20498
0
3DFACE
8
0
10
222.0
20
-67.872925
30
-123.20508
11
220.0
21
-30.907898
31
-173.20508
12
220.0
22
-69.0921
32
-123.20508
13
220.0001
23
-69.092
33
-123.20498
0
3DFACE
8
0
10
220.0
20
-69.0921
30
-123.20508
11
222.0
21
-32.127075
31
-173.20508
12
222.0
22
-67.872925
32
-123.20508
13
222.0001
23
-67.872826
33
-123.20498
0
3DFACE
8
0
10
224.0
20
-66.9162
30
-123.20508
11
222.0
21
-32.127075
31
-173.20508
12
222.0
22
-67.872925
32
-123.20508
13
222.0001
23
-67.872826
33
-123.20498
0
3DFACE
8
0
10
222.0
20
-67.872925
30
-123.20508
11
224.0
21
-33.0838
31
-173.20508
12
224.0
22
-66.9162
32
-123.20508
13
224.0001
23
-66.9161
33
-123.20498
0
3DFACE
8
0
10
226.0
20
-66.03424
30
-123.20508
11
224.0
21
-33.0838
31
-173.20508
12
224.0
22
-66.9162
32
-123.20508
13
224.0001
23
-66.9161
33
-123.20498
0
3DFACE
8
0
10
224.0
20
-66.9162
30
-123.20508
11
226.0
21
-33.96576
31
-173.20508
12
226.0
22
-66.03424
32
-123.20508
13
226.0001
23
-66.03414
33
-123.20498
0
3DFACE
8
0
10
228.0
20
-65.94574
30
-123.20508
11
226.0
21
-33.96576
31
-173.20508
12
226.0
22
-66.03424
32
-123.20508
13
226.0001
23
-66.03414
33
-123.20498
0
3DFACE
8
0
10
226.0
20
-66.03424
30
-123.20508
11
228.0
21
-34.05426
31
-173.20508
12
228.0
22
-65.94574
32
-123.20508
13
228.0001
23
-65.94564
33
-123.20498
0
3DFACE
8
0
10
230.0
20
-66.45233
30
-123.20508
11
228.0
21
-34.05426
31
-173.20508
12
228.0
22
-65.94574
32
-123.20508
13
228.0001
23
-65.94564
33
-123.20498
0
3DFACE
8
0
10
228.0
20
-65.94574
30
-123.20508
11
230.0
21
-33.54767
31
-173.20508
12
230.0
22
-66.45233
32
-123.20508
13
230.0001
23
-66.45223
33
-123.20498
0
3DFACE
8
0
10
232.0
20
-67.12982
30
-123.20508
11
230.0
21
-33.54767
31
-173.20508
12
230.0
22
-66.45233
32
-123.20508
13
230.0001
23
-66.45223
33
-123.20498
0
3DFACE
8
0
10
230.0
20
-66.45233
30
-123.20508
11
232.0
21
-32.87018
31
-173.20508
12
232.0
22
-67.12982
32
-123.20508
13
232.0001
23
-67.12972
33
-123.20498
0
3DFACE
8
0
10
234.0
20
-68.039246
30
-123.20508
11
232.0
21
-32.87018
31
-173.20508
12
232.0
22
-67.12982
32
-123.20508
13
232.0001
23
-67.12972
33
-123.20498
0
3DFACE
8
0
10
232.0
20
-67.12982
30
-123.20508
11
234.0
21
-31.960754
31
-173.20508
12
234.0
22
-68.039246
32
-123.20508
13
234.0001
23
-68.03915
33
-123.20498
0
3DFACE
8
0
10
236.0
20
-69.365234
30
-123.20508
11
234.0
21
-31.960754
31
-173.20508
12
234.0
22
-68.039246
32
-123.20508
13
234.0001
23
-68.03915
33
-123.20498
0
3DFACE
8
0
10
234.0
20
-68.039246
30
-123.20508
11
236.0
21
-30.634766
31
-173.20508
12
236.0
22
-69.365234
32
-123.20508
13
236.0001
23
-69.365135
33
-123.20498
0
3DFACE
8
0
10
238.0
20
-70.80719
30
-123.20508
11
236.0
21
-30.634766
31
-173.20508
12
236.0
22
-69.365234
32
-123.20508
13
236.0001
23
-69.365135
33
-123.20498
0
3DFACE
8
0
10
236.0
20
-69.365234
30
-123.20508
11
238.0
21
-29.19281
31
-173.20508
12
238.0
22
-70.80719
32
-123.20508
13
238.0001
23
-70.80709
33
-123.20498
0
3DFACE
8
0
10
240.0
20
-71.9577
30
-123.20508
11
238.0
21
-29.19281
31
-173.20508
12
238.0
22
-70.80719
32
-123.20508
13
238.0001
23
-70.80709
33
-123.20498
0
3DFACE
8
0
10
238.0
20
-70.80719
30
-123.20508
11
240.0
21
-28.042297
31
-173.20508
12
240.0
22
-71.9577
32
-123.20508
13
240.0001
23
-71.9576
33
-123.20498
0
3DFACE
8
0
10
242.0
20
-72.8244
30
-123.20508
11
240.0
21
-28.042297
31
-173.20508
12
240.0
22
-71.9577
32
-123.20508
13
240.0001
23
-71.9576
33
-123.20498
0
3DFACE
8
0
10
240.0
20
-71.9577
30
-123.20508
11
242.0
21
-27.175598
31
-173.20508
12
242.0
22
-72.8244
32
-123.20508
13
242.0001
23
-72.8243
33
-123.20498
0
3DFACE
8
0
10
244.0
20
-73.69568
30
-123.20508
11
242.0
21
-27.175598
31
-173.20508
12
242.0
22
-72.8244
32
-123.20508
13
242.0001
23
-72.8243
33
-123.20498
0
3DFACE
8
0
10
242.0
20
-72.8244
30
-123.20508
11
244.0
21
-26.304321
31
-173.20508
12
244.0
22
-73.69568
32
-123.20508
13
244.0001
23
-73.69558
33
-123.20498
0
3DFACE
8
0
10
246.0
20
-73.94287
30
-123.20508
11
244.0
21
-26.304321
31
-173.20508
12
244.0
22
-73.69568
32
-123.20508
13
244.0001
23
-73.69558
33
-123.20498
0
3DFACE
8
0
10
244.0
20
-73.69568
30
-123.20508
11
246.0
21
-26.057129
31
-173.20508
12
246.0
22
-73.94287
32
-123.20508
13
246.0001
23
-73.94277
33
-123.20498
0
3DFACE
8
0
10
248.0
20
-73.76282
30
-123.20508
11
246.0
21
-26.057129
31
-173.20508
12
246.0
22
-73.94287
32
-123.20508
13
246.0001
23
-73.94277
33
-123.20498
0
3DFACE
8
0
10
246.0
20
-73.94287
30
-123.20508
11
248.0
21
-26.237183
31
-173.20508
12
248.0
22
-73.76282
32
-123.20508
13
248.0001
23
-73.76272
33
-123.20498
0
3DFACE
8
0
10
250.0
20
-73.23181
30
-123.20508
11
248.0
21
-26.237183
31
-173.20508
12
248.0
22
-73.76282
32
-123.20508
13
248.0001
23
-73.76272
33
-123.20498
0
3DFACE
8
0
10
248.0
20
-73.76282
30
-123.20508
11
250.0
21
-26.768188
31
-173.20508
12
250.0
22
-73.23181
32
-123.20508
13
250.0001
23
-73.23171
33
-123.20498
0
3DFACE
8
0
10
252.0
20
-72.145386
30
-123.20508
11
250.0
21
-26.768188
31
-173.20508
12
250.0
22
-73.23181
32
-123.20508
13
250.0001
23
-73.23171
33
-123.20498
0
3DFACE
8
0
10
250.0
20
-73.23181
30
-123.20508
11
252.0
21
-27.854614
31
-173.20508
12
252.0
22
-72.145386
32
-123.20508
13
252.0001
23
-72.14529
33
-123.20498
0
3DFACE
8
0
10
254.0
20
-71.01318
30
-123.20508
11
252.0
21
-27.854614
31
-173.20508
12
252.0
22
-72.145386
32
-123.20508
13
252.0001
23
-72.14529
33
-123.20498
0
3DFACE
8
0
10
252.0
20
-72.145386
30
-123.20508
11
254.0
21
-28.986816
31
-173.20508
12
254.0
22
-71.01318
32
-123.20508
13
254.0001
23
-71.013084
33
-123.20498
0
ENDSEC
0
EOF
