0
SECTION
2
ENTITIES
0
3DFACE
8
0
10
-256.0
20
-28.939484
30
-173.20508
11
-255.0
21
-50.0
31
-148.20508
12
-254.0
22
-31.46489
32
-173.20508
13
-253.9999
23
-31.46479
33
-173.20497
0
3DFACE
8
0
10
-255.0
20
-50.0
30
-148.20508
11
-254.0
21
-68.53511
31
-123.20508
12
-256.0
22
-71.06052
32
-123.20508
13
-255.9999
23
-71.06042
33
-123.20498
0
3DFACE
8
0
10
-253.0
20
-49.999996
30
-148.2051
11
-254.0
21
-68.53511
31
-123.20508
12
-252.0
22
-66.04022
32
-123.20508
13
-251.9999
23
-66.04012
33
-123.20498
0
3DFACE
8
0
10
-254.0
20
-31.46489
30
-173.20508
11
-252.0
21
-33.959778
31
-173.20508
12
-253.0
22
-49.999996
32
-148.2051
13
-252.9999
23
-49.999897
33
-148.20499
0
3DFACE
8
0
10
-250.0
20
-35.62303
30
-173.20508
11
-252.0
21
-33.959778
31
-173.20508
12
-252.0
22
-66.04022
32
-123.20508
13
-251.9999
23
-66.04012
33
-123.20498
0
3DFACE
8
0
10
-250.0
20
-35.62303
30
-173.20508
11
-252.0
21
-66.04022
31
-123.20508
12
-250.0
22
-64.37697
32
-123.20508
13
-249.9999
23
-64.37687
33
-123.20498
0
3DFACE
8
0
10
-248.0
20
-36.080814
30
-173.20508
11
-250.0
21
-35.62303
31
-173.20508
12
-250.0
22
-64.37697
32
-123.20508
13
-249.9999
23
-64.37687
33
-123.20498
0
3DFACE
8
0
10
-248.0
20
-36.080814
30
-173.20508
11
-250.0
21
-64.37697
31
-123.20508
12
-248.0
22
-63.919186
32
-123.20508
13
-247.9999
23
-63.919086
33
-123.20498
0
3DFACE
8
0
10
-246.0
20
-35.478073
30
-173.20508
11
-248.0
21
-36.080814
31
-173.20508
12
-248.0
22
-63.919186
32
-123.20508
13
-247.9999
23
-63.919086
33
-123.20498
0
3DFACE
8
0
10
-246.0
20
-35.478073
30
-173.20508
11
-248.0
21
-63.919186
31
-123.20508
12
-246.0
22
-64.52193
32
-123.20508
13
-245.9999
23
-64.52183
33
-123.20498
0
3DFACE
8
0
10
-244.0
20
-33.47911
30
-173.20508
11
-246.0
21
-35.478073
31
-173.20508
12
-246.0
22
-64.52193
32
-123.20508
13
-245.9999
23
-64.52183
33
-123.20498
0
3DFACE
8
0
10
-244.0
20
-33.47911
30
-173.20508
11
-246.0
21
-64.52193
31
-123.20508
12
-244.0
22
-66.52089
32
-123.20508
13
-243.9999
23
-66.52079
33
-123.20498
0
3DFACE
8
0
10
-242.0
20
-30.991852
30
-173.20508
11
-244.0
21
-33.47911
31
-173.20508
12
-243.0
22
-50.0
32
-148.20508
13
-242.9999
23
-49.9999
33
-148.20497
0
3DFACE
8
0
10
-243.0
20
-50.0
30
-148.20508
11
-242.0
21
-69.00815
31
-123.20508
12
-244.0
22
-66.52089
32
-123.20508
13
-243.9999
23
-66.52079
33
-123.20498
0
3DFACE
8
0
10
-240.0
20
-28.222298
30
-173.20508
11
-242.0
21
-30.991852
31
-173.20508
12
-241.0
22
-50.0
32
-148.20508
13
-240.9999
23
-49.9999
33
-148.20497
0
3DFACE
8
0
10
-241.0
20
-50.0
30
-148.20508
11
-240.0
21
-71.7777
31
-123.20508
12
-242.0
22
-69.00815
32
-123.20508
13
-241.9999
23
-69.00805
33
-123.20498
0
3DFACE
8
0
10
-238.0
20
-25.605331
30
-173.20508
11
-240.0
21
-28.222298
31
-173.20508
12
-239.0
22
-50.000015
32
-148.20506
13
-238.9999
23
-49.999916
33
-148.20496
0
3DFACE
8
0
10
-239.0
20
-50.000015
30
-148.20506
11
-238.0
21
-74.39467
31
-123.20508
12
-240.0
22
-71.7777
32
-123.20508
13
-239.9999
23
-71.7776
33
-123.20498
0
3DFACE
8
0
10
-238.0
20
-25.605331
30
-173.20508
11
-238.0
21
-74.39467
31
-123.20508
12
-236.0
22
-76.39363
32
-123.20508
13
-235.9999
23
-76.39353
33
-123.20498
0
3DFACE
8
0
10
-238.0
20
-25.605331
30
-173.20508
11
-236.0
21
-76.39363
31
-123.20508
12
-236.0
22
-23.606369
32
-173.20508
13
-235.9999
23
-23.60627
33
-173.20497
0
3DFACE
8
0
10
-236.0
20
-23.606369
30
-173.20508
11
-236.0
21
-76.39363
31
-123.20508
12
-234.0
22
-77.21763
32
-123.20508
13
-233.9999
23
-77.21753
33
-123.20498
0
3DFACE
8
0
10
-236.0
20
-23.606369
30
-173.20508
11
-234.0
21
-77.21763
31
-123.20508
12
-234.0
22
-22.782372
32
-173.20508
13
-233.9999
23
-22.782272
33
-173.20497
0
3DFACE
8
0
10
-234.0
20
-22.782372
30
-173.20508
11
-234.0
21
-77.21763
31
-123.20508
12
-232.0
22
-77.11081
32
-123.20508
13
-231.9999
23
-77.11071
33
-123.20498
0
3DFACE
8
0
10
-234.0
20
-22.782372
30
-173.20508
11
-232.0
21
-77.11081
31
-123.20508
12
-232.0
22
-22.88919
32
-173.20508
13
-231.9999
23
-22.889091
33
-173.20497
0
3DFACE
8
0
10
-232.0
20
-22.88919
30
-173.20508
11
-232.0
21
-77.11081
31
-123.20508
12
-230.0
22
-76.00452
32
-123.20508
13
-229.9999
23
-76.00442
33
-123.20498
0
3DFACE
8
0
10
-232.0
20
-22.88919
30
-173.20508
11
-230.0
21
-76.00452
31
-123.20508
12
-230.0
22
-23.995483
32
-173.20508
13
-229.9999
23
-23.995384
33
-173.20497
0
3DFACE
8
0
10
-230.0
20
-23.995483
30
-173.20508
11
-230.0
21
-76.00452
31
-123.20508
12
-228.0
22
-74.203926
32
-123.20508
13
-227.9999
23
-74.20383
33
-123.20498
0
3DFACE
8
0
10
-230.0
20
-23.995483
30
-173.20508
11
-228.0
21
-74.203926
31
-123.20508
12
-228.0
22
-25.796074
32
-173.20508
13
-227.9999
23
-25.795975
33
-173.20497
0
3DFACE
8
0
10
-228.0
20
-25.796074
30
-173.20508
11
-227.0
21
-50.0
31
-148.20508
12
-226.0
22
-28.237556
32
-173.20508
13
-225.9999
23
-28.237457
33
-173.20497
0
3DFACE
8
0
10
-227.0
20
-50.0
30
-148.20508
11
-226.0
21
-71.76244
31
-123.20508
12
-228.0
22
-74.203926
32
-123.20508
13
-227.9999
23
-74.20383
33
-123.20498
0
3DFACE
8
0
10
-226.0
20
-28.237556
30
-173.20508
11
-225.0
21
-50.00001
31
-148.20506
12
-224.0
22
-30.66378
32
-173.20508
13
-223.9999
23
-30.663681
33
-173.20497
0
3DFACE
8
0
10
-225.0
20
-50.00001
30
-148.20506
11
-224.0
21
-69.33622
31
-123.20508
12
-226.0
22
-71.76244
32
-123.20508
13
-225.9999
23
-71.762344
33
-123.20498
0
3DFACE
8
0
10
-223.0
20
-49.999992
30
-148.2051
11
-224.0
21
-69.33622
31
-123.20508
12
-222.0
22
-66.665855
32
-123.20508
13
-221.9999
23
-66.66576
33
-123.20498
0
3DFACE
8
0
10
-224.0
20
-30.66378
30
-173.20508
11
-222.0
21
-33.334145
31
-173.20508
12
-223.0
22
-49.999992
32
-148.2051
13
-222.9999
23
-49.999893
33
-148.20499
0
3DFACE
8
0
10
-222.0
20
-33.334145
30
-173.20508
11
-221.0
21
-50.0
31
-148.20508
12
-220.0
22
-35.439926
32
-173.20508
13
-219.9999
23
-35.439827
33
-173.20497
0
3DFACE
8
0
10
-221.0
20
-50.0
30
-148.20508
11
-220.0
21
-64.560074
31
-123.20508
12
-222.0
22
-66.665855
32
-123.20508
13
-221.9999
23
-66.66576
33
-123.20498
0
3DFACE
8
0
10
-218.0
20
-36.16474
30
-173.20508
11
-220.0
21
-35.439926
31
-173.20508
12
-220.0
22
-64.560074
32
-123.20508
13
-219.9999
23
-64.559975
33
-123.20498
0
3DFACE
8
0
10
-218.0
20
-36.16474
30
-173.20508
11
-220.0
21
-64.560074
31
-123.20508
12
-218.0
22
-63.83526
32
-123.20508
13
-217.9999
23
-63.83516
33
-123.20498
0
3DFACE
8
0
10
-216.0
20
-35.607773
30
-173.20508
11
-218.0
21
-36.16474
31
-173.20508
12
-218.0
22
-63.83526
32
-123.20508
13
-217.9999
23
-63.83516
33
-123.20498
0
3DFACE
8
0
10
-216.0
20
-35.607773
30
-173.20508
11
-218.0
21
-63.83526
31
-123.20508
12
-216.0
22
-64.39223
32
-123.20508
13
-215.9999
23
-64.39213
33
-123.20498
0
3DFACE
8
0
10
-214.0
20
-34.06659
30
-173.20508
11
-216.0
21
-35.607773
31
-173.20508
12
-216.0
22
-64.39223
32
-123.20508
13
-215.9999
23
-64.39213
33
-123.20498
0
3DFACE
8
0
10
-214.0
20
-34.06659
30
-173.20508
11
-216.0
21
-64.39223
31
-123.20508
12
-214.0
22
-65.93341
32
-123.20508
13
-213.9999
23
-65.93331
33
-123.20498
0
3DFACE
8
0
10
-213.0
20
-49.999996
30
-148.2051
11
-214.0
21
-65.93341
31
-123.20508
12
-212.0
22
-68.30622
32
-123.20508
13
-211.9999
23
-68.30612
33
-123.20498
0
3DFACE
8
0
10
-212.0
20
-31.693779
30
-173.20508
11
-213.0
21
-49.999996
31
-148.2051
12
-214.0
22
-34.06659
32
-173.20508
13
-213.9999
23
-34.06649
33
-173.20497
0
3DFACE
8
0
10
-210.0
20
-29.008148
30
-173.20508
11
-212.0
21
-31.693779
31
-173.20508
12
-211.0
22
-50.000008
32
-148.20506
13
-210.9999
23
-49.99991
33
-148.20496
0
3DFACE
8
0
10
-211.0
20
-50.000008
30
-148.20506
11
-210.0
21
-70.99185
31
-123.20508
12
-212.0
22
-68.30622
32
-123.20508
13
-211.9999
23
-68.30612
33
-123.20498
0
3DFACE
8
0
10
-209.0
20
-49.999992
30
-148.2051
11
-210.0
21
-70.99185
31
-123.20508
12
-208.0
22
-73.57829
32
-123.20508
13
-207.9999
23
-73.57819
33
-123.20498
0
3DFACE
8
0
10
-208.0
20
-26.421707
30
-173.20508
11
-209.0
21
-49.999992
31
-148.2051
12
-210.0
22
-29.008148
32
-173.20508
13
-209.9999
23
-29.008049
33
-173.20497
0
3DFACE
8
0
10
-208.0
20
-26.421707
30
-173.20508
11
-208.0
21
-73.57829
31
-123.20508
12
-206.0
22
-75.60777
32
-123.20508
13
-205.9999
23
-75.60767
33
-123.20498
0
3DFACE
8
0
10
-208.0
20
-26.421707
30
-173.20508
11
-206.0
21
-75.60777
31
-123.20508
12
-206.0
22
-24.392227
32
-173.20508
13
-205.9999
23
-24.392128
33
-173.20497
0
3DFACE
8
0
10
-206.0
20
-24.392227
30
-173.20508
11
-206.0
21
-75.60777
31
-123.20508
12
-204.0
22
-76.66067
32
-123.20508
13
-203.9999
23
-76.66057
33
-123.20498
0
3DFACE
8
0
10
-206.0
20
-24.392227
30
-173.20508
11
-204.0
21
-76.66067
31
-123.20508
12
-204.0
22
-23.339333
32
-173.20508
13
-203.9999
23
-23.339233
33
-173.20497
0
3DFACE
8
0
10
-204.0
20
-23.339333
30
-173.20508
11
-204.0
21
-76.66067
31
-123.20508
12
-202.0
22
-76.813255
32
-123.20508
13
-201.9999
23
-76.813156
33
-123.20498
0
3DFACE
8
0
10
-204.0
20
-23.339333
30
-173.20508
11
-202.0
21
-76.813255
31
-123.20508
12
-202.0
22
-23.186745
32
-173.20508
13
-201.9999
23
-23.186646
33
-173.20497
0
3DFACE
8
0
10
-202.0
20
-23.186745
30
-173.20508
11
-202.0
21
-76.813255
31
-123.20508
12
-200.0
22
-76.30207
32
-123.20508
13
-199.9999
23
-76.30197
33
-123.20498
0
3DFACE
8
0
10
-202.0
20
-23.186745
30
-173.20508
11
-200.0
21
-76.30207
31
-123.20508
12
-200.0
22
-23.69793
32
-173.20508
13
-199.9999
23
-23.69783
33
-173.20497
0
3DFACE
8
0
10
-200.0
20
-23.69793
30
-173.20508
11
-200.0
21
-76.30207
31
-123.20508
12
-198.0
22
-75.05844
32
-123.20508
13
-197.9999
23
-75.05834
33
-123.20498
0
3DFACE
8
0
10
-200.0
20
-23.69793
30
-173.20508
11
-198.0
21
-75.05844
31
-123.20508
12
-198.0
22
-24.941559
32
-173.20508
13
-197.9999
23
-24.94146
33
-173.20497
0
3DFACE
8
0
10
-197.0
20
-49.99999
30
-148.2051
11
-198.0
21
-75.05844
31
-123.20508
12
-196.0
22
-73.02133
32
-123.20508
13
-195.9999
23
-73.02123
33
-123.20498
0
3DFACE
8
0
10
-198.0
20
-24.941559
30
-173.20508
11
-196.0
21
-26.978668
31
-173.20508
12
-197.0
22
-49.99999
32
-148.2051
13
-196.9999
23
-49.99989
33
-148.20499
0
3DFACE
8
0
10
-196.0
20
-26.978668
30
-173.20508
11
-195.0
21
-50.000015
31
-148.20506
12
-194.0
22
-29.359116
32
-173.20508
13
-193.9999
23
-29.359016
33
-173.20497
0
3DFACE
8
0
10
-195.0
20
-50.000015
30
-148.20506
11
-194.0
21
-70.640884
31
-123.20508
12
-196.0
22
-73.02133
32
-123.20508
13
-195.9999
23
-73.02123
33
-123.20498
0
3DFACE
8
0
10
-193.0
20
-49.999996
30
-148.2051
11
-194.0
21
-70.640884
31
-123.20508
12
-192.0
22
-68.28333
32
-123.20508
13
-191.9999
23
-68.28323
33
-123.20498
0
3DFACE
8
0
10
-194.0
20
-29.359116
30
-173.20508
11
-192.0
21
-31.716667
31
-173.20508
12
-193.0
22
-49.999996
32
-148.2051
13
-192.9999
23
-49.999897
33
-148.20499
0
3DFACE
8
0
10
-191.0
20
-49.999996
30
-148.2051
11
-192.0
21
-68.28333
31
-123.20508
12
-190.0
22
-65.50615
32
-123.20508
13
-189.9999
23
-65.50605
33
-123.20498
0
3DFACE
8
0
10
-192.0
20
-31.716667
30
-173.20508
11
-190.0
21
-34.49385
31
-173.20508
12
-191.0
22
-49.999996
32
-148.2051
13
-190.9999
23
-49.999897
33
-148.20499
0
3DFACE
8
0
10
-188.0
20
-36.050293
30
-173.20508
11
-190.0
21
-34.49385
31
-173.20508
12
-190.0
22
-65.50615
32
-123.20508
13
-189.9999
23
-65.50605
33
-123.20498
0
3DFACE
8
0
10
-188.0
20
-36.050293
30
-173.20508
11
-190.0
21
-65.50615
31
-123.20508
12
-188.0
22
-63.949707
32
-123.20508
13
-187.9999
23
-63.949608
33
-123.20498
0
3DFACE
8
0
10
-186.0
20
-35.706963
30
-173.20508
11
-188.0
21
-36.050293
31
-173.20508
12
-188.0
22
-63.949707
32
-123.20508
13
-187.9999
23
-63.949608
33
-123.20498
0
3DFACE
8
0
10
-186.0
20
-35.706963
30
-173.20508
11
-188.0
21
-63.949707
31
-123.20508
12
-186.0
22
-64.29304
32
-123.20508
13
-185.9999
23
-64.29294
33
-123.20498
0
3DFACE
8
0
10
-184.0
20
-34.463333
30
-173.20508
11
-186.0
21
-35.706963
31
-173.20508
12
-186.0
22
-64.29304
32
-123.20508
13
-185.9999
23
-64.29294
33
-123.20498
0
3DFACE
8
0
10
-184.0
20
-34.463333
30
-173.20508
11
-186.0
21
-64.29304
31
-123.20508
12
-184.0
22
-65.53667
32
-123.20508
13
-183.9999
23
-65.53657
33
-123.20498
0
3DFACE
8
0
10
-182.0
20
-32.517776
30
-173.20508
11
-184.0
21
-34.463333
31
-173.20508
12
-184.0
22
-65.53667
32
-123.20508
13
-183.9999
23
-65.53657
33
-123.20498
0
3DFACE
8
0
10
-182.0
20
-32.517776
30
-173.20508
11
-184.0
21
-65.53667
31
-123.20508
12
-182.0
22
-67.48222
32
-123.20508
13
-181.9999
23
-67.482124
33
-123.20498
0
3DFACE
8
0
10
-181.0
20
-49.999992
30
-148.2051
11
-182.0
21
-67.48222
31
-123.20508
12
-180.0
22
-70.3357
32
-123.20508
13
-179.9999
23
-70.3356
33
-123.20498
0
3DFACE
8
0
10
-180.0
20
-29.664299
30
-173.20508
11
-181.0
21
-49.999992
31
-148.2051
12
-182.0
22
-32.517776
32
-173.20508
13
-181.9999
23
-32.517677
33
-173.20497
0
3DFACE
8
0
10
-178.0
20
-26.833702
30
-173.20508
11
-180.0
21
-29.664299
31
-173.20508
12
-179.0
22
-50.000015
32
-148.20506
13
-178.9999
23
-49.999916
33
-148.20496
0
3DFACE
8
0
10
-179.0
20
-50.000015
30
-148.20506
11
-178.0
21
-73.1663
31
-123.20508
12
-180.0
22
-70.3357
32
-123.20508
13
-179.9999
23
-70.3356
33
-123.20498
0
3DFACE
8
0
10
-177.0
20
-49.999977
30
-148.2051
11
-178.0
21
-73.1663
31
-123.20508
12
-176.0
22
-75.584885
32
-123.20508
13
-175.9999
23
-75.584785
33
-123.20498
0
3DFACE
8
0
10
-176.0
20
-24.415115
30
-173.20508
11
-177.0
21
-49.999977
31
-148.2051
12
-178.0
22
-26.833702
32
-173.20508
13
-177.9999
23
-26.833603
33
-173.20497
0
3DFACE
8
0
10
-176.0
20
-24.415115
30
-173.20508
11
-176.0
21
-75.584885
31
-123.20508
12
-174.0
22
-77.362595
32
-123.20508
13
-173.9999
23
-77.362495
33
-123.20498
0
3DFACE
8
0
10
-176.0
20
-24.415115
30
-173.20508
11
-174.0
21
-77.362595
31
-123.20508
12
-174.0
22
-22.637405
32
-173.20508
13
-173.9999
23
-22.637306
33
-173.20497
0
3DFACE
8
0
10
-174.0
20
-22.637405
30
-173.20508
11
-174.0
21
-77.362595
31
-123.20508
12
-172.0
22
-77.84326
32
-123.20508
13
-171.9999
23
-77.84316
33
-123.20498
0
3DFACE
8
0
10
-174.0
20
-22.637405
30
-173.20508
11
-172.0
21
-77.84326
31
-123.20508
12
-172.0
22
-22.156738
32
-173.20508
13
-171.9999
23
-22.15664
33
-173.20497
0
3DFACE
8
0
10
-172.0
20
-22.156738
30
-173.20508
11
-172.0
21
-77.84326
31
-123.20508
12
-170.0
22
-77.16422
32
-123.20508
13
-169.9999
23
-77.16412
33
-123.20498
0
3DFACE
8
0
10
-172.0
20
-22.156738
30
-173.20508
11
-170.0
21
-77.16422
31
-123.20508
12
-170.0
22
-22.835777
32
-173.20508
13
-169.9999
23
-22.835678
33
-173.20497
0
3DFACE
8
0
10
-170.0
20
-22.835777
30
-173.20508
11
-170.0
21
-77.16422
31
-123.20508
12
-168.0
22
-76.11133
32
-123.20508
13
-167.9999
23
-76.11123
33
-123.20498
0
3DFACE
8
0
10
-170.0
20
-22.835777
30
-173.20508
11
-168.0
21
-76.11133
31
-123.20508
12
-168.0
22
-23.888672
32
-173.20508
13
-167.9999
23
-23.888573
33
-173.20497
0
3DFACE
8
0
10
-168.0
20
-23.888672
30
-173.20508
11
-168.0
21
-76.11133
31
-123.20508
12
-166.0
22
-74.48622
32
-123.20508
13
-165.9999
23
-74.48612
33
-123.20498
0
3DFACE
8
0
10
-168.0
20
-23.888672
30
-173.20508
11
-166.0
21
-74.48622
31
-123.20508
12
-166.0
22
-25.513779
32
-173.20508
13
-165.9999
23
-25.51368
33
-173.20497
0
3DFACE
8
0
10
-166.0
20
-25.513779
30
-173.20508
11
-165.0
21
-50.000008
31
-148.20506
12
-164.0
22
-28.214668
32
-173.20508
13
-163.9999
23
-28.21457
33
-173.20497
0
3DFACE
8
0
10
-165.0
20
-50.000008
30
-148.20506
11
-164.0
21
-71.78533
31
-123.20508
12
-166.0
22
-74.48622
32
-123.20508
13
-165.9999
23
-74.48612
33
-123.20498
0
3DFACE
8
0
10
-163.0
20
-49.999985
30
-148.2051
11
-164.0
21
-71.78533
31
-123.20508
12
-162.0
22
-68.93948
32
-123.20508
13
-161.9999
23
-68.939384
33
-123.20498
0
3DFACE
8
0
10
-164.0
20
-28.214668
30
-173.20508
11
-162.0
21
-31.060516
31
-173.20508
12
-163.0
22
-49.999985
32
-148.2051
13
-162.9999
23
-49.999886
33
-148.20499
0
3DFACE
8
0
10
-162.0
20
-31.060516
30
-173.20508
11
-161.0
21
-50.000008
31
-148.20506
12
-160.0
22
-33.47911
32
-173.20508
13
-159.9999
23
-33.47901
33
-173.20497
0
3DFACE
8
0
10
-161.0
20
-50.000008
30
-148.20506
11
-160.0
21
-66.52089
31
-123.20508
12
-162.0
22
-68.93948
32
-123.20508
13
-161.9999
23
-68.939384
33
-123.20498
0
3DFACE
8
0
10
-158.0
20
-35.325478
30
-173.20508
11
-160.0
21
-33.47911
31
-173.20508
12
-160.0
22
-66.52089
32
-123.20508
13
-159.9999
23
-66.52079
33
-123.20498
0
3DFACE
8
0
10
-158.0
20
-35.325478
30
-173.20508
11
-160.0
21
-66.52089
31
-123.20508
12
-158.0
22
-64.67452
32
-123.20508
13
-157.9999
23
-64.67442
33
-123.20498
0
3DFACE
8
0
10
-156.0
20
-35.882446
30
-173.20508
11
-158.0
21
-35.325478
31
-173.20508
12
-158.0
22
-64.67452
32
-123.20508
13
-157.9999
23
-64.67442
33
-123.20498
0
3DFACE
8
0
10
-156.0
20
-35.882446
30
-173.20508
11
-158.0
21
-64.67452
31
-123.20508
12
-156.0
22
-64.11755
32
-123.20508
13
-155.9999
23
-64.117455
33
-123.20498
0
3DFACE
8
0
10
-154.0
20
-34.95926
30
-173.20508
11
-156.0
21
-35.882446
31
-173.20508
12
-156.0
22
-64.11755
32
-123.20508
13
-155.9999
23
-64.117455
33
-123.20498
0
3DFACE
8
0
10
-154.0
20
-34.95926
30
-173.20508
11
-156.0
21
-64.11755
31
-123.20508
12
-154.0
22
-65.04074
32
-123.20508
13
-153.9999
23
-65.04064
33
-123.20498
0
3DFACE
8
0
10
-152.0
20
-33.02133
30
-173.20508
11
-154.0
21
-34.95926
31
-173.20508
12
-154.0
22
-65.04074
32
-123.20508
13
-153.9999
23
-65.04064
33
-123.20498
0
3DFACE
8
0
10
-152.0
20
-33.02133
30
-173.20508
11
-154.0
21
-65.04074
31
-123.20508
12
-152.0
22
-66.97867
32
-123.20508
13
-151.9999
23
-66.97857
33
-123.20498
0
3DFACE
8
0
10
-150.0
20
-30.633255
30
-173.20508
11
-152.0
21
-33.02133
31
-173.20508
12
-151.0
22
-50.00001
32
-148.20506
13
-150.9999
23
-49.999912
33
-148.20496
0
3DFACE
8
0
10
-151.0
20
-50.00001
30
-148.20506
11
-150.0
21
-69.366745
31
-123.20508
12
-152.0
22
-66.97867
32
-123.20508
13
-151.9999
23
-66.97857
33
-123.20498
0
3DFACE
8
0
10
-149.0
20
-49.999992
30
-148.2051
11
-150.0
21
-69.366745
31
-123.20508
12
-148.0
22
-72.182076
32
-123.20508
13
-147.9999
23
-72.18198
33
-123.20498
0
3DFACE
8
0
10
-148.0
20
-27.817924
30
-173.20508
11
-149.0
21
-49.999992
31
-148.2051
12
-150.0
22
-30.633255
32
-173.20508
13
-149.9999
23
-30.633156
33
-173.20497
0
3DFACE
8
0
10
-147.0
20
-49.999973
30
-148.20511
11
-148.0
21
-72.182076
31
-123.20508
12
-146.0
22
-74.63118
32
-123.20508
13
-145.9999
23
-74.63108
33
-123.20498
0
3DFACE
8
0
10
-146.0
20
-25.36882
30
-173.20508
11
-147.0
21
-49.999973
31
-148.20511
12
-148.0
22
-27.817924
32
-173.20508
13
-147.9999
23
-27.817825
33
-173.20497
0
3DFACE
8
0
10
-146.0
20
-25.36882
30
-173.20508
11
-146.0
21
-74.63118
31
-123.20508
12
-144.0
22
-76.30207
32
-123.20508
13
-143.9999
23
-76.30197
33
-123.20498
0
3DFACE
8
0
10
-146.0
20
-25.36882
30
-173.20508
11
-144.0
21
-76.30207
31
-123.20508
12
-144.0
22
-23.69793
32
-173.20508
13
-143.9999
23
-23.69783
33
-173.20497
0
3DFACE
8
0
10
-144.0
20
-23.69793
30
-173.20508
11
-144.0
21
-76.30207
31
-123.20508
12
-142.0
22
-77.20237
32
-123.20508
13
-141.9999
23
-77.20227
33
-123.20498
0
3DFACE
8
0
10
-144.0
20
-23.69793
30
-173.20508
11
-142.0
21
-77.20237
31
-123.20508
12
-142.0
22
-22.79763
32
-173.20508
13
-141.9999
23
-22.797531
33
-173.20497
0
3DFACE
8
0
10
-142.0
20
-22.79763
30
-173.20508
11
-142.0
21
-77.20237
31
-123.20508
12
-140.0
22
-77.24052
32
-123.20508
13
-139.9999
23
-77.24042
33
-123.20498
0
3DFACE
8
0
10
-142.0
20
-22.79763
30
-173.20508
11
-140.0
21
-77.24052
31
-123.20508
12
-140.0
22
-22.759483
32
-173.20508
13
-139.9999
23
-22.759384
33
-173.20497
0
3DFACE
8
0
10
-140.0
20
-22.759483
30
-173.20508
11
-140.0
21
-77.24052
31
-123.20508
12
-138.0
22
-76.027405
32
-123.20508
13
-137.9999
23
-76.027306
33
-123.20498
0
3DFACE
8
0
10
-140.0
20
-22.759483
30
-173.20508
11
-138.0
21
-76.027405
31
-123.20508
12
-138.0
22
-23.972595
32
-173.20508
13
-137.9999
23
-23.972496
33
-173.20497
0
3DFACE
8
0
10
-138.0
20
-23.972595
30
-173.20508
11
-138.0
21
-76.027405
31
-123.20508
12
-136.0
22
-74.219185
32
-123.20508
13
-135.9999
23
-74.219086
33
-123.20498
0
3DFACE
8
0
10
-138.0
20
-23.972595
30
-173.20508
11
-136.0
21
-74.219185
31
-123.20508
12
-136.0
22
-25.780815
32
-173.20508
13
-135.9999
23
-25.780716
33
-173.20497
0
3DFACE
8
0
10
-135.0
20
-49.999992
30
-148.2051
11
-136.0
21
-74.219185
31
-123.20508
12
-134.0
22
-71.92267
32
-123.20508
13
-133.9999
23
-71.92257
33
-123.20498
0
3DFACE
8
0
10
-136.0
20
-25.780815
30
-173.20508
11
-134.0
21
-28.077332
31
-173.20508
12
-135.0
22
-49.999992
32
-148.2051
13
-134.9999
23
-49.999893
33
-148.20499
0
3DFACE
8
0
10
-134.0
20
-28.077332
30
-173.20508
11
-133.0
21
-50.000015
31
-148.20506
12
-132.0
22
-30.67141
32
-173.20508
13
-131.9999
23
-30.67131
33
-173.20497
0
3DFACE
8
0
10
-133.0
20
-50.000015
30
-148.20506
11
-132.0
21
-69.32859
31
-123.20508
12
-134.0
22
-71.92267
32
-123.20508
13
-133.9999
23
-71.92257
33
-123.20498
0
3DFACE
8
0
10
-131.0
20
-49.999992
30
-148.2051
11
-132.0
21
-69.32859
31
-123.20508
12
-130.0
22
-66.52852
32
-123.20508
13
-129.9999
23
-66.52842
33
-123.20498
0
3DFACE
8
0
10
-132.0
20
-30.67141
30
-173.20508
11
-130.0
21
-33.47148
31
-173.20508
12
-131.0
22
-49.999992
32
-148.2051
13
-130.9999
23
-49.999893
33
-148.20499
0
3DFACE
8
0
10
-130.0
20
-33.47148
30
-173.20508
11
-129.0
21
-50.0
31
-148.20508
12
-128.0
22
-35.584885
32
-173.20508
13
-127.9999
23
-35.584785
33
-173.20497
0
3DFACE
8
0
10
-129.0
20
-50.0
30
-148.20508
11
-128.0
21
-64.415115
31
-123.20508
12
-130.0
22
-66.52852
32
-123.20508
13
-129.9999
23
-66.52842
33
-123.20498
0
3DFACE
8
0
10
-126.0
20
-36.408886
30
-173.20508
11
-128.0
21
-35.584885
31
-173.20508
12
-128.0
22
-64.415115
32
-123.20508
13
-127.9999
23
-64.415016
33
-123.20498
0
3DFACE
8
0
10
-126.0
20
-36.408886
30
-173.20508
11
-128.0
21
-64.415115
31
-123.20508
12
-126.0
22
-63.591114
32
-123.20508
13
-125.9999
23
-63.591015
33
-123.20498
0
3DFACE
8
0
10
-124.0
20
-35.73748
30
-173.20508
11
-126.0
21
-36.408886
31
-173.20508
12
-126.0
22
-63.591114
32
-123.20508
13
-125.9999
23
-63.591015
33
-123.20498
0
3DFACE
8
0
10
-124.0
20
-35.73748
30
-173.20508
11
-126.0
21
-63.591114
31
-123.20508
12
-124.0
22
-64.26252
32
-123.20508
13
-123.9999
23
-64.26242
33
-123.20498
0
3DFACE
8
0
10
-122.0
20
-34.318367
30
-173.20508
11
-124.0
21
-35.73748
31
-173.20508
12
-124.0
22
-64.26252
32
-123.20508
13
-123.9999
23
-64.26242
33
-123.20498
0
3DFACE
8
0
10
-122.0
20
-34.318367
30
-173.20508
11
-124.0
21
-64.26252
31
-123.20508
12
-122.0
22
-65.68163
32
-123.20508
13
-121.9999
23
-65.68153
33
-123.20498
0
3DFACE
8
0
10
-121.0
20
-49.999996
30
-148.2051
11
-122.0
21
-65.68163
31
-123.20508
12
-120.0
22
-68.05444
32
-123.20508
13
-119.9999
23
-68.054344
33
-123.20498
0
3DFACE
8
0
10
-120.0
20
-31.945557
30
-173.20508
11
-121.0
21
-49.999996
31
-148.2051
12
-122.0
22
-34.318367
32
-173.20508
13
-121.9999
23
-34.318268
33
-173.20497
0
3DFACE
8
0
10
-118.0
20
-29.046295
30
-173.20508
11
-120.0
21
-31.945557
31
-173.20508
12
-119.0
22
-50.00001
32
-148.20506
13
-118.9999
23
-49.999912
33
-148.20496
0
3DFACE
8
0
10
-119.0
20
-50.00001
30
-148.20506
11
-118.0
21
-70.953705
31
-123.20508
12
-120.0
22
-68.05444
32
-123.20508
13
-119.9999
23
-68.054344
33
-123.20498
0
3DFACE
8
0
10
-117.0
20
-49.999992
30
-148.2051
11
-118.0
21
-70.953705
31
-123.20508
12
-116.0
22
-73.52489
32
-123.20508
13
-115.9999
23
-73.52479
33
-123.20498
0
3DFACE
8
0
10
-116.0
20
-26.475113
30
-173.20508
11
-117.0
21
-49.999992
31
-148.2051
12
-118.0
22
-29.046295
32
-173.20508
13
-117.9999
23
-29.046196
33
-173.20497
0
3DFACE
8
0
10
-116.0
20
-26.475113
30
-173.20508
11
-116.0
21
-73.52489
31
-123.20508
12
-114.0
22
-75.4323
32
-123.20508
13
-113.9999
23
-75.4322
33
-123.20498
0
3DFACE
8
0
10
-116.0
20
-26.475113
30
-173.20508
11
-114.0
21
-75.4323
31
-123.20508
12
-114.0
22
-24.567703
32
-173.20508
13
-113.9999
23
-24.567604
33
-173.20497
0
3DFACE
8
0
10
-114.0
20
-24.567703
30
-173.20508
11
-114.0
21
-75.4323
31
-123.20508
12
-112.0
22
-76.86667
32
-123.20508
13
-111.9999
23
-76.86657
33
-123.20498
0
3DFACE
8
0
10
-114.0
20
-24.567703
30
-173.20508
11
-112.0
21
-76.86667
31
-123.20508
12
-112.0
22
-23.133331
32
-173.20508
13
-111.9999
23
-23.133232
33
-173.20497
0
3DFACE
8
0
10
-112.0
20
-23.133331
30
-173.20508
11
-112.0
21
-76.86667
31
-123.20508
12
-110.0
22
-76.83615
32
-123.20508
13
-109.9999
23
-76.83605
33
-123.20498
0
3DFACE
8
0
10
-112.0
20
-23.133331
30
-173.20508
11
-110.0
21
-76.83615
31
-123.20508
12
-110.0
22
-23.163849
32
-173.20508
13
-109.9999
23
-23.16375
33
-173.20497
0
3DFACE
8
0
10
-110.0
20
-23.163849
30
-173.20508
11
-110.0
21
-76.83615
31
-123.20508
12
-108.0
22
-75.69933
32
-123.20508
13
-107.9999
23
-75.699234
33
-123.20498
0
3DFACE
8
0
10
-110.0
20
-23.163849
30
-173.20508
11
-108.0
21
-75.69933
31
-123.20508
12
-108.0
22
-24.300667
32
-173.20508
13
-107.9999
23
-24.300568
33
-173.20497
0
3DFACE
8
0
10
-108.0
20
-24.300667
30
-173.20508
11
-108.0
21
-75.69933
31
-123.20508
12
-106.0
22
-74.01318
32
-123.20508
13
-105.9999
23
-74.013084
33
-123.20498
0
3DFACE
8
0
10
-108.0
20
-24.300667
30
-173.20508
11
-106.0
21
-74.01318
31
-123.20508
12
-106.0
22
-25.986816
32
-173.20508
13
-105.9999
23
-25.986717
33
-173.20497
0
3DFACE
8
0
10
-106.0
20
-25.986816
30
-173.20508
11
-105.0
21
-50.0
31
-148.20508
12
-104.0
22
-28.237556
32
-173.20508
13
-103.9999
23
-28.237457
33
-173.20497
0
3DFACE
8
0
10
-105.0
20
-50.0
30
-148.20508
11
-104.0
21
-71.76244
31
-123.20508
12
-106.0
22
-74.01318
32
-123.20508
13
-105.9999
23
-74.013084
33
-123.20498
0
3DFACE
8
0
10
-104.0
20
-28.237556
30
-173.20508
11
-103.0
21
-50.0
31
-148.20508
12
-102.0
22
-31.029999
32
-173.20508
13
-101.9999
23
-31.0299
33
-173.20497
0
3DFACE
8
0
10
-103.0
20
-50.0
30
-148.20508
11
-102.0
21
-68.97
31
-123.20508
12
-104.0
22
-71.76244
32
-123.20508
13
-103.9999
23
-71.762344
33
-123.20498
0
3DFACE
8
0
10
-102.0
20
-31.029999
30
-173.20508
11
-101.0
21
-50.0
31
-148.20508
12
-100.0
22
-33.49437
32
-173.20508
13
-99.9999
23
-33.49427
33
-173.20497
0
3DFACE
8
0
10
-101.0
20
-50.0
30
-148.20508
11
-100.0
21
-66.50563
31
-123.20508
12
-102.0
22
-68.97
32
-123.20508
13
-101.9999
23
-68.9699
33
-123.20498
0
3DFACE
8
0
10
-100.0
20
-33.49437
30
-173.20508
11
-99.0
21
-50.0
31
-148.20508
12
-98.0
22
-35.75274
32
-173.20508
13
-97.9999
23
-35.75264
33
-173.20497
0
3DFACE
8
0
10
-99.0
20
-50.0
30
-148.20508
11
-98.0
21
-64.24726
31
-123.20508
12
-100.0
22
-66.50563
32
-123.20508
13
-99.9999
23
-66.50553
33
-123.20498
0
3DFACE
8
0
10
-96.0
20
-36.721703
30
-173.20508
11
-98.0
21
-35.75274
31
-173.20508
12
-98.0
22
-64.24726
32
-123.20508
13
-97.9999
23
-64.24716
33
-123.20498
0
3DFACE
8
0
10
-96.0
20
-36.721703
30
-173.20508
11
-98.0
21
-64.24726
31
-123.20508
12
-96.0
22
-63.278297
32
-123.20508
13
-95.9999
23
-63.2782
33
-123.20498
0
3DFACE
8
0
10
-94.0
20
-36.241035
30
-173.20508
11
-96.0
21
-36.721703
31
-173.20508
12
-96.0
22
-63.278297
32
-123.20508
13
-95.9999
23
-63.2782
33
-123.20498
0
3DFACE
8
0
10
-94.0
20
-36.241035
30
-173.20508
11
-96.0
21
-63.278297
31
-123.20508
12
-94.0
22
-63.758965
32
-123.20508
13
-93.9999
23
-63.758865
33
-123.20498
0
3DFACE
8
0
10
-92.0
20
-34.852448
30
-173.20508
11
-94.0
21
-36.241035
31
-173.20508
12
-94.0
22
-63.758965
32
-123.20508
13
-93.9999
23
-63.758865
33
-123.20498
0
3DFACE
8
0
10
-92.0
20
-34.852448
30
-173.20508
11
-94.0
21
-63.758965
31
-123.20508
12
-92.0
22
-65.14755
32
-123.20508
13
-91.9999
23
-65.14745
33
-123.20498
0
3DFACE
8
0
10
-90.0
20
-32.761925
30
-173.20508
11
-92.0
21
-34.852448
31
-173.20508
12
-91.0
22
-50.000015
32
-148.20505
13
-90.9999
23
-49.999916
33
-148.20494
0
3DFACE
8
0
10
-91.0
20
-50.000015
30
-148.20505
11
-90.0
21
-67.238075
31
-123.20508
12
-92.0
22
-65.14755
32
-123.20508
13
-91.9999
23
-65.14745
33
-123.20498
0
3DFACE
8
0
10
-89.0
20
-49.999992
30
-148.2051
11
-90.0
21
-67.238075
31
-123.20508
12
-88.0
22
-70.03815
32
-123.20508
13
-87.9999
23
-70.03805
33
-123.20498
0
3DFACE
8
0
10
-88.0
20
-29.961853
30
-173.20508
11
-89.0
21
-49.999992
31
-148.2051
12
-90.0
22
-32.761925
32
-173.20508
13
-89.9999
23
-32.761826
33
-173.20497
0
3DFACE
8
0
10
-86.0
20
-27.566147
30
-173.20508
11
-88.0
21
-29.961853
31
-173.20508
12
-87.0
22
-50.000015
32
-148.20506
13
-86.9999
23
-49.999916
33
-148.20496
0
3DFACE
8
0
10
-87.0
20
-50.000015
30
-148.20506
11
-86.0
21
-72.43385
31
-123.20508
12
-88.0
22
-70.03815
32
-123.20508
13
-87.9999
23
-70.03805
33
-123.20498
0
3DFACE
8
0
10
-84.0
20
-25.597702
30
-173.20508
11
-86.0
21
-27.566147
31
-173.20508
12
-86.0
22
-72.43385
32
-123.20508
13
-85.9999
23
-72.433754
33
-123.20498
0
3DFACE
8
0
10
-84.0
20
-25.597702
30
-173.20508
11
-86.0
21
-72.43385
31
-123.20508
12
-84.0
22
-74.4023
32
-123.20508
13
-83.9999
23
-74.4022
33
-123.20498
0
3DFACE
8
0
10
-84.0
20
-25.597702
30
-173.20508
11
-84.0
21
-74.4023
31
-123.20508
12
-82.0
22
-75.77563
32
-123.20508
13
-81.9999
23
-75.77553
33
-123.20498
0
3DFACE
8
0
10
-84.0
20
-25.597702
30
-173.20508
11
-82.0
21
-75.77563
31
-123.20508
12
-82.0
22
-24.224373
32
-173.20508
13
-81.9999
23
-24.224274
33
-173.20497
0
3DFACE
8
0
10
-82.0
20
-24.224373
30
-173.20508
11
-82.0
21
-75.77563
31
-123.20508
12
-80.0
22
-76.21052
32
-123.20508
13
-79.9999
23
-76.21042
33
-123.20498
0
3DFACE
8
0
10
-82.0
20
-24.224373
30
-173.20508
11
-80.0
21
-76.21052
31
-123.20508
12
-80.0
22
-23.789482
32
-173.20508
13
-79.9999
23
-23.789383
33
-173.20497
0
3DFACE
8
0
10
-80.0
20
-23.789482
30
-173.20508
11
-80.0
21
-76.21052
31
-123.20508
12
-78.0
22
-75.47044
32
-123.20508
13
-77.9999
23
-75.470345
33
-123.20498
0
3DFACE
8
0
10
-80.0
20
-23.789482
30
-173.20508
11
-78.0
21
-75.47044
31
-123.20508
12
-78.0
22
-24.529556
32
-173.20508
13
-77.9999
23
-24.529457
33
-173.20497
0
3DFACE
8
0
10
-78.0
20
-24.529556
30
-173.20508
11
-78.0
21
-75.47044
31
-123.20508
12
-76.0
22
-74.10474
32
-123.20508
13
-75.9999
23
-74.10464
33
-123.20498
0
3DFACE
8
0
10
-78.0
20
-24.529556
30
-173.20508
11
-76.0
21
-74.10474
31
-123.20508
12
-76.0
22
-25.895264
32
-173.20508
13
-75.9999
23
-25.895164
33
-173.20497
0
3DFACE
8
0
10
-74.0
20
-27.764519
30
-173.20508
11
-76.0
21
-25.895264
31
-173.20508
12
-76.0
22
-74.10474
32
-123.20508
13
-75.9999
23
-74.10464
33
-123.20498
0
3DFACE
8
0
10
-74.0
20
-27.764519
30
-173.20508
11
-76.0
21
-74.10474
31
-123.20508
12
-74.0
22
-72.23548
32
-123.20508
13
-73.9999
23
-72.23538
33
-123.20498
0
3DFACE
8
0
10
-74.0
20
-27.764519
30
-173.20508
11
-73.0
21
-50.0
31
-148.20508
12
-72.0
22
-30.22889
32
-173.20508
13
-71.9999
23
-30.22879
33
-173.20497
0
3DFACE
8
0
10
-73.0
20
-50.0
30
-148.20508
11
-72.0
21
-69.77111
31
-123.20508
12
-74.0
22
-72.23548
32
-123.20508
13
-73.9999
23
-72.23538
33
-123.20498
0
3DFACE
8
0
10
-72.0
20
-30.22889
30
-173.20508
11
-71.0
21
-50.0
31
-148.20508
12
-70.0
22
-32.777184
32
-173.20508
13
-69.9999
23
-32.777084
33
-173.20497
0
3DFACE
8
0
10
-71.0
20
-50.0
30
-148.20508
11
-70.0
21
-67.22282
31
-123.20508
12
-72.0
22
-69.77111
32
-123.20508
13
-71.9999
23
-69.77101
33
-123.20498
0
3DFACE
8
0
10
-69.0
20
-49.999985
30
-148.2051
11
-70.0
21
-67.22282
31
-123.20508
12
-68.0
22
-64.90341
32
-123.20508
13
-67.9999
23
-64.90331
33
-123.20498
0
3DFACE
8
0
10
-70.0
20
-32.777184
30
-173.20508
11
-68.0
21
-35.09659
31
-173.20508
12
-69.0
22
-49.999985
32
-148.2051
13
-68.9999
23
-49.999886
33
-148.20499
0
3DFACE
8
0
10
-66.0
20
-36.691185
30
-173.20508
11
-68.0
21
-35.09659
31
-173.20508
12
-68.0
22
-64.90341
32
-123.20508
13
-67.9999
23
-64.90331
33
-123.20498
0
3DFACE
8
0
10
-66.0
20
-36.691185
30
-173.20508
11
-68.0
21
-64.90341
31
-123.20508
12
-66.0
22
-63.308815
32
-123.20508
13
-65.9999
23
-63.308716
33
-123.20498
0
3DFACE
8
0
10
-64.0
20
-36.691185
30
-173.20508
11
-66.0
21
-36.691185
31
-173.20508
12
-66.0
22
-63.308815
32
-123.20508
13
-65.9999
23
-63.308716
33
-123.20498
0
3DFACE
8
0
10
-64.0
20
-36.691185
30
-173.20508
11
-66.0
21
-63.308815
31
-123.20508
12
-64.0
22
-63.308815
32
-123.20508
13
-63.9999
23
-63.308716
33
-123.20498
0
3DFACE
8
0
10
-62.0
20
-35.478073
30
-173.20508
11
-64.0
21
-36.691185
31
-173.20508
12
-64.0
22
-63.308815
32
-123.20508
13
-63.9999
23
-63.308716
33
-123.20498
0
3DFACE
8
0
10
-62.0
20
-35.478073
30
-173.20508
11
-64.0
21
-63.308815
31
-123.20508
12
-62.0
22
-64.52193
32
-123.20508
13
-61.9999
23
-64.52183
33
-123.20498
0
3DFACE
8
0
10
-60.0
20
-33.61644
30
-173.20508
11
-62.0
21
-35.478073
31
-173.20508
12
-62.0
22
-64.52193
32
-123.20508
13
-61.9999
23
-64.52183
33
-123.20498
0
3DFACE
8
0
10
-60.0
20
-33.61644
30
-173.20508
11
-62.0
21
-64.52193
31
-123.20508
12
-60.0
22
-66.38356
32
-123.20508
13
-59.9999
23
-66.38346
33
-123.20498
0
3DFACE
8
0
10
-59.0
20
-49.99998
30
-148.20511
11
-60.0
21
-66.38356
31
-123.20508
12
-58.0
22
-69.06918
32
-123.20508
13
-57.9999
23
-69.069084
33
-123.20498
0
3DFACE
8
0
10
-58.0
20
-30.930817
30
-173.20508
11
-59.0
21
-49.99998
31
-148.20511
12
-60.0
22
-33.61644
32
-173.20508
13
-59.9999
23
-33.61634
33
-173.20497
0
3DFACE
8
0
10
-56.0
20
-28.32148
30
-173.20508
11
-58.0
21
-30.930817
31
-173.20508
12
-57.0
22
-50.000015
32
-148.20506
13
-56.9999
23
-49.999916
33
-148.20496
0
3DFACE
8
0
10
-57.0
20
-50.000015
30
-148.20506
11
-56.0
21
-71.67852
31
-123.20508
12
-58.0
22
-69.06918
32
-123.20508
13
-57.9999
23
-69.069084
33
-123.20498
0
3DFACE
8
0
10
-55.0
20
-49.99999
30
-148.2051
11
-56.0
21
-71.67852
31
-123.20508
12
-54.0
22
-73.75378
32
-123.20508
13
-53.9999
23
-73.75368
33
-123.20498
0
3DFACE
8
0
10
-54.0
20
-26.246223
30
-173.20508
11
-55.0
21
-49.99999
31
-148.2051
12
-56.0
22
-28.32148
32
-173.20508
13
-55.9999
23
-28.32138
33
-173.20497
0
3DFACE
8
0
10
-54.0
20
-26.246223
30
-173.20508
11
-54.0
21
-73.75378
31
-123.20508
12
-52.0
22
-75.38652
32
-123.20508
13
-51.9999
23
-75.38642
33
-123.20498
0
3DFACE
8
0
10
-54.0
20
-26.246223
30
-173.20508
11
-52.0
21
-75.38652
31
-123.20508
12
-52.0
22
-24.61348
32
-173.20508
13
-51.9999
23
-24.61338
33
-173.20497
0
3DFACE
8
0
10
-52.0
20
-24.61348
30
-173.20508
11
-52.0
21
-75.38652
31
-123.20508
12
-50.0
22
-76.07318
32
-123.20508
13
-49.9999
23
-76.07308
33
-123.20498
0
3DFACE
8
0
10
-52.0
20
-24.61348
30
-173.20508
11
-50.0
21
-76.07318
31
-123.20508
12
-50.0
22
-23.926819
32
-173.20508
13
-49.9999
23
-23.92672
33
-173.20497
0
3DFACE
8
0
10
-50.0
20
-23.926819
30
-173.20508
11
-50.0
21
-76.07318
31
-123.20508
12
-48.0
22
-75.584885
32
-123.20508
13
-47.9999
23
-75.584785
33
-123.20498
0
3DFACE
8
0
10
-50.0
20
-23.926819
30
-173.20508
11
-48.0
21
-75.584885
31
-123.20508
12
-48.0
22
-24.415115
32
-173.20508
13
-47.9999
23
-24.415016
33
-173.20497
0
3DFACE
8
0
10
-48.0
20
-24.415115
30
-173.20508
11
-48.0
21
-75.584885
31
-123.20508
12
-46.0
22
-74.34889
32
-123.20508
13
-45.9999
23
-74.34879
33
-123.20498
0
3DFACE
8
0
10
-48.0
20
-24.415115
30
-173.20508
11
-46.0
21
-74.34889
31
-123.20508
12
-46.0
22
-25.651108
32
-173.20508
13
-45.9999
23
-25.651009
33
-173.20497
0
3DFACE
8
0
10
-44.0
20
-27.428818
30
-173.20508
11
-46.0
21
-25.651108
31
-173.20508
12
-46.0
22
-74.34889
32
-123.20508
13
-45.9999
23
-74.34879
33
-123.20498
0
3DFACE
8
0
10
-44.0
20
-27.428818
30
-173.20508
11
-46.0
21
-74.34889
31
-123.20508
12
-44.0
22
-72.57118
32
-123.20508
13
-43.9999
23
-72.57108
33
-123.20498
0
3DFACE
8
0
10
-43.0
20
-49.999992
30
-148.2051
11
-44.0
21
-72.57118
31
-123.20508
12
-42.0
22
-69.97711
32
-123.20508
13
-41.9999
23
-69.97701
33
-123.20498
0
3DFACE
8
0
10
-44.0
20
-27.428818
30
-173.20508
11
-42.0
21
-30.022888
31
-173.20508
12
-43.0
22
-49.999992
32
-148.2051
13
-42.9999
23
-49.999893
33
-148.20499
0
3DFACE
8
0
10
-42.0
20
-30.022888
30
-173.20508
11
-41.0
21
-50.0
31
-148.20508
12
-40.0
22
-32.571182
32
-173.20508
13
-39.9999
23
-32.571083
33
-173.20497
0
3DFACE
8
0
10
-41.0
20
-50.0
30
-148.20508
11
-40.0
21
-67.42882
31
-123.20508
12
-42.0
22
-69.97711
32
-123.20508
13
-41.9999
23
-69.97701
33
-123.20498
0
3DFACE
8
0
10
-40.0
20
-32.571182
30
-173.20508
11
-39.0
21
-50.0
31
-148.20508
12
-38.0
22
-34.821922
32
-173.20508
13
-37.9999
23
-34.821823
33
-173.20497
0
3DFACE
8
0
10
-39.0
20
-50.0
30
-148.20508
11
-38.0
21
-65.17808
31
-123.20508
12
-40.0
22
-67.42882
32
-123.20508
13
-39.9999
23
-67.42872
33
-123.20498
0
3DFACE
8
0
10
-36.0
20
-36.37837
30
-173.20508
11
-38.0
21
-34.821922
31
-173.20508
12
-38.0
22
-65.17808
32
-123.20508
13
-37.9999
23
-65.17798
33
-123.20498
0
3DFACE
8
0
10
-36.0
20
-36.37837
30
-173.20508
11
-38.0
21
-65.17808
31
-123.20508
12
-36.0
22
-63.62163
32
-123.20508
13
-35.9999
23
-63.621532
33
-123.20498
0
3DFACE
8
0
10
-34.0
20
-36.576736
30
-173.20508
11
-36.0
21
-36.37837
31
-173.20508
12
-36.0
22
-63.62163
32
-123.20508
13
-35.9999
23
-63.621532
33
-123.20498
0
3DFACE
8
0
10
-34.0
20
-36.576736
30
-173.20508
11
-36.0
21
-63.62163
31
-123.20508
12
-34.0
22
-63.423264
32
-123.20508
13
-33.9999
23
-63.423164
33
-123.20498
0
3DFACE
8
0
10
-32.0
20
-35.470444
30
-173.20508
11
-34.0
21
-36.576736
31
-173.20508
12
-34.0
22
-63.423264
32
-123.20508
13
-33.9999
23
-63.423164
33
-123.20498
0
3DFACE
8
0
10
-32.0
20
-35.470444
30
-173.20508
11
-34.0
21
-63.423264
31
-123.20508
12
-32.0
22
-64.52956
32
-123.20508
13
-31.9999
23
-64.52946
33
-123.20498
0
3DFACE
8
0
10
-30.0
20
-33.83007
30
-173.20508
11
-32.0
21
-35.470444
31
-173.20508
12
-32.0
22
-64.52956
32
-123.20508
13
-31.9999
23
-64.52946
33
-123.20498
0
3DFACE
8
0
10
-30.0
20
-33.83007
30
-173.20508
11
-32.0
21
-64.52956
31
-123.20508
12
-30.0
22
-66.16993
32
-123.20508
13
-29.9999
23
-66.16983
33
-123.20498
0
3DFACE
8
0
10
-29.0
20
-49.99999
30
-148.2051
11
-30.0
21
-66.16993
31
-123.20508
12
-28.0
22
-68.63429
32
-123.20508
13
-27.9999
23
-68.63419
33
-123.20498
0
3DFACE
8
0
10
-28.0
20
-31.365707
30
-173.20508
11
-29.0
21
-49.99999
31
-148.2051
12
-30.0
22
-33.83007
32
-173.20508
13
-29.9999
23
-33.82997
33
-173.20497
0
3DFACE
8
0
10
-26.0
20
-28.794518
30
-173.20508
11
-28.0
21
-31.365707
31
-173.20508
12
-27.0
22
-50.000023
32
-148.20505
13
-26.9999
23
-49.999924
33
-148.20494
0
3DFACE
8
0
10
-27.0
20
-50.000023
30
-148.20505
11
-26.0
21
-71.20548
31
-123.20508
12
-28.0
22
-68.63429
32
-123.20508
13
-27.9999
23
-68.63419
33
-123.20498
0
3DFACE
8
0
10
-24.0
20
-26.64296
30
-173.20508
11
-26.0
21
-28.794518
31
-173.20508
12
-25.0
22
-50.000008
32
-148.20506
13
-24.9999
23
-49.99991
33
-148.20496
0
3DFACE
8
0
10
-25.0
20
-50.000008
30
-148.20506
11
-24.0
21
-73.35704
31
-123.20508
12
-26.0
22
-71.20548
32
-123.20508
13
-25.9999
23
-71.20538
33
-123.20498
0
3DFACE
8
0
10
-24.0
20
-26.64296
30
-173.20508
11
-24.0
21
-73.35704
31
-123.20508
12
-22.0
22
-75.18052
32
-123.20508
13
-21.9999
23
-75.18042
33
-123.20498
0
3DFACE
8
0
10
-24.0
20
-26.64296
30
-173.20508
11
-22.0
21
-75.18052
31
-123.20508
12
-22.0
22
-24.81948
32
-173.20508
13
-21.9999
23
-24.819382
33
-173.20497
0
3DFACE
8
0
10
-22.0
20
-24.81948
30
-173.20508
11
-22.0
21
-75.18052
31
-123.20508
12
-20.0
22
-76.17237
32
-123.20508
13
-19.9999
23
-76.17227
33
-123.20498
0
3DFACE
8
0
10
-22.0
20
-24.81948
30
-173.20508
11
-20.0
21
-76.17237
31
-123.20508
12
-20.0
22
-23.82763
32
-173.20508
13
-19.9999
23
-23.82753
33
-173.20497
0
3DFACE
8
0
10
-20.0
20
-23.82763
30
-173.20508
11
-20.0
21
-76.17237
31
-123.20508
12
-18.0
22
-76.18763
32
-123.20508
13
-17.9999
23
-76.18753
33
-123.20498
0
3DFACE
8
0
10
-20.0
20
-23.82763
30
-173.20508
11
-18.0
21
-76.18763
31
-123.20508
12
-18.0
22
-23.81237
32
-173.20508
13
-17.9999
23
-23.812271
33
-173.20497
0
3DFACE
8
0
10
-18.0
20
-23.81237
30
-173.20508
11
-18.0
21
-76.18763
31
-123.20508
12
-16.0
22
-75.31022
32
-123.20508
13
-15.9999
23
-75.31012
33
-123.20498
0
3DFACE
8
0
10
-18.0
20
-23.81237
30
-173.20508
11
-16.0
21
-75.31022
31
-123.20508
12
-16.0
22
-24.689781
32
-173.20508
13
-15.9999
23
-24.689682
33
-173.20497
0
3DFACE
8
0
10
-16.0
20
-24.689781
30
-173.20508
11
-16.0
21
-75.31022
31
-123.20508
12
-14.0
22
-73.60118
32
-123.20508
13
-13.9999
23
-73.60108
33
-123.20498
0
3DFACE
8
0
10
-16.0
20
-24.689781
30
-173.20508
11
-14.0
21
-73.60118
31
-123.20508
12
-14.0
22
-26.398819
32
-173.20508
13
-13.9999
23
-26.39872
33
-173.20497
0
3DFACE
8
0
10
-13.0
20
-49.999992
30
-148.2051
11
-14.0
21
-73.60118
31
-123.20508
12
-12.0
22
-71.083405
32
-123.20508
13
-11.9999
23
-71.083305
33
-123.20498
0
3DFACE
8
0
10
-14.0
20
-26.398819
30
-173.20508
11
-12.0
21
-28.916595
31
-173.20508
12
-13.0
22
-49.999992
32
-148.2051
13
-12.9999
23
-49.999893
33
-148.20499
0
3DFACE
8
0
10
-11.0
20
-49.999992
30
-148.2051
11
-12.0
21
-71.083405
31
-123.20508
12
-10.0
22
-68.49696
32
-123.20508
13
-9.9999
23
-68.496864
33
-123.20498
0
3DFACE
8
0
10
-12.0
20
-28.916595
30
-173.20508
11
-10.0
21
-31.503036
31
-173.20508
12
-11.0
22
-49.999992
32
-148.2051
13
-10.9999
23
-49.999893
33
-148.20499
0
3DFACE
8
0
10
-10.0
20
-31.503036
30
-173.20508
11
-9.0
21
-50.0
31
-148.20508
12
-8.0
22
-33.776665
32
-173.20508
13
-7.9999
23
-33.776566
33
-173.20497
0
3DFACE
8
0
10
-9.0
20
-50.0
30
-148.20508
11
-8.0
21
-66.223335
31
-123.20508
12
-10.0
22
-68.49696
32
-123.20508
13
-9.9999
23
-68.496864
33
-123.20498
0
3DFACE
8
0
10
-6.0
20
-35.569626
30
-173.20508
11
-8.0
21
-33.776665
31
-173.20508
12
-8.0
22
-66.223335
32
-123.20508
13
-7.9999
23
-66.223236
33
-123.20498
0
3DFACE
8
0
10
-6.0
20
-35.569626
30
-173.20508
11
-8.0
21
-66.223335
31
-123.20508
12
-6.0
22
-64.430374
32
-123.20508
13
-5.9999
23
-64.430275
33
-123.20498
0
3DFACE
8
0
10
-4.0
20
-36.18763
30
-173.20508
11
-6.0
21
-35.569626
31
-173.20508
12
-6.0
22
-64.430374
32
-123.20508
13
-5.9999
23
-64.430275
33
-123.20498
0
3DFACE
8
0
10
-4.0
20
-36.18763
30
-173.20508
11
-6.0
21
-64.430374
31
-123.20508
12
-4.0
22
-63.81237
32
-123.20508
13
-3.9999
23
-63.81227
33
-123.20498
0
3DFACE
8
0
10
-2.0
20
-35.40941
30
-173.20508
11
-4.0
21
-36.18763
31
-173.20508
12
-4.0
22
-63.81237
32
-123.20508
13
-3.9999
23
-63.81227
33
-123.20498
0
3DFACE
8
0
10
-2.0
20
-35.40941
30
-173.20508
11
-4.0
21
-63.81237
31
-123.20508
12
-2.0
22
-64.59059
32
-123.20508
13
-1.9999
23
-64.59049
33
-123.20498
0
3DFACE
8
0
10
0.0
20
-33.60118
30
-173.20508
11
-2.0
21
-35.40941
31
-173.20508
12
-2.0
22
-64.59059
32
-123.20508
13
-1.9999
23
-64.59049
33
-123.20498
0
3DFACE
8
0
10
0.0
20
-33.60118
30
-173.20508
11
-2.0
21
-64.59059
31
-123.20508
12
0.0
22
-66.39882
32
-123.20508
13
1.0E-4
23
-66.39872
33
-123.20498
0
3DFACE
8
0
10
1.0
20
-49.999992
30
-148.2051
11
0.0
21
-66.39882
31
-123.20508
12
2.0
22
-68.931854
32
-123.20508
13
2.0001
23
-68.931755
33
-123.20498
0
3DFACE
8
0
10
2.0
20
-31.068146
30
-173.20508
11
1.0
21
-49.999992
31
-148.2051
12
0.0
22
-33.60118
32
-173.20508
13
1.0E-4
23
-33.60108
33
-173.20497
0
3DFACE
8
0
10
3.0
20
-49.99998
30
-148.2051
11
2.0
21
-68.931854
31
-123.20508
12
4.0
22
-71.32755
32
-123.20508
13
4.0001
23
-71.32745
33
-123.20498
0
3DFACE
8
0
10
4.0
20
-28.672447
30
-173.20508
11
3.0
21
-49.99998
31
-148.2051
12
2.0
22
-31.068146
32
-173.20508
13
2.0001
23
-31.068047
33
-173.20497
0
3DFACE
8
0
10
6.0
20
-26.421707
30
-173.20508
11
4.0
21
-28.672447
31
-173.20508
12
5.0
22
-50.0
32
-148.20508
13
5.0001
23
-49.9999
33
-148.20497
0
3DFACE
8
0
10
5.0
20
-50.0
30
-148.20508
11
6.0
21
-73.57829
31
-123.20508
12
4.0
22
-71.32755
32
-123.20508
13
4.0001
23
-71.32745
33
-123.20498
0
3DFACE
8
0
10
6.0
20
-26.421707
30
-173.20508
11
6.0
21
-73.57829
31
-123.20508
12
8.0
22
-75.462814
32
-123.20508
13
8.0001
23
-75.462715
33
-123.20498
0
3DFACE
8
0
10
6.0
20
-26.421707
30
-173.20508
11
8.0
21
-75.462814
31
-123.20508
12
8.0
22
-24.537186
32
-173.20508
13
8.0001
23
-24.537086
33
-173.20497
0
3DFACE
8
0
10
8.0
20
-24.537186
30
-173.20508
11
8.0
21
-75.462814
31
-123.20508
12
10.0
22
-76.241035
32
-123.20508
13
10.0001
23
-76.24094
33
-123.20498
0
3DFACE
8
0
10
8.0
20
-24.537186
30
-173.20508
11
10.0
21
-76.241035
31
-123.20508
12
10.0
22
-23.758965
32
-173.20508
13
10.0001
23
-23.758865
33
-173.20497
0
3DFACE
8
0
10
10.0
20
-23.758965
30
-173.20508
11
10.0
21
-76.241035
31
-123.20508
12
12.0
22
-76.1037
32
-123.20508
13
12.0001
23
-76.1036
33
-123.20498
0
3DFACE
8
0
10
10.0
20
-23.758965
30
-173.20508
11
12.0
21
-76.1037
31
-123.20508
12
12.0
22
-23.896301
32
-173.20508
13
12.0001
23
-23.896202
33
-173.20497
0
3DFACE
8
0
10
12.0
20
-23.896301
30
-173.20508
11
12.0
21
-76.1037
31
-123.20508
12
14.0
22
-75.356
32
-123.20508
13
14.0001
23
-75.3559
33
-123.20498
0
3DFACE
8
0
10
12.0
20
-23.896301
30
-173.20508
11
14.0
21
-75.356
31
-123.20508
12
14.0
22
-24.643997
32
-173.20508
13
14.0001
23
-24.643898
33
-173.20497
0
3DFACE
8
0
10
14.0
20
-24.643997
30
-173.20508
11
14.0
21
-75.356
31
-123.20508
12
16.0
22
-73.71563
32
-123.20508
13
16.0001
23
-73.71553
33
-123.20498
0
3DFACE
8
0
10
14.0
20
-24.643997
30
-173.20508
11
16.0
21
-73.71563
31
-123.20508
12
16.0
22
-26.28437
32
-173.20508
13
16.0001
23
-26.284271
33
-173.20497
0
3DFACE
8
0
10
16.0
20
-26.28437
30
-173.20508
11
17.0
21
-50.00001
31
-148.20506
12
18.0
22
-28.680077
32
-173.20508
13
18.0001
23
-28.679977
33
-173.20497
0
3DFACE
8
0
10
17.0
20
-50.00001
30
-148.20506
11
18.0
21
-71.31992
31
-123.20508
12
16.0
22
-73.71563
32
-123.20508
13
16.0001
23
-73.71553
33
-123.20498
0
3DFACE
8
0
10
18.0
20
-28.680077
30
-173.20508
11
19.0
21
-50.0
31
-148.20508
12
20.0
22
-30.923187
32
-173.20508
13
20.0001
23
-30.923088
33
-173.20497
0
3DFACE
8
0
10
19.0
20
-50.0
30
-148.20508
11
20.0
21
-69.07681
31
-123.20508
12
18.0
22
-71.31992
32
-123.20508
13
18.0001
23
-71.319824
33
-123.20498
0
3DFACE
8
0
10
21.0
20
-49.999977
30
-148.20511
11
20.0
21
-69.07681
31
-123.20508
12
22.0
22
-66.879486
32
-123.20508
13
22.0001
23
-66.87939
33
-123.20498
0
3DFACE
8
0
10
20.0
20
-30.923187
30
-173.20508
11
22.0
21
-33.120514
31
-173.20508
12
21.0
22
-49.999977
32
-148.20511
13
21.0001
23
-49.999878
33
-148.205
0
3DFACE
8
0
10
22.0
20
-33.120514
30
-173.20508
11
23.0
21
-50.000015
31
-148.20506
12
24.0
22
-35.256813
32
-173.20508
13
24.0001
23
-35.256714
33
-173.20497
0
3DFACE
8
0
10
23.0
20
-50.000015
30
-148.20506
11
24.0
21
-64.74319
31
-123.20508
12
22.0
22
-66.879486
32
-123.20508
13
22.0001
23
-66.87939
33
-123.20498
0
3DFACE
8
0
10
26.0
20
-35.96637
30
-173.20508
11
24.0
21
-35.256813
31
-173.20508
12
24.0
22
-64.74319
32
-123.20508
13
24.0001
23
-64.74309
33
-123.20498
0
3DFACE
8
0
10
26.0
20
-35.96637
30
-173.20508
11
24.0
21
-64.74319
31
-123.20508
12
26.0
22
-64.03363
32
-123.20508
13
26.0001
23
-64.03353
33
-123.20498
0
3DFACE
8
0
10
28.0
20
-35.52385
30
-173.20508
11
26.0
21
-35.96637
31
-173.20508
12
26.0
22
-64.03363
32
-123.20508
13
26.0001
23
-64.03353
33
-123.20498
0
3DFACE
8
0
10
28.0
20
-35.52385
30
-173.20508
11
26.0
21
-64.03363
31
-123.20508
12
28.0
22
-64.47615
32
-123.20508
13
28.0001
23
-64.47605
33
-123.20498
0
3DFACE
8
0
10
30.0
20
-34.37178
30
-173.20508
11
28.0
21
-35.52385
31
-173.20508
12
28.0
22
-64.47615
32
-123.20508
13
28.0001
23
-64.47605
33
-123.20498
0
3DFACE
8
0
10
30.0
20
-34.37178
30
-173.20508
11
28.0
21
-64.47615
31
-123.20508
12
30.0
22
-65.62822
32
-123.20508
13
30.0001
23
-65.62812
33
-123.20498
0
3DFACE
8
0
10
32.0
20
-32.04474
30
-173.20508
11
30.0
21
-34.37178
31
-173.20508
12
31.0
22
-50.000015
32
-148.20506
13
31.0001
23
-49.999916
33
-148.20496
0
3DFACE
8
0
10
31.0
20
-50.000015
30
-148.20506
11
32.0
21
-67.95526
31
-123.20508
12
30.0
22
-65.62822
32
-123.20508
13
30.0001
23
-65.62812
33
-123.20498
0
3DFACE
8
0
10
33.0
20
-49.999992
30
-148.2051
11
32.0
21
-67.95526
31
-123.20508
12
34.0
22
-70.58748
32
-123.20508
13
34.0001
23
-70.58738
33
-123.20498
0
3DFACE
8
0
10
34.0
20
-29.412521
30
-173.20508
11
33.0
21
-49.999992
31
-148.2051
12
32.0
22
-32.04474
32
-173.20508
13
32.0001
23
-32.04464
33
-173.20497
0
3DFACE
8
0
10
36.0
20
-27.30674
30
-173.20508
11
34.0
21
-29.412521
31
-173.20508
12
35.0
22
-50.00002
32
-148.20505
13
35.0001
23
-49.99992
33
-148.20494
0
3DFACE
8
0
10
35.0
20
-50.00002
30
-148.20505
11
36.0
21
-72.69326
31
-123.20508
12
34.0
22
-70.58748
32
-123.20508
13
34.0001
23
-70.58738
33
-123.20498
0
3DFACE
8
0
10
38.0
20
-25.460373
30
-173.20508
11
36.0
21
-27.30674
31
-173.20508
12
36.0
22
-72.69326
32
-123.20508
13
36.0001
23
-72.69316
33
-123.20498
0
3DFACE
8
0
10
38.0
20
-25.460373
30
-173.20508
11
36.0
21
-72.69326
31
-123.20508
12
38.0
22
-74.53963
32
-123.20508
13
38.0001
23
-74.53953
33
-123.20498
0
3DFACE
8
0
10
38.0
20
-25.460373
30
-173.20508
11
38.0
21
-74.53963
31
-123.20508
12
40.0
22
-75.71459
32
-123.20508
13
40.0001
23
-75.71449
33
-123.20498
0
3DFACE
8
0
10
38.0
20
-25.460373
30
-173.20508
11
40.0
21
-75.71459
31
-123.20508
12
40.0
22
-24.285408
32
-173.20508
13
40.0001
23
-24.285309
33
-173.20497
0
3DFACE
8
0
10
40.0
20
-24.285408
30
-173.20508
11
40.0
21
-75.71459
31
-123.20508
12
42.0
22
-75.890076
32
-123.20508
13
42.0001
23
-75.88998
33
-123.20498
0
3DFACE
8
0
10
40.0
20
-24.285408
30
-173.20508
11
42.0
21
-75.890076
31
-123.20508
12
42.0
22
-24.109924
32
-173.20508
13
42.0001
23
-24.109825
33
-173.20497
0
ENDSEC
0
EOF
