0
SECTION
2
ENTITIES
0
3DFACE
8
0
10
-254.0
20
-29.819946
30
-173.20508
11
-256.0
21
-31.618958
31
-173.20508
12
-256.0
22
-68.38104
32
-123.20508
13
-255.9999
23
-68.38094
33
-123.20498
0
3DFACE
8
0
10
-254.0
20
-29.819946
30
-173.20508
11
-256.0
21
-68.38104
31
-123.20508
12
-254.0
22
-70.18005
32
-123.20508
13
-253.9999
23
-70.179955
33
-123.20498
0
3DFACE
8
0
10
-252.0
20
-28.028564
30
-173.20508
11
-254.0
21
-29.819946
31
-173.20508
12
-254.0
22
-70.18005
32
-123.20508
13
-253.9999
23
-70.179955
33
-123.20498
0
3DFACE
8
0
10
-252.0
20
-28.028564
30
-173.20508
11
-254.0
21
-70.18005
31
-123.20508
12
-252.0
22
-71.971436
32
-123.20508
13
-251.9999
23
-71.97134
33
-123.20498
0
3DFACE
8
0
10
-250.0
20
-26.376038
30
-173.20508
11
-252.0
21
-28.028564
31
-173.20508
12
-252.0
22
-71.971436
32
-123.20508
13
-251.9999
23
-71.97134
33
-123.20498
0
3DFACE
8
0
10
-250.0
20
-26.376038
30
-173.20508
11
-252.0
21
-71.971436
31
-123.20508
12
-250.0
22
-73.62396
32
-123.20508
13
-249.9999
23
-73.62386
33
-123.20498
0
3DFACE
8
0
10
-248.0
20
-25.02716
30
-173.20508
11
-250.0
21
-26.376038
31
-173.20508
12
-250.0
22
-73.62396
32
-123.20508
13
-249.9999
23
-73.62386
33
-123.20498
0
3DFACE
8
0
10
-248.0
20
-25.02716
30
-173.20508
11
-250.0
21
-73.62396
31
-123.20508
12
-248.0
22
-74.97284
32
-123.20508
13
-247.9999
23
-74.97274
33
-123.20498
0
3DFACE
8
0
10
-248.0
20
-25.02716
30
-173.20508
11
-248.0
21
-74.97284
31
-123.20508
12
-246.0
22
-75.92041
32
-123.20508
13
-245.9999
23
-75.92031
33
-123.20498
0
3DFACE
8
0
10
-248.0
20
-25.02716
30
-173.20508
11
-246.0
21
-75.92041
31
-123.20508
12
-246.0
22
-24.07959
32
-173.20508
13
-245.9999
23
-24.07949
33
-173.20497
0
3DFACE
8
0
10
-246.0
20
-24.07959
30
-173.20508
11
-246.0
21
-75.92041
31
-123.20508
12
-244.0
22
-76.39496
32
-123.20508
13
-243.9999
23
-76.39486
33
-123.20498
0
3DFACE
8
0
10
-246.0
20
-24.07959
30
-173.20508
11
-244.0
21
-76.39496
31
-123.20508
12
-244.0
22
-23.605042
32
-173.20508
13
-243.9999
23
-23.604942
33
-173.20497
0
3DFACE
8
0
10
-244.0
20
-23.605042
30
-173.20508
11
-244.0
21
-76.39496
31
-123.20508
12
-242.0
22
-76.3385
32
-123.20508
13
-241.9999
23
-76.3384
33
-123.20498
0
3DFACE
8
0
10
-244.0
20
-23.605042
30
-173.20508
11
-242.0
21
-76.3385
31
-123.20508
12
-242.0
22
-23.661499
32
-173.20508
13
-241.9999
23
-23.6614
33
-173.20497
0
3DFACE
8
0
10
-242.0
20
-23.661499
30
-173.20508
11
-242.0
21
-76.3385
31
-123.20508
12
-240.0
22
-75.796814
32
-123.20508
13
-239.9999
23
-75.796715
33
-123.20498
0
3DFACE
8
0
10
-242.0
20
-23.661499
30
-173.20508
11
-240.0
21
-75.796814
31
-123.20508
12
-240.0
22
-24.203186
32
-173.20508
13
-239.9999
23
-24.203087
33
-173.20497
0
3DFACE
8
0
10
-240.0
20
-24.203186
30
-173.20508
11
-240.0
21
-75.796814
31
-123.20508
12
-238.0
22
-74.818726
32
-123.20508
13
-237.9999
23
-74.81863
33
-123.20498
0
3DFACE
8
0
10
-240.0
20
-24.203186
30
-173.20508
11
-238.0
21
-74.818726
31
-123.20508
12
-238.0
22
-25.181274
32
-173.20508
13
-237.9999
23
-25.181175
33
-173.20497
0
3DFACE
8
0
10
-236.0
20
-26.54541
30
-173.20508
11
-238.0
21
-25.181274
31
-173.20508
12
-238.0
22
-74.818726
32
-123.20508
13
-237.9999
23
-74.81863
33
-123.20498
0
3DFACE
8
0
10
-236.0
20
-26.54541
30
-173.20508
11
-238.0
21
-74.818726
31
-123.20508
12
-236.0
22
-73.45459
32
-123.20508
13
-235.9999
23
-73.45449
33
-123.20498
0
3DFACE
8
0
10
-234.0
20
-28.207092
30
-173.20508
11
-236.0
21
-26.54541
31
-173.20508
12
-236.0
22
-73.45459
32
-123.20508
13
-235.9999
23
-73.45449
33
-123.20498
0
3DFACE
8
0
10
-234.0
20
-28.207092
30
-173.20508
11
-236.0
21
-73.45459
31
-123.20508
12
-234.0
22
-71.79291
32
-123.20508
13
-233.9999
23
-71.79281
33
-123.20498
0
3DFACE
8
0
10
-232.0
20
-30.027466
30
-173.20508
11
-234.0
21
-28.207092
31
-173.20508
12
-234.0
22
-71.79291
32
-123.20508
13
-233.9999
23
-71.79281
33
-123.20498
0
3DFACE
8
0
10
-232.0
20
-30.027466
30
-173.20508
11
-234.0
21
-71.79291
31
-123.20508
12
-232.0
22
-69.972534
32
-123.20508
13
-231.9999
23
-69.972435
33
-123.20498
0
3DFACE
8
0
10
-230.0
20
-31.904297
30
-173.20508
11
-232.0
21
-30.027466
31
-173.20508
12
-232.0
22
-69.972534
32
-123.20508
13
-231.9999
23
-69.972435
33
-123.20498
0
3DFACE
8
0
10
-230.0
20
-31.904297
30
-173.20508
11
-232.0
21
-69.972534
31
-123.20508
12
-230.0
22
-68.0957
32
-123.20508
13
-229.9999
23
-68.095604
33
-123.20498
0
3DFACE
8
0
10
-228.0
20
-33.68042
30
-173.20508
11
-230.0
21
-31.904297
31
-173.20508
12
-230.0
22
-68.0957
32
-123.20508
13
-229.9999
23
-68.095604
33
-123.20498
0
3DFACE
8
0
10
-228.0
20
-33.68042
30
-173.20508
11
-230.0
21
-68.0957
31
-123.20508
12
-228.0
22
-66.31958
32
-123.20508
13
-227.9999
23
-66.31948
33
-123.20498
0
3DFACE
8
0
10
-226.0
20
-35.145264
30
-173.20508
11
-228.0
21
-33.68042
31
-173.20508
12
-228.0
22
-66.31958
32
-123.20508
13
-227.9999
23
-66.31948
33
-123.20498
0
3DFACE
8
0
10
-226.0
20
-35.145264
30
-173.20508
11
-228.0
21
-66.31958
31
-123.20508
12
-226.0
22
-64.85474
32
-123.20508
13
-225.9999
23
-64.85464
33
-123.20498
0
3DFACE
8
0
10
-224.0
20
-36.15692
30
-173.20508
11
-226.0
21
-35.145264
31
-173.20508
12
-226.0
22
-64.85474
32
-123.20508
13
-225.9999
23
-64.85464
33
-123.20498
0
3DFACE
8
0
10
-224.0
20
-36.15692
30
-173.20508
11
-226.0
21
-64.85474
31
-123.20508
12
-224.0
22
-63.84308
32
-123.20508
13
-223.9999
23
-63.84298
33
-123.20498
0
3DFACE
8
0
10
-222.0
20
-36.63452
30
-173.20508
11
-224.0
21
-36.15692
31
-173.20508
12
-224.0
22
-63.84308
32
-123.20508
13
-223.9999
23
-63.84298
33
-123.20498
0
3DFACE
8
0
10
-222.0
20
-36.63452
30
-173.20508
11
-224.0
21
-63.84308
31
-123.20508
12
-222.0
22
-63.36548
32
-123.20508
13
-221.9999
23
-63.36538
33
-123.20498
0
3DFACE
8
0
10
-220.0
20
-36.549072
30
-173.20508
11
-222.0
21
-36.63452
31
-173.20508
12
-222.0
22
-63.36548
32
-123.20508
13
-221.9999
23
-63.36538
33
-123.20498
0
3DFACE
8
0
10
-220.0
20
-36.549072
30
-173.20508
11
-222.0
21
-63.36548
31
-123.20508
12
-220.0
22
-63.450928
32
-123.20508
13
-219.9999
23
-63.45083
33
-123.20498
0
3DFACE
8
0
10
-218.0
20
-35.903625
30
-173.20508
11
-220.0
21
-36.549072
31
-173.20508
12
-220.0
22
-63.450928
32
-123.20508
13
-219.9999
23
-63.45083
33
-123.20498
0
3DFACE
8
0
10
-218.0
20
-35.903625
30
-173.20508
11
-220.0
21
-63.450928
31
-123.20508
12
-218.0
22
-64.096375
32
-123.20508
13
-217.9999
23
-64.096275
33
-123.20498
0
3DFACE
8
0
10
-216.0
20
-34.78363
30
-173.20508
11
-218.0
21
-35.903625
31
-173.20508
12
-218.0
22
-64.096375
32
-123.20508
13
-217.9999
23
-64.096275
33
-123.20498
0
3DFACE
8
0
10
-216.0
20
-34.78363
30
-173.20508
11
-218.0
21
-64.096375
31
-123.20508
12
-216.0
22
-65.21637
32
-123.20508
13
-215.9999
23
-65.21627
33
-123.20498
0
3DFACE
8
0
10
-214.0
20
-33.29132
30
-173.20508
11
-216.0
21
-34.78363
31
-173.20508
12
-216.0
22
-65.21637
32
-123.20508
13
-215.9999
23
-65.21627
33
-123.20498
0
3DFACE
8
0
10
-214.0
20
-33.29132
30
-173.20508
11
-216.0
21
-65.21637
31
-123.20508
12
-214.0
22
-66.70868
32
-123.20508
13
-213.9999
23
-66.70858
33
-123.20498
0
3DFACE
8
0
10
-212.0
20
-31.576233
30
-173.20508
11
-214.0
21
-33.29132
31
-173.20508
12
-214.0
22
-66.70868
32
-123.20508
13
-213.9999
23
-66.70858
33
-123.20498
0
3DFACE
8
0
10
-212.0
20
-31.576233
30
-173.20508
11
-214.0
21
-66.70868
31
-123.20508
12
-212.0
22
-68.42377
32
-123.20508
13
-211.9999
23
-68.42367
33
-123.20498
0
3DFACE
8
0
10
-210.0
20
-29.74823
30
-173.20508
11
-212.0
21
-31.576233
31
-173.20508
12
-212.0
22
-68.42377
32
-123.20508
13
-211.9999
23
-68.42367
33
-123.20498
0
3DFACE
8
0
10
-210.0
20
-29.74823
30
-173.20508
11
-212.0
21
-68.42377
31
-123.20508
12
-210.0
22
-70.25177
32
-123.20508
13
-209.9999
23
-70.25167
33
-123.20498
0
3DFACE
8
0
10
-208.0
20
-27.966003
30
-173.20508
11
-210.0
21
-29.74823
31
-173.20508
12
-210.0
22
-70.25177
32
-123.20508
13
-209.9999
23
-70.25167
33
-123.20498
0
3DFACE
8
0
10
-208.0
20
-27.966003
30
-173.20508
11
-210.0
21
-70.25177
31
-123.20508
12
-208.0
22
-72.034
32
-123.20508
13
-207.9999
23
-72.0339
33
-123.20498
0
3DFACE
8
0
10
-206.0
20
-26.37146
30
-173.20508
11
-208.0
21
-27.966003
31
-173.20508
12
-208.0
22
-72.034
32
-123.20508
13
-207.9999
23
-72.0339
33
-123.20498
0
3DFACE
8
0
10
-206.0
20
-26.37146
30
-173.20508
11
-208.0
21
-72.034
31
-123.20508
12
-206.0
22
-73.62854
32
-123.20508
13
-205.9999
23
-73.62844
33
-123.20498
0
3DFACE
8
0
10
-204.0
20
-25.022583
30
-173.20508
11
-206.0
21
-26.37146
31
-173.20508
12
-206.0
22
-73.62854
32
-123.20508
13
-205.9999
23
-73.62844
33
-123.20498
0
3DFACE
8
0
10
-204.0
20
-25.022583
30
-173.20508
11
-206.0
21
-73.62854
31
-123.20508
12
-204.0
22
-74.97742
32
-123.20508
13
-203.9999
23
-74.97732
33
-123.20498
0
3DFACE
8
0
10
-204.0
20
-25.022583
30
-173.20508
11
-204.0
21
-74.97742
31
-123.20508
12
-202.0
22
-75.92804
32
-123.20508
13
-201.9999
23
-75.92794
33
-123.20498
0
3DFACE
8
0
10
-204.0
20
-25.022583
30
-173.20508
11
-202.0
21
-75.92804
31
-123.20508
12
-202.0
22
-24.07196
32
-173.20508
13
-201.9999
23
-24.071861
33
-173.20497
0
3DFACE
8
0
10
-202.0
20
-24.07196
30
-173.20508
11
-202.0
21
-75.92804
31
-123.20508
12
-200.0
22
-76.329346
32
-123.20508
13
-199.9999
23
-76.32925
33
-123.20498
0
3DFACE
8
0
10
-202.0
20
-24.07196
30
-173.20508
11
-200.0
21
-76.329346
31
-123.20508
12
-200.0
22
-23.670654
32
-173.20508
13
-199.9999
23
-23.670555
33
-173.20497
0
3DFACE
8
0
10
-200.0
20
-23.670654
30
-173.20508
11
-200.0
21
-76.329346
31
-123.20508
12
-198.0
22
-76.26068
32
-123.20508
13
-197.9999
23
-76.26058
33
-123.20498
0
3DFACE
8
0
10
-200.0
20
-23.670654
30
-173.20508
11
-198.0
21
-76.26068
31
-123.20508
12
-198.0
22
-23.739319
32
-173.20508
13
-197.9999
23
-23.73922
33
-173.20497
0
3DFACE
8
0
10
-198.0
20
-23.739319
30
-173.20508
11
-198.0
21
-76.26068
31
-123.20508
12
-196.0
22
-75.7251
32
-123.20508
13
-195.9999
23
-75.725
33
-123.20498
0
3DFACE
8
0
10
-198.0
20
-23.739319
30
-173.20508
11
-196.0
21
-75.7251
31
-123.20508
12
-196.0
22
-24.274902
32
-173.20508
13
-195.9999
23
-24.274803
33
-173.20497
0
3DFACE
8
0
10
-196.0
20
-24.274902
30
-173.20508
11
-196.0
21
-75.7251
31
-123.20508
12
-194.0
22
-74.70123
32
-123.20508
13
-193.9999
23
-74.70113
33
-123.20498
0
3DFACE
8
0
10
-196.0
20
-24.274902
30
-173.20508
11
-194.0
21
-74.70123
31
-123.20508
12
-194.0
22
-25.298767
32
-173.20508
13
-193.9999
23
-25.298668
33
-173.20497
0
3DFACE
8
0
10
-192.0
20
-26.652222
30
-173.20508
11
-194.0
21
-25.298767
31
-173.20508
12
-194.0
22
-74.70123
32
-123.20508
13
-193.9999
23
-74.70113
33
-123.20498
0
3DFACE
8
0
10
-192.0
20
-26.652222
30
-173.20508
11
-194.0
21
-74.70123
31
-123.20508
12
-192.0
22
-73.34778
32
-123.20508
13
-191.9999
23
-73.34768
33
-123.20498
0
3DFACE
8
0
10
-190.0
20
-28.25592
30
-173.20508
11
-192.0
21
-26.652222
31
-173.20508
12
-192.0
22
-73.34778
32
-123.20508
13
-191.9999
23
-73.34768
33
-123.20498
0
3DFACE
8
0
10
-190.0
20
-28.25592
30
-173.20508
11
-192.0
21
-73.34778
31
-123.20508
12
-190.0
22
-71.74408
32
-123.20508
13
-189.9999
23
-71.74398
33
-123.20498
0
3DFACE
8
0
10
-188.0
20
-30.071716
30
-173.20508
11
-190.0
21
-28.25592
31
-173.20508
12
-190.0
22
-71.74408
32
-123.20508
13
-189.9999
23
-71.74398
33
-123.20498
0
3DFACE
8
0
10
-188.0
20
-30.071716
30
-173.20508
11
-190.0
21
-71.74408
31
-123.20508
12
-188.0
22
-69.92828
32
-123.20508
13
-187.9999
23
-69.928185
33
-123.20498
0
3DFACE
8
0
10
-186.0
20
-31.905823
30
-173.20508
11
-188.0
21
-30.071716
31
-173.20508
12
-188.0
22
-69.92828
32
-123.20508
13
-187.9999
23
-69.928185
33
-123.20498
0
3DFACE
8
0
10
-186.0
20
-31.905823
30
-173.20508
11
-188.0
21
-69.92828
31
-123.20508
12
-186.0
22
-68.09418
32
-123.20508
13
-185.9999
23
-68.09408
33
-123.20498
0
3DFACE
8
0
10
-184.0
20
-33.59497
30
-173.20508
11
-186.0
21
-31.905823
31
-173.20508
12
-186.0
22
-68.09418
32
-123.20508
13
-185.9999
23
-68.09408
33
-123.20498
0
3DFACE
8
0
10
-184.0
20
-33.59497
30
-173.20508
11
-186.0
21
-68.09418
31
-123.20508
12
-184.0
22
-66.40503
32
-123.20508
13
-183.9999
23
-66.40493
33
-123.20498
0
3DFACE
8
0
10
-182.0
20
-35.00946
30
-173.20508
11
-184.0
21
-33.59497
31
-173.20508
12
-184.0
22
-66.40503
32
-123.20508
13
-183.9999
23
-66.40493
33
-123.20498
0
3DFACE
8
0
10
-182.0
20
-35.00946
30
-173.20508
11
-184.0
21
-66.40503
31
-123.20508
12
-182.0
22
-64.99054
32
-123.20508
13
-181.9999
23
-64.99044
33
-123.20498
0
3DFACE
8
0
10
-180.0
20
-35.97992
30
-173.20508
11
-182.0
21
-35.00946
31
-173.20508
12
-182.0
22
-64.99054
32
-123.20508
13
-181.9999
23
-64.99044
33
-123.20498
0
3DFACE
8
0
10
-180.0
20
-35.97992
30
-173.20508
11
-182.0
21
-64.99054
31
-123.20508
12
-180.0
22
-64.02008
32
-123.20508
13
-179.9999
23
-64.01998
33
-123.20498
0
3DFACE
8
0
10
-178.0
20
-36.402588
30
-173.20508
11
-180.0
21
-35.97992
31
-173.20508
12
-180.0
22
-64.02008
32
-123.20508
13
-179.9999
23
-64.01998
33
-123.20498
0
3DFACE
8
0
10
-178.0
20
-36.402588
30
-173.20508
11
-180.0
21
-64.02008
31
-123.20508
12
-178.0
22
-63.597412
32
-123.20508
13
-177.9999
23
-63.597313
33
-123.20498
0
3DFACE
8
0
10
-176.0
20
-36.300354
30
-173.20508
11
-178.0
21
-36.402588
31
-173.20508
12
-178.0
22
-63.597412
32
-123.20508
13
-177.9999
23
-63.597313
33
-123.20498
0
3DFACE
8
0
10
-176.0
20
-36.300354
30
-173.20508
11
-178.0
21
-63.597412
31
-123.20508
12
-176.0
22
-63.699646
32
-123.20508
13
-175.9999
23
-63.699547
33
-123.20498
0
3DFACE
8
0
10
-174.0
20
-35.706787
30
-173.20508
11
-176.0
21
-36.300354
31
-173.20508
12
-176.0
22
-63.699646
32
-123.20508
13
-175.9999
23
-63.699547
33
-123.20498
0
3DFACE
8
0
10
-174.0
20
-35.706787
30
-173.20508
11
-176.0
21
-63.699646
31
-123.20508
12
-174.0
22
-64.29321
32
-123.20508
13
-173.9999
23
-64.29311
33
-123.20498
0
3DFACE
8
0
10
-172.0
20
-34.660034
30
-173.20508
11
-174.0
21
-35.706787
31
-173.20508
12
-174.0
22
-64.29321
32
-123.20508
13
-173.9999
23
-64.29311
33
-123.20498
0
3DFACE
8
0
10
-172.0
20
-34.660034
30
-173.20508
11
-174.0
21
-64.29321
31
-123.20508
12
-172.0
22
-65.339966
32
-123.20508
13
-171.9999
23
-65.33987
33
-123.20498
0
3DFACE
8
0
10
-170.0
20
-33.259277
30
-173.20508
11
-172.0
21
-34.660034
31
-173.20508
12
-172.0
22
-65.339966
32
-123.20508
13
-171.9999
23
-65.33987
33
-123.20498
0
3DFACE
8
0
10
-170.0
20
-33.259277
30
-173.20508
11
-172.0
21
-65.339966
31
-123.20508
12
-170.0
22
-66.74072
32
-123.20508
13
-169.9999
23
-66.74062
33
-123.20498
0
3DFACE
8
0
10
-168.0
20
-31.631165
30
-173.20508
11
-170.0
21
-33.259277
31
-173.20508
12
-170.0
22
-66.74072
32
-123.20508
13
-169.9999
23
-66.74062
33
-123.20498
0
3DFACE
8
0
10
-168.0
20
-31.631165
30
-173.20508
11
-170.0
21
-66.74072
31
-123.20508
12
-168.0
22
-68.368835
32
-123.20508
13
-167.9999
23
-68.36874
33
-123.20498
0
3DFACE
8
0
10
-166.0
20
-29.868774
30
-173.20508
11
-168.0
21
-31.631165
31
-173.20508
12
-168.0
22
-68.368835
32
-123.20508
13
-167.9999
23
-68.36874
33
-123.20498
0
3DFACE
8
0
10
-166.0
20
-29.868774
30
-173.20508
11
-168.0
21
-68.368835
31
-123.20508
12
-166.0
22
-70.131226
32
-123.20508
13
-165.9999
23
-70.13113
33
-123.20498
0
3DFACE
8
0
10
-164.0
20
-28.120117
30
-173.20508
11
-166.0
21
-29.868774
31
-173.20508
12
-166.0
22
-70.131226
32
-123.20508
13
-165.9999
23
-70.13113
33
-123.20498
0
3DFACE
8
0
10
-164.0
20
-28.120117
30
-173.20508
11
-166.0
21
-70.131226
31
-123.20508
12
-164.0
22
-71.87988
32
-123.20508
13
-163.9999
23
-71.87978
33
-123.20498
0
3DFACE
8
0
10
-162.0
20
-26.5271
30
-173.20508
11
-164.0
21
-28.120117
31
-173.20508
12
-164.0
22
-71.87988
32
-123.20508
13
-163.9999
23
-71.87978
33
-123.20498
0
3DFACE
8
0
10
-162.0
20
-26.5271
30
-173.20508
11
-164.0
21
-71.87988
31
-123.20508
12
-162.0
22
-73.4729
32
-123.20508
13
-161.9999
23
-73.4728
33
-123.20498
0
3DFACE
8
0
10
-160.0
20
-25.184326
30
-173.20508
11
-162.0
21
-26.5271
31
-173.20508
12
-162.0
22
-73.4729
32
-123.20508
13
-161.9999
23
-73.4728
33
-123.20498
0
3DFACE
8
0
10
-160.0
20
-25.184326
30
-173.20508
11
-162.0
21
-73.4729
31
-123.20508
12
-160.0
22
-74.815674
32
-123.20508
13
-159.9999
23
-74.815575
33
-123.20498
0
3DFACE
8
0
10
-160.0
20
-25.184326
30
-173.20508
11
-160.0
21
-74.815674
31
-123.20508
12
-158.0
22
-75.78461
32
-123.20508
13
-157.9999
23
-75.78451
33
-123.20498
0
3DFACE
8
0
10
-160.0
20
-25.184326
30
-173.20508
11
-158.0
21
-75.78461
31
-123.20508
12
-158.0
22
-24.215393
32
-173.20508
13
-157.9999
23
-24.215294
33
-173.20497
0
3DFACE
8
0
10
-158.0
20
-24.215393
30
-173.20508
11
-158.0
21
-75.78461
31
-123.20508
12
-156.0
22
-76.28052
32
-123.20508
13
-155.9999
23
-76.28042
33
-123.20498
0
3DFACE
8
0
10
-158.0
20
-24.215393
30
-173.20508
11
-156.0
21
-76.28052
31
-123.20508
12
-156.0
22
-23.719482
32
-173.20508
13
-155.9999
23
-23.719383
33
-173.20497
0
3DFACE
8
0
10
-156.0
20
-23.719482
30
-173.20508
11
-156.0
21
-76.28052
31
-123.20508
12
-154.0
22
-76.27136
32
-123.20508
13
-153.9999
23
-76.27126
33
-123.20498
0
3DFACE
8
0
10
-156.0
20
-23.719482
30
-173.20508
11
-154.0
21
-76.27136
31
-123.20508
12
-154.0
22
-23.728638
32
-173.20508
13
-153.9999
23
-23.728539
33
-173.20497
0
3DFACE
8
0
10
-154.0
20
-23.728638
30
-173.20508
11
-154.0
21
-76.27136
31
-123.20508
12
-152.0
22
-75.76782
32
-123.20508
13
-151.9999
23
-75.76772
33
-123.20498
0
3DFACE
8
0
10
-154.0
20
-23.728638
30
-173.20508
11
-152.0
21
-75.76782
31
-123.20508
12
-152.0
22
-24.232178
32
-173.20508
13
-151.9999
23
-24.232079
33
-173.20497
0
3DFACE
8
0
10
-152.0
20
-24.232178
30
-173.20508
11
-152.0
21
-75.76782
31
-123.20508
12
-150.0
22
-74.80194
32
-123.20508
13
-149.9999
23
-74.80184
33
-123.20498
0
3DFACE
8
0
10
-152.0
20
-24.232178
30
-173.20508
11
-150.0
21
-74.80194
31
-123.20508
12
-150.0
22
-25.19806
32
-173.20508
13
-149.9999
23
-25.19796
33
-173.20497
0
3DFACE
8
0
10
-148.0
20
-26.531677
30
-173.20508
11
-150.0
21
-25.19806
31
-173.20508
12
-150.0
22
-74.80194
32
-123.20508
13
-149.9999
23
-74.80184
33
-123.20498
0
3DFACE
8
0
10
-148.0
20
-26.531677
30
-173.20508
11
-150.0
21
-74.80194
31
-123.20508
12
-148.0
22
-73.46832
32
-123.20508
13
-147.9999
23
-73.46822
33
-123.20498
0
3DFACE
8
0
10
-146.0
20
-28.130798
30
-173.20508
11
-148.0
21
-26.531677
31
-173.20508
12
-148.0
22
-73.46832
32
-123.20508
13
-147.9999
23
-73.46822
33
-123.20498
0
3DFACE
8
0
10
-146.0
20
-28.130798
30
-173.20508
11
-148.0
21
-73.46832
31
-123.20508
12
-146.0
22
-71.8692
32
-123.20508
13
-145.9999
23
-71.8691
33
-123.20498
0
3DFACE
8
0
10
-144.0
20
-29.928284
30
-173.20508
11
-146.0
21
-28.130798
31
-173.20508
12
-146.0
22
-71.8692
32
-123.20508
13
-145.9999
23
-71.8691
33
-123.20498
0
3DFACE
8
0
10
-144.0
20
-29.928284
30
-173.20508
11
-146.0
21
-71.8692
31
-123.20508
12
-144.0
22
-70.07172
32
-123.20508
13
-143.9999
23
-70.07162
33
-123.20498
0
3DFACE
8
0
10
-142.0
20
-31.789856
30
-173.20508
11
-144.0
21
-29.928284
31
-173.20508
12
-144.0
22
-70.07172
32
-123.20508
13
-143.9999
23
-70.07162
33
-123.20498
0
3DFACE
8
0
10
-142.0
20
-31.789856
30
-173.20508
11
-144.0
21
-70.07172
31
-123.20508
12
-142.0
22
-68.210144
32
-123.20508
13
-141.9999
23
-68.210045
33
-123.20498
0
3DFACE
8
0
10
-140.0
20
-33.53241
30
-173.20508
11
-142.0
21
-31.789856
31
-173.20508
12
-142.0
22
-68.210144
32
-123.20508
13
-141.9999
23
-68.210045
33
-123.20498
0
3DFACE
8
0
10
-140.0
20
-33.53241
30
-173.20508
11
-142.0
21
-68.210144
31
-123.20508
12
-140.0
22
-66.46759
32
-123.20508
13
-139.9999
23
-66.46749
33
-123.20498
0
3DFACE
8
0
10
-138.0
20
-34.986572
30
-173.20508
11
-140.0
21
-33.53241
31
-173.20508
12
-140.0
22
-66.46759
32
-123.20508
13
-139.9999
23
-66.46749
33
-123.20498
0
3DFACE
8
0
10
-138.0
20
-34.986572
30
-173.20508
11
-140.0
21
-66.46759
31
-123.20508
12
-138.0
22
-65.01343
32
-123.20508
13
-137.9999
23
-65.01333
33
-123.20498
0
3DFACE
8
0
10
-136.0
20
-35.98755
30
-173.20508
11
-138.0
21
-34.986572
31
-173.20508
12
-138.0
22
-65.01343
32
-123.20508
13
-137.9999
23
-65.01333
33
-123.20498
0
3DFACE
8
0
10
-136.0
20
-35.98755
30
-173.20508
11
-138.0
21
-65.01343
31
-123.20508
12
-136.0
22
-64.01245
32
-123.20508
13
-135.9999
23
-64.01235
33
-123.20498
0
3DFACE
8
0
10
-134.0
20
-36.448364
30
-173.20508
11
-136.0
21
-35.98755
31
-173.20508
12
-136.0
22
-64.01245
32
-123.20508
13
-135.9999
23
-64.01235
33
-123.20498
0
3DFACE
8
0
10
-134.0
20
-36.448364
30
-173.20508
11
-136.0
21
-64.01245
31
-123.20508
12
-134.0
22
-63.551636
32
-123.20508
13
-133.9999
23
-63.551537
33
-123.20498
0
3DFACE
8
0
10
-132.0
20
-36.362915
30
-173.20508
11
-134.0
21
-36.448364
31
-173.20508
12
-134.0
22
-63.551636
32
-123.20508
13
-133.9999
23
-63.551537
33
-123.20498
0
3DFACE
8
0
10
-132.0
20
-36.362915
30
-173.20508
11
-134.0
21
-63.551636
31
-123.20508
12
-132.0
22
-63.637085
32
-123.20508
13
-131.9999
23
-63.636986
33
-123.20498
0
3DFACE
8
0
10
-130.0
20
-35.752563
30
-173.20508
11
-132.0
21
-36.362915
31
-173.20508
12
-132.0
22
-63.637085
32
-123.20508
13
-131.9999
23
-63.636986
33
-123.20498
0
3DFACE
8
0
10
-130.0
20
-35.752563
30
-173.20508
11
-132.0
21
-63.637085
31
-123.20508
12
-130.0
22
-64.24744
32
-123.20508
13
-129.9999
23
-64.24734
33
-123.20498
0
3DFACE
8
0
10
-128.0
20
-34.689026
30
-173.20508
11
-130.0
21
-35.752563
31
-173.20508
12
-130.0
22
-64.24744
32
-123.20508
13
-129.9999
23
-64.24734
33
-123.20498
0
3DFACE
8
0
10
-128.0
20
-34.689026
30
-173.20508
11
-130.0
21
-64.24744
31
-123.20508
12
-128.0
22
-65.310974
32
-123.20508
13
-127.9999
23
-65.310875
33
-123.20498
0
3DFACE
8
0
10
-126.0
20
-33.276062
30
-173.20508
11
-128.0
21
-34.689026
31
-173.20508
12
-128.0
22
-65.310974
32
-123.20508
13
-127.9999
23
-65.310875
33
-123.20498
0
3DFACE
8
0
10
-126.0
20
-33.276062
30
-173.20508
11
-128.0
21
-65.310974
31
-123.20508
12
-126.0
22
-66.72394
32
-123.20508
13
-125.9999
23
-66.72384
33
-123.20498
0
3DFACE
8
0
10
-124.0
20
-31.617432
30
-173.20508
11
-126.0
21
-33.276062
31
-173.20508
12
-126.0
22
-66.72394
32
-123.20508
13
-125.9999
23
-66.72384
33
-123.20498
0
3DFACE
8
0
10
-124.0
20
-31.617432
30
-173.20508
11
-126.0
21
-66.72394
31
-123.20508
12
-124.0
22
-68.38257
32
-123.20508
13
-123.9999
23
-68.38247
33
-123.20498
0
3DFACE
8
0
10
-122.0
20
-29.865723
30
-173.20508
11
-124.0
21
-31.617432
31
-173.20508
12
-124.0
22
-68.38257
32
-123.20508
13
-123.9999
23
-68.38247
33
-123.20498
0
3DFACE
8
0
10
-122.0
20
-29.865723
30
-173.20508
11
-124.0
21
-68.38257
31
-123.20508
12
-122.0
22
-70.13428
32
-123.20508
13
-121.9999
23
-70.13418
33
-123.20498
0
3DFACE
8
0
10
-120.0
20
-28.14148
30
-173.20508
11
-122.0
21
-29.865723
31
-173.20508
12
-122.0
22
-70.13428
32
-123.20508
13
-121.9999
23
-70.13418
33
-123.20498
0
3DFACE
8
0
10
-120.0
20
-28.14148
30
-173.20508
11
-122.0
21
-70.13428
31
-123.20508
12
-120.0
22
-71.85852
32
-123.20508
13
-119.9999
23
-71.85842
33
-123.20498
0
3DFACE
8
0
10
-118.0
20
-26.562195
30
-173.20508
11
-120.0
21
-28.14148
31
-173.20508
12
-120.0
22
-71.85852
32
-123.20508
13
-119.9999
23
-71.85842
33
-123.20498
0
3DFACE
8
0
10
-118.0
20
-26.562195
30
-173.20508
11
-120.0
21
-71.85852
31
-123.20508
12
-118.0
22
-73.437805
32
-123.20508
13
-117.9999
23
-73.437706
33
-123.20498
0
3DFACE
8
0
10
-116.0
20
-25.24231
30
-173.20508
11
-118.0
21
-26.562195
31
-173.20508
12
-118.0
22
-73.437805
32
-123.20508
13
-117.9999
23
-73.437706
33
-123.20498
0
3DFACE
8
0
10
-116.0
20
-25.24231
30
-173.20508
11
-118.0
21
-73.437805
31
-123.20508
12
-116.0
22
-74.75769
32
-123.20508
13
-115.9999
23
-74.75759
33
-123.20498
0
3DFACE
8
0
10
-116.0
20
-25.24231
30
-173.20508
11
-116.0
21
-74.75769
31
-123.20508
12
-114.0
22
-75.693054
32
-123.20508
13
-113.9999
23
-75.692955
33
-123.20498
0
3DFACE
8
0
10
-116.0
20
-25.24231
30
-173.20508
11
-114.0
21
-75.693054
31
-123.20508
12
-114.0
22
-24.306946
32
-173.20508
13
-113.9999
23
-24.306847
33
-173.20497
0
3DFACE
8
0
10
-114.0
20
-24.306946
30
-173.20508
11
-114.0
21
-75.693054
31
-123.20508
12
-112.0
22
-76.17981
32
-123.20508
13
-111.9999
23
-76.17971
33
-123.20498
0
3DFACE
8
0
10
-114.0
20
-24.306946
30
-173.20508
11
-112.0
21
-76.17981
31
-123.20508
12
-112.0
22
-23.82019
32
-173.20508
13
-111.9999
23
-23.820091
33
-173.20497
0
3DFACE
8
0
10
-112.0
20
-23.82019
30
-173.20508
11
-112.0
21
-76.17981
31
-123.20508
12
-110.0
22
-76.16455
32
-123.20508
13
-109.9999
23
-76.16445
33
-123.20498
0
3DFACE
8
0
10
-112.0
20
-23.82019
30
-173.20508
11
-110.0
21
-76.16455
31
-123.20508
12
-110.0
22
-23.83545
32
-173.20508
13
-109.9999
23
-23.83535
33
-173.20497
0
3DFACE
8
0
10
-110.0
20
-23.83545
30
-173.20508
11
-110.0
21
-76.16455
31
-123.20508
12
-108.0
22
-75.667114
32
-123.20508
13
-107.9999
23
-75.667015
33
-123.20498
0
3DFACE
8
0
10
-110.0
20
-23.83545
30
-173.20508
11
-108.0
21
-75.667114
31
-123.20508
12
-108.0
22
-24.332886
32
-173.20508
13
-107.9999
23
-24.332787
33
-173.20497
0
3DFACE
8
0
10
-108.0
20
-24.332886
30
-173.20508
11
-108.0
21
-75.667114
31
-123.20508
12
-106.0
22
-74.730225
32
-123.20508
13
-105.9999
23
-74.730125
33
-123.20498
0
3DFACE
8
0
10
-108.0
20
-24.332886
30
-173.20508
11
-106.0
21
-74.730225
31
-123.20508
12
-106.0
22
-25.269775
32
-173.20508
13
-105.9999
23
-25.269676
33
-173.20497
0
3DFACE
8
0
10
-104.0
20
-26.591187
30
-173.20508
11
-106.0
21
-25.269775
31
-173.20508
12
-106.0
22
-74.730225
32
-123.20508
13
-105.9999
23
-74.730125
33
-123.20498
0
3DFACE
8
0
10
-104.0
20
-26.591187
30
-173.20508
11
-106.0
21
-74.730225
31
-123.20508
12
-104.0
22
-73.40881
32
-123.20508
13
-103.9999
23
-73.408714
33
-123.20498
0
3DFACE
8
0
10
-102.0
20
-28.170471
30
-173.20508
11
-104.0
21
-26.591187
31
-173.20508
12
-104.0
22
-73.40881
32
-123.20508
13
-103.9999
23
-73.408714
33
-123.20498
0
3DFACE
8
0
10
-102.0
20
-28.170471
30
-173.20508
11
-104.0
21
-73.40881
31
-123.20508
12
-102.0
22
-71.82953
32
-123.20508
13
-101.9999
23
-71.82943
33
-123.20498
0
3DFACE
8
0
10
-100.0
20
-29.92218
30
-173.20508
11
-102.0
21
-28.170471
31
-173.20508
12
-102.0
22
-71.82953
32
-123.20508
13
-101.9999
23
-71.82943
33
-123.20498
0
3DFACE
8
0
10
-100.0
20
-29.92218
30
-173.20508
11
-102.0
21
-71.82953
31
-123.20508
12
-100.0
22
-70.07782
32
-123.20508
13
-99.9999
23
-70.07772
33
-123.20498
0
3DFACE
8
0
10
-98.0
20
-31.74408
30
-173.20508
11
-100.0
21
-29.92218
31
-173.20508
12
-100.0
22
-70.07782
32
-123.20508
13
-99.9999
23
-70.07772
33
-123.20498
0
3DFACE
8
0
10
-98.0
20
-31.74408
30
-173.20508
11
-100.0
21
-70.07782
31
-123.20508
12
-98.0
22
-68.25592
32
-123.20508
13
-97.9999
23
-68.25582
33
-123.20498
0
3DFACE
8
0
10
-96.0
20
-33.479004
30
-173.20508
11
-98.0
21
-31.74408
31
-173.20508
12
-98.0
22
-68.25592
32
-123.20508
13
-97.9999
23
-68.25582
33
-123.20498
0
3DFACE
8
0
10
-96.0
20
-33.479004
30
-173.20508
11
-98.0
21
-68.25592
31
-123.20508
12
-96.0
22
-66.520996
32
-123.20508
13
-95.9999
23
-66.5209
33
-123.20498
0
3DFACE
8
0
10
-94.0
20
-34.9057
30
-173.20508
11
-96.0
21
-33.479004
31
-173.20508
12
-96.0
22
-66.520996
32
-123.20508
13
-95.9999
23
-66.5209
33
-123.20498
0
3DFACE
8
0
10
-94.0
20
-34.9057
30
-173.20508
11
-96.0
21
-66.520996
31
-123.20508
12
-94.0
22
-65.0943
32
-123.20508
13
-93.9999
23
-65.0942
33
-123.20498
0
3DFACE
8
0
10
-92.0
20
-35.915833
30
-173.20508
11
-94.0
21
-34.9057
31
-173.20508
12
-94.0
22
-65.0943
32
-123.20508
13
-93.9999
23
-65.0942
33
-123.20498
0
3DFACE
8
0
10
-92.0
20
-35.915833
30
-173.20508
11
-94.0
21
-65.0943
31
-123.20508
12
-92.0
22
-64.08417
32
-123.20508
13
-91.9999
23
-64.08407
33
-123.20498
0
3DFACE
8
0
10
-90.0
20
-36.41327
30
-173.20508
11
-92.0
21
-35.915833
31
-173.20508
12
-92.0
22
-64.08417
32
-123.20508
13
-91.9999
23
-64.08407
33
-123.20498
0
3DFACE
8
0
10
-90.0
20
-36.41327
30
-173.20508
11
-92.0
21
-64.08417
31
-123.20508
12
-90.0
22
-63.58673
32
-123.20508
13
-89.9999
23
-63.58663
33
-123.20498
0
3DFACE
8
0
10
-88.0
20
-36.34308
30
-173.20508
11
-90.0
21
-36.41327
31
-173.20508
12
-90.0
22
-63.58673
32
-123.20508
13
-89.9999
23
-63.58663
33
-123.20498
0
3DFACE
8
0
10
-88.0
20
-36.34308
30
-173.20508
11
-90.0
21
-63.58673
31
-123.20508
12
-88.0
22
-63.65692
32
-123.20508
13
-87.9999
23
-63.656822
33
-123.20498
0
3DFACE
8
0
10
-86.0
20
-35.752563
30
-173.20508
11
-88.0
21
-36.34308
31
-173.20508
12
-88.0
22
-63.65692
32
-123.20508
13
-87.9999
23
-63.656822
33
-123.20498
0
3DFACE
8
0
10
-86.0
20
-35.752563
30
-173.20508
11
-88.0
21
-63.65692
31
-123.20508
12
-86.0
22
-64.24744
32
-123.20508
13
-85.9999
23
-64.24734
33
-123.20498
0
3DFACE
8
0
10
-84.0
20
-34.692078
30
-173.20508
11
-86.0
21
-35.752563
31
-173.20508
12
-86.0
22
-64.24744
32
-123.20508
13
-85.9999
23
-64.24734
33
-123.20498
0
3DFACE
8
0
10
-84.0
20
-34.692078
30
-173.20508
11
-86.0
21
-64.24744
31
-123.20508
12
-84.0
22
-65.30792
32
-123.20508
13
-83.9999
23
-65.30782
33
-123.20498
0
3DFACE
8
0
10
-82.0
20
-33.27301
30
-173.20508
11
-84.0
21
-34.692078
31
-173.20508
12
-84.0
22
-65.30792
32
-123.20508
13
-83.9999
23
-65.30782
33
-123.20498
0
3DFACE
8
0
10
-82.0
20
-33.27301
30
-173.20508
11
-84.0
21
-65.30792
31
-123.20508
12
-82.0
22
-66.72699
32
-123.20508
13
-81.9999
23
-66.72689
33
-123.20498
0
3DFACE
8
0
10
-80.0
20
-31.64032
30
-173.20508
11
-82.0
21
-33.27301
31
-173.20508
12
-82.0
22
-66.72699
32
-123.20508
13
-81.9999
23
-66.72689
33
-123.20498
0
3DFACE
8
0
10
-80.0
20
-31.64032
30
-173.20508
11
-82.0
21
-66.72699
31
-123.20508
12
-80.0
22
-68.35968
32
-123.20508
13
-79.9999
23
-68.35958
33
-123.20498
0
3DFACE
8
0
10
-78.0
20
-29.89624
30
-173.20508
11
-80.0
21
-31.64032
31
-173.20508
12
-80.0
22
-68.35968
32
-123.20508
13
-79.9999
23
-68.35958
33
-123.20498
0
3DFACE
8
0
10
-78.0
20
-29.89624
30
-173.20508
11
-80.0
21
-68.35968
31
-123.20508
12
-78.0
22
-70.10376
32
-123.20508
13
-77.9999
23
-70.10366
33
-123.20498
0
3DFACE
8
0
10
-76.0
20
-28.170471
30
-173.20508
11
-78.0
21
-29.89624
31
-173.20508
12
-78.0
22
-70.10376
32
-123.20508
13
-77.9999
23
-70.10366
33
-123.20498
0
3DFACE
8
0
10
-76.0
20
-28.170471
30
-173.20508
11
-78.0
21
-70.10376
31
-123.20508
12
-76.0
22
-71.82953
32
-123.20508
13
-75.9999
23
-71.82943
33
-123.20498
0
3DFACE
8
0
10
-74.0
20
-26.600342
30
-173.20508
11
-76.0
21
-28.170471
31
-173.20508
12
-76.0
22
-71.82953
32
-123.20508
13
-75.9999
23
-71.82943
33
-123.20498
0
3DFACE
8
0
10
-74.0
20
-26.600342
30
-173.20508
11
-76.0
21
-71.82953
31
-123.20508
12
-74.0
22
-73.39966
32
-123.20508
13
-73.9999
23
-73.39956
33
-123.20498
0
3DFACE
8
0
10
-72.0
20
-25.262146
30
-173.20508
11
-74.0
21
-26.600342
31
-173.20508
12
-74.0
22
-73.39966
32
-123.20508
13
-73.9999
23
-73.39956
33
-123.20498
0
3DFACE
8
0
10
-72.0
20
-25.262146
30
-173.20508
11
-74.0
21
-73.39966
31
-123.20508
12
-72.0
22
-74.737854
32
-123.20508
13
-71.9999
23
-74.737755
33
-123.20498
0
3DFACE
8
0
10
-72.0
20
-25.262146
30
-173.20508
11
-72.0
21
-74.737854
31
-123.20508
12
-70.0
22
-75.70679
32
-123.20508
13
-69.9999
23
-75.70669
33
-123.20498
0
3DFACE
8
0
10
-72.0
20
-25.262146
30
-173.20508
11
-70.0
21
-75.70679
31
-123.20508
12
-70.0
22
-24.293213
32
-173.20508
13
-69.9999
23
-24.293114
33
-173.20497
0
3DFACE
8
0
10
-70.0
20
-24.293213
30
-173.20508
11
-70.0
21
-75.70679
31
-123.20508
12
-68.0
22
-76.173706
32
-123.20508
13
-67.9999
23
-76.17361
33
-123.20498
0
3DFACE
8
0
10
-70.0
20
-24.293213
30
-173.20508
11
-68.0
21
-76.173706
31
-123.20508
12
-68.0
22
-23.826294
32
-173.20508
13
-67.9999
23
-23.826195
33
-173.20497
0
3DFACE
8
0
10
-68.0
20
-23.826294
30
-173.20508
11
-68.0
21
-76.173706
31
-123.20508
12
-66.0
22
-76.17676
32
-123.20508
13
-65.9999
23
-76.17666
33
-123.20498
0
3DFACE
8
0
10
-68.0
20
-23.826294
30
-173.20508
11
-66.0
21
-76.17676
31
-123.20508
12
-66.0
22
-23.823242
32
-173.20508
13
-65.9999
23
-23.823143
33
-173.20497
0
3DFACE
8
0
10
-66.0
20
-23.823242
30
-173.20508
11
-66.0
21
-76.17676
31
-123.20508
12
-64.0
22
-75.70679
32
-123.20508
13
-63.9999
23
-75.70669
33
-123.20498
0
3DFACE
8
0
10
-66.0
20
-23.823242
30
-173.20508
11
-64.0
21
-75.70679
31
-123.20508
12
-64.0
22
-24.293213
32
-173.20508
13
-63.9999
23
-24.293114
33
-173.20497
0
3DFACE
8
0
10
-64.0
20
-24.293213
30
-173.20508
11
-64.0
21
-75.70679
31
-123.20508
12
-62.0
22
-74.763794
32
-123.20508
13
-61.9999
23
-74.763695
33
-123.20498
0
3DFACE
8
0
10
-64.0
20
-24.293213
30
-173.20508
11
-62.0
21
-74.763794
31
-123.20508
12
-62.0
22
-25.236206
32
-173.20508
13
-61.9999
23
-25.236107
33
-173.20497
0
3DFACE
8
0
10
-60.0
20
-26.516418
30
-173.20508
11
-62.0
21
-25.236206
31
-173.20508
12
-62.0
22
-74.763794
32
-123.20508
13
-61.9999
23
-74.763695
33
-123.20498
0
3DFACE
8
0
10
-60.0
20
-26.516418
30
-173.20508
11
-62.0
21
-74.763794
31
-123.20508
12
-60.0
22
-73.48358
32
-123.20508
13
-59.9999
23
-73.48348
33
-123.20498
0
3DFACE
8
0
10
-58.0
20
-28.094177
30
-173.20508
11
-60.0
21
-26.516418
31
-173.20508
12
-60.0
22
-73.48358
32
-123.20508
13
-59.9999
23
-73.48348
33
-123.20498
0
3DFACE
8
0
10
-58.0
20
-28.094177
30
-173.20508
11
-60.0
21
-73.48358
31
-123.20508
12
-58.0
22
-71.90582
32
-123.20508
13
-57.9999
23
-71.90572
33
-123.20498
0
3DFACE
8
0
10
-56.0
20
-29.88861
30
-173.20508
11
-58.0
21
-28.094177
31
-173.20508
12
-58.0
22
-71.90582
32
-123.20508
13
-57.9999
23
-71.90572
33
-123.20498
0
3DFACE
8
0
10
-56.0
20
-29.88861
30
-173.20508
11
-58.0
21
-71.90582
31
-123.20508
12
-56.0
22
-70.11139
32
-123.20508
13
-55.9999
23
-70.11129
33
-123.20498
0
3DFACE
8
0
10
-54.0
20
-31.705933
30
-173.20508
11
-56.0
21
-29.88861
31
-173.20508
12
-56.0
22
-70.11139
32
-123.20508
13
-55.9999
23
-70.11129
33
-123.20498
0
3DFACE
8
0
10
-54.0
20
-31.705933
30
-173.20508
11
-56.0
21
-70.11139
31
-123.20508
12
-54.0
22
-68.29407
32
-123.20508
13
-53.9999
23
-68.29397
33
-123.20498
0
3DFACE
8
0
10
-52.0
20
-33.4256
30
-173.20508
11
-54.0
21
-31.705933
31
-173.20508
12
-54.0
22
-68.29407
32
-123.20508
13
-53.9999
23
-68.29397
33
-123.20498
0
3DFACE
8
0
10
-52.0
20
-33.4256
30
-173.20508
11
-54.0
21
-68.29407
31
-123.20508
12
-52.0
22
-66.5744
32
-123.20508
13
-51.9999
23
-66.5743
33
-123.20498
0
3DFACE
8
0
10
-50.0
20
-34.86908
30
-173.20508
11
-52.0
21
-33.4256
31
-173.20508
12
-52.0
22
-66.5744
32
-123.20508
13
-51.9999
23
-66.5743
33
-123.20498
0
3DFACE
8
0
10
-50.0
20
-34.86908
30
-173.20508
11
-52.0
21
-66.5744
31
-123.20508
12
-50.0
22
-65.13092
32
-123.20508
13
-49.9999
23
-65.13082
33
-123.20498
0
3DFACE
8
0
10
-48.0
20
-35.847168
30
-173.20508
11
-50.0
21
-34.86908
31
-173.20508
12
-50.0
22
-65.13092
32
-123.20508
13
-49.9999
23
-65.13082
33
-123.20498
0
3DFACE
8
0
10
-48.0
20
-35.847168
30
-173.20508
11
-50.0
21
-65.13092
31
-123.20508
12
-48.0
22
-64.15283
32
-123.20508
13
-47.9999
23
-64.15273
33
-123.20498
0
3DFACE
8
0
10
-46.0
20
-36.323242
30
-173.20508
11
-48.0
21
-35.847168
31
-173.20508
12
-48.0
22
-64.15283
32
-123.20508
13
-47.9999
23
-64.15273
33
-123.20498
0
3DFACE
8
0
10
-46.0
20
-36.323242
30
-173.20508
11
-48.0
21
-64.15283
31
-123.20508
12
-46.0
22
-63.676758
32
-123.20508
13
-45.9999
23
-63.67666
33
-123.20498
0
3DFACE
8
0
10
-44.0
20
-36.271362
30
-173.20508
11
-46.0
21
-36.323242
31
-173.20508
12
-46.0
22
-63.676758
32
-123.20508
13
-45.9999
23
-63.67666
33
-123.20498
0
3DFACE
8
0
10
-44.0
20
-36.271362
30
-173.20508
11
-46.0
21
-63.676758
31
-123.20508
12
-44.0
22
-63.728638
32
-123.20508
13
-43.9999
23
-63.72854
33
-123.20498
0
3DFACE
8
0
10
-42.0
20
-35.69458
30
-173.20508
11
-44.0
21
-36.271362
31
-173.20508
12
-44.0
22
-63.728638
32
-123.20508
13
-43.9999
23
-63.72854
33
-123.20498
0
3DFACE
8
0
10
-42.0
20
-35.69458
30
-173.20508
11
-44.0
21
-63.728638
31
-123.20508
12
-42.0
22
-64.30542
32
-123.20508
13
-41.9999
23
-64.30532
33
-123.20498
0
3DFACE
8
0
10
-40.0
20
-34.673767
30
-173.20508
11
-42.0
21
-35.69458
31
-173.20508
12
-42.0
22
-64.30542
32
-123.20508
13
-41.9999
23
-64.30532
33
-123.20498
0
3DFACE
8
0
10
-40.0
20
-34.673767
30
-173.20508
11
-42.0
21
-64.30542
31
-123.20508
12
-40.0
22
-65.32623
32
-123.20508
13
-39.9999
23
-65.32613
33
-123.20498
0
3DFACE
8
0
10
-38.0
20
-33.294373
30
-173.20508
11
-40.0
21
-34.673767
31
-173.20508
12
-40.0
22
-65.32623
32
-123.20508
13
-39.9999
23
-65.32613
33
-123.20498
0
3DFACE
8
0
10
-38.0
20
-33.294373
30
-173.20508
11
-40.0
21
-65.32623
31
-123.20508
12
-38.0
22
-66.70563
32
-123.20508
13
-37.9999
23
-66.70553
33
-123.20498
0
3DFACE
8
0
10
-36.0
20
-31.65863
30
-173.20508
11
-38.0
21
-33.294373
31
-173.20508
12
-38.0
22
-66.70563
32
-123.20508
13
-37.9999
23
-66.70553
33
-123.20498
0
3DFACE
8
0
10
-36.0
20
-31.65863
30
-173.20508
11
-38.0
21
-66.70563
31
-123.20508
12
-36.0
22
-68.34137
32
-123.20508
13
-35.9999
23
-68.34127
33
-123.20498
0
3DFACE
8
0
10
-34.0
20
-29.89624
30
-173.20508
11
-36.0
21
-31.65863
31
-173.20508
12
-36.0
22
-68.34137
32
-123.20508
13
-35.9999
23
-68.34127
33
-123.20498
0
3DFACE
8
0
10
-34.0
20
-29.89624
30
-173.20508
11
-36.0
21
-68.34137
31
-123.20508
12
-34.0
22
-70.10376
32
-123.20508
13
-33.9999
23
-70.10366
33
-123.20498
0
3DFACE
8
0
10
-32.0
20
-28.153687
30
-173.20508
11
-34.0
21
-29.89624
31
-173.20508
12
-34.0
22
-70.10376
32
-123.20508
13
-33.9999
23
-70.10366
33
-123.20498
0
3DFACE
8
0
10
-32.0
20
-28.153687
30
-173.20508
11
-34.0
21
-70.10376
31
-123.20508
12
-32.0
22
-71.84631
32
-123.20508
13
-31.9999
23
-71.846214
33
-123.20498
0
3DFACE
8
0
10
-30.0
20
-26.572876
30
-173.20508
11
-32.0
21
-28.153687
31
-173.20508
12
-32.0
22
-71.84631
32
-123.20508
13
-31.9999
23
-71.846214
33
-123.20498
0
3DFACE
8
0
10
-30.0
20
-26.572876
30
-173.20508
11
-32.0
21
-71.84631
31
-123.20508
12
-30.0
22
-73.427124
32
-123.20508
13
-29.9999
23
-73.427025
33
-123.20498
0
3DFACE
8
0
10
-28.0
20
-25.256042
30
-173.20508
11
-30.0
21
-26.572876
31
-173.20508
12
-30.0
22
-73.427124
32
-123.20508
13
-29.9999
23
-73.427025
33
-123.20498
0
3DFACE
8
0
10
-28.0
20
-25.256042
30
-173.20508
11
-30.0
21
-73.427124
31
-123.20508
12
-28.0
22
-74.74396
32
-123.20508
13
-27.9999
23
-74.74386
33
-123.20498
0
3DFACE
8
0
10
-28.0
20
-25.256042
30
-173.20508
11
-28.0
21
-74.74396
31
-123.20508
12
-26.0
22
-75.67322
32
-123.20508
13
-25.9999
23
-75.67312
33
-123.20498
0
3DFACE
8
0
10
-28.0
20
-25.256042
30
-173.20508
11
-26.0
21
-75.67322
31
-123.20508
12
-26.0
22
-24.326782
32
-173.20508
13
-25.9999
23
-24.326683
33
-173.20497
0
3DFACE
8
0
10
-26.0
20
-24.326782
30
-173.20508
11
-26.0
21
-75.67322
31
-123.20508
12
-24.0
22
-76.13861
32
-123.20508
13
-23.9999
23
-76.13851
33
-123.20498
0
3DFACE
8
0
10
-26.0
20
-24.326782
30
-173.20508
11
-24.0
21
-76.13861
31
-123.20508
12
-24.0
22
-23.86139
32
-173.20508
13
-23.9999
23
-23.86129
33
-173.20497
0
3DFACE
8
0
10
-24.0
20
-23.86139
30
-173.20508
11
-24.0
21
-76.13861
31
-123.20508
12
-22.0
22
-76.11725
32
-123.20508
13
-21.9999
23
-76.11715
33
-123.20498
0
3DFACE
8
0
10
-24.0
20
-23.86139
30
-173.20508
11
-22.0
21
-76.11725
31
-123.20508
12
-22.0
22
-23.882751
32
-173.20508
13
-21.9999
23
-23.882652
33
-173.20497
0
3DFACE
8
0
10
-22.0
20
-23.882751
30
-173.20508
11
-22.0
21
-76.11725
31
-123.20508
12
-20.0
22
-75.61981
32
-123.20508
13
-19.9999
23
-75.61971
33
-123.20498
0
3DFACE
8
0
10
-22.0
20
-23.882751
30
-173.20508
11
-20.0
21
-75.61981
31
-123.20508
12
-20.0
22
-24.380188
32
-173.20508
13
-19.9999
23
-24.380089
33
-173.20497
0
3DFACE
8
0
10
-20.0
20
-24.380188
30
-173.20508
11
-20.0
21
-75.61981
31
-123.20508
12
-18.0
22
-74.71802
32
-123.20508
13
-17.9999
23
-74.71792
33
-123.20498
0
3DFACE
8
0
10
-20.0
20
-24.380188
30
-173.20508
11
-18.0
21
-74.71802
31
-123.20508
12
-18.0
22
-25.281982
32
-173.20508
13
-17.9999
23
-25.281883
33
-173.20497
0
3DFACE
8
0
10
-16.0
20
-26.560669
30
-173.20508
11
-18.0
21
-25.281982
31
-173.20508
12
-18.0
22
-74.71802
32
-123.20508
13
-17.9999
23
-74.71792
33
-123.20498
0
3DFACE
8
0
10
-16.0
20
-26.560669
30
-173.20508
11
-18.0
21
-74.71802
31
-123.20508
12
-16.0
22
-73.43933
32
-123.20508
13
-15.9999
23
-73.43923
33
-123.20498
0
3DFACE
8
0
10
-14.0
20
-28.120117
30
-173.20508
11
-16.0
21
-26.560669
31
-173.20508
12
-16.0
22
-73.43933
32
-123.20508
13
-15.9999
23
-73.43923
33
-123.20498
0
3DFACE
8
0
10
-14.0
20
-28.120117
30
-173.20508
11
-16.0
21
-73.43933
31
-123.20508
12
-14.0
22
-71.87988
32
-123.20508
13
-13.9999
23
-71.87978
33
-123.20498
0
3DFACE
8
0
10
-12.0
20
-29.861145
30
-173.20508
11
-14.0
21
-28.120117
31
-173.20508
12
-14.0
22
-71.87988
32
-123.20508
13
-13.9999
23
-71.87978
33
-123.20498
0
3DFACE
8
0
10
-12.0
20
-29.861145
30
-173.20508
11
-14.0
21
-71.87988
31
-123.20508
12
-12.0
22
-70.138855
32
-123.20508
13
-11.9999
23
-70.138756
33
-123.20498
0
3DFACE
8
0
10
-10.0
20
-31.670837
30
-173.20508
11
-12.0
21
-29.861145
31
-173.20508
12
-12.0
22
-70.138855
32
-123.20508
13
-11.9999
23
-70.138756
33
-123.20498
0
3DFACE
8
0
10
-10.0
20
-31.670837
30
-173.20508
11
-12.0
21
-70.138855
31
-123.20508
12
-10.0
22
-68.32916
32
-123.20508
13
-9.9999
23
-68.32906
33
-123.20498
0
3DFACE
8
0
10
-8.0
20
-33.378296
30
-173.20508
11
-10.0
21
-31.670837
31
-173.20508
12
-10.0
22
-68.32916
32
-123.20508
13
-9.9999
23
-68.32906
33
-123.20498
0
3DFACE
8
0
10
-8.0
20
-33.378296
30
-173.20508
11
-10.0
21
-68.32916
31
-123.20508
12
-8.0
22
-66.621704
32
-123.20508
13
-7.9999
23
-66.621605
33
-123.20498
0
3DFACE
8
0
10
-6.0
20
-34.786682
30
-173.20508
11
-8.0
21
-33.378296
31
-173.20508
12
-8.0
22
-66.621704
32
-123.20508
13
-7.9999
23
-66.621605
33
-123.20498
0
3DFACE
8
0
10
-6.0
20
-34.786682
30
-173.20508
11
-8.0
21
-66.621704
31
-123.20508
12
-6.0
22
-65.21332
32
-123.20508
13
-5.9999
23
-65.21322
33
-123.20498
0
3DFACE
8
0
10
-4.0
20
-35.78766
30
-173.20508
11
-6.0
21
-34.786682
31
-173.20508
12
-6.0
22
-65.21332
32
-123.20508
13
-5.9999
23
-65.21322
33
-123.20498
0
3DFACE
8
0
10
-4.0
20
-35.78766
30
-173.20508
11
-6.0
21
-65.21332
31
-123.20508
12
-4.0
22
-64.21234
32
-123.20508
13
-3.9999
23
-64.21224
33
-123.20498
0
3DFACE
8
0
10
-2.0
20
-36.318665
30
-173.20508
11
-4.0
21
-35.78766
31
-173.20508
12
-4.0
22
-64.21234
32
-123.20508
13
-3.9999
23
-64.21224
33
-123.20498
0
3DFACE
8
0
10
-2.0
20
-36.318665
30
-173.20508
11
-4.0
21
-64.21234
31
-123.20508
12
-2.0
22
-63.681335
32
-123.20508
13
-1.9999
23
-63.681236
33
-123.20498
0
3DFACE
8
0
10
0.0
20
-36.303406
30
-173.20508
11
-2.0
21
-36.318665
31
-173.20508
12
-2.0
22
-63.681335
32
-123.20508
13
-1.9999
23
-63.681236
33
-123.20498
0
3DFACE
8
0
10
0.0
20
-36.303406
30
-173.20508
11
-2.0
21
-63.681335
31
-123.20508
12
0.0
22
-63.696594
32
-123.20508
13
1.0E-4
23
-63.696495
33
-123.20498
0
3DFACE
8
0
10
2.0
20
-35.763245
30
-173.20508
11
0.0
21
-36.303406
31
-173.20508
12
0.0
22
-63.696594
32
-123.20508
13
1.0E-4
23
-63.696495
33
-123.20498
0
3DFACE
8
0
10
2.0
20
-35.763245
30
-173.20508
11
0.0
21
-63.696594
31
-123.20508
12
2.0
22
-64.236755
32
-123.20508
13
2.0001
23
-64.23666
33
-123.20498
0
3DFACE
8
0
10
4.0
20
-34.743958
30
-173.20508
11
2.0
21
-35.763245
31
-173.20508
12
2.0
22
-64.236755
32
-123.20508
13
2.0001
23
-64.23666
33
-123.20498
0
3DFACE
8
0
10
4.0
20
-34.743958
30
-173.20508
11
2.0
21
-64.236755
31
-123.20508
12
4.0
22
-65.25604
32
-123.20508
13
4.0001
23
-65.25594
33
-123.20498
0
3DFACE
8
0
10
6.0
20
-33.35846
30
-173.20508
11
4.0
21
-34.743958
31
-173.20508
12
4.0
22
-65.25604
32
-123.20508
13
4.0001
23
-65.25594
33
-123.20498
0
3DFACE
8
0
10
6.0
20
-33.35846
30
-173.20508
11
4.0
21
-65.25604
31
-123.20508
12
6.0
22
-66.64154
32
-123.20508
13
6.0001
23
-66.64144
33
-123.20498
0
3DFACE
8
0
10
8.0
20
-31.719666
30
-173.20508
11
6.0
21
-33.35846
31
-173.20508
12
6.0
22
-66.64154
32
-123.20508
13
6.0001
23
-66.64144
33
-123.20498
0
3DFACE
8
0
10
8.0
20
-31.719666
30
-173.20508
11
6.0
21
-66.64154
31
-123.20508
12
8.0
22
-68.280334
32
-123.20508
13
8.0001
23
-68.280235
33
-123.20498
0
3DFACE
8
0
10
10.0
20
-29.946594
30
-173.20508
11
8.0
21
-31.719666
31
-173.20508
12
8.0
22
-68.280334
32
-123.20508
13
8.0001
23
-68.280235
33
-123.20498
0
3DFACE
8
0
10
10.0
20
-29.946594
30
-173.20508
11
8.0
21
-68.280334
31
-123.20508
12
10.0
22
-70.053406
32
-123.20508
13
10.0001
23
-70.05331
33
-123.20498
0
3DFACE
8
0
10
12.0
20
-28.196411
30
-173.20508
11
10.0
21
-29.946594
31
-173.20508
12
10.0
22
-70.053406
32
-123.20508
13
10.0001
23
-70.05331
33
-123.20498
0
3DFACE
8
0
10
12.0
20
-28.196411
30
-173.20508
11
10.0
21
-70.053406
31
-123.20508
12
12.0
22
-71.80359
32
-123.20508
13
12.0001
23
-71.80349
33
-123.20498
0
3DFACE
8
0
10
14.0
20
-26.60492
30
-173.20508
11
12.0
21
-28.196411
31
-173.20508
12
12.0
22
-71.80359
32
-123.20508
13
12.0001
23
-71.80349
33
-123.20498
0
3DFACE
8
0
10
14.0
20
-26.60492
30
-173.20508
11
12.0
21
-71.80359
31
-123.20508
12
14.0
22
-73.39508
32
-123.20508
13
14.0001
23
-73.39498
33
-123.20498
0
3DFACE
8
0
10
16.0
20
-25.256042
30
-173.20508
11
14.0
21
-26.60492
31
-173.20508
12
14.0
22
-73.39508
32
-123.20508
13
14.0001
23
-73.39498
33
-123.20498
0
3DFACE
8
0
10
16.0
20
-25.256042
30
-173.20508
11
14.0
21
-73.39508
31
-123.20508
12
16.0
22
-74.74396
32
-123.20508
13
16.0001
23
-74.74386
33
-123.20498
0
3DFACE
8
0
10
16.0
20
-25.256042
30
-173.20508
11
16.0
21
-74.74396
31
-123.20508
12
18.0
22
-75.711365
32
-123.20508
13
18.0001
23
-75.711266
33
-123.20498
0
3DFACE
8
0
10
16.0
20
-25.256042
30
-173.20508
11
18.0
21
-75.711365
31
-123.20508
12
18.0
22
-24.288635
32
-173.20508
13
18.0001
23
-24.288536
33
-173.20497
0
3DFACE
8
0
10
18.0
20
-24.288635
30
-173.20508
11
18.0
21
-75.711365
31
-123.20508
12
20.0
22
-76.196594
32
-123.20508
13
20.0001
23
-76.196495
33
-123.20498
0
3DFACE
8
0
10
18.0
20
-24.288635
30
-173.20508
11
20.0
21
-76.196594
31
-123.20508
12
20.0
22
-23.803406
32
-173.20508
13
20.0001
23
-23.803307
33
-173.20497
0
3DFACE
8
0
10
20.0
20
-23.803406
30
-173.20508
11
20.0
21
-76.196594
31
-123.20508
12
22.0
22
-76.21185
32
-123.20508
13
22.0001
23
-76.211754
33
-123.20498
0
3DFACE
8
0
10
20.0
20
-23.803406
30
-173.20508
11
22.0
21
-76.21185
31
-123.20508
12
22.0
22
-23.788147
32
-173.20508
13
22.0001
23
-23.788048
33
-173.20497
0
3DFACE
8
0
10
22.0
20
-23.788147
30
-173.20508
11
22.0
21
-76.21185
31
-123.20508
12
24.0
22
-75.73425
32
-123.20508
13
24.0001
23
-75.73415
33
-123.20498
0
3DFACE
8
0
10
22.0
20
-23.788147
30
-173.20508
11
24.0
21
-75.73425
31
-123.20508
12
24.0
22
-24.265747
32
-173.20508
13
24.0001
23
-24.265648
33
-173.20497
0
3DFACE
8
0
10
24.0
20
-24.265747
30
-173.20508
11
24.0
21
-75.73425
31
-123.20508
12
26.0
22
-74.808044
32
-123.20508
13
26.0001
23
-74.807945
33
-123.20498
0
3DFACE
8
0
10
24.0
20
-24.265747
30
-173.20508
11
26.0
21
-74.808044
31
-123.20508
12
26.0
22
-25.191956
32
-173.20508
13
26.0001
23
-25.191856
33
-173.20497
0
3DFACE
8
0
10
28.0
20
-26.484375
30
-173.20508
11
26.0
21
-25.191956
31
-173.20508
12
26.0
22
-74.808044
32
-123.20508
13
26.0001
23
-74.807945
33
-123.20498
0
3DFACE
8
0
10
28.0
20
-26.484375
30
-173.20508
11
26.0
21
-74.808044
31
-123.20508
12
28.0
22
-73.515625
32
-123.20508
13
28.0001
23
-73.515526
33
-123.20498
0
3DFACE
8
0
10
30.0
20
-28.075867
30
-173.20508
11
28.0
21
-26.484375
31
-173.20508
12
28.0
22
-73.515625
32
-123.20508
13
28.0001
23
-73.515526
33
-123.20498
0
3DFACE
8
0
10
30.0
20
-28.075867
30
-173.20508
11
28.0
21
-73.515625
31
-123.20508
12
30.0
22
-71.92413
32
-123.20508
13
30.0001
23
-71.924034
33
-123.20498
0
3DFACE
8
0
10
32.0
20
-29.858093
30
-173.20508
11
30.0
21
-28.075867
31
-173.20508
12
30.0
22
-71.92413
32
-123.20508
13
30.0001
23
-71.924034
33
-123.20498
0
3DFACE
8
0
10
32.0
20
-29.858093
30
-173.20508
11
30.0
21
-71.92413
31
-123.20508
12
32.0
22
-70.14191
32
-123.20508
13
32.0001
23
-70.14181
33
-123.20498
0
3DFACE
8
0
10
34.0
20
-31.693726
30
-173.20508
11
32.0
21
-29.858093
31
-173.20508
12
32.0
22
-70.14191
32
-123.20508
13
32.0001
23
-70.14181
33
-123.20498
0
3DFACE
8
0
10
34.0
20
-31.693726
30
-173.20508
11
32.0
21
-70.14191
31
-123.20508
12
34.0
22
-68.306274
32
-123.20508
13
34.0001
23
-68.306175
33
-123.20498
0
3DFACE
8
0
10
36.0
20
-33.416443
30
-173.20508
11
34.0
21
-31.693726
31
-173.20508
12
34.0
22
-68.306274
32
-123.20508
13
34.0001
23
-68.306175
33
-123.20498
0
3DFACE
8
0
10
36.0
20
-33.416443
30
-173.20508
11
34.0
21
-68.306274
31
-123.20508
12
36.0
22
-66.58356
32
-123.20508
13
36.0001
23
-66.58346
33
-123.20498
0
3DFACE
8
0
10
38.0
20
-34.873657
30
-173.20508
11
36.0
21
-33.416443
31
-173.20508
12
36.0
22
-66.58356
32
-123.20508
13
36.0001
23
-66.58346
33
-123.20498
0
3DFACE
8
0
10
38.0
20
-34.873657
30
-173.20508
11
36.0
21
-66.58356
31
-123.20508
12
38.0
22
-65.12634
32
-123.20508
13
38.0001
23
-65.12624
33
-123.20498
0
3DFACE
8
0
10
40.0
20
-35.926514
30
-173.20508
11
38.0
21
-34.873657
31
-173.20508
12
38.0
22
-65.12634
32
-123.20508
13
38.0001
23
-65.12624
33
-123.20498
0
3DFACE
8
0
10
40.0
20
-35.926514
30
-173.20508
11
38.0
21
-65.12634
31
-123.20508
12
40.0
22
-64.07349
32
-123.20508
13
40.0001
23
-64.07339
33
-123.20498
0
3DFACE
8
0
10
42.0
20
-36.437683
30
-173.20508
11
40.0
21
-35.926514
31
-173.20508
12
40.0
22
-64.07349
32
-123.20508
13
40.0001
23
-64.07339
33
-123.20498
0
3DFACE
8
0
10
42.0
20
-36.437683
30
-173.20508
11
40.0
21
-64.07349
31
-123.20508
12
42.0
22
-63.562317
32
-123.20508
13
42.0001
23
-63.562218
33
-123.20498
0
3DFACE
8
0
10
44.0
20
-36.388855
30
-173.20508
11
42.0
21
-36.437683
31
-173.20508
12
42.0
22
-63.562317
32
-123.20508
13
42.0001
23
-63.562218
33
-123.20498
0
3DFACE
8
0
10
44.0
20
-36.388855
30
-173.20508
11
42.0
21
-63.562317
31
-123.20508
12
44.0
22
-63.611145
32
-123.20508
13
44.0001
23
-63.611046
33
-123.20498
0
3DFACE
8
0
10
46.0
20
-35.79834
30
-173.20508
11
44.0
21
-36.388855
31
-173.20508
12
44.0
22
-63.611145
32
-123.20508
13
44.0001
23
-63.611046
33
-123.20498
0
3DFACE
8
0
10
46.0
20
-35.79834
30
-173.20508
11
44.0
21
-63.611145
31
-123.20508
12
46.0
22
-64.20166
32
-123.20508
13
46.0001
23
-64.20156
33
-123.20498
0
3DFACE
8
0
10
48.0
20
-34.73633
30
-173.20508
11
46.0
21
-35.79834
31
-173.20508
12
46.0
22
-64.20166
32
-123.20508
13
46.0001
23
-64.20156
33
-123.20498
0
3DFACE
8
0
10
48.0
20
-34.73633
30
-173.20508
11
46.0
21
-64.20166
31
-123.20508
12
48.0
22
-65.26367
32
-123.20508
13
48.0001
23
-65.26357
33
-123.20498
0
3DFACE
8
0
10
50.0
20
-33.334045
30
-173.20508
11
48.0
21
-34.73633
31
-173.20508
12
48.0
22
-65.26367
32
-123.20508
13
48.0001
23
-65.26357
33
-123.20498
0
3DFACE
8
0
10
50.0
20
-33.334045
30
-173.20508
11
48.0
21
-65.26367
31
-123.20508
12
50.0
22
-66.665955
32
-123.20508
13
50.0001
23
-66.665855
33
-123.20498
0
3DFACE
8
0
10
52.0
20
-31.713562
30
-173.20508
11
50.0
21
-33.334045
31
-173.20508
12
50.0
22
-66.665955
32
-123.20508
13
50.0001
23
-66.665855
33
-123.20498
0
3DFACE
8
0
10
52.0
20
-31.713562
30
-173.20508
11
50.0
21
-66.665955
31
-123.20508
12
52.0
22
-68.28644
32
-123.20508
13
52.0001
23
-68.28634
33
-123.20498
0
3DFACE
8
0
10
54.0
20
-29.969482
30
-173.20508
11
52.0
21
-31.713562
31
-173.20508
12
52.0
22
-68.28644
32
-123.20508
13
52.0001
23
-68.28634
33
-123.20498
0
3DFACE
8
0
10
54.0
20
-29.969482
30
-173.20508
11
52.0
21
-68.28644
31
-123.20508
12
54.0
22
-70.03052
32
-123.20508
13
54.0001
23
-70.03042
33
-123.20498
0
3DFACE
8
0
10
56.0
20
-28.233032
30
-173.20508
11
54.0
21
-29.969482
31
-173.20508
12
54.0
22
-70.03052
32
-123.20508
13
54.0001
23
-70.03042
33
-123.20498
0
3DFACE
8
0
10
56.0
20
-28.233032
30
-173.20508
11
54.0
21
-70.03052
31
-123.20508
12
56.0
22
-71.76697
32
-123.20508
13
56.0001
23
-71.76687
33
-123.20498
0
3DFACE
8
0
10
58.0
20
-26.640015
30
-173.20508
11
56.0
21
-28.233032
31
-173.20508
12
56.0
22
-71.76697
32
-123.20508
13
56.0001
23
-71.76687
33
-123.20498
0
3DFACE
8
0
10
58.0
20
-26.640015
30
-173.20508
11
56.0
21
-71.76697
31
-123.20508
12
58.0
22
-73.359985
32
-123.20508
13
58.0001
23
-73.359886
33
-123.20498
0
3DFACE
8
0
10
60.0
20
-25.323181
30
-173.20508
11
58.0
21
-26.640015
31
-173.20508
12
58.0
22
-73.359985
32
-123.20508
13
58.0001
23
-73.359886
33
-123.20498
0
3DFACE
8
0
10
60.0
20
-25.323181
30
-173.20508
11
58.0
21
-73.359985
31
-123.20508
12
60.0
22
-74.67682
32
-123.20508
13
60.0001
23
-74.67672
33
-123.20498
0
3DFACE
8
0
10
60.0
20
-25.323181
30
-173.20508
11
60.0
21
-74.67682
31
-123.20508
12
62.0
22
-75.57861
32
-123.20508
13
62.0001
23
-75.578514
33
-123.20498
0
3DFACE
8
0
10
60.0
20
-25.323181
30
-173.20508
11
62.0
21
-75.57861
31
-123.20508
12
62.0
22
-24.421387
32
-173.20508
13
62.0001
23
-24.421288
33
-173.20497
0
3DFACE
8
0
10
62.0
20
-24.421387
30
-173.20508
11
62.0
21
-75.57861
31
-123.20508
12
64.0
22
-76.051636
32
-123.20508
13
64.0001
23
-76.05154
33
-123.20498
0
3DFACE
8
0
10
62.0
20
-24.421387
30
-173.20508
11
64.0
21
-76.051636
31
-123.20508
12
64.0
22
-23.948364
32
-173.20508
13
64.0001
23
-23.948265
33
-173.20497
0
3DFACE
8
0
10
64.0
20
-23.948364
30
-173.20508
11
64.0
21
-76.051636
31
-123.20508
12
66.0
22
-76.066895
32
-123.20508
13
66.0001
23
-76.066795
33
-123.20498
0
3DFACE
8
0
10
64.0
20
-23.948364
30
-173.20508
11
66.0
21
-76.066895
31
-123.20508
12
66.0
22
-23.933105
32
-173.20508
13
66.0001
23
-23.933006
33
-173.20497
0
3DFACE
8
0
10
66.0
20
-23.933105
30
-173.20508
11
66.0
21
-76.066895
31
-123.20508
12
68.0
22
-75.59082
32
-123.20508
13
68.0001
23
-75.59072
33
-123.20498
0
3DFACE
8
0
10
66.0
20
-23.933105
30
-173.20508
11
68.0
21
-75.59082
31
-123.20508
12
68.0
22
-24.40918
32
-173.20508
13
68.0001
23
-24.40908
33
-173.20497
0
3DFACE
8
0
10
68.0
20
-24.40918
30
-173.20508
11
68.0
21
-75.59082
31
-123.20508
12
70.0
22
-74.69208
32
-123.20508
13
70.0001
23
-74.69198
33
-123.20498
0
3DFACE
8
0
10
68.0
20
-24.40918
30
-173.20508
11
70.0
21
-74.69208
31
-123.20508
12
70.0
22
-25.307922
32
-173.20508
13
70.0001
23
-25.307823
33
-173.20497
0
3DFACE
8
0
10
72.0
20
-26.546936
30
-173.20508
11
70.0
21
-25.307922
31
-173.20508
12
70.0
22
-74.69208
32
-123.20508
13
70.0001
23
-74.69198
33
-123.20498
0
3DFACE
8
0
10
72.0
20
-26.546936
30
-173.20508
11
70.0
21
-74.69208
31
-123.20508
12
72.0
22
-73.453064
32
-123.20508
13
72.0001
23
-73.452965
33
-123.20498
0
3DFACE
8
0
10
74.0
20
-28.085022
30
-173.20508
11
72.0
21
-26.546936
31
-173.20508
12
72.0
22
-73.453064
32
-123.20508
13
72.0001
23
-73.452965
33
-123.20498
0
3DFACE
8
0
10
74.0
20
-28.085022
30
-173.20508
11
72.0
21
-73.453064
31
-123.20508
12
74.0
22
-71.91498
32
-123.20508
13
74.0001
23
-71.91488
33
-123.20498
0
3DFACE
8
0
10
76.0
20
-29.784851
30
-173.20508
11
74.0
21
-28.085022
31
-173.20508
12
74.0
22
-71.91498
32
-123.20508
13
74.0001
23
-71.91488
33
-123.20498
0
3DFACE
8
0
10
76.0
20
-29.784851
30
-173.20508
11
74.0
21
-71.91498
31
-123.20508
12
76.0
22
-70.21515
32
-123.20508
13
76.0001
23
-70.21505
33
-123.20498
0
3DFACE
8
0
10
78.0
20
-31.525879
30
-173.20508
11
76.0
21
-29.784851
31
-173.20508
12
76.0
22
-70.21515
32
-123.20508
13
76.0001
23
-70.21505
33
-123.20498
0
3DFACE
8
0
10
78.0
20
-31.525879
30
-173.20508
11
76.0
21
-70.21515
31
-123.20508
12
78.0
22
-68.47412
32
-123.20508
13
78.0001
23
-68.47402
33
-123.20498
0
3DFACE
8
0
10
80.0
20
-33.21045
30
-173.20508
11
78.0
21
-31.525879
31
-173.20508
12
78.0
22
-68.47412
32
-123.20508
13
78.0001
23
-68.47402
33
-123.20498
0
3DFACE
8
0
10
80.0
20
-33.21045
30
-173.20508
11
78.0
21
-68.47412
31
-123.20508
12
80.0
22
-66.78955
32
-123.20508
13
80.0001
23
-66.78945
33
-123.20498
0
3DFACE
8
0
10
82.0
20
-34.631042
30
-173.20508
11
80.0
21
-33.21045
31
-173.20508
12
80.0
22
-66.78955
32
-123.20508
13
80.0001
23
-66.78945
33
-123.20498
0
3DFACE
8
0
10
82.0
20
-34.631042
30
-173.20508
11
80.0
21
-66.78955
31
-123.20508
12
82.0
22
-65.36896
32
-123.20508
13
82.0001
23
-65.36886
33
-123.20498
0
3DFACE
8
0
10
84.0
20
-35.67627
30
-173.20508
11
82.0
21
-34.631042
31
-173.20508
12
82.0
22
-65.36896
32
-123.20508
13
82.0001
23
-65.36886
33
-123.20498
0
3DFACE
8
0
10
84.0
20
-35.67627
30
-173.20508
11
82.0
21
-65.36896
31
-123.20508
12
84.0
22
-64.32373
32
-123.20508
13
84.0001
23
-64.32363
33
-123.20498
0
3DFACE
8
0
10
86.0
20
-36.219482
30
-173.20508
11
84.0
21
-35.67627
31
-173.20508
12
84.0
22
-64.32373
32
-123.20508
13
84.0001
23
-64.32363
33
-123.20498
0
3DFACE
8
0
10
86.0
20
-36.219482
30
-173.20508
11
84.0
21
-64.32373
31
-123.20508
12
86.0
22
-63.780518
32
-123.20508
13
86.0001
23
-63.78042
33
-123.20498
0
3DFACE
8
0
10
88.0
20
-36.22406
30
-173.20508
11
86.0
21
-36.219482
31
-173.20508
12
86.0
22
-63.780518
32
-123.20508
13
86.0001
23
-63.78042
33
-123.20498
0
3DFACE
8
0
10
88.0
20
-36.22406
30
-173.20508
11
86.0
21
-63.780518
31
-123.20508
12
88.0
22
-63.77594
32
-123.20508
13
88.0001
23
-63.77584
33
-123.20498
0
3DFACE
8
0
10
90.0
20
-35.700684
30
-173.20508
11
88.0
21
-36.22406
31
-173.20508
12
88.0
22
-63.77594
32
-123.20508
13
88.0001
23
-63.77584
33
-123.20498
0
3DFACE
8
0
10
90.0
20
-35.700684
30
-173.20508
11
88.0
21
-63.77594
31
-123.20508
12
90.0
22
-64.29932
32
-123.20508
13
90.0001
23
-64.29922
33
-123.20498
0
3DFACE
8
0
10
92.0
20
-34.748535
30
-173.20508
11
90.0
21
-35.700684
31
-173.20508
12
90.0
22
-64.29932
32
-123.20508
13
90.0001
23
-64.29922
33
-123.20498
0
3DFACE
8
0
10
92.0
20
-34.748535
30
-173.20508
11
90.0
21
-64.29932
31
-123.20508
12
92.0
22
-65.251465
32
-123.20508
13
92.0001
23
-65.251366
33
-123.20498
0
3DFACE
8
0
10
94.0
20
-33.44696
30
-173.20508
11
92.0
21
-34.748535
31
-173.20508
12
92.0
22
-65.251465
32
-123.20508
13
92.0001
23
-65.251366
33
-123.20498
0
3DFACE
8
0
10
94.0
20
-33.44696
30
-173.20508
11
92.0
21
-65.251465
31
-123.20508
12
94.0
22
-66.55304
32
-123.20508
13
94.0001
23
-66.55294
33
-123.20498
0
3DFACE
8
0
10
96.0
20
-31.905823
30
-173.20508
11
94.0
21
-33.44696
31
-173.20508
12
94.0
22
-66.55304
32
-123.20508
13
94.0001
23
-66.55294
33
-123.20498
0
3DFACE
8
0
10
96.0
20
-31.905823
30
-173.20508
11
94.0
21
-66.55304
31
-123.20508
12
96.0
22
-68.09418
32
-123.20508
13
96.0001
23
-68.09408
33
-123.20498
0
3DFACE
8
0
10
98.0
20
-30.209045
30
-173.20508
11
96.0
21
-31.905823
31
-173.20508
12
96.0
22
-68.09418
32
-123.20508
13
96.0001
23
-68.09408
33
-123.20498
0
3DFACE
8
0
10
98.0
20
-30.209045
30
-173.20508
11
96.0
21
-68.09418
31
-123.20508
12
98.0
22
-69.790955
32
-123.20508
13
98.0001
23
-69.790855
33
-123.20498
0
3DFACE
8
0
10
100.0
20
-28.48175
30
-173.20508
11
98.0
21
-30.209045
31
-173.20508
12
98.0
22
-69.790955
32
-123.20508
13
98.0001
23
-69.790855
33
-123.20498
0
3DFACE
8
0
10
100.0
20
-28.48175
30
-173.20508
11
98.0
21
-69.790955
31
-123.20508
12
100.0
22
-71.51825
32
-123.20508
13
100.0001
23
-71.51815
33
-123.20498
0
3DFACE
8
0
10
102.0
20
-26.855164
30
-173.20508
11
100.0
21
-28.48175
31
-173.20508
12
100.0
22
-71.51825
32
-123.20508
13
100.0001
23
-71.51815
33
-123.20498
0
3DFACE
8
0
10
102.0
20
-26.855164
30
-173.20508
11
100.0
21
-71.51825
31
-123.20508
12
102.0
22
-73.14484
32
-123.20508
13
102.0001
23
-73.14474
33
-123.20498
0
3DFACE
8
0
10
104.0
20
-25.46814
30
-173.20508
11
102.0
21
-26.855164
31
-173.20508
12
102.0
22
-73.14484
32
-123.20508
13
102.0001
23
-73.14474
33
-123.20498
0
3DFACE
8
0
10
104.0
20
-25.46814
30
-173.20508
11
102.0
21
-73.14484
31
-123.20508
12
104.0
22
-74.53186
32
-123.20508
13
104.0001
23
-74.53176
33
-123.20498
0
3DFACE
8
0
10
104.0
20
-25.46814
30
-173.20508
11
104.0
21
-74.53186
31
-123.20508
12
106.0
22
-75.53436
32
-123.20508
13
106.0001
23
-75.53426
33
-123.20498
0
3DFACE
8
0
10
104.0
20
-25.46814
30
-173.20508
11
106.0
21
-75.53436
31
-123.20508
12
106.0
22
-24.465637
32
-173.20508
13
106.0001
23
-24.465538
33
-173.20497
0
3DFACE
8
0
10
106.0
20
-24.465637
30
-173.20508
11
106.0
21
-75.53436
31
-123.20508
12
108.0
22
-76.092834
32
-123.20508
13
108.0001
23
-76.092735
33
-123.20498
0
3DFACE
8
0
10
106.0
20
-24.465637
30
-173.20508
11
108.0
21
-76.092834
31
-123.20508
12
108.0
22
-23.907166
32
-173.20508
13
108.0001
23
-23.907066
33
-173.20497
0
3DFACE
8
0
10
108.0
20
-23.907166
30
-173.20508
11
108.0
21
-76.092834
31
-123.20508
12
110.0
22
-76.17218
32
-123.20508
13
110.0001
23
-76.17208
33
-123.20498
0
3DFACE
8
0
10
108.0
20
-23.907166
30
-173.20508
11
110.0
21
-76.17218
31
-123.20508
12
110.0
22
-23.82782
32
-173.20508
13
110.0001
23
-23.82772
33
-173.20497
0
3DFACE
8
0
10
110.0
20
-23.82782
30
-173.20508
11
110.0
21
-76.17218
31
-123.20508
12
112.0
22
-75.755615
32
-123.20508
13
112.0001
23
-75.755516
33
-123.20498
0
3DFACE
8
0
10
110.0
20
-23.82782
30
-173.20508
11
112.0
21
-75.755615
31
-123.20508
12
112.0
22
-24.244385
32
-173.20508
13
112.0001
23
-24.244286
33
-173.20497
0
3DFACE
8
0
10
112.0
20
-24.244385
30
-173.20508
11
112.0
21
-75.755615
31
-123.20508
12
114.0
22
-74.904175
32
-123.20508
13
114.0001
23
-74.904076
33
-123.20498
0
3DFACE
8
0
10
112.0
20
-24.244385
30
-173.20508
11
114.0
21
-74.904175
31
-123.20508
12
114.0
22
-25.095825
32
-173.20508
13
114.0001
23
-25.095726
33
-173.20497
0
3DFACE
8
0
10
116.0
20
-26.328735
30
-173.20508
11
114.0
21
-25.095825
31
-173.20508
12
114.0
22
-74.904175
32
-123.20508
13
114.0001
23
-74.904076
33
-123.20498
0
3DFACE
8
0
10
116.0
20
-26.328735
30
-173.20508
11
114.0
21
-74.904175
31
-123.20508
12
116.0
22
-73.671265
32
-123.20508
13
116.0001
23
-73.671165
33
-123.20498
0
3DFACE
8
0
10
118.0
20
-27.87445
30
-173.20508
11
116.0
21
-26.328735
31
-173.20508
12
116.0
22
-73.671265
32
-123.20508
13
116.0001
23
-73.671165
33
-123.20498
0
3DFACE
8
0
10
118.0
20
-27.87445
30
-173.20508
11
116.0
21
-73.671265
31
-123.20508
12
118.0
22
-72.12555
32
-123.20508
13
118.0001
23
-72.12545
33
-123.20498
0
3DFACE
8
0
10
120.0
20
-29.621582
30
-173.20508
11
118.0
21
-27.87445
31
-173.20508
12
118.0
22
-72.12555
32
-123.20508
13
118.0001
23
-72.12545
33
-123.20498
0
3DFACE
8
0
10
120.0
20
-29.621582
30
-173.20508
11
118.0
21
-72.12555
31
-123.20508
12
120.0
22
-70.37842
32
-123.20508
13
120.0001
23
-70.37832
33
-123.20498
0
3DFACE
8
0
10
122.0
20
-31.449585
30
-173.20508
11
120.0
21
-29.621582
31
-173.20508
12
120.0
22
-70.37842
32
-123.20508
13
120.0001
23
-70.37832
33
-123.20498
0
3DFACE
8
0
10
122.0
20
-31.449585
30
-173.20508
11
120.0
21
-70.37842
31
-123.20508
12
122.0
22
-68.550415
32
-123.20508
13
122.0001
23
-68.550316
33
-123.20498
0
3DFACE
8
0
10
124.0
20
-33.190613
30
-173.20508
11
122.0
21
-31.449585
31
-173.20508
12
122.0
22
-68.550415
32
-123.20508
13
122.0001
23
-68.550316
33
-123.20498
0
3DFACE
8
0
10
124.0
20
-33.190613
30
-173.20508
11
122.0
21
-68.550415
31
-123.20508
12
124.0
22
-66.80939
32
-123.20508
13
124.0001
23
-66.80929
33
-123.20498
0
3DFACE
8
0
10
126.0
20
-34.670715
30
-173.20508
11
124.0
21
-33.190613
31
-173.20508
12
124.0
22
-66.80939
32
-123.20508
13
124.0001
23
-66.80929
33
-123.20498
0
3DFACE
8
0
10
126.0
20
-34.670715
30
-173.20508
11
124.0
21
-66.80939
31
-123.20508
12
126.0
22
-65.329285
32
-123.20508
13
126.0001
23
-65.329185
33
-123.20498
0
3DFACE
8
0
10
128.0
20
-35.740356
30
-173.20508
11
126.0
21
-34.670715
31
-173.20508
12
126.0
22
-65.329285
32
-123.20508
13
126.0001
23
-65.329185
33
-123.20498
0
3DFACE
8
0
10
128.0
20
-35.740356
30
-173.20508
11
126.0
21
-65.329285
31
-123.20508
12
128.0
22
-64.25964
32
-123.20508
13
128.0001
23
-64.259544
33
-123.20498
0
3DFACE
8
0
10
130.0
20
-36.282043
30
-173.20508
11
128.0
21
-35.740356
31
-173.20508
12
128.0
22
-64.25964
32
-123.20508
13
128.0001
23
-64.259544
33
-123.20498
0
3DFACE
8
0
10
130.0
20
-36.282043
30
-173.20508
11
128.0
21
-64.25964
31
-123.20508
12
130.0
22
-63.717957
32
-123.20508
13
130.0001
23
-63.717857
33
-123.20498
0
3DFACE
8
0
10
132.0
20
-36.25305
30
-173.20508
11
130.0
21
-36.282043
31
-173.20508
12
130.0
22
-63.717957
32
-123.20508
13
130.0001
23
-63.717857
33
-123.20498
0
3DFACE
8
0
10
132.0
20
-36.25305
30
-173.20508
11
130.0
21
-63.717957
31
-123.20508
12
132.0
22
-63.74695
32
-123.20508
13
132.0001
23
-63.74685
33
-123.20498
0
3DFACE
8
0
10
134.0
20
-35.703735
30
-173.20508
11
132.0
21
-36.25305
31
-173.20508
12
132.0
22
-63.74695
32
-123.20508
13
132.0001
23
-63.74685
33
-123.20498
0
3DFACE
8
0
10
134.0
20
-35.703735
30
-173.20508
11
132.0
21
-63.74695
31
-123.20508
12
134.0
22
-64.296265
32
-123.20508
13
134.0001
23
-64.296165
33
-123.20498
0
3DFACE
8
0
10
136.0
20
-34.70581
30
-173.20508
11
134.0
21
-35.703735
31
-173.20508
12
134.0
22
-64.296265
32
-123.20508
13
134.0001
23
-64.296165
33
-123.20498
0
3DFACE
8
0
10
136.0
20
-34.70581
30
-173.20508
11
134.0
21
-64.296265
31
-123.20508
12
136.0
22
-65.29419
32
-123.20508
13
136.0001
23
-65.29409
33
-123.20498
0
3DFACE
8
0
10
138.0
20
-33.378296
30
-173.20508
11
136.0
21
-34.70581
31
-173.20508
12
136.0
22
-65.29419
32
-123.20508
13
136.0001
23
-65.29409
33
-123.20498
0
3DFACE
8
0
10
138.0
20
-33.378296
30
-173.20508
11
136.0
21
-65.29419
31
-123.20508
12
138.0
22
-66.621704
32
-123.20508
13
138.0001
23
-66.621605
33
-123.20498
0
3DFACE
8
0
10
140.0
20
-31.834106
30
-173.20508
11
138.0
21
-33.378296
31
-173.20508
12
138.0
22
-66.621704
32
-123.20508
13
138.0001
23
-66.621605
33
-123.20498
0
3DFACE
8
0
10
140.0
20
-31.834106
30
-173.20508
11
138.0
21
-66.621704
31
-123.20508
12
140.0
22
-68.16589
32
-123.20508
13
140.0001
23
-68.165794
33
-123.20498
0
3DFACE
8
0
10
142.0
20
-30.154114
30
-173.20508
11
140.0
21
-31.834106
31
-173.20508
12
140.0
22
-68.16589
32
-123.20508
13
140.0001
23
-68.165794
33
-123.20498
0
3DFACE
8
0
10
142.0
20
-30.154114
30
-173.20508
11
140.0
21
-68.16589
31
-123.20508
12
142.0
22
-69.84589
32
-123.20508
13
142.0001
23
-69.84579
33
-123.20498
0
3DFACE
8
0
10
144.0
20
-28.47107
30
-173.20508
11
142.0
21
-30.154114
31
-173.20508
12
142.0
22
-69.84589
32
-123.20508
13
142.0001
23
-69.84579
33
-123.20498
0
3DFACE
8
0
10
144.0
20
-28.47107
30
-173.20508
11
142.0
21
-69.84589
31
-123.20508
12
144.0
22
-71.52893
32
-123.20508
13
144.0001
23
-71.52883
33
-123.20498
0
3DFACE
8
0
10
146.0
20
-26.911621
30
-173.20508
11
144.0
21
-28.47107
31
-173.20508
12
144.0
22
-71.52893
32
-123.20508
13
144.0001
23
-71.52883
33
-123.20498
0
3DFACE
8
0
10
146.0
20
-26.911621
30
-173.20508
11
144.0
21
-71.52893
31
-123.20508
12
146.0
22
-73.08838
32
-123.20508
13
146.0001
23
-73.08828
33
-123.20498
0
3DFACE
8
0
10
148.0
20
-25.579529
30
-173.20508
11
146.0
21
-26.911621
31
-173.20508
12
146.0
22
-73.08838
32
-123.20508
13
146.0001
23
-73.08828
33
-123.20498
0
3DFACE
8
0
10
148.0
20
-25.579529
30
-173.20508
11
146.0
21
-73.08838
31
-123.20508
12
148.0
22
-74.42047
32
-123.20508
13
148.0001
23
-74.42037
33
-123.20498
0
3DFACE
8
0
10
148.0
20
-25.579529
30
-173.20508
11
148.0
21
-74.42047
31
-123.20508
12
150.0
22
-75.39551
32
-123.20508
13
150.0001
23
-75.39541
33
-123.20498
0
3DFACE
8
0
10
148.0
20
-25.579529
30
-173.20508
11
150.0
21
-75.39551
31
-123.20508
12
150.0
22
-24.604492
32
-173.20508
13
150.0001
23
-24.604393
33
-173.20497
0
3DFACE
8
0
10
150.0
20
-24.604492
30
-173.20508
11
150.0
21
-75.39551
31
-123.20508
12
152.0
22
-75.92651
32
-123.20508
13
152.0001
23
-75.926414
33
-123.20498
0
3DFACE
8
0
10
150.0
20
-24.604492
30
-173.20508
11
152.0
21
-75.92651
31
-123.20508
12
152.0
22
-24.073486
32
-173.20508
13
152.0001
23
-24.073387
33
-173.20497
0
3DFACE
8
0
10
152.0
20
-24.073486
30
-173.20508
11
152.0
21
-75.92651
31
-123.20508
12
154.0
22
-76.00281
32
-123.20508
13
154.0001
23
-76.00271
33
-123.20498
0
3DFACE
8
0
10
152.0
20
-24.073486
30
-173.20508
11
154.0
21
-76.00281
31
-123.20508
12
154.0
22
-23.997192
32
-173.20508
13
154.0001
23
-23.997093
33
-173.20497
0
3DFACE
8
0
10
154.0
20
-23.997192
30
-173.20508
11
154.0
21
-76.00281
31
-123.20508
12
156.0
22
-75.633545
32
-123.20508
13
156.0001
23
-75.633446
33
-123.20498
0
3DFACE
8
0
10
154.0
20
-23.997192
30
-173.20508
11
156.0
21
-75.633545
31
-123.20508
12
156.0
22
-24.366455
32
-173.20508
13
156.0001
23
-24.366356
33
-173.20497
0
3DFACE
8
0
10
156.0
20
-24.366455
30
-173.20508
11
156.0
21
-75.633545
31
-123.20508
12
158.0
22
-74.83246
32
-123.20508
13
158.0001
23
-74.83236
33
-123.20498
0
3DFACE
8
0
10
156.0
20
-24.366455
30
-173.20508
11
158.0
21
-74.83246
31
-123.20508
12
158.0
22
-25.167542
32
-173.20508
13
158.0001
23
-25.167442
33
-173.20497
0
3DFACE
8
0
10
160.0
20
-26.32721
30
-173.20508
11
158.0
21
-25.167542
31
-173.20508
12
158.0
22
-74.83246
32
-123.20508
13
158.0001
23
-74.83236
33
-123.20498
0
3DFACE
8
0
10
160.0
20
-26.32721
30
-173.20508
11
158.0
21
-74.83246
31
-123.20508
12
160.0
22
-73.67279
32
-123.20508
13
160.0001
23
-73.67269
33
-123.20498
0
3DFACE
8
0
10
162.0
20
-27.781372
30
-173.20508
11
160.0
21
-26.32721
31
-173.20508
12
160.0
22
-73.67279
32
-123.20508
13
160.0001
23
-73.67269
33
-123.20498
0
3DFACE
8
0
10
162.0
20
-27.781372
30
-173.20508
11
160.0
21
-73.67279
31
-123.20508
12
162.0
22
-72.21863
32
-123.20508
13
162.0001
23
-72.21853
33
-123.20498
0
3DFACE
8
0
10
164.0
20
-29.440002
30
-173.20508
11
162.0
21
-27.781372
31
-173.20508
12
162.0
22
-72.21863
32
-123.20508
13
162.0001
23
-72.21853
33
-123.20498
0
3DFACE
8
0
10
164.0
20
-29.440002
30
-173.20508
11
162.0
21
-72.21863
31
-123.20508
12
164.0
22
-70.56
32
-123.20508
13
164.0001
23
-70.5599
33
-123.20498
0
3DFACE
8
0
10
166.0
20
-31.216125
30
-173.20508
11
164.0
21
-29.440002
31
-173.20508
12
164.0
22
-70.56
32
-123.20508
13
164.0001
23
-70.5599
33
-123.20498
0
3DFACE
8
0
10
166.0
20
-31.216125
30
-173.20508
11
164.0
21
-70.56
31
-123.20508
12
166.0
22
-68.783875
32
-123.20508
13
166.0001
23
-68.783775
33
-123.20498
0
3DFACE
8
0
10
168.0
20
-32.949524
30
-173.20508
11
166.0
21
-31.216125
31
-173.20508
12
166.0
22
-68.783875
32
-123.20508
13
166.0001
23
-68.783775
33
-123.20498
0
3DFACE
8
0
10
168.0
20
-32.949524
30
-173.20508
11
166.0
21
-68.783875
31
-123.20508
12
168.0
22
-67.050476
32
-123.20508
13
168.0001
23
-67.05038
33
-123.20498
0
3DFACE
8
0
10
170.0
20
-34.447937
30
-173.20508
11
168.0
21
-32.949524
31
-173.20508
12
168.0
22
-67.050476
32
-123.20508
13
168.0001
23
-67.05038
33
-123.20498
0
3DFACE
8
0
10
170.0
20
-34.447937
30
-173.20508
11
168.0
21
-67.050476
31
-123.20508
12
170.0
22
-65.55206
32
-123.20508
13
170.0001
23
-65.55196
33
-123.20498
0
3DFACE
8
0
10
172.0
20
-35.555725
30
-173.20508
11
170.0
21
-34.447937
31
-173.20508
12
170.0
22
-65.55206
32
-123.20508
13
170.0001
23
-65.55196
33
-123.20498
0
3DFACE
8
0
10
172.0
20
-35.555725
30
-173.20508
11
170.0
21
-65.55206
31
-123.20508
12
172.0
22
-64.444275
32
-123.20508
13
172.0001
23
-64.444176
33
-123.20498
0
3DFACE
8
0
10
174.0
20
-36.178284
30
-173.20508
11
172.0
21
-35.555725
31
-173.20508
12
172.0
22
-64.444275
32
-123.20508
13
172.0001
23
-64.444176
33
-123.20498
0
3DFACE
8
0
10
174.0
20
-36.178284
30
-173.20508
11
172.0
21
-64.444275
31
-123.20508
12
174.0
22
-63.821716
32
-123.20508
13
174.0001
23
-63.821617
33
-123.20498
0
3DFACE
8
0
10
176.0
20
-36.25763
30
-173.20508
11
174.0
21
-36.178284
31
-173.20508
12
174.0
22
-63.821716
32
-123.20508
13
174.0001
23
-63.821617
33
-123.20498
0
3DFACE
8
0
10
176.0
20
-36.25763
30
-173.20508
11
174.0
21
-63.821716
31
-123.20508
12
176.0
22
-63.74237
32
-123.20508
13
176.0001
23
-63.74227
33
-123.20498
0
3DFACE
8
0
10
178.0
20
-35.84259
30
-173.20508
11
176.0
21
-36.25763
31
-173.20508
12
176.0
22
-63.74237
32
-123.20508
13
176.0001
23
-63.74227
33
-123.20498
0
3DFACE
8
0
10
178.0
20
-35.84259
30
-173.20508
11
176.0
21
-63.74237
31
-123.20508
12
178.0
22
-64.15741
32
-123.20508
13
178.0001
23
-64.15731
33
-123.20498
0
3DFACE
8
0
10
180.0
20
-35.010986
30
-173.20508
11
178.0
21
-35.84259
31
-173.20508
12
178.0
22
-64.15741
32
-123.20508
13
178.0001
23
-64.15731
33
-123.20498
0
3DFACE
8
0
10
180.0
20
-35.010986
30
-173.20508
11
178.0
21
-64.15741
31
-123.20508
12
180.0
22
-64.98901
32
-123.20508
13
180.0001
23
-64.988914
33
-123.20498
0
3DFACE
8
0
10
182.0
20
-33.790283
30
-173.20508
11
180.0
21
-35.010986
31
-173.20508
12
180.0
22
-64.98901
32
-123.20508
13
180.0001
23
-64.988914
33
-123.20498
0
3DFACE
8
0
10
182.0
20
-33.790283
30
-173.20508
11
180.0
21
-64.98901
31
-123.20508
12
182.0
22
-66.20972
32
-123.20508
13
182.0001
23
-66.20962
33
-123.20498
0
3DFACE
8
0
10
184.0
20
-32.253723
30
-173.20508
11
182.0
21
-33.790283
31
-173.20508
12
182.0
22
-66.20972
32
-123.20508
13
182.0001
23
-66.20962
33
-123.20498
0
3DFACE
8
0
10
184.0
20
-32.253723
30
-173.20508
11
182.0
21
-66.20972
31
-123.20508
12
184.0
22
-67.74628
32
-123.20508
13
184.0001
23
-67.74618
33
-123.20498
0
3DFACE
8
0
10
186.0
20
-30.505066
30
-173.20508
11
184.0
21
-32.253723
31
-173.20508
12
184.0
22
-67.74628
32
-123.20508
13
184.0001
23
-67.74618
33
-123.20498
0
3DFACE
8
0
10
186.0
20
-30.505066
30
-173.20508
11
184.0
21
-67.74628
31
-123.20508
12
186.0
22
-69.494934
32
-123.20508
13
186.0001
23
-69.494835
33
-123.20498
0
3DFACE
8
0
10
188.0
20
-28.709106
30
-173.20508
11
186.0
21
-30.505066
31
-173.20508
12
186.0
22
-69.494934
32
-123.20508
13
186.0001
23
-69.494835
33
-123.20498
0
3DFACE
8
0
10
188.0
20
-28.709106
30
-173.20508
11
186.0
21
-69.494934
31
-123.20508
12
188.0
22
-71.29089
32
-123.20508
13
188.0001
23
-71.290794
33
-123.20498
0
3DFACE
8
0
10
190.0
20
-27.0047
30
-173.20508
11
188.0
21
-28.709106
31
-173.20508
12
188.0
22
-71.29089
32
-123.20508
13
188.0001
23
-71.290794
33
-123.20498
0
3DFACE
8
0
10
190.0
20
-27.0047
30
-173.20508
11
188.0
21
-71.29089
31
-123.20508
12
190.0
22
-72.9953
32
-123.20508
13
190.0001
23
-72.9952
33
-123.20498
0
3DFACE
8
0
10
192.0
20
-25.544434
30
-173.20508
11
190.0
21
-27.0047
31
-173.20508
12
190.0
22
-72.9953
32
-123.20508
13
190.0001
23
-72.9952
33
-123.20498
0
3DFACE
8
0
10
192.0
20
-25.544434
30
-173.20508
11
190.0
21
-72.9953
31
-123.20508
12
192.0
22
-74.45557
32
-123.20508
13
192.0001
23
-74.45547
33
-123.20498
0
3DFACE
8
0
10
192.0
20
-25.544434
30
-173.20508
11
192.0
21
-74.45557
31
-123.20508
12
194.0
22
-75.548096
32
-123.20508
13
194.0001
23
-75.548
33
-123.20498
0
3DFACE
8
0
10
192.0
20
-25.544434
30
-173.20508
11
194.0
21
-75.548096
31
-123.20508
12
194.0
22
-24.451904
32
-173.20508
13
194.0001
23
-24.451805
33
-173.20497
0
3DFACE
8
0
10
194.0
20
-24.451904
30
-173.20508
11
194.0
21
-75.548096
31
-123.20508
12
196.0
22
-76.196594
32
-123.20508
13
196.0001
23
-76.196495
33
-123.20498
0
3DFACE
8
0
10
194.0
20
-24.451904
30
-173.20508
11
196.0
21
-76.196594
31
-123.20508
12
196.0
22
-23.803406
32
-173.20508
13
196.0001
23
-23.803307
33
-173.20497
0
3DFACE
8
0
10
196.0
20
-23.803406
30
-173.20508
11
196.0
21
-76.196594
31
-123.20508
12
198.0
22
-76.336975
32
-123.20508
13
198.0001
23
-76.336876
33
-123.20498
0
3DFACE
8
0
10
196.0
20
-23.803406
30
-173.20508
11
198.0
21
-76.336975
31
-123.20508
12
198.0
22
-23.663025
32
-173.20508
13
198.0001
23
-23.662926
33
-173.20497
0
3DFACE
8
0
10
198.0
20
-23.663025
30
-173.20508
11
198.0
21
-76.336975
31
-123.20508
12
200.0
22
-75.96008
32
-123.20508
13
200.0001
23
-75.959984
33
-123.20498
0
3DFACE
8
0
10
198.0
20
-23.663025
30
-173.20508
11
200.0
21
-75.96008
31
-123.20508
12
200.0
22
-24.039917
32
-173.20508
13
200.0001
23
-24.039818
33
-173.20497
0
3DFACE
8
0
10
200.0
20
-24.039917
30
-173.20508
11
200.0
21
-75.96008
31
-123.20508
12
202.0
22
-75.10559
32
-123.20508
13
202.0001
23
-75.10549
33
-123.20498
0
3DFACE
8
0
10
200.0
20
-24.039917
30
-173.20508
11
202.0
21
-75.10559
31
-123.20508
12
202.0
22
-24.89441
32
-173.20508
13
202.0001
23
-24.89431
33
-173.20497
0
3DFACE
8
0
10
202.0
20
-24.89441
30
-173.20508
11
202.0
21
-75.10559
31
-123.20508
12
204.0
22
-73.85132
32
-123.20508
13
204.0001
23
-73.85122
33
-123.20498
0
3DFACE
8
0
10
202.0
20
-24.89441
30
-173.20508
11
204.0
21
-73.85132
31
-123.20508
12
204.0
22
-26.148682
32
-173.20508
13
204.0001
23
-26.148582
33
-173.20497
0
3DFACE
8
0
10
206.0
20
-27.703552
30
-173.20508
11
204.0
21
-26.148682
31
-173.20508
12
204.0
22
-73.85132
32
-123.20508
13
204.0001
23
-73.85122
33
-123.20498
0
3DFACE
8
0
10
206.0
20
-27.703552
30
-173.20508
11
204.0
21
-73.85132
31
-123.20508
12
206.0
22
-72.29645
32
-123.20508
13
206.0001
23
-72.29635
33
-123.20498
0
3DFACE
8
0
10
208.0
20
-29.464417
30
-173.20508
11
206.0
21
-27.703552
31
-173.20508
12
206.0
22
-72.29645
32
-123.20508
13
206.0001
23
-72.29635
33
-123.20498
0
3DFACE
8
0
10
208.0
20
-29.464417
30
-173.20508
11
206.0
21
-72.29645
31
-123.20508
12
208.0
22
-70.53558
32
-123.20508
13
208.0001
23
-70.535484
33
-123.20498
0
3DFACE
8
0
10
210.0
20
-31.322937
30
-173.20508
11
208.0
21
-29.464417
31
-173.20508
12
208.0
22
-70.53558
32
-123.20508
13
208.0001
23
-70.535484
33
-123.20498
0
3DFACE
8
0
10
210.0
20
-31.322937
30
-173.20508
11
208.0
21
-70.53558
31
-123.20508
12
210.0
22
-68.67706
32
-123.20508
13
210.0001
23
-68.67696
33
-123.20498
0
3DFACE
8
0
10
212.0
20
-33.134155
30
-173.20508
11
210.0
21
-31.322937
31
-173.20508
12
210.0
22
-68.67706
32
-123.20508
13
210.0001
23
-68.67696
33
-123.20498
0
3DFACE
8
0
10
212.0
20
-33.134155
30
-173.20508
11
210.0
21
-68.67706
31
-123.20508
12
212.0
22
-66.865845
32
-123.20508
13
212.0001
23
-66.865746
33
-123.20498
0
3DFACE
8
0
10
214.0
20
-34.682922
30
-173.20508
11
212.0
21
-33.134155
31
-173.20508
12
212.0
22
-66.865845
32
-123.20508
13
212.0001
23
-66.865746
33
-123.20498
0
3DFACE
8
0
10
214.0
20
-34.682922
30
-173.20508
11
212.0
21
-66.865845
31
-123.20508
12
214.0
22
-65.31708
32
-123.20508
13
214.0001
23
-65.31698
33
-123.20498
0
3DFACE
8
0
10
216.0
20
-35.804443
30
-173.20508
11
214.0
21
-34.682922
31
-173.20508
12
214.0
22
-65.31708
32
-123.20508
13
214.0001
23
-65.31698
33
-123.20498
0
3DFACE
8
0
10
216.0
20
-35.804443
30
-173.20508
11
214.0
21
-65.31708
31
-123.20508
12
216.0
22
-64.19556
32
-123.20508
13
216.0001
23
-64.19546
33
-123.20498
0
3DFACE
8
0
10
218.0
20
-36.39801
30
-173.20508
11
216.0
21
-35.804443
31
-173.20508
12
216.0
22
-64.19556
32
-123.20508
13
216.0001
23
-64.19546
33
-123.20498
0
3DFACE
8
0
10
218.0
20
-36.39801
30
-173.20508
11
216.0
21
-64.19556
31
-123.20508
12
218.0
22
-63.60199
32
-123.20508
13
218.0001
23
-63.60189
33
-123.20498
0
3DFACE
8
0
10
220.0
20
-36.45752
30
-173.20508
11
218.0
21
-36.39801
31
-173.20508
12
218.0
22
-63.60199
32
-123.20508
13
218.0001
23
-63.60189
33
-123.20498
0
3DFACE
8
0
10
220.0
20
-36.45752
30
-173.20508
11
218.0
21
-63.60199
31
-123.20508
12
220.0
22
-63.54248
32
-123.20508
13
220.0001
23
-63.54238
33
-123.20498
0
3DFACE
8
0
10
222.0
20
-35.996704
30
-173.20508
11
220.0
21
-36.45752
31
-173.20508
12
220.0
22
-63.54248
32
-123.20508
13
220.0001
23
-63.54238
33
-123.20498
0
3DFACE
8
0
10
222.0
20
-35.996704
30
-173.20508
11
220.0
21
-63.54248
31
-123.20508
12
222.0
22
-64.003296
32
-123.20508
13
222.0001
23
-64.0032
33
-123.20498
0
3DFACE
8
0
10
224.0
20
-35.06134
30
-173.20508
11
222.0
21
-35.996704
31
-173.20508
12
222.0
22
-64.003296
32
-123.20508
13
222.0001
23
-64.0032
33
-123.20498
0
3DFACE
8
0
10
224.0
20
-35.06134
30
-173.20508
11
222.0
21
-64.003296
31
-123.20508
12
224.0
22
-64.93866
32
-123.20508
13
224.0001
23
-64.93856
33
-123.20498
0
3DFACE
8
0
10
226.0
20
-33.71704
30
-173.20508
11
224.0
21
-35.06134
31
-173.20508
12
224.0
22
-64.93866
32
-123.20508
13
224.0001
23
-64.93856
33
-123.20498
0
3DFACE
8
0
10
226.0
20
-33.71704
30
-173.20508
11
224.0
21
-64.93866
31
-123.20508
12
226.0
22
-66.28296
32
-123.20508
13
226.0001
23
-66.28286
33
-123.20498
0
3DFACE
8
0
10
228.0
20
-32.085876
30
-173.20508
11
226.0
21
-33.71704
31
-173.20508
12
226.0
22
-66.28296
32
-123.20508
13
226.0001
23
-66.28286
33
-123.20498
0
3DFACE
8
0
10
228.0
20
-32.085876
30
-173.20508
11
226.0
21
-66.28296
31
-123.20508
12
228.0
22
-67.91412
32
-123.20508
13
228.0001
23
-67.914024
33
-123.20498
0
3DFACE
8
0
10
230.0
20
-30.292969
30
-173.20508
11
228.0
21
-32.085876
31
-173.20508
12
228.0
22
-67.91412
32
-123.20508
13
228.0001
23
-67.914024
33
-123.20498
0
3DFACE
8
0
10
230.0
20
-30.292969
30
-173.20508
11
228.0
21
-67.91412
31
-123.20508
12
230.0
22
-69.70703
32
-123.20508
13
230.0001
23
-69.70693
33
-123.20498
0
3DFACE
8
0
10
232.0
20
-28.498535
30
-173.20508
11
230.0
21
-30.292969
31
-173.20508
12
230.0
22
-69.70703
32
-123.20508
13
230.0001
23
-69.70693
33
-123.20498
0
3DFACE
8
0
10
232.0
20
-28.498535
30
-173.20508
11
230.0
21
-69.70703
31
-123.20508
12
232.0
22
-71.501465
32
-123.20508
13
232.0001
23
-71.501366
33
-123.20498
0
3DFACE
8
0
10
234.0
20
-26.836853
30
-173.20508
11
232.0
21
-28.498535
31
-173.20508
12
232.0
22
-71.501465
32
-123.20508
13
232.0001
23
-71.501366
33
-123.20498
0
3DFACE
8
0
10
234.0
20
-26.836853
30
-173.20508
11
232.0
21
-71.501465
31
-123.20508
12
234.0
22
-73.16315
32
-123.20508
13
234.0001
23
-73.16305
33
-123.20498
0
3DFACE
8
0
10
236.0
20
-25.41626
30
-173.20508
11
234.0
21
-26.836853
31
-173.20508
12
234.0
22
-73.16315
32
-123.20508
13
234.0001
23
-73.16305
33
-123.20498
0
3DFACE
8
0
10
236.0
20
-25.41626
30
-173.20508
11
234.0
21
-73.16315
31
-123.20508
12
236.0
22
-74.58374
32
-123.20508
13
236.0001
23
-74.58364
33
-123.20498
0
3DFACE
8
0
10
236.0
20
-25.41626
30
-173.20508
11
236.0
21
-74.58374
31
-123.20508
12
238.0
22
-75.615234
32
-123.20508
13
238.0001
23
-75.615135
33
-123.20498
0
3DFACE
8
0
10
236.0
20
-25.41626
30
-173.20508
11
238.0
21
-75.615234
31
-123.20508
12
238.0
22
-24.384766
32
-173.20508
13
238.0001
23
-24.384666
33
-173.20497
0
3DFACE
8
0
10
238.0
20
-24.384766
30
-173.20508
11
238.0
21
-75.615234
31
-123.20508
12
240.0
22
-76.18744
32
-123.20508
13
240.0001
23
-76.18734
33
-123.20498
0
3DFACE
8
0
10
238.0
20
-24.384766
30
-173.20508
11
240.0
21
-76.18744
31
-123.20508
12
240.0
22
-23.812561
32
-173.20508
13
240.0001
23
-23.812462
33
-173.20497
0
3DFACE
8
0
10
240.0
20
-23.812561
30
-173.20508
11
240.0
21
-76.18744
31
-123.20508
12
242.0
22
-76.28052
32
-123.20508
13
242.0001
23
-76.28042
33
-123.20498
0
3DFACE
8
0
10
240.0
20
-23.812561
30
-173.20508
11
242.0
21
-76.28052
31
-123.20508
12
242.0
22
-23.719482
32
-173.20508
13
242.0001
23
-23.719383
33
-173.20497
0
3DFACE
8
0
10
242.0
20
-23.719482
30
-173.20508
11
242.0
21
-76.28052
31
-123.20508
12
244.0
22
-75.89142
32
-123.20508
13
244.0001
23
-75.89132
33
-123.20498
0
3DFACE
8
0
10
242.0
20
-23.719482
30
-173.20508
11
244.0
21
-75.89142
31
-123.20508
12
244.0
22
-24.108582
32
-173.20508
13
244.0001
23
-24.108482
33
-173.20497
0
3DFACE
8
0
10
244.0
20
-24.108582
30
-173.20508
11
244.0
21
-75.89142
31
-123.20508
12
246.0
22
-75.06287
32
-123.20508
13
246.0001
23
-75.06277
33
-123.20498
0
3DFACE
8
0
10
244.0
20
-24.108582
30
-173.20508
11
246.0
21
-75.06287
31
-123.20508
12
246.0
22
-24.937134
32
-173.20508
13
246.0001
23
-24.937035
33
-173.20497
0
3DFACE
8
0
10
246.0
20
-24.937134
30
-173.20508
11
246.0
21
-75.06287
31
-123.20508
12
248.0
22
-73.85437
32
-123.20508
13
248.0001
23
-73.85427
33
-123.20498
0
3DFACE
8
0
10
246.0
20
-24.937134
30
-173.20508
11
248.0
21
-73.85437
31
-123.20508
12
248.0
22
-26.14563
32
-173.20508
13
248.0001
23
-26.14553
33
-173.20497
0
3DFACE
8
0
10
250.0
20
-27.67456
30
-173.20508
11
248.0
21
-26.14563
31
-173.20508
12
248.0
22
-73.85437
32
-123.20508
13
248.0001
23
-73.85427
33
-123.20498
0
3DFACE
8
0
10
250.0
20
-27.67456
30
-173.20508
11
248.0
21
-73.85437
31
-123.20508
12
250.0
22
-72.32544
32
-123.20508
13
250.0001
23
-72.32534
33
-123.20498
0
3DFACE
8
0
10
252.0
20
-29.450684
30
-173.20508
11
250.0
21
-27.67456
31
-173.20508
12
250.0
22
-72.32544
32
-123.20508
13
250.0001
23
-72.32534
33
-123.20498
0
3DFACE
8
0
10
252.0
20
-29.450684
30
-173.20508
11
250.0
21
-72.32544
31
-123.20508
12
252.0
22
-70.54932
32
-123.20508
13
252.0001
23
-70.54922
33
-123.20498
0
3DFACE
8
0
10
254.0
20
-31.313782
30
-173.20508
11
252.0
21
-29.450684
31
-173.20508
12
252.0
22
-70.54932
32
-123.20508
13
252.0001
23
-70.54922
33
-123.20498
0
3DFACE
8
0
10
254.0
20
-31.313782
30
-173.20508
11
252.0
21
-70.54932
31
-123.20508
12
254.0
22
-68.68622
32
-123.20508
13
254.0001
23
-68.68612
33
-123.20498
0
ENDSEC
0
EOF
