0
SECTION
2
ENTITIES
0
3DFACE
8
0
10
-254.0
20
-28.153625
30
-173.20508
11
-256.0
21
-27.734001
31
-173.20508
12
-256.0
22
-72.266
32
-123.20508
13
-255.9999
23
-72.2659
33
-123.20498
0
3DFACE
8
0
10
-254.0
20
-28.153625
30
-173.20508
11
-256.0
21
-72.266
31
-123.20508
12
-254.0
22
-71.846375
32
-123.20508
13
-253.9999
23
-71.846275
33
-123.20498
0
3DFACE
8
0
10
-252.0
20
-28.786888
30
-173.20508
11
-254.0
21
-28.153625
31
-173.20508
12
-254.0
22
-71.846375
32
-123.20508
13
-253.9999
23
-71.846275
33
-123.20498
0
3DFACE
8
0
10
-252.0
20
-28.786888
30
-173.20508
11
-254.0
21
-71.846375
31
-123.20508
12
-252.0
22
-71.21311
32
-123.20508
13
-251.9999
23
-71.21301
33
-123.20498
0
3DFACE
8
0
10
-250.0
20
-29.511703
30
-173.20508
11
-252.0
21
-28.786888
31
-173.20508
12
-252.0
22
-71.21311
32
-123.20508
13
-251.9999
23
-71.21301
33
-123.20498
0
3DFACE
8
0
10
-250.0
20
-29.511703
30
-173.20508
11
-252.0
21
-71.21311
31
-123.20508
12
-250.0
22
-70.4883
32
-123.20508
13
-249.9999
23
-70.4882
33
-123.20498
0
3DFACE
8
0
10
-248.0
20
-30.144958
30
-173.20508
11
-250.0
21
-29.511703
31
-173.20508
12
-250.0
22
-70.4883
32
-123.20508
13
-249.9999
23
-70.4882
33
-123.20498
0
3DFACE
8
0
10
-248.0
20
-30.144958
30
-173.20508
11
-250.0
21
-70.4883
31
-123.20508
12
-248.0
22
-69.85504
32
-123.20508
13
-247.9999
23
-69.85494
33
-123.20498
0
3DFACE
8
0
10
-246.0
20
-30.762962
30
-173.20508
11
-248.0
21
-30.144958
31
-173.20508
12
-248.0
22
-69.85504
32
-123.20508
13
-247.9999
23
-69.85494
33
-123.20498
0
3DFACE
8
0
10
-246.0
20
-30.762962
30
-173.20508
11
-248.0
21
-69.85504
31
-123.20508
12
-246.0
22
-69.23704
32
-123.20508
13
-245.9999
23
-69.23694
33
-123.20498
0
3DFACE
8
0
10
-244.0
20
-31.297035
30
-173.20508
11
-246.0
21
-30.762962
31
-173.20508
12
-246.0
22
-69.23704
32
-123.20508
13
-245.9999
23
-69.23694
33
-123.20498
0
3DFACE
8
0
10
-244.0
20
-31.297035
30
-173.20508
11
-246.0
21
-69.23704
31
-123.20508
12
-244.0
22
-68.702965
32
-123.20508
13
-243.9999
23
-68.702866
33
-123.20498
0
3DFACE
8
0
10
-242.0
20
-31.792961
30
-173.20508
11
-244.0
21
-31.297035
31
-173.20508
12
-244.0
22
-68.702965
32
-123.20508
13
-243.9999
23
-68.702866
33
-123.20498
0
3DFACE
8
0
10
-242.0
20
-31.792961
30
-173.20508
11
-244.0
21
-68.702965
31
-123.20508
12
-242.0
22
-68.20704
32
-123.20508
13
-241.9999
23
-68.20694
33
-123.20498
0
3DFACE
8
0
10
-240.0
20
-32.03711
30
-173.20508
11
-242.0
21
-31.792961
31
-173.20508
12
-242.0
22
-68.20704
32
-123.20508
13
-241.9999
23
-68.20694
33
-123.20498
0
3DFACE
8
0
10
-240.0
20
-32.03711
30
-173.20508
11
-242.0
21
-68.20704
31
-123.20508
12
-240.0
22
-67.96289
32
-123.20508
13
-239.9999
23
-67.96279
33
-123.20498
0
3DFACE
8
0
10
-238.0
20
-32.02185
30
-173.20508
11
-240.0
21
-32.03711
31
-173.20508
12
-240.0
22
-67.96289
32
-123.20508
13
-239.9999
23
-67.96279
33
-123.20498
0
3DFACE
8
0
10
-238.0
20
-32.02185
30
-173.20508
11
-240.0
21
-67.96289
31
-123.20508
12
-238.0
22
-67.97815
32
-123.20508
13
-237.9999
23
-67.97805
33
-123.20498
0
3DFACE
8
0
10
-236.0
20
-31.922668
30
-173.20508
11
-238.0
21
-32.02185
31
-173.20508
12
-238.0
22
-67.97815
32
-123.20508
13
-237.9999
23
-67.97805
33
-123.20498
0
3DFACE
8
0
10
-236.0
20
-31.922668
30
-173.20508
11
-238.0
21
-67.97815
31
-123.20508
12
-236.0
22
-68.07733
32
-123.20508
13
-235.9999
23
-68.07723
33
-123.20498
0
3DFACE
8
0
10
-234.0
20
-31.709038
30
-173.20508
11
-236.0
21
-31.922668
31
-173.20508
12
-236.0
22
-68.07733
32
-123.20508
13
-235.9999
23
-68.07723
33
-123.20498
0
3DFACE
8
0
10
-234.0
20
-31.709038
30
-173.20508
11
-236.0
21
-68.07733
31
-123.20508
12
-234.0
22
-68.29096
32
-123.20508
13
-233.9999
23
-68.29086
33
-123.20498
0
3DFACE
8
0
10
-232.0
20
-31.312294
30
-173.20508
11
-234.0
21
-31.709038
31
-173.20508
12
-234.0
22
-68.29096
32
-123.20508
13
-233.9999
23
-68.29086
33
-123.20498
0
3DFACE
8
0
10
-232.0
20
-31.312294
30
-173.20508
11
-234.0
21
-68.29096
31
-123.20508
12
-232.0
22
-68.687706
32
-123.20508
13
-231.9999
23
-68.68761
33
-123.20498
0
3DFACE
8
0
10
-230.0
20
-30.816368
30
-173.20508
11
-232.0
21
-31.312294
31
-173.20508
12
-232.0
22
-68.687706
32
-123.20508
13
-231.9999
23
-68.68761
33
-123.20498
0
3DFACE
8
0
10
-230.0
20
-30.816368
30
-173.20508
11
-232.0
21
-68.687706
31
-123.20508
12
-230.0
22
-69.18363
32
-123.20508
13
-229.9999
23
-69.18353
33
-123.20498
0
3DFACE
8
0
10
-228.0
20
-30.183113
30
-173.20508
11
-230.0
21
-30.816368
31
-173.20508
12
-230.0
22
-69.18363
32
-123.20508
13
-229.9999
23
-69.18353
33
-123.20498
0
3DFACE
8
0
10
-228.0
20
-30.183113
30
-173.20508
11
-230.0
21
-69.18363
31
-123.20508
12
-228.0
22
-69.81689
32
-123.20508
13
-227.9999
23
-69.81679
33
-123.20498
0
3DFACE
8
0
10
-226.0
20
-29.473557
30
-173.20508
11
-228.0
21
-30.183113
31
-173.20508
12
-228.0
22
-69.81689
32
-123.20508
13
-227.9999
23
-69.81679
33
-123.20498
0
3DFACE
8
0
10
-226.0
20
-29.473557
30
-173.20508
11
-228.0
21
-69.81689
31
-123.20508
12
-226.0
22
-70.52644
32
-123.20508
13
-225.9999
23
-70.526344
33
-123.20498
0
3DFACE
8
0
10
-224.0
20
-28.886078
30
-173.20508
11
-226.0
21
-29.473557
31
-173.20508
12
-226.0
22
-70.52644
32
-123.20508
13
-225.9999
23
-70.526344
33
-123.20498
0
3DFACE
8
0
10
-224.0
20
-28.886078
30
-173.20508
11
-226.0
21
-70.52644
31
-123.20508
12
-224.0
22
-71.11392
32
-123.20508
13
-223.9999
23
-71.11382
33
-123.20498
0
3DFACE
8
0
10
-222.0
20
-28.344376
30
-173.20508
11
-224.0
21
-28.886078
31
-173.20508
12
-224.0
22
-71.11392
32
-123.20508
13
-223.9999
23
-71.11382
33
-123.20498
0
3DFACE
8
0
10
-222.0
20
-28.344376
30
-173.20508
11
-224.0
21
-71.11392
31
-123.20508
12
-222.0
22
-71.655624
32
-123.20508
13
-221.9999
23
-71.655525
33
-123.20498
0
3DFACE
8
0
10
-220.0
20
-27.947632
30
-173.20508
11
-222.0
21
-28.344376
31
-173.20508
12
-222.0
22
-71.655624
32
-123.20508
13
-221.9999
23
-71.655525
33
-123.20498
0
3DFACE
8
0
10
-220.0
20
-27.947632
30
-173.20508
11
-222.0
21
-71.655624
31
-123.20508
12
-220.0
22
-72.05237
32
-123.20508
13
-219.9999
23
-72.05227
33
-123.20498
0
3DFACE
8
0
10
-218.0
20
-27.764519
30
-173.20508
11
-220.0
21
-27.947632
31
-173.20508
12
-220.0
22
-72.05237
32
-123.20508
13
-219.9999
23
-72.05227
33
-123.20498
0
3DFACE
8
0
10
-218.0
20
-27.764519
30
-173.20508
11
-220.0
21
-72.05237
31
-123.20508
12
-218.0
22
-72.23548
32
-123.20508
13
-217.9999
23
-72.23538
33
-123.20498
0
3DFACE
8
0
10
-216.0
20
-27.779778
30
-173.20508
11
-218.0
21
-27.764519
31
-173.20508
12
-218.0
22
-72.23548
32
-123.20508
13
-217.9999
23
-72.23538
33
-123.20498
0
3DFACE
8
0
10
-216.0
20
-27.779778
30
-173.20508
11
-218.0
21
-72.23548
31
-123.20508
12
-216.0
22
-72.22022
32
-123.20508
13
-215.9999
23
-72.22012
33
-123.20498
0
3DFACE
8
0
10
-214.0
20
-28.077332
30
-173.20508
11
-216.0
21
-27.779778
31
-173.20508
12
-216.0
22
-72.22022
32
-123.20508
13
-215.9999
23
-72.22012
33
-123.20498
0
3DFACE
8
0
10
-214.0
20
-28.077332
30
-173.20508
11
-216.0
21
-72.22022
31
-123.20508
12
-214.0
22
-71.92267
32
-123.20508
13
-213.9999
23
-71.92257
33
-123.20498
0
3DFACE
8
0
10
-212.0
20
-28.527481
30
-173.20508
11
-214.0
21
-28.077332
31
-173.20508
12
-214.0
22
-71.92267
32
-123.20508
13
-213.9999
23
-71.92257
33
-123.20498
0
3DFACE
8
0
10
-212.0
20
-28.527481
30
-173.20508
11
-214.0
21
-71.92267
31
-123.20508
12
-212.0
22
-71.47252
32
-123.20508
13
-211.9999
23
-71.47242
33
-123.20498
0
3DFACE
8
0
10
-210.0
20
-29.153107
30
-173.20508
11
-212.0
21
-28.527481
31
-173.20508
12
-212.0
22
-71.47252
32
-123.20508
13
-211.9999
23
-71.47242
33
-123.20498
0
3DFACE
8
0
10
-210.0
20
-29.153107
30
-173.20508
11
-212.0
21
-71.47252
31
-123.20508
12
-210.0
22
-70.84689
32
-123.20508
13
-209.9999
23
-70.846794
33
-123.20498
0
3DFACE
8
0
10
-208.0
20
-29.977112
30
-173.20508
11
-210.0
21
-29.153107
31
-173.20508
12
-210.0
22
-70.84689
32
-123.20508
13
-209.9999
23
-70.846794
33
-123.20498
0
3DFACE
8
0
10
-208.0
20
-29.977112
30
-173.20508
11
-210.0
21
-70.84689
31
-123.20508
12
-208.0
22
-70.02289
32
-123.20508
13
-207.9999
23
-70.02279
33
-123.20498
0
3DFACE
8
0
10
-206.0
20
-30.778221
30
-173.20508
11
-208.0
21
-29.977112
31
-173.20508
12
-208.0
22
-70.02289
32
-123.20508
13
-207.9999
23
-70.02279
33
-123.20498
0
3DFACE
8
0
10
-206.0
20
-30.778221
30
-173.20508
11
-208.0
21
-70.02289
31
-123.20508
12
-206.0
22
-69.22178
32
-123.20508
13
-205.9999
23
-69.22168
33
-123.20498
0
3DFACE
8
0
10
-204.0
20
-31.472519
30
-173.20508
11
-206.0
21
-30.778221
31
-173.20508
12
-206.0
22
-69.22178
32
-123.20508
13
-205.9999
23
-69.22168
33
-123.20498
0
3DFACE
8
0
10
-204.0
20
-31.472519
30
-173.20508
11
-206.0
21
-69.22178
31
-123.20508
12
-204.0
22
-68.52748
32
-123.20508
13
-203.9999
23
-68.52738
33
-123.20498
0
3DFACE
8
0
10
-202.0
20
-32.067627
30
-173.20508
11
-204.0
21
-31.472519
31
-173.20508
12
-204.0
22
-68.52748
32
-123.20508
13
-203.9999
23
-68.52738
33
-123.20498
0
3DFACE
8
0
10
-202.0
20
-32.067627
30
-173.20508
11
-204.0
21
-68.52748
31
-123.20508
12
-202.0
22
-67.93237
32
-123.20508
13
-201.9999
23
-67.932274
33
-123.20498
0
3DFACE
8
0
10
-200.0
20
-32.533035
30
-173.20508
11
-202.0
21
-32.067627
31
-173.20508
12
-202.0
22
-67.93237
32
-123.20508
13
-201.9999
23
-67.932274
33
-123.20498
0
3DFACE
8
0
10
-200.0
20
-32.533035
30
-173.20508
11
-202.0
21
-67.93237
31
-123.20508
12
-200.0
22
-67.466965
32
-123.20508
13
-199.9999
23
-67.466866
33
-123.20498
0
3DFACE
8
0
10
-198.0
20
-32.853485
30
-173.20508
11
-200.0
21
-32.533035
31
-173.20508
12
-200.0
22
-67.466965
32
-123.20508
13
-199.9999
23
-67.466866
33
-123.20498
0
3DFACE
8
0
10
-198.0
20
-32.853485
30
-173.20508
11
-200.0
21
-67.466965
31
-123.20508
12
-198.0
22
-67.146515
32
-123.20508
13
-197.9999
23
-67.146416
33
-123.20498
0
3DFACE
8
0
10
-196.0
20
-33.02133
30
-173.20508
11
-198.0
21
-32.853485
31
-173.20508
12
-198.0
22
-67.146515
32
-123.20508
13
-197.9999
23
-67.146416
33
-123.20498
0
3DFACE
8
0
10
-196.0
20
-33.02133
30
-173.20508
11
-198.0
21
-67.146515
31
-123.20508
12
-196.0
22
-66.97867
32
-123.20508
13
-195.9999
23
-66.97857
33
-123.20498
0
3DFACE
8
0
10
-194.0
20
-33.02133
30
-173.20508
11
-196.0
21
-33.02133
31
-173.20508
12
-196.0
22
-66.97867
32
-123.20508
13
-195.9999
23
-66.97857
33
-123.20498
0
3DFACE
8
0
10
-194.0
20
-33.02133
30
-173.20508
11
-196.0
21
-66.97867
31
-123.20508
12
-194.0
22
-66.97867
32
-123.20508
13
-193.9999
23
-66.97857
33
-123.20498
0
3DFACE
8
0
10
-192.0
20
-32.80007
30
-173.20508
11
-194.0
21
-33.02133
31
-173.20508
12
-194.0
22
-66.97867
32
-123.20508
13
-193.9999
23
-66.97857
33
-123.20498
0
3DFACE
8
0
10
-192.0
20
-32.80007
30
-173.20508
11
-194.0
21
-66.97867
31
-123.20508
12
-192.0
22
-67.19993
32
-123.20508
13
-191.9999
23
-67.19983
33
-123.20498
0
3DFACE
8
0
10
-190.0
20
-32.46437
30
-173.20508
11
-192.0
21
-32.80007
31
-173.20508
12
-192.0
22
-67.19993
32
-123.20508
13
-191.9999
23
-67.19983
33
-123.20498
0
3DFACE
8
0
10
-190.0
20
-32.46437
30
-173.20508
11
-192.0
21
-67.19993
31
-123.20508
12
-190.0
22
-67.53563
32
-123.20508
13
-189.9999
23
-67.53553
33
-123.20498
0
3DFACE
8
0
10
-188.0
20
-31.953186
30
-173.20508
11
-190.0
21
-32.46437
31
-173.20508
12
-190.0
22
-67.53563
32
-123.20508
13
-189.9999
23
-67.53553
33
-123.20498
0
3DFACE
8
0
10
-188.0
20
-31.953186
30
-173.20508
11
-190.0
21
-67.53563
31
-123.20508
12
-188.0
22
-68.046814
32
-123.20508
13
-187.9999
23
-68.046715
33
-123.20498
0
3DFACE
8
0
10
-186.0
20
-31.312294
30
-173.20508
11
-188.0
21
-31.953186
31
-173.20508
12
-188.0
22
-68.046814
32
-123.20508
13
-187.9999
23
-68.046715
33
-123.20498
0
3DFACE
8
0
10
-186.0
20
-31.312294
30
-173.20508
11
-188.0
21
-68.046814
31
-123.20508
12
-186.0
22
-68.687706
32
-123.20508
13
-185.9999
23
-68.68761
33
-123.20498
0
3DFACE
8
0
10
-184.0
20
-30.595108
30
-173.20508
11
-186.0
21
-31.312294
31
-173.20508
12
-186.0
22
-68.687706
32
-123.20508
13
-185.9999
23
-68.68761
33
-123.20498
0
3DFACE
8
0
10
-184.0
20
-30.595108
30
-173.20508
11
-186.0
21
-68.687706
31
-123.20508
12
-184.0
22
-69.40489
32
-123.20508
13
-183.9999
23
-69.40479
33
-123.20498
0
3DFACE
8
0
10
-182.0
20
-29.78637
30
-173.20508
11
-184.0
21
-30.595108
31
-173.20508
12
-184.0
22
-69.40489
32
-123.20508
13
-183.9999
23
-69.40479
33
-123.20498
0
3DFACE
8
0
10
-182.0
20
-29.78637
30
-173.20508
11
-184.0
21
-69.40489
31
-123.20508
12
-182.0
22
-70.21363
32
-123.20508
13
-181.9999
23
-70.21353
33
-123.20498
0
3DFACE
8
0
10
-180.0
20
-29.046295
30
-173.20508
11
-182.0
21
-29.78637
31
-173.20508
12
-182.0
22
-70.21363
32
-123.20508
13
-181.9999
23
-70.21353
33
-123.20498
0
3DFACE
8
0
10
-180.0
20
-29.046295
30
-173.20508
11
-182.0
21
-70.21363
31
-123.20508
12
-180.0
22
-70.953705
32
-123.20508
13
-179.9999
23
-70.953606
33
-123.20498
0
3DFACE
8
0
10
-178.0
20
-28.489334
30
-173.20508
11
-180.0
21
-29.046295
31
-173.20508
12
-180.0
22
-70.953705
32
-123.20508
13
-179.9999
23
-70.953606
33
-123.20498
0
3DFACE
8
0
10
-178.0
20
-28.489334
30
-173.20508
11
-180.0
21
-70.953705
31
-123.20508
12
-178.0
22
-71.510666
32
-123.20508
13
-177.9999
23
-71.51057
33
-123.20498
0
3DFACE
8
0
10
-176.0
20
-28.207039
30
-173.20508
11
-178.0
21
-28.489334
31
-173.20508
12
-178.0
22
-71.510666
32
-123.20508
13
-177.9999
23
-71.51057
33
-123.20498
0
3DFACE
8
0
10
-176.0
20
-28.207039
30
-173.20508
11
-178.0
21
-71.510666
31
-123.20508
12
-176.0
22
-71.79296
32
-123.20508
13
-175.9999
23
-71.79286
33
-123.20498
0
3DFACE
8
0
10
-174.0
20
-28.138367
30
-173.20508
11
-176.0
21
-28.207039
31
-173.20508
12
-176.0
22
-71.79296
32
-123.20508
13
-175.9999
23
-71.79286
33
-123.20498
0
3DFACE
8
0
10
-174.0
20
-28.138367
30
-173.20508
11
-176.0
21
-71.79296
31
-123.20508
12
-174.0
22
-71.86163
32
-123.20508
13
-173.9999
23
-71.861534
33
-123.20498
0
3DFACE
8
0
10
-172.0
20
-28.252815
30
-173.20508
11
-174.0
21
-28.138367
31
-173.20508
12
-174.0
22
-71.86163
32
-123.20508
13
-173.9999
23
-71.861534
33
-123.20498
0
3DFACE
8
0
10
-172.0
20
-28.252815
30
-173.20508
11
-174.0
21
-71.86163
31
-123.20508
12
-172.0
22
-71.747185
32
-123.20508
13
-171.9999
23
-71.747086
33
-123.20498
0
3DFACE
8
0
10
-170.0
20
-28.557999
30
-173.20508
11
-172.0
21
-28.252815
31
-173.20508
12
-172.0
22
-71.747185
32
-123.20508
13
-171.9999
23
-71.747086
33
-123.20498
0
3DFACE
8
0
10
-170.0
20
-28.557999
30
-173.20508
11
-172.0
21
-71.747185
31
-123.20508
12
-170.0
22
-71.442
32
-123.20508
13
-169.9999
23
-71.4419
33
-123.20498
0
3DFACE
8
0
10
-168.0
20
-29.11496
30
-173.20508
11
-170.0
21
-28.557999
31
-173.20508
12
-170.0
22
-71.442
32
-123.20508
13
-169.9999
23
-71.4419
33
-123.20498
0
3DFACE
8
0
10
-168.0
20
-29.11496
30
-173.20508
11
-170.0
21
-71.442
31
-123.20508
12
-168.0
22
-70.88504
32
-123.20508
13
-167.9999
23
-70.88494
33
-123.20498
0
3DFACE
8
0
10
-166.0
20
-29.763481
30
-173.20508
11
-168.0
21
-29.11496
31
-173.20508
12
-168.0
22
-70.88504
32
-123.20508
13
-167.9999
23
-70.88494
33
-123.20498
0
3DFACE
8
0
10
-166.0
20
-29.763481
30
-173.20508
11
-168.0
21
-70.88504
31
-123.20508
12
-166.0
22
-70.23652
32
-123.20508
13
-165.9999
23
-70.23642
33
-123.20498
0
3DFACE
8
0
10
-164.0
20
-30.480667
30
-173.20508
11
-166.0
21
-29.763481
31
-173.20508
12
-166.0
22
-70.23652
32
-123.20508
13
-165.9999
23
-70.23642
33
-123.20498
0
3DFACE
8
0
10
-164.0
20
-30.480667
30
-173.20508
11
-166.0
21
-70.23652
31
-123.20508
12
-164.0
22
-69.51933
32
-123.20508
13
-163.9999
23
-69.51923
33
-123.20498
0
3DFACE
8
0
10
-162.0
20
-31.274147
30
-173.20508
11
-164.0
21
-30.480667
31
-173.20508
12
-164.0
22
-69.51933
32
-123.20508
13
-163.9999
23
-69.51923
33
-123.20498
0
3DFACE
8
0
10
-162.0
20
-31.274147
30
-173.20508
11
-164.0
21
-69.51933
31
-123.20508
12
-162.0
22
-68.72585
32
-123.20508
13
-161.9999
23
-68.72575
33
-123.20498
0
3DFACE
8
0
10
-160.0
20
-31.937927
30
-173.20508
11
-162.0
21
-31.274147
31
-173.20508
12
-162.0
22
-68.72585
32
-123.20508
13
-161.9999
23
-68.72575
33
-123.20498
0
3DFACE
8
0
10
-160.0
20
-31.937927
30
-173.20508
11
-162.0
21
-68.72585
31
-123.20508
12
-160.0
22
-68.06207
32
-123.20508
13
-159.9999
23
-68.06197
33
-123.20498
0
3DFACE
8
0
10
-158.0
20
-32.525406
30
-173.20508
11
-160.0
21
-31.937927
31
-173.20508
12
-160.0
22
-68.06207
32
-123.20508
13
-159.9999
23
-68.06197
33
-123.20498
0
3DFACE
8
0
10
-158.0
20
-32.525406
30
-173.20508
11
-160.0
21
-68.06207
31
-123.20508
12
-158.0
22
-67.474594
32
-123.20508
13
-157.9999
23
-67.474495
33
-123.20498
0
3DFACE
8
0
10
-156.0
20
-32.92978
30
-173.20508
11
-158.0
21
-32.525406
31
-173.20508
12
-158.0
22
-67.474594
32
-123.20508
13
-157.9999
23
-67.474495
33
-123.20498
0
3DFACE
8
0
10
-156.0
20
-32.92978
30
-173.20508
11
-158.0
21
-67.474594
31
-123.20508
12
-156.0
22
-67.07022
32
-123.20508
13
-155.9999
23
-67.07012
33
-123.20498
0
3DFACE
8
0
10
-154.0
20
-33.097626
30
-173.20508
11
-156.0
21
-32.92978
31
-173.20508
12
-156.0
22
-67.07022
32
-123.20508
13
-155.9999
23
-67.07012
33
-123.20498
0
3DFACE
8
0
10
-154.0
20
-33.097626
30
-173.20508
11
-156.0
21
-67.07022
31
-123.20508
12
-154.0
22
-66.902374
32
-123.20508
13
-153.9999
23
-66.902275
33
-123.20498
0
3DFACE
8
0
10
-152.0
20
-33.05948
30
-173.20508
11
-154.0
21
-33.097626
31
-173.20508
12
-154.0
22
-66.902374
32
-123.20508
13
-153.9999
23
-66.902275
33
-123.20498
0
3DFACE
8
0
10
-152.0
20
-33.05948
30
-173.20508
11
-154.0
21
-66.902374
31
-123.20508
12
-152.0
22
-66.94052
32
-123.20508
13
-151.9999
23
-66.94042
33
-123.20498
0
3DFACE
8
0
10
-150.0
20
-32.761925
30
-173.20508
11
-152.0
21
-33.05948
31
-173.20508
12
-152.0
22
-66.94052
32
-123.20508
13
-151.9999
23
-66.94042
33
-123.20498
0
3DFACE
8
0
10
-150.0
20
-32.761925
30
-173.20508
11
-152.0
21
-66.94052
31
-123.20508
12
-150.0
22
-67.238075
32
-123.20508
13
-149.9999
23
-67.237976
33
-123.20498
0
3DFACE
8
0
10
-148.0
20
-32.3423
30
-173.20508
11
-150.0
21
-32.761925
31
-173.20508
12
-150.0
22
-67.238075
32
-123.20508
13
-149.9999
23
-67.237976
33
-123.20498
0
3DFACE
8
0
10
-148.0
20
-32.3423
30
-173.20508
11
-150.0
21
-67.238075
31
-123.20508
12
-148.0
22
-67.6577
32
-123.20508
13
-147.9999
23
-67.6576
33
-123.20498
0
3DFACE
8
0
10
-146.0
20
-31.884521
30
-173.20508
11
-148.0
21
-32.3423
31
-173.20508
12
-148.0
22
-67.6577
32
-123.20508
13
-147.9999
23
-67.6576
33
-123.20498
0
3DFACE
8
0
10
-146.0
20
-31.884521
30
-173.20508
11
-148.0
21
-67.6577
31
-123.20508
12
-146.0
22
-68.11548
32
-123.20508
13
-145.9999
23
-68.11538
33
-123.20498
0
3DFACE
8
0
10
-144.0
20
-31.297035
30
-173.20508
11
-146.0
21
-31.884521
31
-173.20508
12
-146.0
22
-68.11548
32
-123.20508
13
-145.9999
23
-68.11538
33
-123.20498
0
3DFACE
8
0
10
-144.0
20
-31.297035
30
-173.20508
11
-146.0
21
-68.11548
31
-123.20508
12
-144.0
22
-68.702965
32
-123.20508
13
-143.9999
23
-68.702866
33
-123.20498
0
3DFACE
8
0
10
-142.0
20
-30.610367
30
-173.20508
11
-144.0
21
-31.297035
31
-173.20508
12
-144.0
22
-68.702965
32
-123.20508
13
-143.9999
23
-68.702866
33
-123.20498
0
3DFACE
8
0
10
-142.0
20
-30.610367
30
-173.20508
11
-144.0
21
-68.702965
31
-123.20508
12
-142.0
22
-69.38963
32
-123.20508
13
-141.9999
23
-69.389534
33
-123.20498
0
3DFACE
8
0
10
-140.0
20
-29.923706
30
-173.20508
11
-142.0
21
-30.610367
31
-173.20508
12
-142.0
22
-69.38963
32
-123.20508
13
-141.9999
23
-69.389534
33
-123.20498
0
3DFACE
8
0
10
-140.0
20
-29.923706
30
-173.20508
11
-142.0
21
-69.38963
31
-123.20508
12
-140.0
22
-70.076294
32
-123.20508
13
-139.9999
23
-70.076195
33
-123.20498
0
3DFACE
8
0
10
-138.0
20
-29.282814
30
-173.20508
11
-140.0
21
-29.923706
31
-173.20508
12
-140.0
22
-70.076294
32
-123.20508
13
-139.9999
23
-70.076195
33
-123.20498
0
3DFACE
8
0
10
-138.0
20
-29.282814
30
-173.20508
11
-140.0
21
-70.076294
31
-123.20508
12
-138.0
22
-70.717186
32
-123.20508
13
-137.9999
23
-70.71709
33
-123.20498
0
3DFACE
8
0
10
-136.0
20
-28.779259
30
-173.20508
11
-138.0
21
-29.282814
31
-173.20508
12
-138.0
22
-70.717186
32
-123.20508
13
-137.9999
23
-70.71709
33
-123.20498
0
3DFACE
8
0
10
-136.0
20
-28.779259
30
-173.20508
11
-138.0
21
-70.717186
31
-123.20508
12
-136.0
22
-71.22074
32
-123.20508
13
-135.9999
23
-71.22064
33
-123.20498
0
3DFACE
8
0
10
-134.0
20
-28.367264
30
-173.20508
11
-136.0
21
-28.779259
31
-173.20508
12
-136.0
22
-71.22074
32
-123.20508
13
-135.9999
23
-71.22064
33
-123.20498
0
3DFACE
8
0
10
-134.0
20
-28.367264
30
-173.20508
11
-136.0
21
-71.22074
31
-123.20508
12
-134.0
22
-71.63274
32
-123.20508
13
-133.9999
23
-71.63264
33
-123.20498
0
3DFACE
8
0
10
-132.0
20
-28.161263
30
-173.20508
11
-134.0
21
-28.367264
31
-173.20508
12
-134.0
22
-71.63274
32
-123.20508
13
-133.9999
23
-71.63264
33
-123.20498
0
3DFACE
8
0
10
-132.0
20
-28.161263
30
-173.20508
11
-134.0
21
-71.63274
31
-123.20508
12
-132.0
22
-71.83874
32
-123.20508
13
-131.9999
23
-71.83864
33
-123.20498
0
3DFACE
8
0
10
-130.0
20
-28.176521
30
-173.20508
11
-132.0
21
-28.161263
31
-173.20508
12
-132.0
22
-71.83874
32
-123.20508
13
-131.9999
23
-71.83864
33
-123.20498
0
3DFACE
8
0
10
-130.0
20
-28.176521
30
-173.20508
11
-132.0
21
-71.83874
31
-123.20508
12
-130.0
22
-71.82348
32
-123.20508
13
-129.9999
23
-71.82338
33
-123.20498
0
3DFACE
8
0
10
-128.0
20
-28.443558
30
-173.20508
11
-130.0
21
-28.176521
31
-173.20508
12
-130.0
22
-71.82348
32
-123.20508
13
-129.9999
23
-71.82338
33
-123.20498
0
3DFACE
8
0
10
-128.0
20
-28.443558
30
-173.20508
11
-130.0
21
-71.82348
31
-123.20508
12
-128.0
22
-71.55644
32
-123.20508
13
-127.9999
23
-71.55634
33
-123.20498
0
3DFACE
8
0
10
-126.0
20
-28.916595
30
-173.20508
11
-128.0
21
-28.443558
31
-173.20508
12
-128.0
22
-71.55644
32
-123.20508
13
-127.9999
23
-71.55634
33
-123.20498
0
3DFACE
8
0
10
-126.0
20
-28.916595
30
-173.20508
11
-128.0
21
-71.55644
31
-123.20508
12
-126.0
22
-71.083405
32
-123.20508
13
-125.9999
23
-71.083305
33
-123.20498
0
3DFACE
8
0
10
-124.0
20
-29.526962
30
-173.20508
11
-126.0
21
-28.916595
31
-173.20508
12
-126.0
22
-71.083405
32
-123.20508
13
-125.9999
23
-71.083305
33
-123.20498
0
3DFACE
8
0
10
-124.0
20
-29.526962
30
-173.20508
11
-126.0
21
-71.083405
31
-123.20508
12
-124.0
22
-70.47304
32
-123.20508
13
-123.9999
23
-70.47294
33
-123.20498
0
3DFACE
8
0
10
-122.0
20
-30.152588
30
-173.20508
11
-124.0
21
-29.526962
31
-173.20508
12
-124.0
22
-70.47304
32
-123.20508
13
-123.9999
23
-70.47294
33
-123.20498
0
3DFACE
8
0
10
-122.0
20
-30.152588
30
-173.20508
11
-124.0
21
-70.47304
31
-123.20508
12
-122.0
22
-69.84741
32
-123.20508
13
-121.9999
23
-69.84731
33
-123.20498
0
3DFACE
8
0
10
-120.0
20
-30.778221
30
-173.20508
11
-122.0
21
-30.152588
31
-173.20508
12
-122.0
22
-69.84741
32
-123.20508
13
-121.9999
23
-69.84731
33
-123.20498
0
3DFACE
8
0
10
-120.0
20
-30.778221
30
-173.20508
11
-122.0
21
-69.84741
31
-123.20508
12
-120.0
22
-69.22178
32
-123.20508
13
-119.9999
23
-69.22168
33
-123.20498
0
3DFACE
8
0
10
-118.0
20
-31.426743
30
-173.20508
11
-120.0
21
-30.778221
31
-173.20508
12
-120.0
22
-69.22178
32
-123.20508
13
-119.9999
23
-69.22168
33
-123.20498
0
3DFACE
8
0
10
-118.0
20
-31.426743
30
-173.20508
11
-120.0
21
-69.22178
31
-123.20508
12
-118.0
22
-68.57326
32
-123.20508
13
-117.9999
23
-68.57316
33
-123.20498
0
3DFACE
8
0
10
-116.0
20
-32.02948
30
-173.20508
11
-118.0
21
-31.426743
31
-173.20508
12
-118.0
22
-68.57326
32
-123.20508
13
-117.9999
23
-68.57316
33
-123.20498
0
3DFACE
8
0
10
-116.0
20
-32.02948
30
-173.20508
11
-118.0
21
-68.57326
31
-123.20508
12
-116.0
22
-67.97052
32
-123.20508
13
-115.9999
23
-67.97042
33
-123.20498
0
3DFACE
8
0
10
-114.0
20
-32.449112
30
-173.20508
11
-116.0
21
-32.02948
31
-173.20508
12
-116.0
22
-67.97052
32
-123.20508
13
-115.9999
23
-67.97042
33
-123.20498
0
3DFACE
8
0
10
-114.0
20
-32.449112
30
-173.20508
11
-116.0
21
-67.97052
31
-123.20508
12
-114.0
22
-67.55089
32
-123.20508
13
-113.9999
23
-67.55079
33
-123.20498
0
3DFACE
8
0
10
-112.0
20
-32.71615
30
-173.20508
11
-114.0
21
-32.449112
31
-173.20508
12
-114.0
22
-67.55089
32
-123.20508
13
-113.9999
23
-67.55079
33
-123.20498
0
3DFACE
8
0
10
-112.0
20
-32.71615
30
-173.20508
11
-114.0
21
-67.55089
31
-123.20508
12
-112.0
22
-67.28385
32
-123.20508
13
-111.9999
23
-67.28375
33
-123.20498
0
3DFACE
8
0
10
-110.0
20
-32.80007
30
-173.20508
11
-112.0
21
-32.71615
31
-173.20508
12
-112.0
22
-67.28385
32
-123.20508
13
-111.9999
23
-67.28375
33
-123.20498
0
3DFACE
8
0
10
-110.0
20
-32.80007
30
-173.20508
11
-112.0
21
-67.28385
31
-123.20508
12
-110.0
22
-67.19993
32
-123.20508
13
-109.9999
23
-67.19983
33
-123.20498
0
3DFACE
8
0
10
-108.0
20
-32.647476
30
-173.20508
11
-110.0
21
-32.80007
31
-173.20508
12
-110.0
22
-67.19993
32
-123.20508
13
-109.9999
23
-67.19983
33
-123.20498
0
3DFACE
8
0
10
-108.0
20
-32.647476
30
-173.20508
11
-110.0
21
-67.19993
31
-123.20508
12
-108.0
22
-67.35252
32
-123.20508
13
-107.9999
23
-67.352425
33
-123.20498
0
3DFACE
8
0
10
-106.0
20
-32.24311
30
-173.20508
11
-108.0
21
-32.647476
31
-173.20508
12
-108.0
22
-67.35252
32
-123.20508
13
-107.9999
23
-67.352425
33
-123.20498
0
3DFACE
8
0
10
-106.0
20
-32.24311
30
-173.20508
11
-108.0
21
-67.35252
31
-123.20508
12
-106.0
22
-67.75689
32
-123.20508
13
-105.9999
23
-67.75679
33
-123.20498
0
3DFACE
8
0
10
-104.0
20
-31.792961
30
-173.20508
11
-106.0
21
-32.24311
31
-173.20508
12
-106.0
22
-67.75689
32
-123.20508
13
-105.9999
23
-67.75679
33
-123.20498
0
3DFACE
8
0
10
-104.0
20
-31.792961
30
-173.20508
11
-106.0
21
-67.75689
31
-123.20508
12
-104.0
22
-68.20704
32
-123.20508
13
-103.9999
23
-68.20694
33
-123.20498
0
3DFACE
8
0
10
-102.0
20
-31.236
30
-173.20508
11
-104.0
21
-31.792961
31
-173.20508
12
-104.0
22
-68.20704
32
-123.20508
13
-103.9999
23
-68.20694
33
-123.20498
0
3DFACE
8
0
10
-102.0
20
-31.236
30
-173.20508
11
-104.0
21
-68.20704
31
-123.20508
12
-102.0
22
-68.764
32
-123.20508
13
-101.9999
23
-68.7639
33
-123.20498
0
3DFACE
8
0
10
-100.0
20
-30.587479
30
-173.20508
11
-102.0
21
-31.236
31
-173.20508
12
-102.0
22
-68.764
32
-123.20508
13
-101.9999
23
-68.7639
33
-123.20498
0
3DFACE
8
0
10
-100.0
20
-30.587479
30
-173.20508
11
-102.0
21
-68.764
31
-123.20508
12
-100.0
22
-69.41252
32
-123.20508
13
-99.9999
23
-69.41242
33
-123.20498
0
3DFACE
8
0
10
-98.0
20
-29.984741
30
-173.20508
11
-100.0
21
-30.587479
31
-173.20508
12
-100.0
22
-69.41252
32
-123.20508
13
-99.9999
23
-69.41242
33
-123.20498
0
3DFACE
8
0
10
-98.0
20
-29.984741
30
-173.20508
11
-100.0
21
-69.41252
31
-123.20508
12
-98.0
22
-70.01526
32
-123.20508
13
-97.9999
23
-70.01516
33
-123.20498
0
3DFACE
8
0
10
-96.0
20
-29.496445
30
-173.20508
11
-98.0
21
-29.984741
31
-173.20508
12
-98.0
22
-70.01526
32
-123.20508
13
-97.9999
23
-70.01516
33
-123.20498
0
3DFACE
8
0
10
-96.0
20
-29.496445
30
-173.20508
11
-98.0
21
-70.01526
31
-123.20508
12
-96.0
22
-70.503555
32
-123.20508
13
-95.9999
23
-70.503456
33
-123.20498
0
3DFACE
8
0
10
-94.0
20
-29.11496
30
-173.20508
11
-96.0
21
-29.496445
31
-173.20508
12
-96.0
22
-70.503555
32
-123.20508
13
-95.9999
23
-70.503456
33
-123.20498
0
3DFACE
8
0
10
-94.0
20
-29.11496
30
-173.20508
11
-96.0
21
-70.503555
31
-123.20508
12
-94.0
22
-70.88504
32
-123.20508
13
-93.9999
23
-70.88494
33
-123.20498
0
3DFACE
8
0
10
-92.0
20
-28.802147
30
-173.20508
11
-94.0
21
-29.11496
31
-173.20508
12
-94.0
22
-70.88504
32
-123.20508
13
-93.9999
23
-70.88494
33
-123.20498
0
3DFACE
8
0
10
-92.0
20
-28.802147
30
-173.20508
11
-94.0
21
-70.88504
31
-123.20508
12
-92.0
22
-71.19785
32
-123.20508
13
-91.9999
23
-71.197754
33
-123.20498
0
3DFACE
8
0
10
-90.0
20
-28.687706
30
-173.20508
11
-92.0
21
-28.802147
31
-173.20508
12
-92.0
22
-71.19785
32
-123.20508
13
-91.9999
23
-71.197754
33
-123.20498
0
3DFACE
8
0
10
-90.0
20
-28.687706
30
-173.20508
11
-92.0
21
-71.19785
31
-123.20508
12
-90.0
22
-71.312294
32
-123.20508
13
-89.9999
23
-71.312195
33
-123.20498
0
3DFACE
8
0
10
-88.0
20
-28.733482
30
-173.20508
11
-90.0
21
-28.687706
31
-173.20508
12
-90.0
22
-71.312294
32
-123.20508
13
-89.9999
23
-71.312195
33
-123.20498
0
3DFACE
8
0
10
-88.0
20
-28.733482
30
-173.20508
11
-90.0
21
-71.312294
31
-123.20508
12
-88.0
22
-71.26652
32
-123.20508
13
-87.9999
23
-71.26642
33
-123.20498
0
3DFACE
8
0
10
-86.0
20
-29.015778
30
-173.20508
11
-88.0
21
-28.733482
31
-173.20508
12
-88.0
22
-71.26652
32
-123.20508
13
-87.9999
23
-71.26642
33
-123.20498
0
3DFACE
8
0
10
-86.0
20
-29.015778
30
-173.20508
11
-88.0
21
-71.26652
31
-123.20508
12
-86.0
22
-70.98422
32
-123.20508
13
-85.9999
23
-70.98412
33
-123.20498
0
3DFACE
8
0
10
-84.0
20
-29.443039
30
-173.20508
11
-86.0
21
-29.015778
31
-173.20508
12
-86.0
22
-70.98422
32
-123.20508
13
-85.9999
23
-70.98412
33
-123.20498
0
3DFACE
8
0
10
-84.0
20
-29.443039
30
-173.20508
11
-86.0
21
-70.98422
31
-123.20508
12
-84.0
22
-70.55696
32
-123.20508
13
-83.9999
23
-70.55686
33
-123.20498
0
3DFACE
8
0
10
-82.0
20
-30.053406
30
-173.20508
11
-84.0
21
-29.443039
31
-173.20508
12
-84.0
22
-70.55696
32
-123.20508
13
-83.9999
23
-70.55686
33
-123.20498
0
3DFACE
8
0
10
-82.0
20
-30.053406
30
-173.20508
11
-84.0
21
-70.55696
31
-123.20508
12
-82.0
22
-69.946594
32
-123.20508
13
-81.9999
23
-69.946495
33
-123.20498
0
3DFACE
8
0
10
-80.0
20
-30.770592
30
-173.20508
11
-82.0
21
-30.053406
31
-173.20508
12
-82.0
22
-69.946594
32
-123.20508
13
-81.9999
23
-69.946495
33
-123.20498
0
3DFACE
8
0
10
-80.0
20
-30.770592
30
-173.20508
11
-82.0
21
-69.946594
31
-123.20508
12
-80.0
22
-69.22941
32
-123.20508
13
-79.9999
23
-69.22931
33
-123.20498
0
3DFACE
8
0
10
-78.0
20
-31.495407
30
-173.20508
11
-80.0
21
-30.770592
31
-173.20508
12
-80.0
22
-69.22941
32
-123.20508
13
-79.9999
23
-69.22931
33
-123.20498
0
3DFACE
8
0
10
-78.0
20
-31.495407
30
-173.20508
11
-80.0
21
-69.22941
31
-123.20508
12
-78.0
22
-68.50459
32
-123.20508
13
-77.9999
23
-68.50449
33
-123.20498
0
3DFACE
8
0
10
-76.0
20
-32.13629
30
-173.20508
11
-78.0
21
-31.495407
31
-173.20508
12
-78.0
22
-68.50459
32
-123.20508
13
-77.9999
23
-68.50449
33
-123.20498
0
3DFACE
8
0
10
-76.0
20
-32.13629
30
-173.20508
11
-78.0
21
-68.50459
31
-123.20508
12
-76.0
22
-67.86371
32
-123.20508
13
-75.9999
23
-67.86361
33
-123.20498
0
3DFACE
8
0
10
-74.0
20
-32.6017
30
-173.20508
11
-76.0
21
-32.13629
31
-173.20508
12
-76.0
22
-67.86371
32
-123.20508
13
-75.9999
23
-67.86361
33
-123.20498
0
3DFACE
8
0
10
-74.0
20
-32.6017
30
-173.20508
11
-76.0
21
-67.86371
31
-123.20508
12
-74.0
22
-67.3983
32
-123.20508
13
-73.9999
23
-67.3982
33
-123.20498
0
3DFACE
8
0
10
-72.0
20
-32.975555
30
-173.20508
11
-74.0
21
-32.6017
31
-173.20508
12
-74.0
22
-67.3983
32
-123.20508
13
-73.9999
23
-67.3982
33
-123.20498
0
3DFACE
8
0
10
-72.0
20
-32.975555
30
-173.20508
11
-74.0
21
-67.3983
31
-123.20508
12
-72.0
22
-67.024445
32
-123.20508
13
-71.9999
23
-67.024345
33
-123.20498
0
3DFACE
8
0
10
-70.0
20
-33.105255
30
-173.20508
11
-72.0
21
-32.975555
31
-173.20508
12
-72.0
22
-67.024445
32
-123.20508
13
-71.9999
23
-67.024345
33
-123.20498
0
3DFACE
8
0
10
-70.0
20
-33.105255
30
-173.20508
11
-72.0
21
-67.024445
31
-123.20508
12
-70.0
22
-66.894745
32
-123.20508
13
-69.9999
23
-66.894646
33
-123.20498
0
3DFACE
8
0
10
-68.0
20
-33.112885
30
-173.20508
11
-70.0
21
-33.105255
31
-173.20508
12
-70.0
22
-66.894745
32
-123.20508
13
-69.9999
23
-66.894646
33
-123.20498
0
3DFACE
8
0
10
-68.0
20
-33.112885
30
-173.20508
11
-70.0
21
-66.894745
31
-123.20508
12
-68.0
22
-66.887115
32
-123.20508
13
-67.9999
23
-66.88702
33
-123.20498
0
3DFACE
8
0
10
-66.0
20
-32.983185
30
-173.20508
11
-68.0
21
-33.112885
31
-173.20508
12
-68.0
22
-66.887115
32
-123.20508
13
-67.9999
23
-66.88702
33
-123.20498
0
3DFACE
8
0
10
-66.0
20
-32.983185
30
-173.20508
11
-68.0
21
-66.887115
31
-123.20508
12
-66.0
22
-67.016815
32
-123.20508
13
-65.9999
23
-67.016716
33
-123.20498
0
3DFACE
8
0
10
-64.0
20
-32.61696
30
-173.20508
11
-66.0
21
-32.983185
31
-173.20508
12
-66.0
22
-67.016815
32
-123.20508
13
-65.9999
23
-67.016716
33
-123.20498
0
3DFACE
8
0
10
-64.0
20
-32.61696
30
-173.20508
11
-66.0
21
-67.016815
31
-123.20508
12
-64.0
22
-67.38304
32
-123.20508
13
-63.9999
23
-67.38294
33
-123.20498
0
3DFACE
8
0
10
-62.0
20
-32.105774
30
-173.20508
11
-64.0
21
-32.61696
31
-173.20508
12
-64.0
22
-67.38304
32
-123.20508
13
-63.9999
23
-67.38294
33
-123.20498
0
3DFACE
8
0
10
-62.0
20
-32.105774
30
-173.20508
11
-64.0
21
-67.38304
31
-123.20508
12
-62.0
22
-67.894226
32
-123.20508
13
-61.9999
23
-67.89413
33
-123.20498
0
3DFACE
8
0
10
-60.0
20
-31.533554
30
-173.20508
11
-62.0
21
-32.105774
31
-173.20508
12
-62.0
22
-67.894226
32
-123.20508
13
-61.9999
23
-67.89413
33
-123.20498
0
3DFACE
8
0
10
-60.0
20
-31.533554
30
-173.20508
11
-62.0
21
-67.894226
31
-123.20508
12
-60.0
22
-68.466446
32
-123.20508
13
-59.9999
23
-68.46635
33
-123.20498
0
3DFACE
8
0
10
-58.0
20
-30.88504
30
-173.20508
11
-60.0
21
-31.533554
31
-173.20508
12
-60.0
22
-68.466446
32
-123.20508
13
-59.9999
23
-68.46635
33
-123.20498
0
3DFACE
8
0
10
-58.0
20
-30.88504
30
-173.20508
11
-60.0
21
-68.466446
31
-123.20508
12
-58.0
22
-69.11496
32
-123.20508
13
-57.9999
23
-69.11486
33
-123.20498
0
3DFACE
8
0
10
-56.0
20
-30.160225
30
-173.20508
11
-58.0
21
-30.88504
31
-173.20508
12
-58.0
22
-69.11496
32
-123.20508
13
-57.9999
23
-69.11486
33
-123.20498
0
3DFACE
8
0
10
-56.0
20
-30.160225
30
-173.20508
11
-58.0
21
-69.11496
31
-123.20508
12
-56.0
22
-69.839775
32
-123.20508
13
-55.9999
23
-69.839676
33
-123.20498
0
3DFACE
8
0
10
-54.0
20
-29.534592
30
-173.20508
11
-56.0
21
-30.160225
31
-173.20508
12
-56.0
22
-69.839775
32
-123.20508
13
-55.9999
23
-69.839676
33
-123.20498
0
3DFACE
8
0
10
-54.0
20
-29.534592
30
-173.20508
11
-56.0
21
-69.839775
31
-123.20508
12
-54.0
22
-70.46541
32
-123.20508
13
-53.9999
23
-70.46531
33
-123.20498
0
3DFACE
8
0
10
-52.0
20
-29.145477
30
-173.20508
11
-54.0
21
-29.534592
31
-173.20508
12
-54.0
22
-70.46541
32
-123.20508
13
-53.9999
23
-70.46531
33
-123.20498
0
3DFACE
8
0
10
-52.0
20
-29.145477
30
-173.20508
11
-54.0
21
-70.46541
31
-123.20508
12
-52.0
22
-70.85452
32
-123.20508
13
-51.9999
23
-70.85442
33
-123.20498
0
3DFACE
8
0
10
-50.0
20
-28.878448
30
-173.20508
11
-52.0
21
-29.145477
31
-173.20508
12
-52.0
22
-70.85452
32
-123.20508
13
-51.9999
23
-70.85442
33
-123.20498
0
3DFACE
8
0
10
-50.0
20
-28.878448
30
-173.20508
11
-52.0
21
-70.85452
31
-123.20508
12
-50.0
22
-71.12155
32
-123.20508
13
-49.9999
23
-71.12145
33
-123.20498
0
3DFACE
8
0
10
-48.0
20
-28.702965
30
-173.20508
11
-50.0
21
-28.878448
31
-173.20508
12
-50.0
22
-71.12155
32
-123.20508
13
-49.9999
23
-71.12145
33
-123.20498
0
3DFACE
8
0
10
-48.0
20
-28.702965
30
-173.20508
11
-50.0
21
-71.12155
31
-123.20508
12
-48.0
22
-71.297035
32
-123.20508
13
-47.9999
23
-71.296936
33
-123.20498
0
3DFACE
8
0
10
-46.0
20
-28.84793
30
-173.20508
11
-48.0
21
-28.702965
31
-173.20508
12
-48.0
22
-71.297035
32
-123.20508
13
-47.9999
23
-71.296936
33
-123.20498
0
3DFACE
8
0
10
-46.0
20
-28.84793
30
-173.20508
11
-48.0
21
-71.297035
31
-123.20508
12
-46.0
22
-71.15207
32
-123.20508
13
-45.9999
23
-71.15197
33
-123.20498
0
3DFACE
8
0
10
-44.0
20
-29.237038
30
-173.20508
11
-46.0
21
-28.84793
31
-173.20508
12
-46.0
22
-71.15207
32
-123.20508
13
-45.9999
23
-71.15197
33
-123.20498
0
3DFACE
8
0
10
-44.0
20
-29.237038
30
-173.20508
11
-46.0
21
-71.15207
31
-123.20508
12
-44.0
22
-70.76296
32
-123.20508
13
-43.9999
23
-70.76286
33
-123.20498
0
3DFACE
8
0
10
-42.0
20
-29.78637
30
-173.20508
11
-44.0
21
-29.237038
31
-173.20508
12
-44.0
22
-70.76296
32
-123.20508
13
-43.9999
23
-70.76286
33
-123.20498
0
3DFACE
8
0
10
-42.0
20
-29.78637
30
-173.20508
11
-44.0
21
-70.76296
31
-123.20508
12
-42.0
22
-70.21363
32
-123.20508
13
-41.9999
23
-70.21353
33
-123.20498
0
3DFACE
8
0
10
-40.0
20
-30.587479
30
-173.20508
11
-42.0
21
-29.78637
31
-173.20508
12
-42.0
22
-70.21363
32
-123.20508
13
-41.9999
23
-70.21353
33
-123.20498
0
3DFACE
8
0
10
-40.0
20
-30.587479
30
-173.20508
11
-42.0
21
-70.21363
31
-123.20508
12
-40.0
22
-69.41252
32
-123.20508
13
-39.9999
23
-69.41242
33
-123.20498
0
3DFACE
8
0
10
-38.0
20
-31.388596
30
-173.20508
11
-40.0
21
-30.587479
31
-173.20508
12
-40.0
22
-69.41252
32
-123.20508
13
-39.9999
23
-69.41242
33
-123.20498
0
3DFACE
8
0
10
-38.0
20
-31.388596
30
-173.20508
11
-40.0
21
-69.41252
31
-123.20508
12
-38.0
22
-68.611404
32
-123.20508
13
-37.9999
23
-68.611305
33
-123.20498
0
3DFACE
8
0
10
-36.0
20
-32.174446
30
-173.20508
11
-38.0
21
-31.388596
31
-173.20508
12
-38.0
22
-68.611404
32
-123.20508
13
-37.9999
23
-68.611305
33
-123.20498
0
3DFACE
8
0
10
-36.0
20
-32.174446
30
-173.20508
11
-38.0
21
-68.611404
31
-123.20508
12
-36.0
22
-67.825554
32
-123.20508
13
-35.9999
23
-67.825455
33
-123.20498
0
3DFACE
8
0
10
-34.0
20
-32.80007
30
-173.20508
11
-36.0
21
-32.174446
31
-173.20508
12
-36.0
22
-67.825554
32
-123.20508
13
-35.9999
23
-67.825455
33
-123.20498
0
3DFACE
8
0
10
-34.0
20
-32.80007
30
-173.20508
11
-36.0
21
-67.825554
31
-123.20508
12
-34.0
22
-67.19993
32
-123.20508
13
-33.9999
23
-67.19983
33
-123.20498
0
3DFACE
8
0
10
-32.0
20
-33.219704
30
-173.20508
11
-34.0
21
-32.80007
31
-173.20508
12
-34.0
22
-67.19993
32
-123.20508
13
-33.9999
23
-67.19983
33
-123.20498
0
3DFACE
8
0
10
-32.0
20
-33.219704
30
-173.20508
11
-34.0
21
-67.19993
31
-123.20508
12
-32.0
22
-66.7803
32
-123.20508
13
-31.9999
23
-66.7802
33
-123.20498
0
3DFACE
8
0
10
-30.0
20
-33.463852
30
-173.20508
11
-32.0
21
-33.219704
31
-173.20508
12
-32.0
22
-66.7803
32
-123.20508
13
-31.9999
23
-66.7802
33
-123.20498
0
3DFACE
8
0
10
-30.0
20
-33.463852
30
-173.20508
11
-32.0
21
-66.7803
31
-123.20508
12
-30.0
22
-66.53615
32
-123.20508
13
-29.9999
23
-66.53605
33
-123.20498
0
3DFACE
8
0
10
-28.0
20
-33.418076
30
-173.20508
11
-30.0
21
-33.463852
31
-173.20508
12
-30.0
22
-66.53615
32
-123.20508
13
-29.9999
23
-66.53605
33
-123.20498
0
3DFACE
8
0
10
-28.0
20
-33.418076
30
-173.20508
11
-30.0
21
-66.53615
31
-123.20508
12
-28.0
22
-66.581924
32
-123.20508
13
-27.9999
23
-66.581825
33
-123.20498
0
3DFACE
8
0
10
-26.0
20
-33.173927
30
-173.20508
11
-28.0
21
-33.418076
31
-173.20508
12
-28.0
22
-66.581924
32
-123.20508
13
-27.9999
23
-66.581825
33
-123.20498
0
3DFACE
8
0
10
-26.0
20
-33.173927
30
-173.20508
11
-28.0
21
-66.581924
31
-123.20508
12
-26.0
22
-66.82607
32
-123.20508
13
-25.9999
23
-66.82597
33
-123.20498
0
3DFACE
8
0
10
-24.0
20
-32.792442
30
-173.20508
11
-26.0
21
-33.173927
31
-173.20508
12
-26.0
22
-66.82607
32
-123.20508
13
-25.9999
23
-66.82597
33
-123.20498
0
3DFACE
8
0
10
-24.0
20
-32.792442
30
-173.20508
11
-26.0
21
-66.82607
31
-123.20508
12
-24.0
22
-67.20756
32
-123.20508
13
-23.9999
23
-67.20746
33
-123.20498
0
3DFACE
8
0
10
-22.0
20
-32.220222
30
-173.20508
11
-24.0
21
-32.792442
31
-173.20508
12
-24.0
22
-67.20756
32
-123.20508
13
-23.9999
23
-67.20746
33
-123.20498
0
3DFACE
8
0
10
-22.0
20
-32.220222
30
-173.20508
11
-24.0
21
-67.20756
31
-123.20508
12
-22.0
22
-67.77978
32
-123.20508
13
-21.9999
23
-67.77968
33
-123.20498
0
3DFACE
8
0
10
-20.0
20
-31.67852
30
-173.20508
11
-22.0
21
-32.220222
31
-173.20508
12
-22.0
22
-67.77978
32
-123.20508
13
-21.9999
23
-67.77968
33
-123.20498
0
3DFACE
8
0
10
-20.0
20
-31.67852
30
-173.20508
11
-22.0
21
-67.77978
31
-123.20508
12
-20.0
22
-68.32148
32
-123.20508
13
-19.9999
23
-68.32138
33
-123.20498
0
3DFACE
8
0
10
-18.0
20
-31.174965
30
-173.20508
11
-20.0
21
-31.67852
31
-173.20508
12
-20.0
22
-68.32148
32
-123.20508
13
-19.9999
23
-68.32138
33
-123.20498
0
3DFACE
8
0
10
-18.0
20
-31.174965
30
-173.20508
11
-20.0
21
-68.32148
31
-123.20508
12
-18.0
22
-68.825035
32
-123.20508
13
-17.9999
23
-68.824936
33
-123.20498
0
3DFACE
8
0
10
-16.0
20
-30.549332
30
-173.20508
11
-18.0
21
-31.174965
31
-173.20508
12
-18.0
22
-68.825035
32
-123.20508
13
-17.9999
23
-68.824936
33
-123.20498
0
3DFACE
8
0
10
-16.0
20
-30.549332
30
-173.20508
11
-18.0
21
-68.825035
31
-123.20508
12
-16.0
22
-69.45067
32
-123.20508
13
-15.9999
23
-69.45057
33
-123.20498
0
3DFACE
8
0
10
-14.0
20
-29.954224
30
-173.20508
11
-16.0
21
-30.549332
31
-173.20508
12
-16.0
22
-69.45067
32
-123.20508
13
-15.9999
23
-69.45057
33
-123.20498
0
3DFACE
8
0
10
-14.0
20
-29.954224
30
-173.20508
11
-16.0
21
-69.45067
31
-123.20508
12
-14.0
22
-70.04578
32
-123.20508
13
-13.9999
23
-70.04568
33
-123.20498
0
3DFACE
8
0
10
-12.0
20
-29.526962
30
-173.20508
11
-14.0
21
-29.954224
31
-173.20508
12
-14.0
22
-70.04578
32
-123.20508
13
-13.9999
23
-70.04568
33
-123.20498
0
3DFACE
8
0
10
-12.0
20
-29.526962
30
-173.20508
11
-14.0
21
-70.04578
31
-123.20508
12
-12.0
22
-70.47304
32
-123.20508
13
-11.9999
23
-70.47294
33
-123.20498
0
3DFACE
8
0
10
-10.0
20
-29.12259
30
-173.20508
11
-12.0
21
-29.526962
31
-173.20508
12
-12.0
22
-70.47304
32
-123.20508
13
-11.9999
23
-70.47294
33
-123.20498
0
3DFACE
8
0
10
-10.0
20
-29.12259
30
-173.20508
11
-12.0
21
-70.47304
31
-123.20508
12
-10.0
22
-70.87741
32
-123.20508
13
-9.9999
23
-70.87731
33
-123.20498
0
3DFACE
8
0
10
-8.0
20
-28.878448
30
-173.20508
11
-10.0
21
-29.12259
31
-173.20508
12
-10.0
22
-70.87741
32
-123.20508
13
-9.9999
23
-70.87731
33
-123.20498
0
3DFACE
8
0
10
-8.0
20
-28.878448
30
-173.20508
11
-10.0
21
-70.87741
31
-123.20508
12
-8.0
22
-71.12155
32
-123.20508
13
-7.9999
23
-71.12145
33
-123.20498
0
3DFACE
8
0
10
-6.0
20
-28.786888
30
-173.20508
11
-8.0
21
-28.878448
31
-173.20508
12
-8.0
22
-71.12155
32
-123.20508
13
-7.9999
23
-71.12145
33
-123.20498
0
3DFACE
8
0
10
-6.0
20
-28.786888
30
-173.20508
11
-8.0
21
-71.12155
31
-123.20508
12
-6.0
22
-71.21311
32
-123.20508
13
-5.9999
23
-71.21301
33
-123.20498
0
3DFACE
8
0
10
-4.0
20
-28.87082
30
-173.20508
11
-6.0
21
-28.786888
31
-173.20508
12
-6.0
22
-71.21311
32
-123.20508
13
-5.9999
23
-71.21301
33
-123.20498
0
3DFACE
8
0
10
-4.0
20
-28.87082
30
-173.20508
11
-6.0
21
-71.21311
31
-123.20508
12
-4.0
22
-71.12918
32
-123.20508
13
-3.9999
23
-71.12908
33
-123.20498
0
3DFACE
8
0
10
-2.0
20
-29.183632
30
-173.20508
11
-4.0
21
-28.87082
31
-173.20508
12
-4.0
22
-71.12918
32
-123.20508
13
-3.9999
23
-71.12908
33
-123.20498
0
3DFACE
8
0
10
-2.0
20
-29.183632
30
-173.20508
11
-4.0
21
-71.12918
31
-123.20508
12
-2.0
22
-70.81637
32
-123.20508
13
-1.9999
23
-70.81627
33
-123.20498
0
3DFACE
8
0
10
0.0
20
-29.56511
30
-173.20508
11
-2.0
21
-29.183632
31
-173.20508
12
-2.0
22
-70.81637
32
-123.20508
13
-1.9999
23
-70.81627
33
-123.20498
0
3DFACE
8
0
10
0.0
20
-29.56511
30
-173.20508
11
-2.0
21
-70.81637
31
-123.20508
12
0.0
22
-70.43489
32
-123.20508
13
1.0E-4
23
-70.43479
33
-123.20498
0
3DFACE
8
0
10
2.0
20
-30.030518
30
-173.20508
11
0.0
21
-29.56511
31
-173.20508
12
0.0
22
-70.43489
32
-123.20508
13
1.0E-4
23
-70.43479
33
-123.20498
0
3DFACE
8
0
10
2.0
20
-30.030518
30
-173.20508
11
0.0
21
-70.43489
31
-123.20508
12
2.0
22
-69.96948
32
-123.20508
13
2.0001
23
-69.96938
33
-123.20498
0
3DFACE
8
0
10
4.0
20
-30.679039
30
-173.20508
11
2.0
21
-30.030518
31
-173.20508
12
2.0
22
-69.96948
32
-123.20508
13
2.0001
23
-69.96938
33
-123.20498
0
3DFACE
8
0
10
4.0
20
-30.679039
30
-173.20508
11
2.0
21
-69.96948
31
-123.20508
12
4.0
22
-69.32096
32
-123.20508
13
4.0001
23
-69.32086
33
-123.20498
0
3DFACE
8
0
10
6.0
20
-31.190224
30
-173.20508
11
4.0
21
-30.679039
31
-173.20508
12
4.0
22
-69.32096
32
-123.20508
13
4.0001
23
-69.32086
33
-123.20498
0
3DFACE
8
0
10
6.0
20
-31.190224
30
-173.20508
11
4.0
21
-69.32096
31
-123.20508
12
6.0
22
-68.80978
32
-123.20508
13
6.0001
23
-68.80968
33
-123.20498
0
3DFACE
8
0
10
8.0
20
-31.724297
30
-173.20508
11
6.0
21
-31.190224
31
-173.20508
12
6.0
22
-68.80978
32
-123.20508
13
6.0001
23
-68.80968
33
-123.20498
0
3DFACE
8
0
10
8.0
20
-31.724297
30
-173.20508
11
6.0
21
-68.80978
31
-123.20508
12
8.0
22
-68.2757
32
-123.20508
13
8.0001
23
-68.275604
33
-123.20498
0
3DFACE
8
0
10
10.0
20
-32.281258
30
-173.20508
11
8.0
21
-31.724297
31
-173.20508
12
8.0
22
-68.2757
32
-123.20508
13
8.0001
23
-68.275604
33
-123.20498
0
3DFACE
8
0
10
10.0
20
-32.281258
30
-173.20508
11
8.0
21
-68.2757
31
-123.20508
12
10.0
22
-67.71874
32
-123.20508
13
10.0001
23
-67.71864
33
-123.20498
0
3DFACE
8
0
10
12.0
20
-32.655106
30
-173.20508
11
10.0
21
-32.281258
31
-173.20508
12
10.0
22
-67.71874
32
-123.20508
13
10.0001
23
-67.71864
33
-123.20498
0
3DFACE
8
0
10
12.0
20
-32.655106
30
-173.20508
11
10.0
21
-67.71874
31
-123.20508
12
12.0
22
-67.344894
32
-123.20508
13
12.0001
23
-67.344795
33
-123.20498
0
3DFACE
8
0
10
14.0
20
-32.769554
30
-173.20508
11
12.0
21
-32.655106
31
-173.20508
12
12.0
22
-67.344894
32
-123.20508
13
12.0001
23
-67.344795
33
-123.20498
0
3DFACE
8
0
10
14.0
20
-32.769554
30
-173.20508
11
12.0
21
-67.344894
31
-123.20508
12
14.0
22
-67.230446
32
-123.20508
13
14.0001
23
-67.23035
33
-123.20498
0
3DFACE
8
0
10
16.0
20
-32.678
30
-173.20508
11
14.0
21
-32.769554
31
-173.20508
12
14.0
22
-67.230446
32
-123.20508
13
14.0001
23
-67.23035
33
-123.20498
0
3DFACE
8
0
10
16.0
20
-32.678
30
-173.20508
11
14.0
21
-67.230446
31
-123.20508
12
16.0
22
-67.322
32
-123.20508
13
16.0001
23
-67.3219
33
-123.20498
0
3DFACE
8
0
10
18.0
20
-32.25837
30
-173.20508
11
16.0
21
-32.678
31
-173.20508
12
16.0
22
-67.322
32
-123.20508
13
16.0001
23
-67.3219
33
-123.20498
0
3DFACE
8
0
10
18.0
20
-32.25837
30
-173.20508
11
16.0
21
-67.322
31
-123.20508
12
18.0
22
-67.74163
32
-123.20508
13
18.0001
23
-67.74153
33
-123.20498
0
3DFACE
8
0
10
20.0
20
-31.655624
30
-173.20508
11
18.0
21
-32.25837
31
-173.20508
12
18.0
22
-67.74163
32
-123.20508
13
18.0001
23
-67.74153
33
-123.20498
0
3DFACE
8
0
10
20.0
20
-31.655624
30
-173.20508
11
18.0
21
-67.74163
31
-123.20508
12
20.0
22
-68.344376
32
-123.20508
13
20.0001
23
-68.34428
33
-123.20498
0
3DFACE
8
0
10
22.0
20
-30.907928
30
-173.20508
11
20.0
21
-31.655624
31
-173.20508
12
20.0
22
-68.344376
32
-123.20508
13
20.0001
23
-68.34428
33
-123.20498
0
3DFACE
8
0
10
22.0
20
-30.907928
30
-173.20508
11
20.0
21
-68.344376
31
-123.20508
12
22.0
22
-69.09207
32
-123.20508
13
22.0001
23
-69.09197
33
-123.20498
0
3DFACE
8
0
10
24.0
20
-30.1297
30
-173.20508
11
22.0
21
-30.907928
31
-173.20508
12
22.0
22
-69.09207
32
-123.20508
13
22.0001
23
-69.09197
33
-123.20498
0
3DFACE
8
0
10
24.0
20
-30.1297
30
-173.20508
11
22.0
21
-69.09207
31
-123.20508
12
24.0
22
-69.8703
32
-123.20508
13
24.0001
23
-69.8702
33
-123.20498
0
3DFACE
8
0
10
26.0
20
-29.404892
30
-173.20508
11
24.0
21
-30.1297
31
-173.20508
12
24.0
22
-69.8703
32
-123.20508
13
24.0001
23
-69.8702
33
-123.20498
0
3DFACE
8
0
10
26.0
20
-29.404892
30
-173.20508
11
24.0
21
-69.8703
31
-123.20508
12
26.0
22
-70.59511
32
-123.20508
13
26.0001
23
-70.59501
33
-123.20498
0
3DFACE
8
0
10
28.0
20
-28.626663
30
-173.20508
11
26.0
21
-29.404892
31
-173.20508
12
26.0
22
-70.59511
32
-123.20508
13
26.0001
23
-70.59501
33
-123.20498
0
3DFACE
8
0
10
28.0
20
-28.626663
30
-173.20508
11
26.0
21
-70.59511
31
-123.20508
12
28.0
22
-71.37334
32
-123.20508
13
28.0001
23
-71.37324
33
-123.20498
0
3DFACE
8
0
10
30.0
20
-27.97815
30
-173.20508
11
28.0
21
-28.626663
31
-173.20508
12
28.0
22
-71.37334
32
-123.20508
13
28.0001
23
-71.37324
33
-123.20498
0
3DFACE
8
0
10
30.0
20
-27.97815
30
-173.20508
11
28.0
21
-71.37334
31
-123.20508
12
30.0
22
-72.02185
32
-123.20508
13
30.0001
23
-72.02175
33
-123.20498
0
3DFACE
8
0
10
32.0
20
-27.543259
30
-173.20508
11
30.0
21
-27.97815
31
-173.20508
12
30.0
22
-72.02185
32
-123.20508
13
30.0001
23
-72.02175
33
-123.20498
0
3DFACE
8
0
10
32.0
20
-27.543259
30
-173.20508
11
30.0
21
-72.02185
31
-123.20508
12
32.0
22
-72.45674
32
-123.20508
13
32.0001
23
-72.45664
33
-123.20498
0
3DFACE
8
0
10
34.0
20
-27.29911
30
-173.20508
11
32.0
21
-27.543259
31
-173.20508
12
32.0
22
-72.45674
32
-123.20508
13
32.0001
23
-72.45664
33
-123.20498
0
3DFACE
8
0
10
34.0
20
-27.29911
30
-173.20508
11
32.0
21
-72.45674
31
-123.20508
12
34.0
22
-72.70089
32
-123.20508
13
34.0001
23
-72.70079
33
-123.20498
0
3DFACE
8
0
10
36.0
20
-27.329628
30
-173.20508
11
34.0
21
-27.29911
31
-173.20508
12
34.0
22
-72.70089
32
-123.20508
13
34.0001
23
-72.70079
33
-123.20498
0
3DFACE
8
0
10
36.0
20
-27.329628
30
-173.20508
11
34.0
21
-72.70089
31
-123.20508
12
36.0
22
-72.67037
32
-123.20508
13
36.0001
23
-72.67027
33
-123.20498
0
3DFACE
8
0
10
38.0
20
-27.589035
30
-173.20508
11
36.0
21
-27.329628
31
-173.20508
12
36.0
22
-72.67037
32
-123.20508
13
36.0001
23
-72.67027
33
-123.20498
0
3DFACE
8
0
10
38.0
20
-27.589035
30
-173.20508
11
36.0
21
-72.67037
31
-123.20508
12
38.0
22
-72.410965
32
-123.20508
13
38.0001
23
-72.410866
33
-123.20498
0
3DFACE
8
0
10
40.0
20
-27.96289
30
-173.20508
11
38.0
21
-27.589035
31
-173.20508
12
38.0
22
-72.410965
32
-123.20508
13
38.0001
23
-72.410866
33
-123.20498
0
3DFACE
8
0
10
40.0
20
-27.96289
30
-173.20508
11
38.0
21
-72.410965
31
-123.20508
12
40.0
22
-72.03711
32
-123.20508
13
40.0001
23
-72.03701
33
-123.20498
0
3DFACE
8
0
10
42.0
20
-28.54274
30
-173.20508
11
40.0
21
-27.96289
31
-173.20508
12
40.0
22
-72.03711
32
-123.20508
13
40.0001
23
-72.03701
33
-123.20498
0
3DFACE
8
0
10
42.0
20
-28.54274
30
-173.20508
11
40.0
21
-72.03711
31
-123.20508
12
42.0
22
-71.45726
32
-123.20508
13
42.0001
23
-71.45716
33
-123.20498
0
ENDSEC
0
EOF
